<svg width="60" height="59" viewBox="0 0 60 59" fill="none" xmlns="http://www.w3.org/2000/svg">
<path d="M53.8125 21.9033C53.3235 21.9033 52.8545 22.0943 52.5088 22.4342C52.163 22.7741 51.9688 23.2351 51.9688 23.7158V49.0908C51.9671 50.5324 51.3838 51.9145 50.3469 52.9339C49.3099 53.9533 47.904 54.5267 46.4375 54.5283H9.5625C8.09603 54.5267 6.6901 53.9533 5.65315 52.9339C4.6162 51.9145 4.03291 50.5324 4.03125 49.0908V12.8408C4.03291 11.3992 4.6162 10.0171 5.65315 8.99773C6.6901 7.97835 8.09603 7.40495 9.5625 7.40332H35.375C35.864 7.40332 36.333 7.21236 36.6787 6.87245C37.0245 6.53254 37.2188 6.07153 37.2188 5.59082C37.2188 5.11012 37.0245 4.6491 36.6787 4.30919C36.333 3.96928 35.864 3.77832 35.375 3.77832H9.5625C7.11831 3.78082 4.77496 4.73641 3.04666 6.43542C1.31836 8.13443 0.346288 10.4381 0.34375 12.8408V49.0908C0.346288 51.4936 1.31836 53.7972 3.04666 55.4962C4.77496 57.1952 7.11831 58.1508 9.5625 58.1533H46.4375C48.8817 58.1508 51.225 57.1952 52.9533 55.4962C54.6816 53.7972 55.6537 51.4936 55.6562 49.0908V23.7158C55.6562 23.2351 55.462 22.7741 55.1162 22.4342C54.7705 22.0943 54.3015 21.9033 53.8125 21.9033Z" fill="#8D71D6"/>
<g clip-path="url(#clip0_1636_1419)">
<path d="M29.9004 36.4331C29.9004 36.0834 29.6169 35.7998 29.2671 35.7998C28.9174 35.7998 28.6338 36.0834 28.6338 36.4331V38.9664C28.6338 39.3164 28.9174 39.5997 29.2671 39.5997C29.6169 39.5997 29.9004 39.3164 29.9004 38.9664V36.4331Z" fill="#8D71D6"/>
<path d="M32.4336 36.4331C32.4336 36.0834 32.1501 35.7998 31.8003 35.7998C31.4506 35.7998 31.167 36.0834 31.167 36.4331V38.9664C31.167 39.3164 31.4506 39.5997 31.8003 39.5997C32.1501 39.5997 32.4336 39.3164 32.4336 38.9664V36.4331Z" fill="#8D71D6"/>
<path d="M33.7002 36.4331V38.9664C33.7002 39.3164 33.9838 39.5997 34.3335 39.5997C34.6833 39.5997 34.9668 39.3164 34.9668 38.9664V36.4331C34.9668 36.0834 34.6833 35.7998 34.3335 35.7998C33.9838 35.7998 33.7002 36.0834 33.7002 36.4331Z" fill="#8D71D6"/>
<path d="M36.2334 38.9664C36.2334 39.3164 36.517 39.5997 36.8667 39.5997C37.2165 39.5997 37.5 39.3164 37.5 38.9664V36.4331C37.5 36.0834 37.2165 35.7998 36.8667 35.7998C36.517 35.7998 36.2334 36.0834 36.2334 36.4331V38.9664Z" fill="#8D71D6"/>
<path d="M19.7676 36.4331C19.7676 36.0834 19.484 35.7998 19.1343 35.7998C18.7845 35.7998 18.501 36.0834 18.501 36.4331V38.9664C18.501 39.3164 18.7845 39.5997 19.1343 39.5997C19.484 39.5997 19.7676 39.3164 19.7676 38.9664V36.4331Z" fill="#8D71D6"/>
<path d="M22.3008 36.4331C22.3008 36.0834 22.0172 35.7998 21.6675 35.7998C21.3177 35.7998 21.0342 36.0834 21.0342 36.4331V38.9664C21.0342 39.3164 21.3177 39.5997 21.6675 39.5997C22.0172 39.5997 22.3008 39.3164 22.3008 38.9664V36.4331Z" fill="#8D71D6"/>
<path d="M24.834 36.4331C24.834 36.0834 24.5504 35.7998 24.2007 35.7998C23.851 35.7998 23.5674 36.0834 23.5674 36.4331V38.9664C23.5674 39.3164 23.851 39.5997 24.2007 39.5997C24.5504 39.5997 24.834 39.3164 24.834 38.9664V36.4331Z" fill="#8D71D6"/>
<path d="M27.3672 36.4331C27.3672 36.0834 27.0836 35.7998 26.7339 35.7998C26.3842 35.7998 26.1006 36.0834 26.1006 36.4331V38.9664C26.1006 39.3164 26.3842 39.5997 26.7339 39.5997C27.0836 39.5997 27.3672 39.3164 27.3672 38.9664V36.4331Z" fill="#8D71D6"/>
<path d="M28.0005 33.2667C28.3502 33.2667 28.6338 32.9834 28.6338 32.6334V30.1001C28.6338 29.7504 28.3502 29.4668 28.0005 29.4668C27.6508 29.4668 27.3672 29.7504 27.3672 30.1001V32.6334C27.3672 32.9834 27.6508 33.2667 28.0005 33.2667Z" fill="#8D71D6"/>
<path d="M30.5337 33.2667C30.8835 33.2667 31.167 32.9834 31.167 32.6334V30.1001C31.167 29.7504 30.8835 29.4668 30.5337 29.4668C30.184 29.4668 29.9004 29.7504 29.9004 30.1001V32.6334C29.9004 32.9834 30.184 33.2667 30.5337 33.2667Z" fill="#8D71D6"/>
<path d="M33.0669 33.2667C33.4167 33.2667 33.7002 32.9834 33.7002 32.6334V30.1001C33.7002 29.7504 33.4167 29.4668 33.0669 29.4668C32.7172 29.4668 32.4336 29.7504 32.4336 30.1001V32.6334C32.4336 32.9834 32.7172 33.2667 33.0669 33.2667Z" fill="#8D71D6"/>
<path d="M35.6001 33.2667C35.9499 33.2667 36.2334 32.9834 36.2334 32.6334V30.1001C36.2334 29.7504 35.9499 29.4668 35.6001 29.4668C35.2504 29.4668 34.9668 29.7504 34.9668 30.1001V32.6334C34.9668 32.9834 35.2504 33.2667 35.6001 33.2667Z" fill="#8D71D6"/>
<path d="M38.1333 33.2667C38.4831 33.2667 38.7666 32.9834 38.7666 32.6334V30.1001C38.7666 29.7504 38.4831 29.4668 38.1333 29.4668C37.7836 29.4668 37.5 29.7504 37.5 30.1001V32.6334C37.5 32.9834 37.7836 33.2667 38.1333 33.2667Z" fill="#8D71D6"/>
<path d="M30.5337 42.1338C30.184 42.1338 29.9004 42.4174 29.9004 42.7671V45.3004C29.9004 45.6504 30.184 45.9337 30.5337 45.9337C30.8835 45.9337 31.167 45.6504 31.167 45.3004V42.7671C31.167 42.4174 30.8835 42.1338 30.5337 42.1338Z" fill="#8D71D6"/>
<path d="M33.0669 42.1338C32.7172 42.1338 32.4336 42.4174 32.4336 42.7671V45.3004C32.4336 45.6504 32.7172 45.9337 33.0669 45.9337C33.4167 45.9337 33.7002 45.6504 33.7002 45.3004V42.7671C33.7002 42.4174 33.4167 42.1338 33.0669 42.1338Z" fill="#8D71D6"/>
<path d="M35.6001 42.1338C35.2504 42.1338 34.9668 42.4174 34.9668 42.7671V45.3004C34.9668 45.6504 35.2504 45.9337 35.6001 45.9337C35.9499 45.9337 36.2334 45.6504 36.2334 45.3004V42.7671C36.2334 42.4174 35.9499 42.1338 35.6001 42.1338Z" fill="#8D71D6"/>
<path d="M20.4009 42.1338C20.0511 42.1338 19.7676 42.4174 19.7676 42.7671V45.3004C19.7676 45.6504 20.0511 45.9337 20.4009 45.9337C20.7506 45.9337 21.0342 45.6504 21.0342 45.3004V42.7671C21.0342 42.4174 20.7506 42.1338 20.4009 42.1338Z" fill="#8D71D6"/>
<path d="M22.9341 42.1338C22.5844 42.1338 22.3008 42.4174 22.3008 42.7671V45.3004C22.3008 45.6504 22.5844 45.9337 22.9341 45.9337C23.2838 45.9337 23.5674 45.6504 23.5674 45.3004V42.7671C23.5674 42.4174 23.2838 42.1338 22.9341 42.1338Z" fill="#8D71D6"/>
<path d="M25.4673 42.1338C25.1176 42.1338 24.834 42.4174 24.834 42.7671V45.3004C24.834 45.6504 25.1176 45.9337 25.4673 45.9337C25.817 45.9337 26.1006 45.6504 26.1006 45.3004V42.7671C26.1006 42.4174 25.817 42.1338 25.4673 42.1338Z" fill="#8D71D6"/>
<path d="M28.0005 42.1338C27.6508 42.1338 27.3672 42.4174 27.3672 42.7671V45.3004C27.3672 45.6504 27.6508 45.9337 28.0005 45.9337C28.3502 45.9337 28.6338 45.6504 28.6338 45.3004V42.7671C28.6338 42.4174 28.3502 42.1338 28.0005 42.1338Z" fill="#8D71D6"/>
<path d="M43.8333 21.8675H42.8719C42.34 20.3664 41.2045 19.1561 39.7399 18.5299C37.9708 15.0878 34.4034 12.9454 30.5336 13.0011C27.3606 12.9738 24.3499 14.4019 22.3639 16.8764C22.3005 16.8696 22.2372 16.8662 22.1738 16.86C22.0856 16.8517 21.9984 16.8442 21.9097 16.8378C21.6165 16.8164 21.324 16.801 21.0339 16.801C16.8033 16.801 13.3117 19.0222 12.8546 21.8675H12.1675C11.8177 21.8675 11.5342 22.151 11.5342 22.5008V25.0341C11.5342 25.3841 11.8177 25.6674 12.1675 25.6674H12.8886L16.6075 50.4607C16.6539 50.7705 16.9205 51 17.234 51H38.7668C39.0803 51 39.3466 50.7705 39.393 50.4607L43.1118 25.6674H43.8333C44.183 25.6674 44.4666 25.3841 44.4666 25.0341V22.5008C44.4666 22.151 44.183 21.8675 43.8333 21.8675ZM21.8426 18.1007C21.9827 18.1115 22.1224 18.1297 22.2631 18.1461C23.9933 18.2825 25.6301 18.9869 26.9187 20.1494C27.0773 20.3142 27.3126 20.3807 27.5344 20.3228C27.7558 20.2653 27.929 20.0928 27.9871 19.8714C28.0455 19.6499 27.9797 19.4143 27.8155 19.2551C26.6957 18.2009 25.3116 17.4692 23.8096 17.138C25.5549 15.2885 27.9908 14.2488 30.5336 14.2677C33.5079 14.2324 36.3089 15.6642 38.0218 18.0963C37.3687 18.0367 36.7103 18.0898 36.0752 18.2531C35.7362 18.3406 35.5325 18.6864 35.62 19.025C35.7075 19.3636 36.0529 19.5674 36.3918 19.4799C37.2481 19.2532 38.1526 19.2888 38.9885 19.5819C39.0086 19.5961 39.0296 19.6088 39.0516 19.6199C40.1249 20.0247 40.9991 20.8306 41.4899 21.8675H14.1472C14.158 21.8189 14.1686 21.7695 14.1819 21.7212C14.1986 21.6625 14.2149 21.6034 14.235 21.5453C14.2632 21.4636 14.2984 21.3838 14.3328 21.3041C14.3569 21.249 14.3788 21.1937 14.4067 21.1398C14.4487 21.057 14.4979 20.976 14.5474 20.8949C14.5771 20.8473 14.6037 20.7978 14.6355 20.7505C14.6989 20.6587 14.7685 20.5693 14.8405 20.4806C14.8671 20.4478 14.8906 20.4128 14.9185 20.3801C15.0239 20.2573 15.1359 20.1404 15.2537 20.0297C15.279 20.0056 15.3087 19.983 15.3353 19.9589C15.4321 19.8714 15.5311 19.7854 15.6374 19.7022C15.686 19.6636 15.7398 19.6283 15.7911 19.5909C15.8805 19.5275 15.9705 19.4604 16.066 19.4007C16.1294 19.3608 16.1928 19.3243 16.2562 19.2863C16.3487 19.2306 16.4411 19.1753 16.5379 19.1227C16.6075 19.0856 16.6793 19.0506 16.7507 19.0151C16.8481 18.9665 16.9464 18.9189 17.0479 18.8731C17.1236 18.8397 17.2009 18.8101 17.2795 18.7751C17.3821 18.7334 17.4867 18.6922 17.5961 18.6536C17.6772 18.6245 17.7597 18.5951 17.8426 18.5679C17.9521 18.5321 18.0637 18.4984 18.1763 18.4656C18.2613 18.4415 18.346 18.4167 18.4335 18.3944C18.5498 18.3641 18.6689 18.3375 18.7889 18.3116C18.8761 18.2924 18.9623 18.2729 19.0508 18.2559C19.1776 18.2318 19.3044 18.212 19.4367 18.1925C19.5221 18.1798 19.6065 18.1653 19.6931 18.1545C19.8381 18.1362 19.9862 18.1236 20.1365 18.1115C20.2104 18.105 20.2834 18.0963 20.3579 18.0917C20.5766 18.0759 20.8038 18.0676 21.0339 18.0676C21.306 18.0676 21.576 18.0803 21.8426 18.1007ZM33.4544 24.4502L28.296 26.7441L26.4916 23.1341H36.4159L33.4544 24.4502ZM24.8338 30.1006V30.7339H18.5007V23.1341H24.8338V30.1006ZM18.5007 32.6338V32.0005H24.8338V33.2672H18.5007V32.6338ZM12.8008 23.1341H17.234V24.4007H12.8008V23.1341ZM38.2213 49.7334H17.7792L14.1692 25.6674H17.234V33.9005C17.234 34.2505 17.5176 34.5338 17.8673 34.5338H25.4671C25.8169 34.5338 26.1004 34.2505 26.1004 33.9005V25.1837L27.4336 27.8506C27.5848 28.1533 27.9475 28.2835 28.2567 28.1462L33.8351 25.6674H41.8313L38.2213 49.7334ZM43.2 24.4007H36.685L39.5349 23.1341H43.2V24.4007Z" fill="#8D71D6"/>
</g>
<path d="M58.2935 7.28524C56.8652 6.70441 55.566 5.85474 54.4692 4.78399C53.3795 3.70478 52.514 2.42722 51.9212 1.02269C51.76 0.714671 51.5156 0.456269 51.2148 0.275858C50.914 0.0954457 50.5684 0 50.2161 0C49.8637 0 49.5182 0.0954457 49.2174 0.275858C48.9166 0.456269 48.6722 0.714671 48.511 1.02269C47.925 2.42889 47.0601 3.7063 45.9666 4.78036C44.8708 5.85312 43.5715 6.70404 42.1423 7.28488C41.8044 7.42154 41.5153 7.65385 41.312 7.95229C41.1086 8.25073 41 8.60186 41 8.96108C41 9.3203 41.1086 9.67142 41.312 9.96986C41.5153 10.2683 41.8044 10.5006 42.1423 10.6373C43.5731 11.2149 44.873 12.0659 45.9669 13.141C47.0607 14.216 47.9267 15.4938 48.5147 16.9002C48.6539 17.2323 48.8903 17.5163 49.194 17.7161C49.4977 17.9159 49.855 18.0224 50.2204 18.0222C50.5858 18.022 50.9429 17.9151 51.2464 17.715C51.5499 17.5149 51.786 17.2307 51.9249 16.8984C52.5108 15.4922 53.3757 14.2148 54.4692 13.1407C55.5652 12.0685 56.8645 11.218 58.2935 10.6376C58.6315 10.501 58.9205 10.2687 59.1239 9.97023C59.3272 9.67179 59.4358 9.32066 59.4358 8.96144C59.4358 8.60222 59.3272 8.25109 59.1239 7.95265C58.9205 7.65421 58.6315 7.42191 58.2935 7.28524ZM51.8622 10.5811C51.2598 11.1726 50.7082 11.8119 50.2128 12.4926C49.2273 11.1276 48.0167 9.93415 46.6311 8.96144C47.3228 8.47559 47.9721 7.93383 48.5722 7.34179C49.1746 6.7504 49.7263 6.11107 50.2216 5.43033C50.714 6.11178 51.2632 6.75175 51.8636 7.3436C52.4642 7.93456 53.1135 8.47568 53.8047 8.96144C53.113 9.44729 52.4622 9.98905 51.8622 10.5811Z" fill="#8D71D6"/>
<defs>
<clipPath id="clip0_1636_1419">
<rect width="38" height="38" fill="white" transform="translate(9 13)"/>
</clipPath>
</defs>
</svg>
