<svg width="74" height="73" viewBox="0 0 74 73" fill="none" xmlns="http://www.w3.org/2000/svg">
<g clip-path="url(#clip0_1598_14243)">
<path d="M39.4554 49.6089C39.1898 49.7516 38.9926 49.9924 38.907 50.2785C38.8215 50.5646 38.8546 50.8724 38.9991 51.1344C39.6752 52.3342 39.9643 53.7088 39.828 55.0749C39.3804 57.3325 38.5534 59.5004 37.3809 61.4889C37.1878 61.1349 36.9794 60.7389 36.7726 60.3129C35.8811 58.6715 35.2648 56.8986 34.9476 55.0629C34.8107 53.6971 35.1005 52.3227 35.778 51.1239C35.9188 50.862 35.9492 50.5559 35.8625 50.2721C35.7758 49.9882 35.579 49.7496 35.3149 49.6081C35.0508 49.4666 34.7407 49.4336 34.4521 49.5164C34.1635 49.5991 33.9196 49.7908 33.7735 50.0499C32.8725 51.6525 32.4909 53.4889 32.68 55.3119C33.0188 57.4084 33.7079 59.435 34.7195 61.3089C35.5788 63.0369 36.3818 64.3089 36.4152 64.3554C36.518 64.5165 36.6605 64.6492 36.8293 64.7413C36.9982 64.8334 37.188 64.8818 37.3809 64.8819C37.5741 64.882 37.7642 64.8336 37.9331 64.7412C38.1021 64.6488 38.2444 64.5156 38.3467 64.3539C38.4835 64.1409 41.6636 59.1039 42.0925 55.3224C42.2811 53.4998 41.9006 51.6639 41.002 50.0604C40.8573 49.7985 40.6133 49.604 40.3233 49.5193C40.0334 49.4347 39.7213 49.4669 39.4554 49.6089Z" fill="#8D71D6"/>
<path d="M49.1579 51.4401C49.3663 51.6188 49.6331 51.7173 49.9092 51.7176C49.9858 51.7175 50.0623 51.71 50.1374 51.6951C50.3095 51.6603 50.4713 51.5869 50.61 51.4805C50.7487 51.3741 50.8607 51.2376 50.9373 51.0816C52.5078 47.2902 52.8939 43.1224 52.046 39.1131C51.7529 37.4248 51.2992 35.7675 50.6909 34.1631C50.5798 33.8846 50.3611 33.6611 50.0829 33.5417C49.8046 33.4222 49.4897 33.4167 49.2074 33.5263C48.925 33.6359 48.6984 33.8517 48.5773 34.1261C48.4562 34.4005 48.4506 34.7111 48.5618 34.9896C49.1168 36.4605 49.5302 37.9797 49.7967 39.5271C50.3929 42.5599 50.2554 45.6886 49.3952 48.6591L44.4175 44.3676C46.0904 38.9121 49.5336 25.7811 47.3755 16.2036C45.8894 10.3343 42.667 5.03363 38.1182 0.975582C37.9144 0.804672 37.6561 0.709957 37.3886 0.708038C37.1211 0.706118 36.8615 0.797115 36.6552 0.965082C32.031 4.97842 28.7885 10.3123 27.3781 16.2261C25.3447 26.0121 28.7042 38.9616 30.3452 44.3676L25.366 48.6636C24.5062 45.693 24.3687 42.5644 24.9645 39.5316C25.2566 37.9862 25.7329 36.4802 26.3835 35.0451C26.496 34.7749 26.4978 34.4722 26.3885 34.2008C26.2791 33.9294 26.0672 33.7104 25.7973 33.5902C25.5274 33.47 25.2207 33.4578 24.942 33.5563C24.6632 33.6548 24.4341 33.8562 24.303 34.1181C23.577 35.7144 23.044 37.3894 22.7152 39.1086C21.8675 43.1184 22.2536 47.2866 23.8239 51.0786C23.9005 51.2346 24.0125 51.3711 24.1512 51.4775C24.29 51.5839 24.4517 51.6573 24.6239 51.6921C24.699 51.707 24.7754 51.7145 24.852 51.7146C25.1281 51.7143 25.3949 51.6158 25.6033 51.4371L31.0935 46.7061L31.1558 46.8831C31.2101 47.0371 31.2976 47.1776 31.4124 47.2949C31.5271 47.4123 31.6664 47.5036 31.8204 47.5626C33.6028 48.2137 35.4808 48.5739 37.3806 48.6291C39.2803 48.5755 41.1584 48.2162 42.9408 47.5656C43.0946 47.5067 43.2337 47.4155 43.3485 47.2985C43.4632 47.1814 43.5508 47.0412 43.6054 46.8876L43.6677 46.7091L49.1579 51.4401ZM36.6263 46.3401C36.3475 44.6037 36.2112 42.848 36.2187 41.0901C36.0887 38.353 36.4829 35.6162 37.3806 33.0231C38.2764 35.6115 38.6706 38.343 38.5425 41.0751C38.5497 42.833 38.4139 44.5886 38.1365 46.3251C37.884 46.3431 37.6346 46.3716 37.376 46.3716C37.1175 46.3716 36.8787 46.3506 36.6202 46.3326L36.6263 46.3401ZM40.509 45.9516C40.7244 44.3374 40.8296 42.7107 40.8238 41.0826C40.8238 39.3051 40.658 30.4326 37.3806 30.4326C34.1032 30.4326 33.9374 39.2991 33.9374 41.0826C33.9314 42.7108 34.0371 44.3375 34.2538 45.9516C33.8112 45.8406 33.4127 45.7311 33.1375 45.6426C32.155 42.6666 27.3918 27.3591 29.6107 16.6926C30.8422 11.6109 33.5356 6.98824 37.3669 3.38008C39.6425 5.63113 41.5524 8.21503 43.029 11.0406C41.4169 12.2884 39.4298 12.9718 37.3806 12.9831C36.0626 12.9838 34.7602 12.7023 33.5633 12.1581C33.4268 12.0966 33.2794 12.0623 33.1294 12.057C32.9794 12.0518 32.8299 12.0757 32.6893 12.1274C32.5487 12.1792 32.4198 12.2577 32.31 12.3586C32.2002 12.4595 32.1116 12.5807 32.0493 12.7153C31.987 12.85 31.9522 12.9954 31.9469 13.1433C31.9415 13.2912 31.9658 13.4387 32.0183 13.5774C32.0707 13.716 32.1504 13.8431 32.2526 13.9514C32.3549 14.0597 32.4778 14.1471 32.6143 14.2086C34.1093 14.886 35.7354 15.2356 37.3806 15.2331C39.7533 15.2196 42.0648 14.4893 44.0038 13.1406C44.4855 14.2927 44.8711 15.4816 45.1566 16.6956C47.4972 27.0861 42.6229 42.6351 41.6268 45.6351C41.3515 45.7236 40.9515 45.8346 40.509 45.9441V45.9516Z" fill="#8D71D6"/>
<path d="M37.3811 15.9053C36.1677 15.9053 34.9816 16.2602 33.9727 16.9251C32.9638 17.5899 32.1774 18.535 31.7131 19.6407C31.2488 20.7463 31.1273 21.963 31.364 23.1368C31.6007 24.3105 32.185 25.3887 33.043 26.235C33.901 27.0812 34.9942 27.6575 36.1843 27.891C37.3743 28.1245 38.6079 28.0047 39.7289 27.5467C40.8499 27.0887 41.8081 26.3131 42.4822 25.318C43.1564 24.3229 43.5162 23.153 43.5162 21.9563C43.5146 20.3519 42.8677 18.8138 41.7175 17.6793C40.5673 16.5449 39.0078 15.9069 37.3811 15.9053ZM37.3811 25.7588C36.6189 25.7588 35.8738 25.5358 35.2401 25.1182C34.6063 24.7005 34.1124 24.1069 33.8207 23.4124C33.529 22.7178 33.4527 21.9536 33.6014 21.2162C33.7501 20.4789 34.1171 19.8016 34.6561 19.2701C35.1951 18.7385 35.8817 18.3765 36.6293 18.2298C37.3769 18.0831 38.1517 18.1584 38.8559 18.4461C39.5601 18.7338 40.162 19.221 40.5854 19.8461C41.0089 20.4711 41.2349 21.206 41.2349 21.9578C41.2337 22.9655 40.8273 23.9316 40.1048 24.6442C39.3824 25.3567 38.4029 25.7576 37.3811 25.7588Z" fill="#8D71D6"/>
<path d="M65.5772 61.1008C63.5228 61.1017 61.5445 61.8678 60.0383 63.2458C59.4797 62.7796 58.8295 62.4323 58.1283 62.2258C57.4272 62.0193 56.6903 61.958 55.964 62.0458C55.3993 60.6527 54.4269 59.457 53.1707 58.611C51.9146 57.765 50.4314 57.3069 48.9104 57.2953C48.1011 57.2946 47.2971 57.4243 46.5303 57.6793C46.5298 56.478 46.2846 55.2889 45.8094 54.1828C45.6881 53.913 45.4642 53.701 45.1859 53.5924C44.9076 53.4839 44.5972 53.4877 44.3217 53.6028C44.0462 53.7179 43.8275 53.9352 43.7129 54.2079C43.5983 54.4805 43.597 54.7867 43.7091 55.0603C44.2907 56.4234 44.406 57.9363 44.0376 59.3698C43.9797 59.5944 43.9935 59.8311 44.0771 60.0476C44.1607 60.2641 44.31 60.4499 44.5047 60.5796C44.6994 60.7092 44.93 60.7764 45.1648 60.772C45.3997 60.7676 45.6275 60.6917 45.817 60.5548C46.7121 59.9007 47.7963 59.5469 48.9104 59.5453C50.1145 59.5623 51.2785 59.9743 52.2187 60.7164C53.159 61.4585 53.8218 62.4883 54.1025 63.6433C54.141 63.7923 54.2101 63.9319 54.3055 64.0535C54.4009 64.1751 54.5206 64.2762 54.6571 64.3504C54.7937 64.4246 54.9442 64.4705 55.0994 64.4851C55.2546 64.4997 55.4111 64.4827 55.5595 64.4353C55.8789 64.3248 56.2141 64.265 56.5526 64.2583C57.0587 64.2637 57.5569 64.384 58.0084 64.6098C58.4599 64.8356 58.8526 65.1608 59.1562 65.5603C59.2615 65.6949 59.3965 65.8041 59.5509 65.8798C59.7053 65.9554 59.8751 65.9954 60.0474 65.9968C60.2214 66.0076 60.3953 65.9746 60.5528 65.9009C60.7103 65.8271 60.8462 65.7151 60.9478 65.5753C61.5 64.885 62.2031 64.3265 63.0047 63.9416C63.8063 63.5567 64.6856 63.3553 65.5772 63.3523C67.2044 63.3854 68.752 64.0533 69.8809 65.2098C71.0097 66.3662 71.6278 67.9168 71.5997 69.5218C71.6002 70.1158 71.5168 70.707 71.3518 71.2783C71.2691 71.5653 71.3052 71.8729 71.4519 72.1338C71.5987 72.3947 71.8443 72.5876 72.135 72.6703C72.2375 72.6983 72.3434 72.7125 72.4498 72.7123C72.6973 72.7123 72.938 72.6328 73.1355 72.4858C73.3331 72.3389 73.4768 72.1325 73.5448 71.8978C73.7689 71.1247 73.882 70.3244 73.8809 69.5203C73.9086 67.3187 73.05 65.1961 71.4934 63.6178C69.9368 62.0395 67.8093 61.1344 65.5772 61.1008Z" fill="#8D71D6"/>
<path d="M30.444 53.5837C30.1652 53.4684 29.8515 53.4669 29.5716 53.5793C29.2916 53.6918 29.0683 53.9091 28.9506 54.1837C28.476 55.2894 28.2313 56.4779 28.2312 57.6787C27.4643 57.4239 26.6604 57.2942 25.8511 57.2947C24.33 57.3063 22.8469 57.7643 21.5907 58.6104C20.3345 59.4564 19.3621 60.6521 18.7975 62.0452C18.0712 61.9583 17.3346 62.02 16.6335 62.2265C15.9325 62.433 15.2822 62.7798 14.7232 63.2452C13.217 61.8672 11.2387 61.1011 9.18428 61.1002C6.95216 61.1338 4.82461 62.0389 3.26804 63.6172C1.71147 65.1955 0.852894 67.3181 0.88053 69.5197C0.879557 70.3233 0.992691 71.123 1.21663 71.8957C1.28497 72.1301 1.42876 72.3361 1.62629 72.4828C1.82383 72.6295 2.06438 72.7087 2.31163 72.7087C2.41802 72.7088 2.52393 72.6947 2.62645 72.6667C2.91711 72.584 3.16273 72.3911 3.30952 72.1302C3.45631 71.8693 3.49232 71.5617 3.40968 71.2747C3.24485 70.7039 3.16141 70.1132 3.16178 69.5197C3.13366 67.9146 3.75174 66.364 4.8806 65.2076C6.00946 64.0512 7.55705 63.3833 9.18428 63.3502C10.0748 63.354 10.9529 63.5559 11.7534 63.9408C12.5539 64.3257 13.256 64.8836 13.8076 65.5732C13.9121 65.7098 14.0486 65.8195 14.2054 65.8929C14.3621 65.9663 14.5345 66.0012 14.7079 65.9947C14.8803 65.9933 15.0501 65.9533 15.2045 65.8776C15.3589 65.802 15.4938 65.6928 15.5992 65.5582C15.9028 65.1587 16.2955 64.8334 16.747 64.6077C17.1985 64.3819 17.6966 64.2616 18.2028 64.2562C18.5413 64.2629 18.8765 64.3227 19.1959 64.4332C19.3442 64.4806 19.5008 64.4975 19.656 64.4829C19.8112 64.4683 19.9617 64.4225 20.0982 64.3483C20.2348 64.2741 20.3544 64.173 20.4498 64.0514C20.5452 63.9298 20.6143 63.7902 20.6529 63.6412C20.9336 62.4862 21.5964 61.4564 22.5366 60.7143C23.4769 59.9722 24.6409 59.5601 25.845 59.5432C26.9586 59.5446 28.0424 59.8984 28.9369 60.5527C29.1264 60.6902 29.3543 60.7665 29.5895 60.7712C29.8247 60.7759 30.0556 60.7088 30.2506 60.579C30.4456 60.4493 30.5952 60.2632 30.6788 60.0464C30.7624 59.8295 30.776 59.5925 30.7178 59.3677C30.3497 57.9343 30.4645 56.4216 31.0447 55.0582C31.1629 54.7841 31.1661 54.4749 31.0535 54.1984C30.9409 53.922 30.7217 53.7009 30.444 53.5837Z" fill="#8D71D6"/>
</g>
<defs>
<clipPath id="clip0_1598_14243">
<rect width="73" height="72" fill="white" transform="translate(0.880859 0.708984)"/>
</clipPath>
</defs>
</svg>
