<svg width="68" height="67" viewBox="0 0 68 67" fill="none" xmlns="http://www.w3.org/2000/svg">
<g clip-path="url(#clip0_1598_14261)">
<path d="M20.2092 16.7497H25.5923C25.8237 17.646 26.3455 18.4404 27.0763 19.0086C27.807 19.5768 28.7054 19.8869 29.6311 19.8904H45.3342C46.6416 19.8909 47.9019 19.4022 48.8671 18.5204C49.8323 17.6385 50.4326 16.4274 50.5498 15.1253C50.667 13.8232 50.2927 12.5243 49.5005 11.4843C48.7083 10.4442 47.5556 9.7383 46.2691 9.50536C46.0511 8.58801 45.5304 7.77087 44.791 7.18584C44.0515 6.60082 43.1365 6.28205 42.1936 6.28099C41.4609 6.27944 40.7409 6.47235 40.1072 6.84002C39.074 5.91306 37.7623 5.35526 36.3779 5.25408C34.9935 5.15291 33.6147 5.51409 32.4577 6.28099C32.0006 4.73754 31.0475 3.38777 29.7459 2.44059C28.4444 1.4934 26.8669 1.0016 25.2577 1.04129C23.6485 1.08098 22.0972 1.64996 20.8439 2.66017C19.5907 3.67038 18.7053 5.06549 18.3249 6.6296C17.1832 7.06848 16.2314 7.89327 15.6345 8.96079C15.0376 10.0283 14.8333 11.2711 15.0572 12.4735C15.2811 13.6759 15.919 14.762 16.8601 15.5431C17.8012 16.3242 18.9862 16.7512 20.2092 16.7497ZM35.9124 7.32786C36.54 7.32794 37.1596 7.4691 37.7253 7.74091C38.291 8.01272 38.7884 8.40823 39.1807 8.89818C39.2729 9.01254 39.3881 9.10622 39.5189 9.17314C39.6496 9.24005 39.793 9.2787 39.9397 9.28657C40.0865 9.29596 40.2336 9.27351 40.3709 9.22074C40.5083 9.16798 40.6326 9.08616 40.7353 8.98088C40.9262 8.78844 41.1534 8.63577 41.4037 8.53173C41.6541 8.42768 41.9225 8.37432 42.1936 8.37474C42.7489 8.37474 43.2815 8.59533 43.6741 8.98798C44.0668 9.38064 44.2874 9.91319 44.2874 10.4685C44.2874 10.7461 44.3977 11.0124 44.594 11.2087C44.7903 11.4051 45.0566 11.5154 45.3342 11.5154C46.1672 11.5154 46.966 11.8462 47.555 12.4352C48.144 13.0242 48.4749 13.823 48.4749 14.656C48.4749 15.4889 48.144 16.2878 47.555 16.8767C46.966 17.4657 46.1672 17.7966 45.3342 17.7966H29.6311C29.0758 17.7966 28.5433 17.576 28.1506 17.1834C27.7579 16.7907 27.5374 16.2582 27.5374 15.7029C27.5374 15.1476 27.7579 14.615 28.1506 14.2224C28.5433 13.8297 29.0758 13.6091 29.6311 13.6091C29.9026 13.6068 30.1716 13.6617 30.4204 13.7703C30.6016 13.8508 30.8019 13.8781 30.9979 13.8492C31.194 13.8203 31.3779 13.7363 31.5281 13.607C31.6783 13.4777 31.7888 13.3084 31.8466 13.1189C31.9044 12.9293 31.9072 12.7272 31.8547 12.5361C31.7656 12.2032 31.7219 11.8599 31.7249 11.5154C31.7249 10.4048 32.166 9.33966 32.9513 8.55435C33.7367 7.76904 34.8018 7.32786 35.9124 7.32786ZM19.4764 8.46163C19.6796 8.41316 19.8636 8.30502 20.0049 8.1511C20.1461 7.99719 20.238 7.80455 20.2689 7.59796C20.4647 6.33173 21.1182 5.18129 22.1054 4.36462C23.0927 3.54794 24.3453 3.12174 25.6258 3.16677C26.9062 3.21181 28.1257 3.72494 29.0532 4.60895C29.9807 5.49296 30.5517 6.68646 30.6581 7.96332C30.6631 7.99297 30.6697 8.02233 30.678 8.05125C29.9942 9.07707 29.6299 10.2826 29.6311 11.5154C28.7054 11.5188 27.807 11.8289 27.0763 12.3971C26.3455 12.9654 25.8237 13.7597 25.5923 14.656H20.2092C19.4403 14.6558 18.6982 14.3735 18.1235 13.8627C17.5488 13.3518 17.1815 12.6479 17.0912 11.8843C17.0008 11.1208 17.1938 10.3506 17.6334 9.71972C18.073 9.08889 18.7288 8.64124 19.4764 8.46163Z" fill="#8D71D6"/>
<path d="M45.2298 57.6824C45.3741 56.8701 45.3571 56.0373 45.1796 55.2316C45.0021 54.4259 44.6677 53.6631 44.1954 52.9866C43.7231 52.3102 43.1222 51.7334 42.4269 51.2892C41.7317 50.845 40.9558 50.542 40.1435 50.3977C39.3313 50.2533 38.4985 50.2704 37.6928 50.4479C36.8871 50.6254 36.1243 50.9598 35.4478 51.4321C34.7714 51.9044 34.1946 52.5053 33.7504 53.2005C33.3061 53.8957 33.0032 54.6716 32.8589 55.4839H32.772C31.3837 55.4839 30.0523 56.0354 29.0707 57.017C28.0891 57.9987 27.5376 59.3301 27.5376 60.7183C27.5376 62.1066 28.0891 63.4379 29.0707 64.4196C30.0523 65.4012 31.3837 65.9527 32.772 65.9527H44.2876C45.3181 65.9556 46.3136 65.5784 47.0834 64.8932C47.8532 64.2081 48.3433 63.2631 48.46 62.2392C48.5766 61.2153 48.3116 60.1843 47.7156 59.3435C47.1196 58.5028 46.2346 57.9113 45.2298 57.6824ZM44.2876 63.8589H32.772C31.939 63.8589 31.1402 63.528 30.5512 62.9391C29.9622 62.3501 29.6313 61.5513 29.6313 60.7183C29.6313 59.8854 29.9622 59.0865 30.5512 58.4976C31.1402 57.9086 31.939 57.5777 32.772 57.5777C33.0429 57.5793 33.3126 57.6145 33.5749 57.6824C33.7413 57.724 33.9154 57.7242 34.0819 57.6827C34.2483 57.6413 34.4021 57.5596 34.5296 57.4449C34.6571 57.3301 34.7544 57.1858 34.813 57.0246C34.8716 56.8633 34.8897 56.6902 34.8657 56.5203C34.8671 55.4097 35.3096 54.3452 36.0959 53.5609C36.4852 53.1725 36.9473 52.8646 37.4556 52.6548C37.9639 52.445 38.5085 52.3374 39.0585 52.3381C39.6084 52.3388 40.1528 52.4478 40.6605 52.6588C41.1683 52.8699 41.6296 53.1789 42.0179 53.5683C42.4063 53.9576 42.7142 54.4196 42.924 54.9279C43.1338 55.4362 43.2414 55.9809 43.2407 56.5308C43.2393 57.1224 43.1156 57.7072 42.8775 58.2487C42.8005 58.4254 42.7737 58.6198 42.8002 58.8107C42.8266 59.0015 42.9052 59.1814 43.0273 59.3304C43.1494 59.4795 43.3103 59.592 43.4922 59.6554C43.6741 59.7189 43.87 59.731 44.0583 59.6903C44.1339 59.676 44.2107 59.6697 44.2876 59.6714C44.8429 59.6714 45.3755 59.892 45.7681 60.2847C46.1608 60.6773 46.3813 61.2099 46.3813 61.7652C46.3813 62.3205 46.1608 62.853 45.7681 63.2457C45.3755 63.6383 44.8429 63.8589 44.2876 63.8589Z" fill="#8D71D6"/>
<path d="M21.8338 52.4527L15.5537 55.5928L16.4901 57.4655L22.7702 54.3254L21.8338 52.4527Z" fill="#8D71D6"/>
<path d="M15.5538 51.4075L0.897949 58.7354L1.8343 60.6081L16.4901 53.2802L15.5538 51.4075Z" fill="#8D71D6"/>
<path d="M64.4851 29.4392C65.6292 28.295 66.272 26.7432 66.272 25.125C66.272 23.5069 65.6292 21.9551 64.4851 20.8109C63.8631 20.1851 63.123 19.689 62.3079 19.3513C61.4928 19.0137 60.6187 18.8412 59.7364 18.8438C57.684 18.8475 55.6564 19.2927 53.7912 20.1492L31.2018 30.5761L7.96847 23.0815C7.70759 22.9981 7.4245 23.0195 7.17912 23.1412L2.99162 25.235C2.81741 25.3218 2.67086 25.4555 2.56843 25.621C2.46599 25.7865 2.41172 25.9773 2.41172 26.1719C2.41172 26.3665 2.46599 26.5573 2.56843 26.7228C2.67086 26.8884 2.81741 27.022 2.99162 27.1089L20.2504 35.7382C17.4066 37.2555 14.7385 39.081 12.2942 41.182L4.69698 39.8001C4.53054 39.7686 4.35888 39.7784 4.19714 39.8288C4.0354 39.8792 3.88852 39.9686 3.76945 40.0891L1.6757 42.1828C1.5517 42.3067 1.46079 42.4597 1.41128 42.6278C1.36178 42.7959 1.35528 42.9738 1.39237 43.1451C1.42946 43.3163 1.50896 43.4756 1.62358 43.6082C1.73819 43.7407 1.88426 43.8424 2.04839 43.9039L8.21134 46.2154C8.3757 46.2761 8.54425 46.3201 8.7107 46.3766C8.74486 47.4135 9.18003 48.3967 9.92458 49.1192C10.6691 49.8417 11.665 50.2471 12.7024 50.25H20.2096C21.3351 50.2494 22.4576 50.1336 23.5596 49.9046L26.9546 52.1679C27.1079 52.27 27.2854 52.3299 27.4692 52.3415C27.653 52.353 27.8366 52.3159 28.0015 52.2339L32.189 50.1401C32.3463 50.0616 32.4813 49.9448 32.5816 49.8004C32.6819 49.656 32.7441 49.4887 32.7627 49.3139C32.7813 49.139 32.7555 48.9624 32.6878 48.8001C32.6201 48.6379 32.5126 48.4953 32.3753 48.3855L30.8427 47.1597L37.8745 44.1782L52.2021 51.1922C52.4233 51.301 52.6759 51.3277 52.915 51.2676L57.1025 50.2207C57.2885 50.1744 57.4581 50.0778 57.593 49.9417C57.7279 49.8055 57.8228 49.6349 57.8674 49.4486C57.912 49.2622 57.9046 49.0671 57.8459 48.8847C57.7873 48.7022 57.6797 48.5393 57.5349 48.4138L47.7989 39.9718L50.6977 38.7428C55.8509 36.5604 60.5328 33.4011 64.4851 29.4392ZM54.6685 22.0504C56.2584 21.3201 57.9869 20.9406 59.7364 20.9375C60.3649 20.938 60.9867 21.0673 61.5632 21.3175C59.9186 21.638 58.3248 22.1793 56.8251 22.9266L54.2885 24.1828L55.2244 26.0567L57.761 24.79C59.5952 23.8764 61.583 23.3109 63.6235 23.1224C63.9805 23.7299 64.1718 24.4204 64.1783 25.125C64.1783 25.1973 64.1605 25.2664 64.1574 25.3344C61.6451 25.6349 59.1904 26.3015 56.8711 27.313L40.6571 34.4317C40.2589 33.7833 39.6429 33.2979 38.9193 33.0624L34.1424 31.5214L54.6685 22.0504ZM7.73292 25.2056L38.2755 35.0578C38.5003 35.1303 38.6964 35.2719 38.8359 35.4624C38.9755 35.6529 39.0513 35.8827 39.0526 36.1188C39.0538 36.355 38.9805 36.5855 38.843 36.7775C38.7056 36.9695 38.511 37.1133 38.287 37.1882L34.7015 38.3837C32.9797 38.9474 31.1056 38.8144 29.4807 38.0131L5.80039 26.1719L7.73292 25.2056ZM4.30231 42.5126L4.8582 41.9567L13.4509 43.5197C13.6172 43.5888 13.7543 43.7136 13.8389 43.8726C13.9235 44.0316 13.9503 44.215 13.9147 44.3915C13.8791 44.568 13.7834 44.7268 13.6438 44.8406C13.5043 44.9544 13.3295 45.0163 13.1494 45.0157C11.7128 45.0165 10.2879 44.758 8.94311 44.2525L4.30231 42.5126ZM10.9186 46.922C11.656 47.0438 12.402 47.1064 13.1494 47.1094C13.7643 47.111 14.3633 46.9148 14.8581 46.5499C15.353 46.185 15.7173 45.6706 15.8974 45.0828C16.0775 44.4949 16.0639 43.8647 15.8584 43.2852C15.6529 42.7057 15.2666 42.2077 14.7564 41.8646C17.1671 39.9243 19.7856 38.2576 22.564 36.895L28.4045 39.8148L26.2291 40.7695C22.1916 42.5403 18.5176 45.045 15.3939 48.1563H12.7024C12.3151 48.1552 11.9372 48.0367 11.6187 47.8163C11.3002 47.5959 11.0561 47.2841 10.9186 46.922ZM29.7937 48.999L27.6131 50.0888L26.16 49.1205C26.3233 49.0566 26.4887 49.0084 26.65 48.9404L28.6568 48.0893L29.7937 48.999ZM54.6423 48.6797L52.7789 49.1445L40.4258 43.0999L45.6486 40.8805L54.6423 48.6797ZM25.8323 47.0162C24.0544 47.7723 22.1416 48.1602 20.2096 48.1563H18.4686C21.0404 45.9059 23.9409 44.0616 27.0697 42.6874L31.4666 40.7601C31.8226 40.804 32.181 40.8268 32.5397 40.8282C33.5004 40.8288 34.4549 40.6739 35.3662 40.3696L38.9486 39.1751C39.524 38.9833 40.0331 38.6321 40.4168 38.1623C40.8004 37.6925 41.0427 37.1234 41.1157 36.5213L57.7128 29.2351C59.5104 28.4479 61.3982 27.8853 63.3335 27.5601C63.2333 27.7018 63.1235 27.8365 63.0048 27.9631C59.2406 31.734 54.7819 34.7404 49.8749 36.8165L25.8323 47.0162Z" fill="#8D71D6"/>
</g>
<defs>
<clipPath id="clip0_1598_14261">
<path d="M0.318848 0H67.3188V67H30.3188C13.7503 67 0.318848 53.5685 0.318848 37V0Z" fill="white"/>
</clipPath>
</defs>
</svg>
