<svg width="91" height="90" viewBox="0 0 91 90" fill="none" xmlns="http://www.w3.org/2000/svg">
<g id="vaccum-cleaner 1">
<g id="Mat_Cleaning">
<g id="Group">
<path id="Vector" d="M5.75399 64.4545C5.7874 68.4715 8.86222 71.7903 12.7943 72.1894C13.5449 72.267 9.99544 72.2158 69.3546 72.2304C69.2685 72.4278 69.2315 72.6494 69.2315 72.8709C69.2315 73.3766 69.4286 73.8582 69.7862 74.2025L77.393 81.8225C79.0657 83.4933 81.7519 83.4422 83.3479 81.8225C85.0401 80.1544 84.9738 77.4557 83.3602 75.8676L79.7233 72.2304H80.4628C81.1533 72.2304 81.6957 71.6753 81.6957 70.9975C81.6957 70.3197 81.1533 69.7646 80.4628 69.7646H77.2575L75.7411 68.2476C75.4576 67.9647 75.1247 67.7913 74.7671 67.7299V63.215H80.4676C81.1485 63.215 81.7005 62.6629 81.7005 61.9821C81.7005 61.3012 81.1485 60.7492 80.4676 60.7492H74.7671V54.2008H80.4676C81.1485 54.2008 81.7005 53.6493 81.7005 52.9679C81.7005 52.2876 81.1485 51.735 80.4676 51.735H74.7671V45.1878H80.4676C81.1485 45.1878 81.7005 44.6351 81.7005 43.9549C81.7005 43.2734 81.1485 42.722 80.4676 42.722H74.7671V36.1735H80.4676C81.1485 36.1735 81.7005 35.6221 81.7005 34.9407C81.7005 34.2604 81.1485 33.7078 80.4676 33.7078H74.7671V27.1599H80.4676C81.1485 27.1599 81.7005 26.6079 81.7005 25.9271C81.7005 25.2462 81.1485 24.6942 80.4676 24.6942H74.7671V18.1463H80.4676C81.1485 18.1463 81.7005 17.5943 81.7005 16.9135C81.7005 16.2326 81.1485 15.6806 80.4676 15.6806C-17.4691 15.6766 40.5569 15.679 21.3901 15.6782V14.7656C21.3901 10.4493 17.8787 6.93848 13.5624 6.93848C9.25516 6.93848 5.75098 10.4493 5.75098 14.7656C5.75099 14.8899 5.75502 64.5788 5.75399 64.4545ZM8.25345 64.4262C8.25345 61.4712 10.6803 59.0937 13.5624 59.0937C16.5188 59.0937 18.9243 61.4921 18.9243 64.4394C18.9243 64.4472 18.9287 64.4539 18.9289 64.4617C18.9246 67.3172 16.5709 69.7646 13.5916 69.7646C10.6733 69.7646 8.25345 67.3986 8.25345 64.4262ZM21.3835 64.7717H58.6039C59.2944 64.7717 59.8368 64.2167 59.8368 63.5388C59.8368 62.7532 59.9988 62.0086 60.2648 61.3151L68.7138 69.7646H19.2699C20.5106 68.4451 21.3031 66.7005 21.3835 64.7717ZM57.0547 52.9275L57.871 52.1112C58.3275 51.6543 58.3275 50.9145 57.871 50.4582L56.1716 48.7588L61.7921 43.1386C62.7131 42.2175 62.7131 40.7186 61.7921 39.7963L59.9693 37.9735C59.4877 37.4931 58.7075 37.4925 58.2259 37.9741L57.9818 38.2179L56.7233 35.8388C56.1516 34.7568 54.6904 34.5354 53.8247 35.4024L36.9305 52.2967C36.0645 53.1613 36.282 54.6238 37.3669 55.1964L39.7457 56.454L39.5016 56.6978C39.022 57.1774 39.0183 57.9579 39.5016 58.4412L41.3244 60.264C42.2439 61.1847 43.745 61.1863 44.6661 60.264L49.8919 55.0387L51.5915 56.7381C52.048 57.1945 52.7878 57.1945 53.2443 56.7381L54.4659 55.5161L58.4118 59.4622C57.9464 60.3356 57.6146 61.2892 57.4698 62.306H21.3901V25.6026H57.4698C58.0122 29.412 61.0327 32.4448 64.8424 32.9878V54.9207C63.3257 55.1362 61.9447 55.7599 60.7847 56.6569L57.0547 52.9275ZM41.57 54.6294L39.2903 53.4242L54.9517 37.7628L56.1575 40.0419L41.57 54.6294ZM81.622 77.6061C82.3233 78.3332 82.2723 79.4201 81.6096 80.0839C80.9726 80.7198 79.855 80.7938 79.1439 80.0839L71.9314 72.8709L74.4095 70.3931L81.622 77.6061ZM72.3013 18.1439V68.1736L62.5376 58.4099C63.5443 57.7134 64.7611 57.2998 66.0752 57.2998C66.7534 57.2998 67.3081 56.758 67.3081 56.0669V31.8416C67.3081 31.1505 66.7534 30.6087 66.0752 30.6087C62.6355 30.6087 59.8368 27.8095 59.8368 24.3697C59.8368 23.6919 59.2944 23.1368 58.6039 23.1368H21.3901V18.1439H72.3013Z" fill="#71356C"/>
<path id="Vector_2" d="M13.5899 62.1768C12.348 62.1768 11.3379 63.1869 11.3379 64.4288C11.3379 65.6701 12.348 66.6802 13.5899 66.6802C14.8318 66.6802 15.842 65.6701 15.842 64.4288C15.842 63.1869 14.8318 62.1768 13.5899 62.1768Z" fill="#CDA3CE"/>
<path id="Vector_3" d="M33.0316 43.587C33.0316 43.0368 33.2459 42.5197 33.6341 42.132C33.8701 41.896 33.8701 41.5084 33.6402 41.2664C33.5258 41.1454 33.3675 41.0761 33.2013 41.0737C33.0316 41.0779 32.8744 41.1363 32.757 41.2543C31.9805 42.0309 30.623 42.0309 29.8464 41.2543C29.6104 41.0177 29.2222 41.0189 28.9802 41.2489C28.8598 41.3639 28.7905 41.5216 28.7881 41.6878C28.7863 41.8539 28.8513 42.014 28.9687 42.132C29.357 42.5197 29.5713 43.0368 29.5713 43.587C29.5713 44.1367 29.357 44.6538 28.9687 45.0421C28.8489 45.1618 28.7869 45.328 28.7911 45.4972C28.7959 45.6657 28.8724 45.8283 28.9982 45.9414C29.1156 46.0474 29.2631 46.1004 29.4106 46.1004C29.5689 46.1004 29.7266 46.0396 29.8464 45.9198C30.623 45.1432 31.9805 45.1432 32.757 45.9198C32.9978 46.1606 33.3879 46.1606 33.6287 45.9198L33.6341 45.9137C33.8749 45.6729 33.8749 45.2828 33.6341 45.0421C33.2459 44.6538 33.0316 44.1367 33.0316 43.587Z" fill="#CDA3CE"/>
<path id="Vector_4" d="M31.0962 34.1751C31.3369 34.4159 31.727 34.4159 31.9678 34.1751L31.9733 34.1702C32.2141 33.9295 32.2141 33.5394 31.9733 33.2986C31.1701 32.4942 31.1698 31.1921 31.9733 30.3873C32.2092 30.1514 32.2092 29.7649 31.9793 29.5223C31.7353 29.2642 31.3333 29.2731 31.0962 29.5102C30.2937 30.3127 28.9892 30.3127 28.1855 29.5102C27.953 29.2777 27.5462 29.2654 27.297 29.5277C27.067 29.7703 27.0725 30.1514 27.3084 30.3873C28.1103 31.1904 28.1103 32.4955 27.3084 33.2986C27.0676 33.5394 27.0731 33.9349 27.3139 34.1751C27.5546 34.4159 27.9447 34.4159 28.1855 34.1751C28.9615 33.3991 30.319 33.3985 31.0962 34.1751Z" fill="#CDA3CE"/>
<path id="Vector_5" d="M44.488 28.8821L44.4825 28.8766C44.2514 28.6455 43.842 28.6455 43.6109 28.8766C42.8343 29.6532 41.4768 29.6532 40.7002 28.8766C40.46 28.6364 40.0645 28.6407 39.8231 28.8821C39.5823 29.1229 39.5825 29.5131 39.8231 29.7537C40.6262 30.5568 40.6266 31.8609 39.8231 32.6644C39.5905 32.897 39.5798 33.2928 39.8285 33.5415C40.0693 33.7823 40.4594 33.7823 40.7002 33.5415C41.4768 32.7649 42.8343 32.7649 43.6109 33.5415C43.8442 33.7748 44.2396 33.7844 44.488 33.536C44.7287 33.2952 44.7287 32.9052 44.488 32.6644C43.6861 31.8619 43.6861 30.5562 44.488 29.7537C44.7287 29.5129 44.7287 29.1229 44.488 28.8821Z" fill="#CDA3CE"/>
</g>
</g>
</g>
</svg>
