<svg width="91" height="91" viewBox="0 0 91 91" fill="none" xmlns="http://www.w3.org/2000/svg">
<g clip-path="url(#clip0_1717_1848)">
<path d="M42.2486 9.19592C42.9762 9.19592 43.5691 9.78391 43.5691 10.5164C43.5691 11.2439 42.9762 11.8318 42.2486 11.8318H40.5645V86.4695C40.5645 87.0774 40.1509 87.5907 39.5878 87.7401C39.234 87.8696 38.8155 88.1038 38.3969 88.3379C37.4802 88.8512 36.5633 89.3645 35.4571 89.3645C34.351 89.3645 33.4341 88.8512 32.5172 88.3379C31.9043 87.9892 31.2913 87.6453 30.8679 87.6453C30.4393 87.6453 29.8263 87.9892 29.2136 88.3379C28.2967 88.8512 27.3798 89.3645 26.2736 89.3645C25.1674 89.3645 24.2506 88.8512 23.3339 88.3379C22.716 87.9892 22.1032 87.6453 21.6796 87.6453C21.256 87.6453 20.6383 87.9892 20.0253 88.3379C19.1084 88.8512 18.1916 89.3645 17.0854 89.3645C15.9792 89.3645 15.0623 88.8512 14.1454 88.3379C13.5327 87.9892 12.9148 87.6453 12.4912 87.6453C12.0677 87.6453 11.4547 87.9892 10.8418 88.3379C9.9251 88.8512 9.00822 89.3645 7.89711 89.3645C6.79092 89.3645 5.87404 88.8512 4.95717 88.3379C4.51859 88.0886 4.07527 87.8397 3.70648 87.7199C3.16332 87.5455 2.79471 87.0373 2.79471 86.4694V21.6026C2.79471 20.875 3.3827 20.2874 4.11025 20.2874C4.83781 20.2874 5.43072 20.8752 5.43072 21.6026V85.5973C5.70986 85.7369 5.97881 85.8865 6.24793 86.0406C6.86088 86.3846 7.47365 86.7283 7.89729 86.7283C8.32584 86.7283 8.93861 86.3846 9.55156 86.0406C10.4683 85.5226 11.3851 85.0093 12.4915 85.0093C13.7323 85.0093 14.7238 85.652 15.7653 86.225V26.4662C15.7653 25.7387 16.3582 25.1511 17.0857 25.1511C17.8133 25.1511 18.4062 25.7389 18.4062 26.4662V86.2254C18.5159 86.1656 18.6254 86.1009 18.74 86.041C19.6569 85.523 20.5738 85.0097 21.6799 85.0097C22.7861 85.0097 23.703 85.523 24.6197 86.041C25.2327 86.385 25.8456 86.7286 26.274 86.7286C26.6976 86.7286 27.3106 86.385 27.9233 86.041C28.8402 85.523 29.7571 85.0097 30.8682 85.0097C31.9744 85.0097 32.8913 85.523 33.808 86.041C34.4209 86.385 35.0339 86.7286 35.4573 86.7286C35.8859 86.7286 36.4987 86.385 37.1116 86.041C37.3807 85.8866 37.6497 85.737 37.9288 85.5977V11.8318H27.5894V72.3682C27.5894 73.0957 27.0014 73.6887 26.2738 73.6887C25.5463 73.6887 24.9533 73.0957 24.9533 72.3682V11.8318H5.43055V15.6336C5.43055 16.3611 4.83764 16.9491 4.11008 16.9491C3.38252 16.9491 2.79453 16.3609 2.79453 15.6336V11.6027C2.25629 11.4032 1.76814 11.0944 1.37439 10.6959C0.671973 9.99309 0.233398 9.02154 0.233398 7.95525V4.61154C0.233398 3.54525 0.671973 2.57354 1.37457 1.87604C2.07207 1.17326 3.04379 0.734863 4.11008 0.734863H86.3567C87.423 0.734863 88.3947 1.17326 89.0973 1.87604C89.7997 2.57354 90.2334 3.54525 90.2334 4.61154V7.95508C90.2334 9.02137 89.7997 9.99309 89.0973 10.6957C88.6986 11.0944 88.2153 11.403 87.6772 11.6025V74.3962C87.6772 75.1237 87.0843 75.7166 86.3567 75.7166C85.6292 75.7166 85.0414 75.1237 85.0414 74.3962V57.3051H80.9254L79.291 85.5579C79.2761 85.8568 79.4107 86.1459 79.615 86.3502C79.869 86.5994 80.188 86.7288 80.5417 86.7288H83.7956C84.1394 86.7288 84.4484 86.5894 84.6726 86.3653C84.8967 86.1359 85.0414 85.8271 85.0414 85.4882V80.3708C85.0414 79.6383 85.6293 79.0503 86.3567 79.0503C87.0841 79.0503 87.6772 79.6383 87.6772 80.3708V85.4882C87.6772 86.5544 87.2388 87.5262 86.5362 88.2289C85.8336 88.9314 84.867 89.365 83.7956 89.365H80.5417C79.5151 89.365 78.4988 88.9414 77.7712 88.2238C77.0138 87.4764 76.6053 86.4848 76.665 85.4136L76.7498 83.9437L74.4528 83.6498C73.3914 83.5103 72.4846 82.9572 71.8817 82.1747C71.2738 81.3875 70.9648 80.3759 71.0994 79.3196L73.9496 57.1211C72.9182 56.8522 71.9964 56.3139 71.264 55.5814C70.1977 54.5151 69.5399 53.0453 69.5399 51.4256C69.5399 49.891 70.1328 48.4908 71.0994 47.4392C61.1687 43.8268 58.3433 27.6575 56.2953 15.9278C56.0413 14.4778 55.8021 13.0976 55.563 11.8319H48.2182C47.4906 11.8319 46.9028 11.2439 46.9028 10.5166C46.9028 9.78408 47.4908 9.19609 48.2182 9.19609H86.3569C86.6958 9.19609 87.0097 9.05652 87.2339 8.8324C87.458 8.60318 87.5976 8.29416 87.5976 7.95543V4.61154C87.5976 4.27281 87.458 3.96379 87.2339 3.73967C87.0097 3.51027 86.6958 3.37088 86.3569 3.37088H4.11008C3.77117 3.37088 3.46232 3.51027 3.23803 3.73967C3.00881 3.96379 2.86924 4.27281 2.86924 4.61154V7.95508C2.86924 8.29398 3.00863 8.60301 3.23803 8.83205C3.46215 9.05617 3.77117 9.19574 4.11008 9.19574L42.2486 9.19592ZM46.1353 52.342C45.8812 51.6594 46.225 50.9021 46.9026 50.6479C47.5854 50.3887 48.3426 50.7325 48.5968 51.4152C50.7296 57.0807 49.0203 63.2395 47.4558 68.8104C46.9773 70.5195 47.0672 72.2636 47.5105 73.7333C47.9689 75.248 48.7761 76.4191 49.688 76.8775C50.1463 77.1116 50.6497 77.1865 51.1381 77.1317C51.6262 77.0768 52.0998 76.8974 52.5185 76.6084C52.9319 76.3194 53.2858 75.9256 53.5199 75.4574C53.7194 75.0589 54.1429 73.4542 53.5 73.0156C53.3058 72.8762 53.0516 72.8563 52.8224 72.8811C52.0999 72.9609 51.4471 72.4378 51.3675 71.715C51.2928 71.0275 51.761 70.4096 52.4288 70.2801C53.271 70.1206 54.3025 70.3699 54.9951 70.8531C55.6977 71.3363 56.2308 72.0938 56.4052 73.1553C56.5945 74.3213 56.3952 75.582 55.8669 76.6332C55.4285 77.5101 54.7806 78.2375 54.0084 78.7707C53.2411 79.3038 52.3439 79.6478 51.4172 79.7475C50.4506 79.8522 49.4541 79.6977 48.5173 79.2293C46.9626 78.4471 45.6621 76.6831 44.9994 74.4957C44.4164 72.5823 44.3018 70.3151 44.9246 68.0978C46.2948 63.2197 47.9988 57.2951 46.1353 52.342ZM46.9026 29.2668C46.7829 28.5493 47.2714 27.8765 47.9889 27.7568C48.7065 27.6424 49.379 28.1256 49.4987 28.8432C50.7195 36.2277 56.8984 42.1922 62.0256 47.1949C64.2429 49.3575 65.6332 52.073 66.2461 54.6791C66.9338 57.6289 66.6247 60.4991 65.3741 62.4026C64.6266 63.5336 63.6103 64.3557 62.4642 64.8592C61.358 65.3473 60.1321 65.5468 58.9215 65.4471C57.7156 65.3475 56.5149 64.9488 55.4484 64.2464C54.3074 63.499 53.3355 62.4075 52.7029 60.9677C51.8259 58.9846 52.3689 57.3053 53.4851 56.1793C54.1279 55.5315 54.9699 55.088 55.8371 54.8936C56.7439 54.6943 57.6956 54.7642 58.5177 55.1576C59.7635 55.7556 60.6554 57.0112 60.5756 59.0591C60.5506 59.7866 59.9428 60.3548 59.2154 60.3298C58.4929 60.305 57.9248 59.6921 57.9498 58.9696C57.9846 58.1475 57.7355 57.6941 57.3818 57.5245C57.1129 57.3951 56.759 57.38 56.4052 57.4598C56.0116 57.5496 55.6328 57.7439 55.3487 58.0329C54.9402 58.4465 54.7558 59.0992 55.1097 59.9063C55.5331 60.8582 56.161 61.5756 56.8935 62.054C57.571 62.5025 58.3484 62.7517 59.1358 62.8164C59.918 62.8811 60.7002 62.7565 61.403 62.4476C62.1105 62.1386 62.7333 61.6403 63.1768 60.9628C64.0339 59.6624 64.2083 57.5446 63.6801 55.2775C63.1768 53.1149 62.0207 50.8673 60.192 49.0786C54.5463 43.5673 48.2479 37.4035 46.9026 29.2668ZM76.9043 81.3172L78.2945 57.3051H76.5754L73.7203 79.5336C73.7054 79.957 73.6706 80.1862 73.9594 80.5649C74.2535 80.9488 74.4827 80.9686 74.9011 81.0583L76.9043 81.3172ZM85.0414 48.1765H75.4194C74.5275 48.1765 73.7203 48.5453 73.1274 49.1332C72.5394 49.7211 72.1757 50.5333 72.1757 51.4253C72.1757 52.3121 72.5394 53.1245 73.1274 53.7125C73.7203 54.3054 74.5275 54.6691 75.4194 54.6691H85.0414V48.1765ZM71.473 11.8318C72.2454 17.298 73.4162 24.5429 75.2449 31.0255C77.1284 37.7126 79.6746 43.5473 83.1229 45.5404H85.0412V11.8318H71.473ZM79.1267 45.5406C76.3611 42.3915 74.2834 37.319 72.7089 31.7383C70.8054 24.9716 69.6046 17.4276 68.8173 11.8319H58.2437C58.458 12.9829 58.6722 14.1987 58.8914 15.4745C61.0541 27.8567 64.1385 45.5408 75.4194 45.5408L79.1267 45.5406Z" fill="#71356C"/>
</g>
<defs>
<clipPath id="clip0_1717_1848">
<rect width="90" height="90" fill="white" transform="translate(0.233398 0.0498047)"/>
</clipPath>
</defs>
</svg>
