<svg width="90" height="90" viewBox="0 0 90 90" fill="none" xmlns="http://www.w3.org/2000/svg">
<g id="dry 1" clip-path="url(#clip0_1717_1716)">
<path id="Vector" d="M36.5781 7.50781C36.5781 7.50781 12.8447 41.8664 12.8447 54.9745C12.8447 68.0818 23.4707 78.7078 36.5781 78.7078C49.6854 78.7078 60.3114 68.0818 60.3114 54.9745C60.3114 50.4767 57.5171 43.4772 53.8457 36.2235C48.6483 26.3269 42.883 16.7388 36.5781 7.50781Z" fill="#CDA3CE"/>
<path id="Vector_2" d="M71.4184 18.6508C70.7267 17.3529 69.9909 16.018 69.2115 14.6455C66.4926 19.4482 64.2169 23.8671 62.6415 27.4226C61.5595 29.6099 60.7758 31.932 60.3115 34.3279C60.3115 39.2429 64.2965 43.2279 69.2115 43.2279C74.1265 43.2279 78.1115 39.2429 78.1115 34.3279C77.8385 31.656 75.2607 25.7872 71.4184 18.6508Z" fill="#CDA3CE"/>
<path id="Vector_3" d="M67.7568 58.3469C67.9604 59.8135 69.2141 60.9057 70.6953 60.9057C72.1764 60.9057 73.4302 59.8135 73.6337 58.3469C72.884 55.8387 71.8997 53.4072 70.6953 51.083C69.49 53.4065 68.5065 55.8387 67.7568 58.3469Z" fill="#CDA3CE"/>
<g id="Group">
<path id="Vector_4" d="M45.4785 0.0908203C20.9021 0.0908203 0.978516 20.0144 0.978516 44.5908C0.978516 69.1672 20.9021 89.0908 45.4785 89.0908C70.0549 89.0908 89.9785 69.1672 89.9785 44.5908C89.951 20.026 70.0433 0.118343 45.4785 0.0908203ZM45.4785 3.05749C55.9799 3.05169 66.0902 7.03888 73.7596 14.2122L71.7736 16.1982C71.3007 15.3363 70.8639 14.5577 70.5025 13.9181C70.2172 13.4836 69.7319 13.2214 69.2119 13.2214C68.6918 13.2214 68.2065 13.4836 67.9212 13.9181C66.3517 16.6892 63.4994 21.8838 61.3947 26.5699L54.23 33.7374C49.247 24.4224 43.762 15.3848 37.7997 6.66514C37.5078 6.28562 37.0565 6.06326 36.5785 6.06326C36.1005 6.06326 35.6493 6.28562 35.3574 6.66514C34.3789 8.08329 11.3618 41.5575 11.3618 54.9742C11.3575 60.7865 13.371 66.42 17.0576 70.9127L15.0999 72.8719C3.82423 60.7844 0.795996 43.1589 7.39205 28.0011C13.9874 12.844 28.9482 3.0459 45.4785 3.05749ZM63.884 28.2843L71.0515 21.1153C74.3057 27.329 76.3627 32.1889 76.6271 34.3944C76.6271 38.4902 73.3062 41.811 69.2104 41.811C65.1146 41.811 61.7937 38.4902 61.7937 34.3944C62.2319 32.278 62.9338 30.2254 63.884 28.2843ZM67.9523 20.0195C68.3572 19.2583 68.7744 18.4855 69.2119 17.6924C69.3408 17.9249 69.4624 18.153 69.5885 18.3833L67.9523 20.0195ZM19.1747 68.7971C16.0364 64.8737 14.3278 59.9985 14.3285 54.9742C14.3285 44.1461 31.7577 17.357 36.5785 10.154C42.1743 18.4731 47.3356 27.0769 52.042 35.9298L19.1747 68.7971ZM53.4398 38.7227C56.5637 45.1029 58.8285 51.0746 58.8285 54.9742C58.8394 63.8952 53.5144 71.9586 45.3054 75.4511C37.0964 78.9436 27.5938 77.1887 21.1744 70.9939L53.4398 38.7227ZM45.4785 86.1242C34.9771 86.13 24.8668 82.1428 17.1974 74.9695L19.0755 73.0885C26.3422 80.135 37.1217 82.1464 46.4411 78.1947C55.7597 74.243 61.8082 65.0967 61.7952 54.9742C61.7952 50.4423 59.1653 43.6196 55.6482 36.5187L59.0081 33.1587C58.9328 33.4948 58.8756 33.8345 58.8372 34.1763C58.8314 34.2357 58.8285 34.2958 58.8285 34.356C58.8285 40.0901 63.477 44.7393 69.2119 44.7393C74.9467 44.7393 79.5952 40.0901 79.5952 34.356C79.5952 34.298 79.5923 34.2408 79.5865 34.1836C79.2454 30.8287 75.9933 24.1131 73.2454 18.9294L75.8572 16.317C87.1277 28.4045 90.1523 46.0278 83.5577 61.182C76.9631 76.3362 62.0052 86.1336 45.4785 86.1242Z" fill="#71356C"/>
<path id="Vector_5" d="M75.1035 58.5523C75.1281 58.3741 75.1201 58.1931 75.081 58.0178C74.3205 55.3966 73.2985 52.858 72.0296 50.441C71.7819 49.9297 71.2633 49.6045 70.6947 49.6045C70.1262 49.6045 69.6076 49.9297 69.3599 50.441C68.0917 52.858 67.0697 55.3966 66.3099 58.0178C66.2708 58.1931 66.2628 58.3741 66.2875 58.5523C66.5909 60.7548 68.4726 62.3953 70.6962 62.3953C72.9197 62.3953 74.8014 60.7548 75.1049 58.5523H75.1035ZM70.6947 59.4243C70.0472 59.4222 69.475 59.0028 69.278 58.3857C69.6706 57.1088 70.1436 55.858 70.6947 54.6404C71.2459 55.8565 71.7196 57.1066 72.1114 58.3828C71.9152 59.0006 71.343 59.4214 70.6947 59.4243Z" fill="#71356C"/>
<path id="Vector_6" d="M76.6289 63.874H79.5956V66.8407H76.6289V63.874Z" fill="#71356C"/>
<path id="Vector_7" d="M72.1787 63.874H75.1454V66.8407H72.1787V63.874Z" fill="#71356C"/>
<path id="Vector_8" d="M76.6289 59.4238H79.5956V62.3905H76.6289V59.4238Z" fill="#71356C"/>
</g>
</g>
<defs>
<clipPath id="clip0_1717_1716">
<rect width="89" height="89" fill="white" transform="translate(0.978516 0.0908203)"/>
</clipPath>
</defs>
</svg>
