<svg width="91" height="91" viewBox="0 0 91 91" fill="none" xmlns="http://www.w3.org/2000/svg">
<path d="M80.9913 54.1959V34.0204C80.9913 31.8013 79.1861 29.9961 76.967 29.9961H59.1804L59.5584 26.8256C59.5584 26.8243 59.5584 26.8243 59.5597 26.8243L60.1704 21.702C60.3543 20.1656 59.4877 18.6716 58.0631 18.0686L56.4521 17.3859L60.155 8.64429C61.0216 6.59871 60.0624 4.22914 58.0169 3.36257C57.0256 2.94214 55.9301 2.93443 54.9337 3.33686C53.9373 3.73929 53.1556 4.50943 52.7364 5.50071L49.0336 14.241L47.4226 13.5583C46.0006 12.9553 44.3214 13.3706 43.3456 14.5714L30.8227 29.9704C30.8163 29.9781 30.8124 29.9884 30.806 29.9974H13.3884C11.1693 29.9974 9.36414 31.8026 9.36414 34.0217V54.1946C5.76414 55.0033 3.06543 58.2201 3.06543 62.0606V71.6764V75.0437C3.06543 77.3323 4.92843 79.1953 7.217 79.1953H12.5463V85.134H5.99686C5.46457 85.134 5.03257 85.566 5.03257 86.0983C5.03257 86.6306 5.46457 87.0626 5.99686 87.0626H13.5093H18.8051H71.54H76.8359H84.3483C84.8806 87.0626 85.3126 86.6306 85.3126 86.0983C85.3126 85.566 84.8806 85.134 84.3483 85.134H77.8001V79.1953H83.1294C85.418 79.1953 87.281 77.3323 87.281 75.0437V71.6764V62.0606C87.2797 58.2227 84.5861 55.0097 80.9913 54.1959ZM54.5107 6.25157C54.7293 5.73471 55.1369 5.33486 55.6576 5.124C56.1783 4.91314 56.7479 4.91829 57.2647 5.13686C58.3306 5.58943 58.8307 6.825 58.3794 7.89086L54.6753 16.6311L50.8079 14.9919L54.5107 6.25157ZM44.8396 15.7877C44.9386 15.6669 45.0569 15.5704 45.1816 15.4856C45.2124 15.465 45.2446 15.4457 45.2767 15.4277C45.3924 15.3621 45.5146 15.3081 45.6419 15.2734C45.6586 15.2683 45.674 15.2606 45.6907 15.2567C45.827 15.2246 45.9684 15.2169 46.1099 15.2207C46.2976 15.2271 46.4879 15.258 46.6666 15.3339L49.0271 16.3341C49.0709 16.3611 49.1043 16.3997 49.1531 16.4203L54.7974 18.8117C54.845 18.8323 54.8977 18.8297 54.9479 18.8426L57.3084 19.8429C57.9474 20.1129 58.3357 20.7827 58.2534 21.4731L57.7944 25.3213L42.3929 18.7963L44.8396 15.7877ZM32.3167 31.1867L41.1264 20.3533L57.5566 27.3141L55.9019 41.1793C55.8749 41.4081 55.727 41.5251 55.6409 41.5753C55.556 41.6241 55.3786 41.6936 55.169 41.6049L50.1997 39.4989L51.893 35.5041C52.1013 35.0143 51.8711 34.4486 51.3813 34.2403C50.894 34.0333 50.3257 34.2621 50.1174 34.752L48.4241 38.7467L44.7316 37.182L47.3969 30.8936C47.6051 30.4037 47.375 29.838 46.8851 29.6297C46.3979 29.424 45.8296 29.6516 45.6213 30.1414L42.956 36.4299L39.2634 34.8651L40.9567 30.8704C41.165 30.3806 40.9349 29.8149 40.445 29.6066C39.9577 29.3983 39.3894 29.6284 39.1811 30.1183L37.4879 34.113L32.5186 32.007C32.3064 31.917 32.2357 31.7434 32.2113 31.647C32.1907 31.5531 32.1727 31.3654 32.3167 31.1867ZM11.2927 34.0204C11.2927 32.8646 12.2326 31.9247 13.3884 31.9247H30.3174C30.3277 31.9877 30.3264 32.0507 30.3419 32.1137C30.5296 32.8697 31.0503 33.4791 31.7677 33.7826L37.6241 36.264L48.5591 40.8977L54.4156 43.3791C54.7267 43.5116 55.052 43.5759 55.3773 43.5759C55.8029 43.5759 56.2246 43.464 56.6077 43.2416C57.2827 42.8507 57.7224 42.1809 57.815 41.4069L58.9464 31.9234H76.9644C78.1203 31.9234 79.0601 32.8633 79.0601 34.0191V53.922H72.953V49.0273C72.953 47.5474 71.7496 46.344 70.271 46.344H54.2729C52.7943 46.344 51.5909 47.5474 51.5909 49.0273V53.922H38.7556V49.0273C38.7556 47.5474 37.5521 46.344 36.0736 46.344H20.0716C18.593 46.344 17.3896 47.5474 17.3896 49.0273V53.922H11.2927V34.0204ZM71.027 49.0286V53.9233H53.5194V49.0286C53.5194 48.612 53.8576 48.2739 54.2729 48.2739H70.2736C70.6889 48.2739 71.027 48.612 71.027 49.0286ZM36.8257 49.0286V53.9233H19.3181V49.0286C19.3181 48.612 19.6563 48.2739 20.0716 48.2739H36.0723C36.4876 48.2739 36.8257 48.612 36.8257 49.0286ZM18.2163 85.1327H14.4736V79.194H21.266L18.2163 85.1327ZM20.3853 85.1327L23.4363 79.194H66.9101L69.9611 85.1327H20.3853ZM75.8703 85.1327H72.1276L69.0766 79.194H75.869L75.8703 85.1327ZM85.3511 75.0424C85.3511 76.269 84.3547 77.2654 83.1281 77.2654H76.8564C76.8487 77.2654 76.8423 77.2616 76.8346 77.2616H67.4951C67.4887 77.2616 67.4849 77.2654 67.4784 77.2654H22.8654C22.859 77.2654 22.8551 77.2616 22.8487 77.2616H13.5093C13.5016 77.2616 13.4951 77.2654 13.4874 77.2654H7.217C5.99043 77.2654 4.994 76.269 4.994 75.0424V72.6394H85.3511V75.0424ZM85.3511 70.7121H4.994V62.0606C4.994 58.6753 7.748 55.9213 11.1333 55.9213H18.3539H37.7913H52.5551H71.9926H79.2131C82.5984 55.9213 85.3511 58.6753 85.3511 62.0606V70.7121Z" fill="#71356C"/>
<path d="M22.8271 19.9327C22.8271 22.8268 25.1774 25.1822 28.0677 25.1822C30.9619 25.1822 33.3173 22.8268 33.3173 19.9327C33.3173 17.0385 30.9619 14.6831 28.0677 14.6831C25.1774 14.6831 22.8271 17.0385 22.8271 19.9327ZM31.3887 19.9327C31.3887 21.7635 29.8986 23.2537 28.0677 23.2537C26.242 23.2537 24.7557 21.7635 24.7557 19.9327C24.7557 18.1018 26.2407 16.6117 28.0677 16.6117C29.8986 16.6117 31.3887 18.1018 31.3887 19.9327Z" fill="#CDA3CE"/>
<path d="M62.4658 23.4443C62.4658 25.9129 64.4702 27.9212 66.9337 27.9212C69.4022 27.9212 71.4105 25.9129 71.4105 23.4443C71.4105 20.9758 69.4022 18.9688 66.9337 18.9688C64.4702 18.9688 62.4658 20.977 62.4658 23.4443ZM69.482 23.4443C69.482 24.8496 68.339 25.9926 66.9337 25.9926C65.5335 25.9926 64.3944 24.8496 64.3944 23.4443C64.3944 22.039 65.5335 20.8973 66.9337 20.8973C68.339 20.8973 69.482 22.0403 69.482 23.4443Z" fill="#CDA3CE"/>
<path d="M27.5234 41.9147C29.5021 41.9147 31.1118 40.3049 31.1118 38.3262C31.1118 36.3475 29.5021 34.7378 27.5234 34.7378C25.5486 34.7378 23.9414 36.3475 23.9414 38.3262C23.9414 40.3049 25.5486 41.9147 27.5234 41.9147ZM27.5234 36.6664C28.4388 36.6664 29.1833 37.4108 29.1833 38.3262C29.1833 39.2417 28.4388 39.9861 27.5234 39.9861C26.6118 39.9861 25.87 39.2417 25.87 38.3262C25.87 37.4108 26.6118 36.6664 27.5234 36.6664Z" fill="#CDA3CE"/>
<path d="M64.5127 41.9147C66.4914 41.9147 68.1011 40.3049 68.1011 38.3262C68.1011 36.3475 66.4914 34.7378 64.5127 34.7378C62.5378 34.7378 60.9307 36.3475 60.9307 38.3262C60.9307 40.3049 62.5378 41.9147 64.5127 41.9147ZM64.5127 36.6664C65.4268 36.6664 66.1725 37.4108 66.1725 38.3262C66.1725 39.2417 65.4281 39.9861 64.5127 39.9861C63.6011 39.9861 62.8592 39.2417 62.8592 38.3262C62.8592 37.4108 63.6011 36.6664 64.5127 36.6664Z" fill="#CDA3CE"/>
</svg>
