<svg width="117" height="117" viewBox="0 0 117 117" fill="none" xmlns="http://www.w3.org/2000/svg">
<g id="iron-board 1">
<g id="Icons">
<g id="Group">
<path id="Vector" d="M20.0618 39.8261C19.0015 40.8864 19.0015 42.6101 20.0618 43.6704C21.1203 44.7289 22.8476 44.7289 23.9061 43.6704C27.4659 40.1107 27.4695 34.327 23.9061 30.7636C22.467 29.3245 22.467 26.9845 23.9061 25.5454C24.9664 24.4851 24.9664 22.7614 23.9061 21.7011C22.8476 20.6426 21.1203 20.6426 20.0618 21.7011C16.502 25.2609 16.4984 31.0445 20.0618 34.6079C21.5009 36.047 21.5009 38.387 20.0618 39.8261ZM21.3432 22.9825C21.6967 22.6291 22.2712 22.6291 22.6247 22.9825C22.9799 23.3378 22.9799 23.9087 22.6247 24.264C20.4787 26.41 20.4787 29.899 22.6247 32.045C25.4757 34.8961 25.4757 39.5379 22.6247 42.389C22.2712 42.7424 21.6967 42.7424 21.3432 42.389C20.988 42.0337 20.988 41.4628 21.3432 41.1075C23.4892 38.9615 23.4892 35.4725 21.3432 33.3265C18.4904 30.4754 18.4904 25.8354 21.3432 22.9825Z" fill="#CDA3CE"/>
<path id="Vector_2" d="M30.9368 39.8261C29.8765 40.8864 29.8765 42.6101 30.9368 43.6704C31.9953 44.7289 33.7226 44.7289 34.7811 43.6704C38.3409 40.1107 38.3445 34.327 34.7811 30.7636C33.342 29.3245 33.342 26.9845 34.7811 25.5454C35.8414 24.4851 35.8414 22.7614 34.7811 21.7011C33.7226 20.6426 31.9953 20.6426 30.9368 21.7011C27.377 25.2609 27.3734 31.0445 30.9368 34.6079C32.3759 36.047 32.3759 38.387 30.9368 39.8261ZM32.2182 22.9825C32.5717 22.6291 33.1462 22.6291 33.4997 22.9825C33.8549 23.3378 33.8549 23.9087 33.4997 24.264C31.3537 26.41 31.3537 29.899 33.4997 32.045C36.3507 34.8961 36.3507 39.5379 33.4997 42.389C33.1462 42.7424 32.5717 42.7424 32.2182 42.389C31.863 42.0337 31.863 41.4628 32.2182 41.1075C34.3642 38.9615 34.3642 35.4725 32.2182 33.3265C29.3654 30.4754 29.3654 25.8354 32.2182 22.9825Z" fill="#CDA3CE"/>
<path id="Vector_3" d="M78.0614 39.8261C77.0011 40.8864 77.0011 42.6101 78.0614 43.6704C79.1199 44.7289 80.8472 44.7289 81.9057 43.6704C85.4655 40.1107 85.4691 34.327 81.9057 30.7636C80.4666 29.3245 80.4666 26.9845 81.9057 25.5454C82.966 24.4851 82.966 22.7614 81.9057 21.7011C80.8472 20.6426 79.1199 20.6426 78.0614 21.7011C76.3395 23.423 75.3916 25.714 75.3916 28.1554C75.3916 30.5969 76.3377 32.886 78.0614 34.6097C79.5005 36.047 79.5005 38.387 78.0614 39.8261ZM79.3429 22.9825C79.6963 22.6291 80.2709 22.6291 80.6243 22.9825C80.9795 23.3378 80.9795 23.9087 80.6243 24.264C78.4783 26.41 78.4783 29.899 80.6243 32.045C83.4754 34.8961 83.4754 39.5379 80.6243 42.389C80.2709 42.7424 79.6963 42.7424 79.3429 42.389C78.9876 42.0337 78.9876 41.4628 79.3429 41.1075C81.4889 38.9615 81.4889 35.4725 79.3429 33.3265C76.49 30.4754 76.49 25.8354 79.3429 22.9825Z" fill="#CDA3CE"/>
<path id="Vector_4" d="M88.9364 39.8262C87.8761 40.8865 87.8761 42.6102 88.9364 43.6705C89.9949 44.729 91.7222 44.729 92.7807 43.6705C96.3405 40.1108 96.3441 34.3271 92.7807 30.7637C91.3416 29.3246 91.3416 26.9847 92.7807 25.5455C93.841 24.4852 93.841 22.7615 92.7807 21.7012C88.9618 17.8823 82.6488 28.3205 88.9364 34.608C90.3755 36.0472 90.3755 38.3871 88.9364 39.8262ZM90.2178 22.9827C90.5713 22.6292 91.1458 22.6292 91.4993 22.9827C91.8545 23.3379 91.8545 23.9089 91.4993 24.2641C89.3533 26.4101 89.3533 29.8992 91.4993 32.0452C94.3503 34.8962 94.3503 39.538 91.4993 42.3891C91.1458 42.7425 90.5713 42.7425 90.2178 42.3891C89.8626 42.0339 89.8626 41.4629 90.2178 41.1077C92.3638 38.9617 92.3638 35.4726 90.2178 33.3266C87.365 30.4755 87.365 25.8355 90.2178 22.9827Z" fill="#CDA3CE"/>
<path id="Vector_5" d="M67.543 67.2666L76.206 60.9037L77.279 62.3646L68.616 68.7275L67.543 67.2666Z" fill="#71356C"/>
<path id="Vector_6" d="M40.4785 87.1006L50.3385 79.8919L51.4068 81.3532L41.5468 88.5618L40.4785 87.1006Z" fill="#71356C"/>
<path id="Vector_7" d="M35.4795 86.3301L48.1332 77.0632L49.2033 78.5245L36.5496 87.7913L35.4795 86.3301Z" fill="#71356C"/>
<path id="Vector_8" d="M39.0811 62.4307L40.1541 60.9698L48.817 67.3327L47.744 68.7936L39.0811 62.4307Z" fill="#71356C"/>
<path id="Vector_9" d="M64.8701 81.3545L65.9384 79.8933L75.7984 87.1019L74.7301 88.5632L64.8701 81.3545Z" fill="#71356C"/>
<path id="Vector_10" d="M67.2002 78.543L68.2703 77.0817L80.924 86.3486L79.8539 87.8098L67.2002 78.543Z" fill="#71356C"/>
<path id="Vector_11" d="M65.4951 64.2598L70.0618 60.9056L71.1348 62.3664L66.5681 65.7206L65.4951 64.2598Z" fill="#71356C"/>
<path id="Vector_12" d="M45.2246 62.4365L46.2976 60.9756L50.8643 64.3298L49.7913 65.7907L45.2246 62.4365Z" fill="#71356C"/>
<path id="Vector_13" d="M58.1729 64.4053C53.676 64.4053 50.0166 68.0647 50.0166 72.5615C50.0166 77.0583 53.676 80.7178 58.1729 80.7178C62.6697 80.7178 66.3291 77.0583 66.3291 72.5615C66.3291 68.0647 62.6697 64.4053 58.1729 64.4053ZM58.1729 78.9053C54.6747 78.9053 51.8291 76.0596 51.8291 72.5615C51.8291 69.0634 54.6747 66.2178 58.1729 66.2178C61.671 66.2178 64.5166 69.0634 64.5166 72.5615C64.5166 76.0596 61.671 78.9053 58.1729 78.9053Z" fill="#71356C"/>
<path id="Vector_14" d="M58.1729 68.0303C55.6734 68.0303 53.6416 70.0621 53.6416 72.5615C53.6416 75.061 55.6734 77.0928 58.1729 77.0928C60.6723 77.0928 62.7041 75.061 62.7041 72.5615C62.7041 70.0621 60.6723 68.0303 58.1729 68.0303ZM58.1729 75.2803C56.6739 75.2803 55.4541 74.0605 55.4541 72.5615C55.4541 71.0626 56.6739 69.8428 58.1729 69.8428C59.6718 69.8428 60.8916 71.0626 60.8916 72.5615C60.8916 74.0605 59.6718 75.2803 58.1729 75.2803Z" fill="#71356C"/>
<path id="Vector_15" d="M105.298 49.9053H11.0479C8.54841 49.9053 6.5166 51.9371 6.5166 54.4365C6.5166 56.936 8.54841 58.9678 11.0479 58.9678H105.298C107.797 58.9678 109.829 56.936 109.829 54.4365C109.829 51.9371 107.797 49.9053 105.298 49.9053ZM105.298 57.1553H11.0479C9.54891 57.1553 8.3291 55.9355 8.3291 54.4365C8.3291 52.9376 9.54891 51.7178 11.0479 51.7178H105.298C106.797 51.7178 108.017 52.9376 108.017 54.4365C108.017 55.9355 106.797 57.1553 105.298 57.1553Z" fill="#71356C"/>
<path id="Vector_16" d="M38.2354 89.7803H27.3604C25.8614 89.7803 24.6416 91.0001 24.6416 92.499C24.6416 93.998 25.8614 95.2178 27.3604 95.2178H38.2354C39.7343 95.2178 40.9541 93.998 40.9541 92.499C40.9541 91.0001 39.7343 89.7803 38.2354 89.7803ZM38.2354 93.4053H27.3604C26.8619 93.4053 26.4541 92.9975 26.4541 92.499C26.4541 92.0006 26.8619 91.5928 27.3604 91.5928H38.2354C38.7338 91.5928 39.1416 92.0006 39.1416 92.499C39.1416 92.9975 38.7338 93.4053 38.2354 93.4053Z" fill="#71356C"/>
<path id="Vector_17" d="M88.9854 89.7803H78.1104C76.6114 89.7803 75.3916 91.0001 75.3916 92.499C75.3916 93.998 76.6114 95.2178 78.1104 95.2178H88.9854C90.4843 95.2178 91.7041 93.998 91.7041 92.499C91.7041 91.0001 90.4843 89.7803 88.9854 89.7803ZM88.9854 93.4053H78.1104C77.6119 93.4053 77.2041 92.9975 77.2041 92.499C77.2041 92.0006 77.6119 91.5928 78.1104 91.5928H88.9854C89.4838 91.5928 89.8916 92.0006 89.8916 92.499C89.8916 92.9975 89.4838 93.4053 88.9854 93.4053Z" fill="#71356C"/>
<path id="Vector_18" d="M41.8604 48.0928H70.8604C72.3593 48.0928 73.5791 46.873 73.5791 45.374C73.5791 44.6744 73.3072 44.0436 72.8722 43.5615C73.3072 43.0794 73.5791 42.4487 73.5791 41.749C73.5791 30.256 73.5791 36.3079 73.5791 29.0615C73.5791 24.5647 69.9197 20.9053 65.4229 20.9053H45.4854C43.9864 20.9053 42.7666 22.1251 42.7666 23.624C42.7666 25.123 43.9864 26.3428 45.4854 26.3428H65.4229C66.9218 26.3428 68.1416 27.5626 68.1416 29.0615V31.7803H62.7041V30.874C62.7041 29.3751 61.4843 28.1553 59.9854 28.1553H56.3604C54.8614 28.1553 53.6416 29.3751 53.6416 30.874V31.7803H50.9229C45.295 31.7803 40.4303 35.7841 39.3573 41.3013C39.2087 42.0644 39.4117 42.8492 39.9174 43.4618C39.9192 43.4655 39.9228 43.4673 39.9246 43.4691C39.4425 43.9603 39.1416 44.6309 39.1416 45.374C39.1416 46.873 40.3614 48.0928 41.8604 48.0928ZM70.8604 46.2803H41.8604C41.3619 46.2803 40.9541 45.8725 40.9541 45.374C40.9541 44.8756 41.3619 44.4678 41.8604 44.4678H42.0452H70.8604C71.3588 44.4678 71.7666 44.8756 71.7666 45.374C71.7666 45.8725 71.3588 46.2803 70.8604 46.2803ZM65.4229 24.5303H45.4854C44.9869 24.5303 44.5791 24.1225 44.5791 23.624C44.5791 23.1256 44.9869 22.7178 45.4854 22.7178H65.4229C68.921 22.7178 71.7666 25.5634 71.7666 29.0615V31.7803H69.9541V29.0615C69.9541 26.5621 67.9223 24.5303 65.4229 24.5303ZM55.4541 30.874C55.4541 30.3756 55.8619 29.9678 56.3604 29.9678H59.9854C60.4838 29.9678 60.8916 30.3756 60.8916 30.874V31.7803H55.4541V30.874ZM50.9229 33.5928H71.7666V41.749C71.7666 42.2475 71.3588 42.6553 70.8604 42.6553H42.0452C41.7679 42.6553 41.4942 42.5266 41.3166 42.3109C41.2242 42.1967 41.0774 41.9629 41.139 41.6493C42.0452 36.9803 46.1596 33.5928 50.9229 33.5928Z" fill="#71356C"/>
</g>
</g>
</g>
</svg>
