<svg width="91" height="91" viewBox="0 0 91 91" fill="none" xmlns="http://www.w3.org/2000/svg">
<path d="M9.87237 83.4927H47.2505V80.6802H9.87237C9.47014 80.6836 9.07186 80.6007 8.7044 80.4371C8.33695 80.2735 8.00886 80.0329 7.74229 79.7317C7.47572 79.4305 7.27686 79.0756 7.15914 78.691C7.04141 78.3063 7.00756 77.9009 7.05987 77.5021L13.3317 30.0552H20.5317V27.2427H12.0942C11.7509 27.2398 11.4183 27.3626 11.1593 27.588C10.9003 27.8134 10.7326 28.1257 10.688 28.4662L4.30362 77.1365C4.20681 77.9346 4.28224 78.7443 4.52482 79.5109C4.7674 80.2774 5.1715 80.9831 5.70987 81.5802C6.2307 82.1732 6.87048 82.6499 7.58761 82.9794C8.30475 83.3089 9.0832 83.4838 9.87237 83.4927Z" fill="#71356C"/>
<path d="M65.9822 42.8943L68.7947 42.5287L66.9385 28.4662C66.8939 28.1257 66.7262 27.8134 66.4672 27.588C66.2081 27.3626 65.8756 27.2398 65.5322 27.2427H57.0947V30.0552H64.2947L65.9822 42.8943Z" fill="#71356C"/>
<path d="M28.9697 27.2427H48.6572V30.0552H28.9697V27.2427Z" fill="#71356C"/>
<path d="M24.7515 44.1177C25.7408 44.11 26.696 43.7548 27.45 43.1143C28.2041 42.4737 28.709 41.5886 28.8766 40.6135C29.0441 39.6384 28.8636 38.6354 28.3666 37.7799C27.8696 36.9244 27.0878 36.2708 26.1577 35.9333V18.8052C26.1577 15.4485 27.4911 12.2294 29.8646 9.85586C32.2381 7.48235 35.4573 6.14893 38.814 6.14893C42.1706 6.14893 45.3898 7.48235 47.7633 9.85586C50.1368 12.2294 51.4702 15.4485 51.4702 18.8052V35.9333C50.5319 36.265 49.7411 36.9178 49.2376 37.7762C48.7341 38.6346 48.5502 39.6433 48.7185 40.6242C48.8868 41.605 49.3964 42.4948 50.1572 43.1363C50.9181 43.7777 51.8813 44.1295 52.8765 44.1295C53.8716 44.1295 54.8348 43.7777 55.5957 43.1363C56.3565 42.4948 56.8662 41.605 57.0344 40.6242C57.2027 39.6433 57.0189 38.6346 56.5153 37.7762C56.0118 36.9178 55.221 36.265 54.2827 35.9333V18.8052C54.2827 14.7026 52.653 10.7681 49.752 7.86712C46.8511 4.96616 42.9165 3.33643 38.814 3.33643C34.7114 3.33643 30.7769 4.96616 27.8759 7.86712C24.9749 10.7681 23.3452 14.7026 23.3452 18.8052V35.9333C22.4152 36.2708 21.6333 36.9244 21.1363 37.7799C20.6393 38.6354 20.4588 39.6384 20.6264 40.6135C20.7939 41.5886 21.2988 42.4737 22.0529 43.1143C22.8069 43.7548 23.7621 44.11 24.7515 44.1177ZM52.8765 38.4927C53.1546 38.4927 53.4265 38.5752 53.6577 38.7297C53.889 38.8842 54.0692 39.1038 54.1757 39.3608C54.2821 39.6177 54.3099 39.9005 54.2557 40.1733C54.2014 40.4461 54.0675 40.6966 53.8708 40.8933C53.6742 41.09 53.4236 41.2239 53.1508 41.2782C52.878 41.3324 52.5953 41.3046 52.3383 41.1981C52.0814 41.0917 51.8617 40.9115 51.7072 40.6802C51.5527 40.4489 51.4702 40.1771 51.4702 39.8989C51.4702 39.526 51.6184 39.1683 51.8821 38.9046C52.1458 38.6408 52.5035 38.4927 52.8765 38.4927ZM24.7515 38.4927C25.0296 38.4927 25.3015 38.5752 25.5327 38.7297C25.764 38.8842 25.9442 39.1038 26.0507 39.3608C26.1571 39.6177 26.1849 39.9005 26.1307 40.1733C26.0764 40.4461 25.9425 40.6966 25.7458 40.8933C25.5492 41.09 25.2986 41.2239 25.0258 41.2782C24.753 41.3324 24.4703 41.3046 24.2133 41.1981C23.9564 41.0917 23.7367 40.9115 23.5822 40.6802C23.4277 40.4489 23.3452 40.1771 23.3452 39.8989C23.3452 39.526 23.4934 39.1683 23.7571 38.9046C24.0208 38.6408 24.3785 38.4927 24.7515 38.4927Z" fill="#71356C"/>
<path d="M65.5322 62.3989H61.3135V58.1802H65.5322V55.3677H57.0947V58.1802H58.501V62.3989H57.0947C56.7218 62.3989 56.3641 62.5471 56.1004 62.8108C55.8366 63.0745 55.6885 63.4322 55.6885 63.8052V76.4614C55.6885 76.8344 55.8366 77.1921 56.1004 77.4558C56.3641 77.7195 56.7218 77.8677 57.0947 77.8677H65.5322C65.9052 77.8677 66.2629 77.7195 66.5266 77.4558C66.7903 77.1921 66.9385 76.8344 66.9385 76.4614V63.8052C66.9385 63.4322 66.7903 63.0745 66.5266 62.8108C66.2629 62.5471 65.9052 62.3989 65.5322 62.3989ZM64.126 75.0552H58.501V65.2114H64.126V75.0552Z" fill="#71356C"/>
<path d="M10.6885 75.0552H13.501V77.8677H10.6885V75.0552Z" fill="#71356C"/>
<path d="M16.3135 75.0552H19.126V77.8677H16.3135V75.0552Z" fill="#71356C"/>
<path d="M21.9385 75.0552H24.751V77.8677H21.9385V75.0552Z" fill="#71356C"/>
<path d="M75.376 69.4302H72.5635V72.2427H69.751V75.0552H72.5635V77.8677H75.376V75.0552H78.1885V72.2427H75.376V69.4302Z" fill="#CDA3CE"/>
<path d="M71.1572 55.3677H76.7822V58.1802H71.1572V55.3677Z" fill="#CDA3CE"/>
<path d="M68.3936 61.2578L69.9543 58.9181L73.4639 61.2592L71.9031 63.5989L68.3936 61.2578Z" fill="#CDA3CE"/>
<path d="M68.3838 52.292L71.8934 49.9509L73.4541 52.2906L69.9445 54.6317L68.3838 52.292Z" fill="#CDA3CE"/>
<path d="M45.8447 66.6177C45.8447 70.7896 47.0819 74.8679 49.3997 78.3367C51.7175 81.8056 55.0119 84.5092 58.8663 86.1058C62.7206 87.7023 66.9619 88.12 71.0537 87.3061C75.1454 86.4922 78.904 84.4832 81.854 81.5332C84.804 78.5832 86.813 74.8246 87.6269 70.7329C88.4408 66.6411 88.0231 62.3998 86.4266 58.5454C84.83 54.6911 82.1264 51.3967 78.6575 49.0789C75.1887 46.7611 71.1104 45.5239 66.9385 45.5239C61.3441 45.5239 55.9788 47.7463 52.0229 51.7021C48.0671 55.658 45.8447 61.0233 45.8447 66.6177ZM85.2197 66.6177C85.2197 70.2334 84.1475 73.7679 82.1388 76.7742C80.13 79.7805 77.2749 82.1237 73.9344 83.5073C70.5939 84.891 66.9182 85.253 63.372 84.5477C59.8258 83.8423 56.5684 82.1011 54.0117 79.5445C51.455 76.9878 49.7139 73.7304 49.0085 70.1842C48.3031 66.638 48.6651 62.9622 50.0488 59.6217C51.4325 56.2813 53.7756 53.4261 56.782 51.4174C59.7883 49.4086 63.3228 48.3364 66.9385 48.3364C69.3392 48.3364 71.7164 48.8093 73.9344 49.728C76.1524 50.6467 78.1677 51.9933 79.8653 53.6909C81.5628 55.3885 82.9094 57.4038 83.8281 59.6217C84.7469 61.8397 85.2197 64.2169 85.2197 66.6177Z" fill="#CDA3CE"/>
</svg>
