<svg width="91" height="91" viewBox="0 0 91 91" fill="none" xmlns="http://www.w3.org/2000/svg">
<g clip-path="url(#clip0_1717_1766)">
<path d="M79.626 68.7812C79.626 73.1429 76.0775 76.6914 71.7158 76.6914H68.7275V52.9609H74.001V37.1406H68.7275V7.96094C68.7275 3.59928 65.179 0.0507812 60.8174 0.0507812H8.08301C3.72135 0.0507812 0.172852 3.59928 0.172852 7.96094V82.1406C0.172852 86.5023 3.72135 90.0508 8.08301 90.0508H60.8174C65.179 90.0508 68.7275 86.5023 68.7275 82.1406V81.9648H71.7158C78.9853 81.9648 84.8994 76.0507 84.8994 68.7812C84.8994 65.8735 87.2651 63.5078 90.1729 63.5078V58.2344C84.3573 58.2344 79.626 62.9657 79.626 68.7812ZM63.4541 76.2379C60.3851 75.1495 58.1807 72.2187 58.1807 68.7812V52.9609H63.4541V76.2379ZM68.7275 47.6875H42.3604V42.4141H68.7275V47.6875ZM60.8174 84.7773H8.08301C6.62912 84.7773 5.44629 83.5945 5.44629 82.1406V7.96094C5.44629 6.50705 6.62912 5.32422 8.08301 5.32422H60.8174C62.2713 5.32422 63.4541 6.50705 63.4541 7.96094V37.1406H37.0869V52.9609H52.9072V68.7812C52.9072 75.1479 57.4438 80.4746 63.4541 81.6996V82.1406C63.4541 83.5945 62.2713 84.7773 60.8174 84.7773Z" fill="#71356C"/>
<path d="M9.61914 76.6841L13.3475 72.9558L17.0758 76.6841L13.3475 80.4124L9.61914 76.6841Z" fill="#CDA3CE"/>
<path d="M30.7109 76.686L34.4393 72.9577L38.1676 76.686L34.4393 80.4144L30.7109 76.686Z" fill="#CDA3CE"/>
<path d="M20.166 66.1392L23.8943 62.4108L27.6227 66.1392L23.8943 69.8675L20.166 66.1392Z" fill="#CDA3CE"/>
<path d="M41.2568 66.1416L44.9852 62.4133L48.7135 66.1416L44.9852 69.8699L41.2568 66.1416Z" fill="#CDA3CE"/>
<path d="M20.168 45.0479L23.8963 41.3195L27.6246 45.0479L23.8963 48.7762L20.168 45.0479Z" fill="#CDA3CE"/>
<path d="M9.62109 55.5928L13.3494 51.8645L17.0777 55.5928L13.3494 59.3211L9.62109 55.5928Z" fill="#CDA3CE"/>
<path d="M9.62305 34.5015L13.3514 30.7731L17.0797 34.5015L13.3514 38.2298L9.62305 34.5015Z" fill="#CDA3CE"/>
<path d="M20.1699 23.9565L23.8982 20.2282L27.6266 23.9565L23.8982 27.6849L20.1699 23.9565Z" fill="#CDA3CE"/>
<path d="M41.2607 23.959L44.9891 20.2307L48.7174 23.959L44.9891 27.6873L41.2607 23.959Z" fill="#CDA3CE"/>
<path d="M30.7168 13.4121L34.4451 9.68379L38.1734 13.4121L34.4451 17.1404L30.7168 13.4121Z" fill="#CDA3CE"/>
<path d="M9.625 13.4102L13.3533 9.68184L17.0816 13.4102L13.3533 17.1385L9.625 13.4102Z" fill="#CDA3CE"/>
<path d="M51.8076 13.4141L55.5359 9.68574L59.2643 13.4141L55.5359 17.1424L51.8076 13.4141Z" fill="#CDA3CE"/>
</g>
<defs>
<clipPath id="clip0_1717_1766">
<rect width="90" height="90" fill="white" transform="translate(0.172852 0.0507812)"/>
</clipPath>
</defs>
</svg>
