<svg width="91" height="91" viewBox="0 0 91 91" fill="none" xmlns="http://www.w3.org/2000/svg">
<g clip-path="url(#clip0_1717_1811)">
<path d="M85.4285 40.8947C84.3088 40.2306 82.9386 40.0594 81.6698 40.4248C79.2558 41.1202 73.1606 42.515 66.6596 41.1991C66.6999 40.9017 66.7141 40.5981 66.6987 40.2905C66.5739 37.8094 64.5302 35.7953 62.0463 35.7053C61.8469 35.6981 61.6492 35.7026 61.4537 35.7193C60.9466 32.8506 58.5542 30.5804 55.6359 30.2569C55.1653 30.2046 54.6969 30.2014 54.234 30.2464C52.5462 25.9976 46.7375 24.8316 43.5766 28.1903C41.4382 27.0099 38.5862 27.2203 36.6487 28.7051C35.485 28.088 34.1561 27.8201 32.823 27.944C29.6211 28.2427 27.0553 30.7808 26.7218 33.9789C26.6234 34.9197 26.72 35.8628 27.0022 36.7515C25.0656 38.4733 24.4389 41.4799 25.5379 43.8434C23.5576 44.735 22.2659 46.7791 22.4203 49.0803C22.4401 49.3753 22.4849 49.6628 22.5503 49.9425C12.8238 50.6903 7.72863 51.7153 4.6326 53.514C0.918867 55.6721 0.172852 58.9117 0.172852 63.4392V78.4221C0.172852 79.6487 1.26076 80.6464 2.59811 80.6464H70.8654C72.6111 80.5859 72.6097 78.0694 70.8654 78.0097L2.80957 78.0095V74.2186H87.5361V78.0098H77.1462C75.4005 78.0703 75.402 80.5868 77.1462 80.6466H87.7478C89.0849 80.6466 90.173 79.6487 90.173 78.4222V50.7692C90.1728 44.626 87.2002 41.9457 85.4285 40.8947ZM61.7905 71.5812C61.0208 66.9411 57.4216 63.5877 52.2526 64.2717C46.4796 64.5357 31.3928 65.227 29.2107 53.854C30.0326 53.6195 30.7915 53.1916 31.4169 52.6047C35.508 55.4172 41.2839 52.5216 41.5108 47.584C42.884 47.5779 44.1308 47.1609 45.1141 46.3625C45.7332 45.86 46.2165 45.2323 46.538 44.533C48.1576 45.4592 50.2343 45.6237 51.9775 44.9559C55.6376 47.5188 61.118 49.6208 66.7591 50.6121C73.3527 51.7355 80.2614 51.5708 87.4444 49.0972C87.5034 49.614 87.5361 50.1698 87.5361 50.7694V71.5812H61.7905ZM82.3998 42.9587C82.9727 42.7933 83.5863 42.8678 84.0831 43.1624C85.0545 43.7387 86.1404 44.751 86.8305 46.519C74.0743 51.084 61.1067 47.4578 54.6555 43.5534C55.7087 43.5906 56.7419 43.3811 57.6758 42.9485C59.2719 45.8123 63.4413 46.2247 65.561 43.6615C72.8512 45.2955 79.7232 43.7297 82.3998 42.9587ZM27.4886 46.0194C28.0361 45.9658 28.5046 45.6162 28.7115 45.1071C28.9178 44.5989 28.8255 44.0229 28.4713 43.6038C27.1069 42.0571 27.4731 39.4621 29.2167 38.3561C29.8254 37.9514 30.0453 37.1498 29.7287 36.4921C29.3963 35.8009 29.2636 35.0266 29.3443 34.2528C29.5477 32.3009 31.1137 30.7519 33.0677 30.5696C34.0747 30.473 35.0742 30.7372 35.8962 31.3354C36.4845 31.762 37.285 31.699 37.7994 31.1865C39.1244 29.8201 41.4296 29.6865 42.9018 30.8905C43.2227 31.1438 43.6378 31.2531 44.0422 31.1905C44.4456 31.1276 44.8081 30.897 45.0361 30.5588C46.9068 27.7594 51.2798 28.6085 51.9946 31.8836C52.0798 32.277 52.3257 32.6226 52.6692 32.8313C53.0122 33.0399 53.4318 33.0991 53.8218 32.9935C54.3149 32.8592 54.8278 32.8202 55.3453 32.8777C57.1799 33.081 58.6702 34.5595 58.8889 36.3931C58.917 36.6301 58.9251 36.8691 58.9126 37.105C58.8855 37.6194 59.1225 38.101 59.5468 38.3931C59.9717 38.6856 60.5068 38.7361 60.9791 38.5266C61.285 38.3909 61.613 38.3278 61.9505 38.3404C63.0605 38.3807 64.0092 39.3149 64.0649 40.4231C64.0957 41.0341 63.8816 41.6133 63.4624 42.054C62.2736 43.3498 60.0139 42.6859 59.7094 40.9553C59.6119 40.4473 59.2647 40.0356 58.7806 39.8537C58.2977 39.6723 57.7663 39.7533 57.3598 40.0703C56.4427 40.7927 55.2346 41.0738 54.0904 40.8425C53.5611 40.736 53.018 40.9265 52.6703 41.3419C51.2679 43.1002 48.4044 43.1913 46.9036 41.5127C46.4898 41.0721 45.8589 40.9277 45.2954 41.1455C44.7348 41.3619 44.3657 41.8901 44.3553 42.4925C44.3439 43.1941 44.0145 43.8585 43.4514 44.3156C42.7369 44.896 41.737 45.0829 40.5589 44.8554C40.0817 44.764 39.5906 44.9123 39.2446 45.2525C38.9006 45.5905 38.7442 46.076 38.8266 46.5513C39.4594 50.2352 34.9554 52.5768 32.3094 49.9399C31.9926 49.6238 31.5558 49.4707 31.1119 49.5166C30.6676 49.5639 30.2728 49.8063 30.0284 50.1831C29.4967 51.0049 28.5974 51.4662 27.6167 51.4199C26.2679 51.3547 25.1406 50.2494 25.0503 48.904C24.9522 47.4285 26.0224 46.1615 27.4886 46.0194ZM23.9589 52.482C24.6555 53.1834 25.5453 53.6917 26.5425 53.9218C27.513 59.919 31.3545 63.9122 37.9727 65.7952C43.334 67.3202 49.2142 67.0504 52.3736 66.9052C53.0224 66.8755 53.5829 66.8498 53.9484 66.8498C56.8115 66.8498 58.5899 69.3129 59.1018 71.581H2.80957V63.4392C2.80957 56.4533 3.84457 53.9276 23.9589 52.482Z" fill="#71356C"/>
<path d="M2.75842 17.3652H42.3076L41.6346 23.9997C41.5969 24.3705 41.7182 24.7401 41.968 25.0166C42.218 25.2933 42.5732 25.4512 42.9461 25.4512H61.8134C62.1862 25.4512 62.5416 25.2935 62.7914 25.0166C63.0414 24.7401 63.1625 24.3705 63.1249 23.9997L62.4463 17.3118C63.6223 17.069 64.5088 16.026 64.5088 14.7797V12.0406C64.5088 10.6151 63.3488 9.45508 61.9232 9.45508H15.528C13.7824 9.51555 13.7838 12.032 15.528 12.0918H61.8721V14.7285H2.80957V12.0918H9.24896C10.9946 12.0313 10.9932 9.51484 9.24896 9.45508H2.75842C1.33283 9.45508 0.172852 10.6151 0.172852 12.0406V14.7797C0.172852 16.2053 1.33283 17.3652 2.75842 17.3652ZM59.8019 17.3652L60.3547 22.8145H58.3819L58.1021 19.5665C58.0397 18.8409 57.3997 18.3055 56.6755 18.3661C55.95 18.4285 55.4125 19.0673 55.475 19.7928L55.7354 22.8143H53.8346V19.6796C53.7742 17.9339 51.2577 17.9353 51.1979 19.6796V22.8145H49.0246L49.2849 19.7929C49.3473 19.0675 48.8099 18.4287 48.0845 18.3663C47.3601 18.3055 46.7203 18.8411 46.6579 19.5667L46.378 22.8146H44.4052L44.958 17.3654L59.8019 17.3652Z" fill="#CDA3CE"/>
<path d="M76.3597 53.9082H68.8078C67.195 53.9082 65.8828 55.2204 65.8828 56.8332V61.457C65.8828 63.0188 66.5729 64.4858 67.7762 65.482L70.4644 67.7074C71.6922 68.7241 73.4753 68.7241 74.7032 67.7074L77.3914 65.482H77.3916C78.5946 64.4858 79.2847 63.0188 79.2847 61.457V56.8332C79.2847 55.2204 77.9725 53.9082 76.3597 53.9082ZM76.648 61.4568C76.648 62.2306 76.3063 62.9574 75.7102 63.4508L73.022 65.6762C72.7682 65.8861 72.3997 65.8865 72.1459 65.6762L69.4579 63.4508C68.8616 62.9572 68.5197 62.2306 68.5197 61.4568V56.833C68.5197 56.6741 68.6489 56.5447 68.808 56.5447H76.3599C76.5188 56.5447 76.6482 56.6739 76.6482 56.833V61.4568H76.648Z" fill="#CDA3CE"/>
</g>
<defs>
<clipPath id="clip0_1717_1811">
<rect width="90" height="90" fill="white" transform="translate(0.172852 0.0507812)"/>
</clipPath>
</defs>
</svg>
