<svg width="91" height="91" viewBox="0 0 91 91" fill="none" xmlns="http://www.w3.org/2000/svg">
<g clip-path="url(#clip0_1717_1803)">
<path d="M13.7214 46.4282H13.7619C15.1121 46.4288 16.3912 45.8231 17.2464 44.7782L21.2304 39.9062V48.5012V48.5222C21.1629 50.2727 20.3964 58.7012 12.2589 58.7012C11.4304 58.7012 10.7589 59.3727 10.7589 60.2012C10.7589 61.0296 11.4304 61.7012 12.2589 61.7012C20.3589 61.7012 21.1569 70.1462 21.2334 71.8847V71.9012V85.7012C21.2334 88.1865 23.2481 90.2012 25.7334 90.2012H83.4804C86.3492 90.2139 88.9099 88.4044 89.8558 85.696C90.8018 82.9875 89.9244 79.9772 87.6714 78.2012C89.2867 76.9381 90.2306 75.0017 90.2306 72.9512C90.2306 70.9007 89.2867 68.9643 87.6714 67.7012C89.9244 65.9251 90.8018 62.9148 89.8558 60.2064C88.9099 57.498 86.3492 55.6884 83.4804 55.7012H69.2304V39.9107L73.2249 44.7917C74.0813 45.8309 75.3582 46.4319 76.7049 46.4297H76.7454C78.0946 46.4224 79.3683 45.8054 80.2104 44.7512L88.4604 34.4492C89.7396 32.8577 89.787 30.6045 88.5759 28.9607L75.7944 11.5217C74.0995 9.22249 71.8853 7.3563 69.3324 6.07517L59.7924 1.29767C59.6619 1.23317 59.5254 1.18667 59.3919 1.12817H59.3769C58.0316 0.524398 56.5749 0.208639 55.1004 0.201172H35.3604C33.8896 0.207718 32.4363 0.520349 31.0929 1.11917L31.0659 1.13117C30.9279 1.19117 30.7899 1.23917 30.6534 1.30517L21.1299 6.07517C18.5757 7.35638 16.3608 9.22375 14.6664 11.5247L1.88936 28.9487C0.675731 30.5915 0.72069 32.8456 1.99886 34.4387L10.2489 44.7407C11.091 45.8002 12.368 46.4208 13.7214 46.4282ZM18.2124 60.2012C20.2222 58.9728 21.8045 57.1547 22.7439 54.9947C23.6838 57.1548 25.2666 58.9728 27.2769 60.2012C25.2666 61.4295 23.6838 63.2475 22.7439 65.4077C21.8045 63.2476 20.2222 61.4296 18.2124 60.2012ZM24.2304 85.7012V82.7012H40.8069C40.7669 82.9495 40.7414 83.1999 40.7304 83.4512C40.7296 84.7871 41.1276 86.0928 41.8734 87.2012H25.7304C24.9019 87.2012 24.2304 86.5296 24.2304 85.7012ZM87.2304 83.4512C87.2304 85.5222 85.5514 87.2012 83.4804 87.2012H47.4804C45.4093 87.2012 43.7304 85.5222 43.7304 83.4512C43.7304 81.3801 45.4093 79.7012 47.4804 79.7012H83.4804C85.5514 79.7012 87.2304 81.3801 87.2304 83.4512ZM87.2304 72.9512C87.2304 75.0222 85.5514 76.7012 83.4804 76.7012H47.4804C45.4093 76.7012 43.7304 75.0222 43.7304 72.9512C43.7304 70.8801 45.4093 69.2012 47.4804 69.2012H83.4804C85.5514 69.2012 87.2304 70.8801 87.2304 72.9512ZM87.2304 62.4512C87.2304 64.5222 85.5514 66.2012 83.4804 66.2012H47.4804C45.4093 66.2012 43.7304 64.5222 43.7304 62.4512C43.7304 60.3801 45.4093 58.7012 47.4804 58.7012H83.4804C85.5514 58.7012 87.2304 60.3801 87.2304 62.4512ZM86.1204 32.5637L77.8704 42.8702C77.5883 43.2207 77.1638 43.4261 76.7139 43.4297C76.2627 43.4214 75.8356 43.2245 75.5364 42.8867L74.3604 41.4482L84.4269 28.3667L86.1609 30.7322C86.565 31.281 86.5484 32.0333 86.1204 32.5637ZM45.2304 13.7012C52.1799 13.7012 58.1214 9.85517 59.7609 4.63667L62.4714 5.99417C60.2199 12.2627 53.1804 16.7012 45.2304 16.7012C37.2804 16.7012 30.2409 12.2627 27.9894 5.99417L30.7014 4.63667C32.3394 9.85517 38.2809 13.7012 45.2304 13.7012ZM55.1004 3.20117C55.7358 3.20359 56.3684 3.28676 56.9829 3.44867C55.8999 7.59467 51.0084 10.7012 45.2304 10.7012C39.4524 10.7012 34.5609 7.59467 33.4779 3.44867C34.0924 3.28699 34.7249 3.20383 35.3604 3.20117H55.1004ZM17.0844 13.3007C18.4961 11.3801 20.3424 9.82113 22.4724 8.75117L25.2969 7.33667C28.0989 14.6012 36.1629 19.7012 45.2304 19.7012C54.2979 19.7012 62.3619 14.6012 65.1639 7.34267L67.9899 8.75867C70.1179 9.82617 71.9635 11.3814 73.3764 13.2977L82.5804 25.8512L72.4104 39.0677L71.5554 38.0177C70.7543 37.0353 69.4223 36.6624 68.2276 37.0861C67.0329 37.5098 66.2335 38.6386 66.2304 39.9062V55.7012H47.4804C44.6115 55.6884 42.0508 57.498 41.1049 60.2064C40.159 62.9148 41.0364 65.9251 43.2894 67.7012C41.6741 68.9643 40.7301 70.9007 40.7301 72.9512C40.7301 75.0017 41.6741 76.9381 43.2894 78.2012C42.7433 78.6257 42.2657 79.1316 41.8734 79.7012H24.2304V72.2702C24.2304 72.2462 24.2439 72.2252 24.2439 72.2012C24.2439 71.7722 24.3459 61.7012 33.2304 61.7012C34.0588 61.7012 34.7304 61.0296 34.7304 60.2012C34.7304 59.3727 34.0588 58.7012 33.2304 58.7012C24.3894 58.7012 24.2454 48.6272 24.2439 48.2012C24.2439 48.1772 24.2319 48.1562 24.2304 48.1322V39.9062C24.2252 38.6421 23.4282 37.5169 22.2375 37.0926C21.0468 36.6683 19.7178 37.0358 18.9144 38.0117L18.0534 39.0617L7.88037 25.8512L17.0844 13.3007ZM4.34037 32.5622C3.9126 32.0298 3.89842 31.2757 4.30587 30.7277L6.03687 28.3667L16.1019 41.4467L14.9289 42.8807C14.6259 43.2159 14.1999 43.414 13.7484 43.4297C13.2978 43.4274 12.8726 43.2211 12.5919 42.8687L4.34037 32.5622Z" fill="#71356C"/>
<path d="M28.7305 40.7012C37.5715 40.7012 37.7155 50.7752 37.717 51.2012C37.717 52.0296 38.3885 52.7012 39.217 52.7012C40.0454 52.7012 40.717 52.0296 40.717 51.2012C40.717 50.7722 40.819 40.7012 49.702 40.7012C50.5304 40.7012 51.202 40.0296 51.202 39.2012C51.202 38.3727 50.5304 37.7012 49.702 37.7012C40.861 37.7012 40.7185 27.6272 40.717 27.2012C40.717 26.3727 40.0454 25.7012 39.217 25.7012C38.3885 25.7012 37.717 26.3727 37.717 27.2012C37.717 27.6302 37.615 37.7012 28.7305 37.7012C27.902 37.7012 27.2305 38.3727 27.2305 39.2012C27.2305 40.0296 27.902 40.7012 28.7305 40.7012ZM39.217 33.9947C40.1563 36.1547 41.7387 37.9728 43.7485 39.2012C41.7387 40.4296 40.1563 42.2476 39.217 44.4077C38.277 42.2475 36.6942 40.4295 34.684 39.2012C36.6942 37.9728 38.277 36.1548 39.217 33.9947Z" fill="#CDA3CE"/>
<path d="M12.333 61.5244C21.174 61.5244 21.318 71.5984 21.3195 72.0244C21.3195 72.8528 21.9911 73.5244 22.8195 73.5244C23.6479 73.5244 24.3195 72.8528 24.3195 72.0244C24.3195 71.5954 24.4215 61.5244 33.3045 61.5244C34.1329 61.5244 34.8045 60.8528 34.8045 60.0244C34.8045 59.196 34.1329 58.5244 33.3045 58.5244C24.4635 58.5244 24.321 48.4504 24.3195 48.0244C24.3195 47.196 23.6479 46.5244 22.8195 46.5244C21.9911 46.5244 21.3195 47.196 21.3195 48.0244C21.3195 48.4534 21.2175 58.5244 12.333 58.5244C11.5046 58.5244 10.833 59.196 10.833 60.0244C10.833 60.8528 11.5046 61.5244 12.333 61.5244ZM22.8195 54.8179C23.7589 56.978 25.3412 58.796 27.351 60.0244C25.3412 61.2528 23.7589 63.0709 22.8195 65.2309C21.8796 63.0708 20.2967 61.2527 18.2865 60.0244C20.2967 58.7961 21.8796 56.9781 22.8195 54.8179Z" fill="#CDA3CE"/>
</g>
<defs>
<clipPath id="clip0_1717_1803">
<rect width="90" height="90" fill="white" transform="translate(0.230469 0.201172)"/>
</clipPath>
</defs>
</svg>
