<svg width="313" height="477" viewBox="0 0 313 477" fill="none" xmlns="http://www.w3.org/2000/svg">
<path d="M299.146 477C294.533 477 290.041 474.692 287.491 470.561L3.17085 21.2621C-0.106974 16.1592 0.378629 9.59829 4.14205 4.98138C7.90548 0.485966 14.2183 -1.215 19.8028 0.971957L260.055 94.1607C267.218 96.9552 270.738 104.974 267.946 112.021C265.154 119.189 257.141 122.713 250.1 119.918L48.9389 41.9167L285.428 415.522V277.015C285.428 269.36 291.619 263.164 299.267 263.164C306.916 263.164 313.107 269.36 313.107 277.015V463.149C313.107 469.346 309.101 474.692 303.152 476.393C301.938 476.757 300.603 477 299.267 477H299.146Z" fill="#FBB040"/>
</svg>
