<svg width="490" height="748" viewBox="0 0 490 748" fill="none" xmlns="http://www.w3.org/2000/svg">
<g clip-path="url(#clip0_1539_1899)">
<path d="M22.3185 747.964C29.5488 747.964 36.5889 744.349 40.5846 737.88L486.203 34.2615C491.34 26.2701 490.579 15.9956 484.68 8.7653C478.782 1.72531 468.888 -0.938467 460.135 2.48639L83.5862 148.423C72.3601 152.8 66.8422 165.358 71.2185 176.393C75.5947 187.619 88.1527 193.137 99.1885 188.761L414.47 66.6074L43.8192 651.688V434.78C43.8192 422.793 34.1154 413.089 22.1282 413.089C10.141 413.089 0.437164 422.793 0.437164 434.78V726.274C0.437164 735.977 6.71613 744.349 16.0395 747.013C17.9422 747.584 20.0352 747.964 22.1282 747.964H22.3185Z" fill="#FBB040"/>
</g>
<defs>
<clipPath id="clip0_1539_1899">
<rect width="489" height="747" fill="white" transform="matrix(-1 0 0 1 489.627 0.964355)"/>
</clipPath>
</defs>
</svg>
