<svg width="1314" height="892" viewBox="0 0 1314 892" fill="none" xmlns="http://www.w3.org/2000/svg">
<path d="M0.801511 63.4781C0.801512 28.8368 28.9592 0.793889 63.7422 0.793891L865.96 0.793926C1129.32 0.793937 1313.17 183.898 1313.17 446.182C1313.17 691.97 1112.75 891.57 865.96 891.569C680.45 891.569 512.056 774.999 446.907 602.342C434.761 569.901 451.324 534.16 483.899 522.063C516.473 509.966 552.361 526.461 565.059 558.903C611.989 683.172 732.901 767.301 866.512 767.301C1043.74 767.301 1188.39 623.787 1188.39 446.732C1188.39 287.272 1089.01 126.162 866.512 126.162L64.2943 126.162C29.5113 126.162 1.35363 98.1193 1.35363 63.4781L0.801511 63.4781Z" fill="#FBB040"/>
</svg>
