<svg width="1186" height="160" viewBox="0 0 1186 160" fill="none" xmlns="http://www.w3.org/2000/svg">
<path d="M831 0.00466345H0V160H597L831 0.00466345Z" fill="#63345B"/>
<path d="M592 152.842C592 150.477 593.192 148.174 595.326 146.867L827.415 1.09385C830.051 -0.524465 833.377 -0.337736 835.762 1.59179C838.147 3.52132 838.963 6.75796 837.896 9.62113L789.758 132.8C788.315 136.472 784.173 138.277 780.533 136.846C776.83 135.414 775.01 131.306 776.453 127.696L816.745 24.5594L623.757 145.809L1178.64 146.867C1182.59 146.867 1186 149.299 1186 153.22C1186 157.142 1182.59 160 1178.64 160H599.155C595.954 160 593.192 157.946 592.314 154.896C592.126 154.274 592 153.589 592 152.904V152.842Z" fill="#FBB040"/>
</svg>
