<svg width="26" height="26" viewBox="0 0 26 26" fill="none" xmlns="http://www.w3.org/2000/svg">
<g clip-path="url(#clip0_1499_1977)">
<path d="M15.3664 13.4911C15.5613 12.29 14.7457 11.1582 13.5445 10.9632C12.3434 10.7683 11.2116 11.5839 11.0166 12.7851C10.8216 13.9862 11.6373 15.118 12.8385 15.313C14.0396 15.508 15.1714 14.6923 15.3664 13.4911Z" stroke="white" stroke-linecap="round" stroke-linejoin="round"/>
<path d="M13.2725 25.33V17.2217" stroke="white" stroke-linecap="round" stroke-linejoin="round"/>
<path d="M14.3235 17.6128L13.2779 16.8926L12.2319 17.6128" stroke="white" stroke-linecap="round" stroke-linejoin="round"/>
<path d="M25.4355 13.167H17.3271" stroke="white" stroke-linecap="round" stroke-linejoin="round"/>
<path d="M17.7183 14.2176L16.998 13.172L17.7183 12.126" stroke="white" stroke-linecap="round" stroke-linejoin="round"/>
<path d="M1.12012 13.167H9.22844" stroke="white" stroke-linecap="round" stroke-linejoin="round"/>
<path d="M8.83789 14.2176L9.55777 13.172L8.83789 12.126" stroke="white" stroke-linecap="round" stroke-linejoin="round"/>
<path d="M13.2725 1.01367V9.122" stroke="white" stroke-linecap="round" stroke-linejoin="round"/>
<path d="M14.3235 8.73145L13.2779 9.45132L12.2319 8.73145" stroke="white" stroke-linecap="round" stroke-linejoin="round"/>
<path d="M11.7867 6.2207C9.05319 6.77258 6.89279 8.90485 6.29834 11.6225" stroke="white" stroke-linecap="round" stroke-linejoin="round"/>
<path d="M20.0837 11.6231C19.5067 8.98381 17.452 6.89715 14.8306 6.27344" stroke="white" stroke-linecap="round" stroke-linejoin="round"/>
<path d="M14.8306 20.0007C17.4467 19.3781 19.4984 17.2987 20.0803 14.667" stroke="white" stroke-linecap="round" stroke-linejoin="round"/>
<path d="M6.30176 14.667C6.90115 17.3774 9.0585 19.502 11.7867 20.0528" stroke="white" stroke-linecap="round" stroke-linejoin="round"/>
<path d="M11.7871 1.83789C6.65903 2.46883 2.58682 6.50988 1.90723 11.6224" stroke="white" stroke-linecap="round" stroke-linejoin="round"/>
<path d="M24.4748 11.6231C23.8059 6.58886 19.8473 2.5938 14.8306 1.87012" stroke="white" stroke-linecap="round" stroke-linejoin="round"/>
<path d="M14.8306 24.404C19.842 23.6811 23.7975 19.6936 24.4729 14.667" stroke="white" stroke-linecap="round" stroke-linejoin="round"/>
<path d="M1.90918 14.667C2.59523 19.7723 6.66403 23.8053 11.7868 24.4355" stroke="white" stroke-linecap="round" stroke-linejoin="round"/>
</g>
<defs>
<clipPath id="clip0_1499_1977">
<rect width="25" height="25" fill="white" transform="translate(0.777832 0.671875)"/>
</clipPath>
</defs>
</svg>
