<svg width="189" height="66" viewBox="0 0 189 66" fill="none" xmlns="http://www.w3.org/2000/svg">
<g id="Logo">
<path id="Vector" d="M37.1504 36.6318C36.197 36.6318 35.4253 35.8569 35.4253 34.8997V12.8228C35.4253 5.57523 40.4643 0.515625 47.6823 0.515625C54.4464 0.515625 59.9393 6.03105 59.9393 12.8228C59.9393 17.928 56.7313 22.5621 51.9798 24.355C51.087 24.6893 50.1034 24.2335 49.7705 23.337C49.4376 22.4406 49.8916 21.453 50.7844 21.1035C54.2042 19.812 56.5194 16.4845 56.5194 12.8076C56.5194 7.9303 52.57 3.94947 47.6974 3.94947C43.3091 3.94947 38.8754 6.6844 38.8754 12.8076V34.8845C38.8754 35.8417 38.1037 36.6166 37.1504 36.6166V36.6318Z" fill="#71356C"/>
<path id="Vector_2" d="M37.1502 65.5001C36.5752 65.5001 36.0153 65.2114 35.6975 64.6948L0.258118 8.50737C-0.135317 7.86922 -0.0899208 7.06394 0.379174 6.48656C0.84827 5.90919 1.63514 5.71167 2.33122 5.96997L32.2777 17.6238C33.1704 17.9732 33.6093 18.976 33.2612 19.8573C32.9132 20.7537 31.9145 21.1944 31.0368 20.8449L5.96292 11.0904L35.4403 57.812V40.4908C35.4403 39.5335 36.212 38.7587 37.1653 38.7587C38.1186 38.7587 38.8904 39.5335 38.8904 40.4908V63.768C38.8904 64.5429 38.391 65.2114 37.6495 65.4242C37.4982 65.4697 37.3318 65.5001 37.1653 65.5001H37.1502Z" fill="#FBB040"/>
<g id="Group">
<path id="Vector_3" d="M67.2178 8.47754C68.2619 8.73584 68.7915 9.20685 68.7915 9.89058V10.3768C68.7915 11.1517 68.2165 11.6227 67.0664 11.7898C66.325 11.7898 65.8256 11.2429 65.5835 10.1337C65.7953 9.03972 66.3552 8.47754 67.2329 8.47754H67.2178ZM67.2178 14.1145C68.2619 14.3728 68.7915 14.8438 68.7915 15.5276V35.2798C68.7915 36.1003 68.2619 36.6017 67.2178 36.7688H67.127C66.2947 36.7688 65.7802 36.2218 65.5684 35.1127V15.9986C65.7045 14.7375 66.2493 14.1145 67.2178 14.1145Z" fill="#71356C"/>
<path id="Vector_4" d="M84.771 14.1904C87.6612 14.1904 90.2942 15.2844 92.6548 17.4723C92.8213 17.761 92.8969 18.0497 92.8969 18.308V18.3992C92.7002 19.4476 92.1857 19.9642 91.3383 19.9642H91.2475C90.8541 19.9642 89.9764 19.4476 88.6145 18.3992C87.404 17.7762 86.1934 17.4723 84.998 17.4723H84.5137C81.336 17.4723 78.9149 19.1589 77.2806 22.5167C76.9023 23.6411 76.7056 24.6591 76.7056 25.5707C76.7056 28.8223 78.3852 31.2989 81.7294 32.9854C82.7433 33.3653 83.8025 33.5628 84.9223 33.5628C86.8138 33.5628 88.6599 32.7879 90.4909 31.2533L91.1416 31.1014H91.3988C92.2008 31.1014 92.6851 31.618 92.8667 32.6664V32.7271C92.8667 33.8515 91.1113 35.0974 87.6158 36.4497C86.4355 36.6624 85.5578 36.7839 84.9828 36.7839H84.3322C81.3057 36.7839 78.4912 35.3557 75.9036 32.4992C74.3147 30.2353 73.5127 27.9106 73.5127 25.51C73.5127 21.8482 75.1318 18.7638 78.355 16.272C80.4129 14.9045 82.5466 14.2208 84.7558 14.2208L84.771 14.1904Z" fill="#71356C"/>
<path id="Vector_5" d="M98.5714 5.19531H98.9043C99.9181 5.40803 100.417 5.86385 100.417 6.53239V22.9419C108.226 17.7456 112.796 14.7827 114.082 14.0382H114.49C115.368 14.0382 115.898 14.6156 116.064 15.7703C116.064 16.4389 115.186 17.2442 113.416 18.1862C109.118 21.1034 106.879 22.5773 106.697 22.6077V22.6684L115.988 34.5046L116.079 35.006V35.0667C115.882 36.1151 115.368 36.6469 114.505 36.6469H114.354C113.719 36.6469 112.735 35.7049 111.434 33.836L103.958 24.5069H103.898L100.417 26.7556V35.2491C100.417 36.0696 99.8878 36.571 98.8437 36.7381H98.7529C97.9661 36.7381 97.4364 36.2367 97.1792 35.2491V6.77549C97.391 5.7271 97.8601 5.19531 98.5865 5.19531H98.5714Z" fill="#71356C"/>
<path id="Vector_6" d="M130.515 14.2207C134.843 14.2207 138.202 16.2871 140.593 20.4047C141.41 22.0152 141.819 23.7777 141.819 25.6618V26.0872C141.622 27.1812 141.108 27.7434 140.26 27.7434H122.979C123.615 29.9313 125.007 31.6027 127.141 32.7574C128.397 33.2436 129.577 33.4867 130.666 33.4867C131.938 33.4867 133.39 33.0765 135.025 32.256H135.509C136.492 32.4535 136.977 32.9397 136.977 33.745V33.9881C136.977 35.3404 135.009 36.2672 131.09 36.7838H130.515C126.49 36.7838 123.252 34.8846 120.831 31.1013C119.847 29.3084 119.363 27.4395 119.363 25.4947C119.363 21.3771 121.3 18.0952 125.189 15.6337C127.065 14.6917 128.851 14.2207 130.515 14.2207ZM122.722 24.5222H138.475C138.475 23.3979 137.824 21.9393 136.507 20.1464C134.707 18.4446 132.936 17.5938 131.181 17.5938H130.288C127.655 17.5938 125.491 18.8853 123.797 21.4682C123.206 22.5014 122.858 23.5194 122.722 24.5222Z" fill="#71356C"/>
<path id="Vector_7" d="M156.058 14.2207C160.386 14.2207 163.745 16.2871 166.136 20.4047C166.953 22.0152 167.362 23.7777 167.362 25.6618V26.0872C167.165 27.1812 166.651 27.7434 165.803 27.7434H148.522C149.158 29.9313 150.55 31.6027 152.684 32.7574C153.94 33.2436 155.12 33.4867 156.209 33.4867C157.481 33.4867 158.933 33.0765 160.568 32.256H161.052C162.035 32.4535 162.52 32.9397 162.52 33.745V33.9881C162.52 35.3404 160.552 36.2672 156.633 36.7838H156.058C152.033 36.7838 148.795 34.8846 146.374 31.1013C145.39 29.3084 144.906 27.4395 144.906 25.4947C144.906 21.3771 146.843 18.0952 150.732 15.6337C152.608 14.6917 154.394 14.2207 156.058 14.2207ZM148.265 24.5222H164.018C164.018 23.3979 163.367 21.9393 162.05 20.1464C160.25 18.4446 158.479 17.5938 156.724 17.5938H155.831C153.198 17.5938 151.034 18.8853 149.339 21.4682C148.749 22.5014 148.401 23.5194 148.265 24.5222Z" fill="#71356C"/>
<path id="Vector_8" d="M171.977 14.5088L172.794 14.6H186.791L187.533 14.5088C188.501 14.7975 188.986 15.2685 188.986 15.8914V16.3777C188.986 16.7119 188.365 17.5628 187.124 18.8999L175.473 33.5925H187.548C188.516 33.79 189.001 34.261 189.001 35.0511V35.3094C189.001 36.0995 188.486 36.5857 187.472 36.768H172.098C171.236 36.768 170.721 36.1907 170.57 35.0511C170.57 34.6257 171.674 33.1367 173.884 30.5841L184.098 17.6691H173.248L171.962 17.7603C171.039 17.4412 170.585 16.8942 170.585 16.1345C170.767 15.1014 171.236 14.6 172.038 14.6V14.5088H171.977Z" fill="#71356C"/>
</g>
<g id="Group_2">
<path id="Vector_9" d="M72.9981 48.043V54.1965H76.3423V55.4576H71.5V48.043H72.9981Z" fill="#FBB040"/>
<path id="Vector_10" d="M86.1934 48.043H87.5704L90.7633 55.4576H89.129L88.4632 53.8471H85.3006L84.6348 55.4576H83.0005L86.1934 48.043ZM86.8894 50.003L85.8151 52.586H87.9487L86.8894 50.003Z" fill="#FBB040"/>
<path id="Vector_11" d="M97.5728 48.043H99.086V52.4492C99.086 52.9658 99.2373 53.3761 99.5551 53.7103C99.8728 54.0294 100.312 54.1965 100.887 54.1965C101.462 54.1965 101.901 54.0294 102.218 53.7103C102.536 53.3913 102.687 52.9658 102.687 52.4492V48.043H104.201V52.3277C104.201 53.3457 103.913 54.151 103.338 54.7131C102.763 55.2905 101.946 55.5792 100.872 55.5792C99.7972 55.5792 98.98 55.2905 98.4202 54.7131C97.8451 54.1358 97.5728 53.3457 97.5728 52.3277V48.043Z" fill="#FBB040"/>
<path id="Vector_12" d="M111.6 48.043H113.174L116.745 53.1482V48.043H118.273V55.4576H116.684L113.113 50.3373V55.4576H111.6V48.043Z" fill="#FBB040"/>
<path id="Vector_13" d="M125.703 48.043H129.002C130.061 48.043 130.939 48.3924 131.635 49.0762C132.331 49.7599 132.694 50.6563 132.694 51.7503C132.694 52.8443 132.346 53.7407 131.635 54.4245C130.924 55.1082 130.046 55.4576 129.002 55.4576H125.703V48.043ZM127.216 49.3041V54.1965H128.654C129.35 54.1965 129.925 53.9686 130.394 53.528C130.863 53.0874 131.105 52.4948 131.105 51.7503C131.105 51.0058 130.863 50.4284 130.394 49.9726C129.925 49.5168 129.335 49.2889 128.654 49.2889H127.216V49.3041Z" fill="#FBB040"/>
<path id="Vector_14" d="M142.152 52.4193H141.41V55.4733H139.897V48.0586H143.271C143.907 48.0586 144.452 48.2713 144.891 48.7119C145.329 49.1374 145.541 49.6844 145.541 50.3377C145.541 50.9607 145.329 51.4469 144.891 51.8115C144.603 52.0546 144.225 52.237 143.741 52.3585L145.814 55.4733H143.983L142.137 52.4193H142.152ZM141.41 49.3197V51.3709H142.954C143.241 51.3709 143.468 51.2797 143.665 51.0822C143.862 50.8847 143.952 50.6416 143.952 50.3377C143.952 50.0338 143.862 49.7907 143.665 49.6084C143.468 49.4261 143.226 49.3349 142.954 49.3349H141.41V49.3197Z" fill="#FBB040"/>
<path id="Vector_15" d="M152.215 48.043H154.031L155.922 50.945L157.814 48.043H159.645L156.694 52.3885V55.4576H155.181V52.3885L152.215 48.043Z" fill="#FBB040"/>
</g>
</g>
</svg>
