<svg width="190" height="66" viewBox="0 0 190 66" fill="none" xmlns="http://www.w3.org/2000/svg">
<path d="M37.3759 36.4394C36.4226 36.4394 35.6509 35.6645 35.6509 34.7073V12.6304C35.6509 5.38285 40.6899 0.323242 47.9079 0.323242C54.6719 0.323242 60.1649 5.83867 60.1649 12.6304C60.1649 17.7356 56.9569 22.3698 52.2054 24.1627C51.3126 24.4969 50.329 24.0411 49.9961 23.1447C49.6632 22.2482 50.1172 21.2606 51.01 20.9111C54.4298 19.6196 56.745 16.2922 56.745 12.6152C56.745 7.73792 52.7956 3.75709 47.923 3.75709C43.5347 3.75709 39.101 6.49201 39.101 12.6152V34.6921C39.101 35.6493 38.3293 36.4242 37.3759 36.4242V36.4394Z" fill="white"/>
<path d="M37.3758 65.3077C36.8008 65.3077 36.2409 65.0191 35.9231 64.5025L0.483704 8.31499C0.0902689 7.67684 0.135665 6.87155 0.60476 6.29418C1.07386 5.71681 1.86073 5.51929 2.5568 5.77758L32.5032 17.4314C33.396 17.7809 33.8349 18.7837 33.4868 19.6649C33.1388 20.5614 32.1401 21.002 31.2624 20.6525L6.18851 10.898L35.6658 57.6196V40.2984C35.6658 39.3412 36.4376 38.5663 37.3909 38.5663C38.3442 38.5663 39.116 39.3412 39.116 40.2984V63.5756C39.116 64.3505 38.6166 65.0191 37.8751 65.2318C37.7238 65.2774 37.5574 65.3077 37.3909 65.3077H37.3758Z" fill="#FBB040"/>
<path d="M67.4433 8.28485C68.4875 8.54315 69.0171 9.01416 69.0171 9.69789V10.1841C69.0171 10.959 68.4421 11.43 67.292 11.5971C66.5506 11.5971 66.0512 11.0502 65.8091 9.941C66.0209 8.84703 66.5808 8.28485 67.4585 8.28485H67.4433ZM67.4433 13.9218C68.4875 14.1801 69.0171 14.6511 69.0171 15.3349V35.0871C69.0171 35.9076 68.4875 36.409 67.4433 36.5761H67.3526C66.5203 36.5761 66.0058 36.0291 65.7939 34.92V15.8059C65.9301 14.5448 66.4749 13.9218 67.4433 13.9218Z" fill="white"/>
<path d="M84.9966 13.9978C87.8868 13.9978 90.5198 15.0918 92.8804 17.2797C93.0469 17.5684 93.1225 17.8571 93.1225 18.1154V18.2065C92.9258 19.2549 92.4113 19.7715 91.5639 19.7715H91.4731C91.0797 19.7715 90.202 19.2549 88.8401 18.2065C87.6296 17.5836 86.419 17.2797 85.2235 17.2797H84.7393C81.5616 17.2797 79.1404 18.9662 77.5062 22.3241C77.1279 23.4485 76.9312 24.4665 76.9312 25.3781C76.9312 28.6296 78.6108 31.1063 81.955 32.7928C82.9689 33.1726 84.0281 33.3702 85.1479 33.3702C87.0394 33.3702 88.8855 32.5953 90.7165 31.0607L91.3672 30.9087H91.6244C92.4264 30.9087 92.9107 31.4253 93.0922 32.4737V32.5345C93.0922 33.6589 91.3369 34.9048 87.8414 36.257C86.6611 36.4698 85.7834 36.5913 85.2084 36.5913H84.5577C81.5313 36.5913 78.7167 35.1631 76.1292 32.3066C74.5403 30.0427 73.7383 27.718 73.7383 25.3173C73.7383 21.6556 75.3574 18.5712 78.5806 16.0794C80.6385 14.7119 82.7721 14.0282 84.9814 14.0282L84.9966 13.9978Z" fill="white"/>
<path d="M98.7969 5.00293H99.1298C100.144 5.21565 100.643 5.67147 100.643 6.34V22.7495C108.451 17.5532 113.021 14.5904 114.307 13.8458H114.716C115.594 13.8458 116.123 14.4232 116.29 15.578C116.29 16.2465 115.412 17.0518 113.642 17.9938C109.344 20.9111 107.104 22.3849 106.923 22.4153V22.476L116.214 34.3122L116.305 34.8136V34.8744C116.108 35.9228 115.594 36.4545 114.731 36.4545H114.58C113.944 36.4545 112.961 35.5125 111.659 33.6437L104.184 24.3145H104.123L100.643 26.5632V35.0567C100.643 35.8772 100.113 36.3786 99.0693 36.5457H98.9785C98.1916 36.5457 97.662 36.0443 97.4048 35.0567V6.58311C97.6166 5.53472 98.0857 5.00293 98.8121 5.00293H98.7969Z" fill="white"/>
<path d="M130.741 14.0282C135.069 14.0282 138.428 16.0946 140.819 20.2122C141.636 21.8227 142.044 23.5852 142.044 25.4693V25.8947C141.848 26.9887 141.333 27.5509 140.486 27.5509H123.205C123.84 29.7388 125.233 31.4102 127.366 32.5649C128.622 33.0511 129.803 33.2942 130.892 33.2942C132.163 33.2942 133.616 32.884 135.25 32.0635H135.734C136.718 32.261 137.202 32.7472 137.202 33.5525V33.7956C137.202 35.1479 135.235 36.0747 131.316 36.5913H130.741C126.716 36.5913 123.477 34.6921 121.056 30.9088C120.073 29.1159 119.588 27.247 119.588 25.3022C119.588 21.1846 121.525 17.9027 125.414 15.4412C127.291 14.4992 129.076 14.0282 130.741 14.0282ZM122.948 24.3297H138.7C138.7 23.2054 138.05 21.7468 136.733 19.9539C134.932 18.2521 133.162 17.4013 131.407 17.4013H130.514C127.881 17.4013 125.717 18.6928 124.022 21.2757C123.432 22.3089 123.084 23.3269 122.948 24.3297Z" fill="white"/>
<path d="M156.284 14.0282C160.611 14.0282 163.971 16.0946 166.362 20.2122C167.179 21.8227 167.587 23.5852 167.587 25.4693V25.8947C167.391 26.9887 166.876 27.5509 166.029 27.5509H148.748C149.383 29.7388 150.776 31.4102 152.909 32.5649C154.165 33.0511 155.346 33.2942 156.435 33.2942C157.706 33.2942 159.159 32.884 160.793 32.0635H161.277C162.261 32.261 162.745 32.7472 162.745 33.5525V33.7956C162.745 35.1479 160.778 36.0747 156.859 36.5913H156.284C152.259 36.5913 149.02 34.6921 146.599 30.9088C145.616 29.1159 145.131 27.247 145.131 25.3022C145.131 21.1846 147.068 17.9027 150.957 15.4412C152.834 14.4992 154.619 14.0282 156.284 14.0282ZM148.491 24.3297H164.243C164.243 23.2054 163.593 21.7468 162.276 19.9539C160.475 18.2521 158.705 17.4013 156.95 17.4013H156.057C153.424 17.4013 151.26 18.6928 149.565 21.2757C148.975 22.3089 148.627 23.3269 148.491 24.3297Z" fill="white"/>
<path d="M172.203 14.3168L173.02 14.408H187.017L187.758 14.3168C188.727 14.6055 189.211 15.0765 189.211 15.6995V16.1857C189.211 16.52 188.591 17.3708 187.35 18.7079L175.698 33.4005H187.774C188.742 33.598 189.226 34.0691 189.226 34.8591V35.1174C189.226 35.9075 188.712 36.3937 187.698 36.5761H172.324C171.461 36.5761 170.947 35.9987 170.795 34.8591C170.795 34.4337 171.9 32.9447 174.109 30.3921L184.324 17.4772H173.474L172.188 17.5684C171.265 17.2493 170.811 16.7023 170.811 15.9426C170.992 14.9094 171.461 14.408 172.263 14.408V14.3168H172.203Z" fill="white"/>
<path d="M73.2237 47.8496V54.0032H76.5679V55.2643H71.7256V47.8496H73.2237Z" fill="#FBB040"/>
<path d="M86.4189 47.8496H87.796L90.9888 55.2643H89.3546L88.6888 53.6537H85.5262L84.8603 55.2643H83.2261L86.4189 47.8496ZM87.115 49.8096L86.0406 52.3926H88.1743L87.115 49.8096Z" fill="#FBB040"/>
<path d="M97.7983 47.8496H99.3116V52.2559C99.3116 52.7725 99.4629 53.1827 99.7807 53.517C100.098 53.8361 100.537 54.0032 101.112 54.0032C101.687 54.0032 102.126 53.8361 102.444 53.517C102.762 53.1979 102.913 52.7725 102.913 52.2559V47.8496H104.426V52.1343C104.426 53.1523 104.139 53.9576 103.564 54.5198C102.989 55.0972 102.172 55.3858 101.097 55.3858C100.023 55.3858 99.2056 55.0972 98.6457 54.5198C98.0707 53.9424 97.7983 53.1523 97.7983 52.1343V47.8496Z" fill="#FBB040"/>
<path d="M111.826 47.8496H113.399L116.971 52.9548V47.8496H118.499V55.2643H116.91L113.339 50.1439V55.2643H111.826V47.8496Z" fill="#FBB040"/>
<path d="M125.929 47.8496H129.228C130.287 47.8496 131.164 48.1991 131.86 48.8828C132.557 49.5665 132.92 50.463 132.92 51.5569C132.92 52.6509 132.572 53.5474 131.86 54.2311C131.149 54.9148 130.272 55.2643 129.228 55.2643H125.929V47.8496ZM127.442 49.1107V54.0032H128.879C129.576 54.0032 130.151 53.7753 130.62 53.3347C131.089 52.894 131.331 52.3015 131.331 51.5569C131.331 50.8124 131.089 50.2351 130.62 49.7793C130.151 49.3234 129.56 49.0955 128.879 49.0955H127.442V49.1107Z" fill="#FBB040"/>
<path d="M142.377 52.2255H141.636V55.2795H140.123V47.8648H143.497C144.133 47.8648 144.677 48.0775 145.116 48.5182C145.555 48.9436 145.767 49.4906 145.767 50.1439C145.767 50.7669 145.555 51.2531 145.116 51.6177C144.829 51.8608 144.45 52.0432 143.966 52.1647L146.039 55.2795H144.208L142.362 52.2255H142.377ZM141.636 49.1259V51.1771H143.179C143.467 51.1771 143.694 51.0859 143.89 50.8884C144.087 50.6909 144.178 50.4478 144.178 50.1439C144.178 49.84 144.087 49.5969 143.89 49.4146C143.694 49.2323 143.452 49.1411 143.179 49.1411H141.636V49.1259Z" fill="#FBB040"/>
<path d="M152.44 47.8496H154.256L156.148 50.7517L158.039 47.8496H159.87L156.92 52.1951V55.2643H155.406V52.1951L152.44 47.8496Z" fill="#FBB040"/>
</svg>
