<svg width="24" height="24" viewBox="0 0 24 24" fill="none" xmlns="http://www.w3.org/2000/svg">
<g clip-path="url(#clip0_1499_1964)">
<path d="M12.2779 23.7598C10.7255 23.7598 9.21945 23.4556 7.80143 22.8559C6.43196 22.2766 5.20218 21.4474 4.1461 20.3915C3.09002 19.3354 2.26099 18.1056 1.68175 16.7362C1.08199 15.3182 0.777832 13.8121 0.777832 12.2599C0.777832 10.7076 1.08199 9.20138 1.68175 7.78336C2.26099 6.41389 3.09019 5.18411 4.1461 4.12803C5.20218 3.07196 6.43196 2.24293 7.80143 1.66368C9.21945 1.06392 10.7255 0.759766 12.2779 0.759766C13.2222 0.759766 14.1613 0.874486 15.0692 1.10102C15.2615 1.14906 15.3786 1.3438 15.3306 1.53631C15.2825 1.72865 15.0876 1.84576 14.8953 1.79772C14.0442 1.58555 13.1635 1.47784 12.2777 1.47784C6.33263 1.47784 1.4959 6.31456 1.4959 12.2599C1.4959 18.2051 6.33263 23.0419 12.2779 23.0419C18.2232 23.0419 23.0599 18.2051 23.0599 12.2599C23.0599 11.3306 22.9416 10.4083 22.7084 9.51836C22.6582 9.32653 22.7729 9.13026 22.9647 9.07999C23.1565 9.02973 23.3528 9.14445 23.4031 9.33627C23.6518 10.2857 23.778 11.2693 23.778 12.2599C23.778 13.8123 23.4738 15.3183 22.8741 16.7363C22.2948 18.1058 21.4656 19.3356 20.4097 20.3917C19.3537 21.4477 18.1239 22.2768 16.7544 22.856C15.3364 23.4558 13.8303 23.7599 12.2779 23.7599V23.7598Z" fill="white"/>
<path d="M12.278 20.1751C11.2096 20.1751 10.173 19.9659 9.19695 19.553C8.2544 19.1543 7.40793 18.5836 6.68114 17.8568C5.95435 17.13 5.38365 16.2835 4.98495 15.341C4.57206 14.3649 4.36279 13.3283 4.36279 12.2599C4.36279 11.1915 4.57206 10.155 4.98495 9.17889C5.38365 8.23633 5.95435 7.38986 6.68114 6.66307C7.40793 5.93628 8.2544 5.36558 9.19695 4.96688C10.173 4.55399 11.2096 4.34473 12.278 4.34473C12.9256 4.34473 13.5698 4.4232 14.1928 4.57793C14.3854 4.6258 14.5025 4.82053 14.4548 5.01287C14.4069 5.20539 14.2122 5.3225 14.0198 5.2748C13.4536 5.13409 12.8675 5.0628 12.2782 5.0628C8.30962 5.0628 5.08121 8.29138 5.08121 12.2598C5.08121 16.2281 8.30979 19.4567 12.2782 19.4567C16.2465 19.4567 19.4751 16.2281 19.4751 12.2598C19.4751 11.6588 19.4009 11.0618 19.2547 10.4851C19.206 10.2929 19.3223 10.0975 19.5144 10.0488C19.7068 10.0001 19.902 10.1163 19.9508 10.3085C20.1116 10.9428 20.1932 11.5993 20.1932 12.2596C20.1932 13.328 19.9839 14.3646 19.571 15.3406C19.1723 16.2832 18.6016 17.1296 17.8748 17.8564C17.1481 18.5832 16.3016 19.1539 15.359 19.5526C14.383 19.9655 13.3464 20.1748 12.278 20.1748V20.1751Z" fill="white"/>
<path d="M12.2781 16.6987C11.0924 16.6987 9.97767 16.2369 9.13941 15.3987C8.30097 14.5602 7.83936 13.4457 7.83936 12.26C7.83936 11.0743 8.30114 9.9596 9.13941 9.12134C9.97784 8.28291 11.0924 7.82129 12.2781 7.82129C12.638 7.82129 12.9961 7.86454 13.3427 7.94986C13.5352 7.99722 13.6528 8.19178 13.6055 8.38429C13.5581 8.5768 13.3635 8.69443 13.171 8.64707C12.8807 8.57561 12.5803 8.53936 12.2781 8.53936C10.2264 8.53936 8.55726 10.2085 8.55726 12.2602C8.55726 14.3118 10.2264 15.981 12.2781 15.981C14.3297 15.981 15.9989 14.3118 15.9989 12.2602C15.9989 11.9415 15.9585 11.6254 15.8792 11.3202C15.8293 11.1283 15.9443 10.9322 16.1362 10.8823C16.328 10.8324 16.5241 10.9475 16.574 11.1393C16.6687 11.5035 16.7168 11.8806 16.7168 12.2602C16.7168 13.4458 16.255 14.5606 15.4167 15.3988C14.5783 16.2373 13.4637 16.6989 12.2781 16.6989V16.6987Z" fill="white"/>
<path d="M18.4878 9.26929C18.4693 9.26929 18.4508 9.2681 18.4322 9.26553L15.9388 8.9253C15.7562 8.90034 15.6126 8.75673 15.5876 8.57413L15.2474 6.08071C15.2301 5.95368 15.2732 5.8258 15.3638 5.73501L19.4425 1.65637C19.5498 1.549 19.7075 1.50968 19.8526 1.55413C19.9978 1.59858 20.1065 1.71928 20.1354 1.8682L20.5435 3.96924L22.6446 4.37735C22.7935 4.40624 22.9143 4.51498 22.9586 4.66013C23.0031 4.80528 22.9638 4.96292 22.8564 5.07028L18.7777 9.14893C18.7003 9.22638 18.5957 9.26912 18.4876 9.26912L18.4878 9.26929ZM16.3587 8.1544L18.3414 8.42488L21.7304 5.03592L20.1152 4.72219C19.9509 4.69022 19.8225 4.56182 19.7907 4.39769L19.477 2.78254L16.0881 6.1715L16.3585 8.15423L16.3587 8.1544Z" fill="#9A81E0"/>
<path d="M12.1691 12.7547C12.0641 12.7547 11.9591 12.7147 11.8789 12.6345C11.7187 12.4743 11.7187 12.2144 11.8789 12.0542L15.6958 8.23734C15.856 8.07714 16.1159 8.07714 16.2761 8.23734C16.4363 8.39753 16.4363 8.65741 16.2761 8.81761L12.4592 12.6345C12.379 12.7147 12.274 12.7547 12.1691 12.7547Z" fill="#9A81E0"/>
</g>
<defs>
<clipPath id="clip0_1499_1964">
<rect width="23" height="23" fill="white" transform="translate(0.777832 0.759766)"/>
</clipPath>
</defs>
</svg>
