<svg width="251" height="183" viewBox="0 0 251 183" fill="none" xmlns="http://www.w3.org/2000/svg">
<path d="M0.413779 68.7754C0.413782 31.1935 30.3579 0.75394 67.3279 0.753943L71.7889 0.753944C81.6587 0.753945 89.6326 8.85984 89.6326 18.893C89.6326 28.9262 81.6587 37.0321 71.7889 37.0321L67.3279 37.0321C50.0975 37.0321 36.1013 51.2599 36.1013 68.7754L36.1013 73.3102L71.7889 73.3102C91.4728 73.3102 107.476 89.5786 107.476 109.588L107.476 145.866C107.476 165.876 91.4728 182.145 71.7889 182.145L36.1013 182.145C16.4174 182.145 0.41377 165.876 0.413772 145.866L0.413773 127.727L0.413775 109.588L0.413779 68.7754ZM143.164 68.7754C143.164 31.1936 173.108 0.753953 210.078 0.753956L214.539 0.753956C224.409 0.753957 232.383 8.85985 232.383 18.893C232.383 28.9262 224.409 37.0321 214.539 37.0321L210.078 37.0321C192.848 37.0321 178.851 51.2599 178.851 68.7754L178.851 73.3102L214.539 73.3102C234.223 73.3102 250.227 89.5787 250.227 109.588L250.227 145.866C250.227 165.876 234.223 182.145 214.539 182.145L178.851 182.145C159.168 182.145 143.164 165.876 143.164 145.866L143.164 127.727L143.164 109.588L143.164 68.7754Z" fill="#9A81E0"/>
</svg>
