<svg width="33" height="18" viewBox="0 0 33 18" fill="none" xmlns="http://www.w3.org/2000/svg">
<path d="M19.8561 2.77531C19.7425 2.74442 19.5778 2.70682 19.3824 2.66606C17.6708 2.30722 15.9094 2.25428 14.1781 2.49882C13.588 2.58223 13.0644 2.66606 12.8349 2.72846L9.10645 3.74468L10.8038 6.92466L12.0128 6.10109C13.2627 4.867 18.8636 3.54635 20.6782 6.14794L21.8869 6.97151L23.5843 3.79153L19.8561 2.77531Z" fill="white" stroke="#9A81E0" stroke-width="0.5" stroke-linecap="round" stroke-linejoin="round"/>
<path d="M18.8408 4.84655C18.8395 4.78689 18.8374 4.72764 18.8326 4.66755C18.7211 3.24102 17.6174 2.17773 16.3587 2.17773C15.1 2.17773 13.9919 3.24102 13.8745 4.66755C13.8699 4.72533 13.8674 4.7831 13.8659 4.84046L13.5005 6.49368L15.4698 8.45092L19.3876 7.07606L18.841 4.84676L18.8408 4.84655Z" fill="white" stroke="#9A81E0" stroke-width="0.5" stroke-linecap="round" stroke-linejoin="round"/>
<path d="M19.5099 7.70348C19.5099 9.4586 18.093 10.8816 16.3454 10.8816C14.5978 10.8816 13.1812 9.4586 13.1812 7.70348C13.1812 5.94835 14.5978 4.52539 16.3454 4.52539C18.093 4.52539 19.5099 5.94835 19.5099 7.70348Z" fill="white" stroke="#9A81E0" stroke-width="0.5" stroke-linecap="round" stroke-linejoin="round"/>
<path d="M12.9169 10.5972L11.622 10.2812L10.5444 10.0188L9.68336 9.80831C8.79722 10.1556 7.79874 10.2453 6.80236 10.0026C6.2505 9.86819 5.74551 9.64276 5.29784 9.34611C4.93489 9.10786 4.61085 8.82402 4.33032 8.50426L3.46928 8.29375L2.39047 8.03029L1.09766 7.71515L1.32902 7.32648L3.27201 4.05028L3.31218 3.98347C3.63371 3.47189 3.9408 3.01872 4.23723 2.62312C5.01919 1.58252 5.7407 0.936274 6.55823 0.63479C7.28287 0.366921 8.0845 0.371333 9.07168 0.61189C9.11854 0.623445 9.16561 0.636051 9.21142 0.648656C9.92707 0.844043 10.5603 1.1949 11.0883 1.655C11.6492 2.14368 12.0891 2.75673 12.3742 3.43975C12.4866 3.70888 12.579 4.43097 12.6547 5.31882C12.6891 5.72241 12.72 6.15941 12.7464 6.60586C12.8495 8.27778 12.9022 10.0535 12.9135 10.4938C12.9148 10.5294 12.9158 10.563 12.9169 10.5972Z" fill="white" stroke="#9A81E0" stroke-width="0.5" stroke-linecap="round" stroke-linejoin="round"/>
<path d="M12.7573 12.2626C11.9906 15.4369 8.96777 17.4696 5.81565 17.0603C5.58616 17.0307 5.35668 16.9899 5.12719 16.9332C1.73742 16.1065 -0.34614 12.6746 0.477035 9.26754C1.11131 6.64641 3.28399 4.80053 5.79933 4.47257C6.54971 4.37509 7.32958 4.41039 8.10715 4.6001C11.4998 5.42661 13.5805 8.85554 12.7573 12.2628V12.2626Z" fill="white" stroke="#9A81E0" stroke-width="0.5" stroke-linecap="round" stroke-linejoin="round"/>
<path d="M3.68164 3.41213C4.48452 2.84698 5.41962 2.47595 6.4091 2.34696C7.1373 2.25241 7.89437 2.28666 8.64894 2.4707C10.4718 2.91484 11.9044 4.13296 12.6847 5.69312" stroke="#9A81E0" stroke-width="0.5" stroke-linecap="round" stroke-linejoin="round"/>
<path d="M2.73389 9.8197C3.25478 7.66498 5.41491 6.34224 7.56039 6.86516L2.73389 9.8197Z" fill="white"/>
<path d="M2.73389 9.8197C3.25478 7.66498 5.41491 6.34224 7.56039 6.86516" stroke="#FBB040" stroke-width="0.5" stroke-linecap="round" stroke-linejoin="round"/>
<path d="M20.0026 10.5972L21.2976 10.2812L22.3751 10.0188L23.2362 9.80831C24.1223 10.1556 25.1208 10.2453 26.1172 10.0026C26.669 9.86819 27.174 9.64276 27.6217 9.34611C27.9846 9.10786 28.3087 8.82402 28.5892 8.50426L29.4502 8.29375L30.529 8.03029L31.8219 7.71515L31.5903 7.32648L29.6473 4.05028L29.6071 3.98347C29.2856 3.47189 28.9785 3.01872 28.6821 2.62312C27.9001 1.58252 27.1786 0.936274 26.3611 0.63479C25.6364 0.366921 24.8348 0.371333 23.8476 0.61189C23.8008 0.623445 23.7537 0.636051 23.7079 0.648656C22.9922 0.844043 22.359 1.1949 21.831 1.655C21.2702 2.14368 20.8302 2.75673 20.5451 3.43975C20.4328 3.70888 20.3403 4.43097 20.2646 5.31882C20.2303 5.72241 20.1993 6.15941 20.1729 6.60586C20.0698 8.27778 20.0171 10.0535 20.0058 10.4938C20.0045 10.5294 20.0035 10.563 20.0024 10.5972H20.0026Z" fill="white" stroke="#9A81E0" stroke-width="0.5" stroke-linecap="round" stroke-linejoin="round"/>
<path d="M20.1623 12.2626C20.929 15.4369 23.9518 17.4696 27.1039 17.0603C27.3334 17.0307 27.5629 16.9899 27.7924 16.9332C31.1821 16.1065 33.2657 12.6746 32.4425 9.26754C31.8083 6.64641 29.6356 4.80053 27.1202 4.47257C26.3699 4.37509 25.59 4.41039 24.8124 4.6001C21.4197 5.42661 19.3391 8.85554 20.1623 12.2628V12.2626Z" fill="white" stroke="#9A81E0" stroke-width="0.5" stroke-linecap="round" stroke-linejoin="round"/>
<path d="M29.2379 3.41213C28.435 2.84698 27.4999 2.47595 26.5105 2.34696C25.7823 2.25241 25.0252 2.28666 24.2706 2.4707C22.4477 2.91484 21.0152 4.13296 20.2349 5.69312" stroke="#9A81E0" stroke-width="0.5" stroke-linecap="round" stroke-linejoin="round"/>
<path d="M22.4302 9.8197C22.9511 7.66498 25.1112 6.34224 27.2567 6.86516L22.4302 9.8197Z" fill="white"/>
<path d="M22.4302 9.8197C22.9511 7.66498 25.1112 6.34224 27.2567 6.86516" stroke="#FBB040" stroke-width="0.5" stroke-linecap="round" stroke-linejoin="round"/>
</svg>
