<svg width="91" height="88" viewBox="0 0 91 88" fill="none" xmlns="http://www.w3.org/2000/svg">
<g clip-path="url(#clip0_1598_14518)">
<path d="M88.7185 27.5546H80.9837V2.05175C80.9837 1.11291 80.1967 0.351562 79.2258 0.351562H11.7223C10.7514 0.351562 9.96436 1.11291 9.96436 2.05175V27.5546H2.22958C1.25869 27.5546 0.47168 28.3159 0.47168 29.2548V85.7011C0.47168 86.6399 1.25869 87.4013 2.22958 87.4013H88.7185C89.6894 87.4013 90.4764 86.6399 90.4764 85.7011V29.2548C90.4764 28.3159 89.6894 27.5546 88.7185 27.5546ZM60.592 47.9569V84.0009H47.2319V47.9569H60.592ZM64.1078 47.9569H86.9606V75.84H64.1078V47.9569ZM37.5635 30.955C38.5343 30.955 39.3214 30.1936 39.3214 29.2548C39.3214 28.3159 38.5343 27.5546 37.5635 27.5546H13.4802V3.75194H77.4679V27.5546H53.3846C52.4137 27.5546 51.6267 28.3159 51.6267 29.2548C51.6267 30.1936 52.4137 30.955 53.3846 30.955H86.9606V44.5565H3.98749V30.955H37.5635ZM26.8402 75.84H3.98749V47.9569H26.8402V75.84ZM3.98749 79.2403H26.8402V84.0009H3.98749V79.2403ZM30.356 47.9569H43.7161V84.0009H30.356V47.9569ZM86.9606 84.0009H64.1078V79.2403H86.9606V84.0009Z" fill="#9A81E0"/>
<path d="M55.8277 24.0207C56.7833 24.1872 57.6974 23.5737 57.8698 22.6497L59.2616 15.1918L61.5597 22.7258C61.5658 22.7459 61.5723 22.766 61.5794 22.786C61.864 23.6054 62.6536 24.1542 63.5466 24.1542H63.5572C64.4544 24.1499 65.2437 23.5923 65.5209 22.767C65.5276 22.7474 65.5338 22.7277 65.5396 22.7077L67.7582 15.1802L69.2377 22.6669C69.42 23.5892 70.3411 24.1934 71.2942 24.0176C72.2479 23.8413 72.8732 22.951 72.6909 22.0286L70.0728 8.77919C70.0714 8.77239 70.07 8.76576 70.0688 8.75896C69.8809 7.86636 69.0926 7.20686 68.1523 7.15534C67.211 7.10587 66.3519 7.67305 66.061 8.53964C66.0545 8.55919 66.0483 8.57891 66.0425 8.5988L63.5234 17.1457L60.911 8.58163C60.9049 8.5614 60.8982 8.54117 60.8913 8.52127C60.5911 7.65741 59.7234 7.09737 58.7846 7.15772C57.8445 7.21876 57.0635 7.88659 56.8856 8.78157C56.8843 8.78786 56.8831 8.79432 56.8819 8.80061L54.4101 22.0458C54.2376 22.9697 54.8722 23.8539 55.8277 24.0207Z" fill="#9A81E0"/>
<path d="M33.1301 13.9531H28.9231C27.9522 13.9531 27.1651 14.7144 27.1651 15.6533C27.1651 16.5921 27.9522 17.3535 28.9231 17.3535H31.1688C30.7202 19.1559 29.4873 20.7539 27.0599 20.7539C24.1519 20.7539 21.7861 18.4657 21.7861 15.6533C21.7861 12.8408 24.1519 10.5527 27.0599 10.5527C28.1169 10.5527 29.1361 10.8537 30.0073 11.4229C30.8121 11.9486 31.9046 11.7439 32.448 10.9657C32.9914 10.1875 32.7797 9.13068 31.9753 8.60499C30.5208 7.65475 28.8211 7.15234 27.06 7.15234C22.2135 7.15234 18.2705 10.9659 18.2705 15.6533C18.2705 20.3407 22.2135 24.1542 27.06 24.1542C31.6689 24.1542 34.888 20.6585 34.888 15.6533C34.888 14.7144 34.101 13.9531 33.1301 13.9531Z" fill="#9A81E0"/>
<path d="M42.8897 22.4539C42.8897 23.3927 43.6767 24.1541 44.6476 24.1541C45.6184 24.1541 46.4055 23.3927 46.4055 22.4539V16.0112L50.5814 9.81534C51.1115 9.02866 50.882 7.97539 50.0686 7.46261C49.2554 6.94933 48.166 7.17188 47.636 7.95839L44.6474 12.393L41.634 7.9237C41.1036 7.1372 40.0146 6.91498 39.2012 7.42827C38.388 7.94122 38.1586 8.99448 38.689 9.78099L42.8897 16.0113V22.4539Z" fill="#9A81E0"/>
<path d="M12.1488 71.5167C12.4921 71.8486 12.942 72.0147 13.3918 72.0147C13.8417 72.0147 14.2917 71.8486 14.6348 71.5167L21.8422 64.5459C22.5287 63.882 22.5287 62.8055 21.8422 62.1414C21.1558 61.4776 20.0427 61.4776 19.356 62.1414L12.1486 69.1121C11.4622 69.7762 11.4622 70.8528 12.1488 71.5167Z" fill="#9A81E0"/>
<path d="M7.78342 62.9874C8.12674 63.3193 8.57659 63.4854 9.02644 63.4854C9.47628 63.4854 9.92631 63.3193 10.2694 62.9874L17.4769 56.0167C18.1633 55.3527 18.1633 54.2762 17.4769 53.6121C16.7904 52.9483 15.6773 52.9483 14.9907 53.6121L7.78325 60.5828C7.09696 61.2469 7.09696 62.3235 7.78342 62.9874Z" fill="#9A81E0"/>
<path d="M81.9633 62.1414C81.2769 61.4776 80.1638 61.4776 79.4771 62.1414L72.2697 69.1121C71.5833 69.7761 71.5833 70.8526 72.2697 71.5167C72.613 71.8486 73.0629 72.0147 73.5127 72.0147C73.9626 72.0147 74.4126 71.8486 74.7558 71.5167L81.9632 64.5459C82.65 63.8819 82.65 62.8053 81.9633 62.1414Z" fill="#9A81E0"/>
<path d="M77.5971 53.6121C76.9107 52.9483 75.7976 52.9483 75.1109 53.6121L67.9035 60.5828C67.2171 61.2468 67.2171 62.3233 67.9035 62.9874C68.2468 63.3193 68.6967 63.4854 69.1465 63.4854C69.5964 63.4854 70.0464 63.3193 70.3895 62.9874L77.597 56.0167C78.2836 55.3526 78.2836 54.276 77.5971 53.6121Z" fill="#9A81E0"/>
<path d="M45.4737 27.5615C45.0114 27.5615 44.5579 27.7417 44.2309 28.058C43.9039 28.3759 43.7158 28.8127 43.7158 29.2617C43.7158 29.7089 43.9039 30.1475 44.2309 30.4636C44.5579 30.7798 45.0114 30.9619 45.4737 30.9619C45.9361 30.9619 46.3896 30.78 46.7166 30.4636C47.0435 30.1475 47.2316 29.7089 47.2316 29.2617C47.2316 28.8127 47.0435 28.3759 46.7166 28.058C46.3896 27.7417 45.9361 27.5615 45.4737 27.5615Z" fill="#9A81E0"/>
</g>
<defs>
<clipPath id="clip0_1598_14518">
<rect width="90.0047" height="87.0497" fill="white" transform="translate(0.47168 0.351562)"/>
</clipPath>
</defs>
</svg>
