<svg width="136" height="129" viewBox="0 0 136 129" fill="none" xmlns="http://www.w3.org/2000/svg">
<g clip-path="url(#clip0_1598_14610)">
<path d="M107.827 60.5439C108.766 59.2332 108.97 57.5653 108.371 56.0828C106.615 51.7356 102.162 48.8149 97.2913 48.8149H90.4134V42.9244C92.7245 42.1428 94.3852 40.0331 94.3852 37.5578V34.7759C94.3852 33.1718 93.0209 31.8666 91.3441 31.8666H85.5281C83.8514 31.8666 82.4873 33.1718 82.4873 34.7759V37.5578C82.4873 40.0331 84.148 42.1428 86.4588 42.9244V48.8149H73.9479V35.1971C74.1868 32.5382 71.5967 29.8547 69.582 28.0879V21.0342C69.582 19.9893 68.6969 19.1426 67.6047 19.1426C66.5127 19.1426 65.6273 19.9893 65.6273 21.0342V28.0879C63.6163 29.9336 61.1887 32.1352 61.2614 35.1971V48.8149H48.7505V42.9244C51.0616 42.1428 52.7223 40.0331 52.7223 37.5578V34.7759C52.7223 33.1718 51.3582 31.8666 49.6812 31.8666H43.8652C42.1885 31.8666 40.8241 33.1718 40.8241 34.7759V37.5578C40.8241 40.0331 42.4848 42.1428 44.7959 42.9244V48.8149H38.0253C33.154 48.8149 28.7013 51.7356 26.9457 56.0828C25.6963 58.8985 28.0752 62.6795 31.6436 62.6371H56.9751V66.9716C56.9751 70.0386 59.5833 72.5337 62.7892 72.5337H65.6811V97.8753L56.4088 105.014C54.3084 106.361 55.1866 110.107 58.1439 110.125L77.1762 110.115C79.7604 110.177 81.2582 106.717 78.9044 105.002L69.6358 97.8995V72.5337H72.5277C75.7336 72.5337 78.3418 70.0386 78.3418 66.9716V60.7455C78.3418 59.7005 77.4567 58.8539 76.3644 58.8539H31.6438C31.16 58.7509 30.4973 58.6972 30.6349 57.4462C31.806 54.5463 34.7762 52.5979 38.0256 52.5979H97.2913C100.541 52.5979 103.511 54.5463 104.682 57.4462C104.756 57.9151 104.943 58.5257 103.673 58.8539H85.797C84.7048 58.8539 83.8197 59.7005 83.8197 60.7455C83.8197 61.7904 84.7048 62.6371 85.797 62.6371H103.673C105.335 62.6371 106.887 61.8547 107.827 60.5439ZM86.4419 35.6496H90.4308V37.5576C90.4308 38.6095 89.536 39.4653 88.4364 39.4653C87.3367 39.4653 86.4422 38.6093 86.4422 37.5576L86.4419 35.6496ZM44.7788 35.6496H48.7677V37.5576C48.7677 38.6095 47.8729 39.4653 46.7732 39.4653C45.6736 39.4653 44.7788 38.6093 44.7788 37.5576V35.6496ZM60.9938 106.34L67.6439 101.22L74.3165 106.333L60.9938 106.34ZM74.3869 62.6371V66.9716C74.3869 67.9525 73.5527 68.7505 72.5274 68.7505H62.7892C61.7639 68.7505 60.9298 67.9525 60.9298 66.9716V62.6371H74.3869ZM65.2163 48.8149V35.1971C66.7233 29.8032 69.2925 31.8638 69.9935 35.1971V48.8149H65.2163Z" fill="#9A81E0"/>
<path d="M32.4475 85.9697C32.3594 85.7422 32.2548 85.5235 32.1432 85.3094C36.0191 85.8065 39.7546 83.3663 39.7931 79.4938C39.7931 76.2869 37.066 73.678 33.714 73.678H12.6669V53.646C12.6669 52.6011 11.7816 51.7544 10.6896 51.7544C9.5976 51.7544 8.71229 52.6011 8.71229 53.646V73.935C8.71229 75.8793 10.3659 77.4609 12.3983 77.4609H33.7138C34.8851 77.4609 35.8382 78.3727 35.8382 79.4935C35.8382 80.6144 34.8851 81.5259 33.7138 81.5259H12.3983C8.02286 81.5261 4.46343 78.121 4.46343 73.9352V40.8534C4.46343 39.7328 5.41649 38.8208 6.58786 38.8208C7.75922 38.8208 8.71229 39.7326 8.71229 40.8534V44.7391C8.71229 45.784 9.5976 46.6307 10.6896 46.6307C11.7816 46.6307 12.6669 45.784 12.6669 44.7391V40.8534C12.6669 37.6465 9.93981 35.0376 6.58786 35.0376C3.23591 35.0376 0.508789 37.6465 0.508789 40.8534V73.9352C0.508789 79.8759 5.29548 84.7646 11.3724 85.2642C11.2153 85.5623 11.0772 85.8728 10.9651 86.1972L3.54859 107.639C3.20559 108.631 3.76794 109.701 4.80458 110.029C5.84148 110.358 6.95986 109.819 7.30285 108.828L14.7196 87.3856C15.1491 86.1437 16.3563 85.3094 17.7241 85.3094H25.7723C27.0895 85.3094 28.2819 86.1031 28.7396 87.2845L37.1113 108.891C37.5619 109.569 38.2181 110.434 39.6526 110.007C40.6766 109.644 41.1988 108.556 40.8192 107.576L32.4475 85.9697Z" fill="#9A81E0"/>
<path d="M135.019 73.9352V40.8534C135.019 37.6465 132.292 35.0376 128.94 35.0376C125.588 35.0376 122.861 37.6465 122.861 40.8534V73.678H101.814C98.4622 73.678 95.7351 76.2869 95.7351 79.4938C95.6894 83.3267 99.5544 85.7936 103.385 85.3094C103.273 85.5235 103.168 85.7422 103.08 85.9697L94.7087 107.576C94.3293 108.556 94.8516 109.644 95.8756 110.007C96.6309 110.254 97.836 110.074 98.4168 108.891L106.789 87.2847C107.246 86.1031 108.439 85.3094 109.756 85.3094H117.804C119.172 85.3094 120.379 86.1439 120.809 87.3859L128.226 108.828C128.569 109.82 129.686 110.358 130.724 110.029C131.761 109.701 132.323 108.631 131.98 107.639L124.563 86.1974C124.451 85.8733 124.313 85.5628 124.156 85.265C129.902 84.9149 135.145 79.7737 135.019 73.9352ZM131.065 73.9352C131.149 77.7621 127.542 81.6 123.13 81.5261H101.814C99.1914 81.4578 98.9797 77.673 101.814 77.4614H123.13C125.162 77.4614 126.816 75.8798 126.816 73.9355V40.8534C126.816 39.7328 127.769 38.8208 128.94 38.8208C130.112 38.8208 131.065 39.7326 131.065 40.8534V73.9352Z" fill="#9A81E0"/>
</g>
<defs>
<clipPath id="clip0_1598_14610">
<rect width="134.512" height="128.682" fill="white" transform="translate(0.508789 0.292969)"/>
</clipPath>
</defs>
</svg>
