<svg width="115" height="86" viewBox="0 0 115 86" fill="none" xmlns="http://www.w3.org/2000/svg">
<g clip-path="url(#clip0_1598_14574)">
<path d="M9.69142 61.555C10.2307 62.4665 10.7699 63.3781 11.4722 64.5775C13.3407 54.7304 19.8618 47.9658 26.4204 41.2492C28.2764 39.3541 30.1449 37.4471 32.1389 35.684C37.6567 30.8024 39.9014 24.5656 40.2526 17.609C40.4407 13.9869 40.2902 10.3407 40.2902 6.68252C43.3752 9.02135 46.1591 11.768 47.3756 15.678C48.0653 17.9089 47.9148 20.1038 46.9492 22.2627C45.1057 26.3647 45.7829 28.8594 49.4071 31.7859C50.3853 32.5775 51.3133 33.5011 51.9779 34.5446C53.0313 36.1877 52.4168 37.627 50.5609 38.4306C48.1656 39.4741 48.0904 39.4861 48.7425 42.0048C49.1438 43.564 47.7016 43.9238 47.1248 44.8474C46.6106 45.675 48.4666 47.0183 46.9994 47.8219C45.2437 48.7934 45.0305 50.0888 45.2186 51.8399C45.3942 53.495 44.3533 54.7664 42.6729 55.0902C41.0802 55.4021 39.3873 55.3421 37.7319 55.3301C34.1579 55.2941 30.5839 55.0303 27.0224 55.1382C24.6146 55.2102 24.0879 56.2057 25.1413 58.3166C25.8812 59.7919 26.8468 61.2072 27.9378 62.4666C33.9447 69.4111 40.7918 75.552 47.9274 81.3931C48.4164 81.8009 49.2566 82.0647 49.9087 82.0168C65.0576 81.0093 77.0087 74.6884 85.3231 62.3826C85.9125 61.507 85.9752 60.7754 85.5739 59.7679C84.8089 57.8489 84.3449 55.8099 83.6426 53.8669C82.7648 51.4441 81.4857 49.2492 79.1155 47.7139C81.0342 51.54 82.9655 55.3661 84.9719 59.3601C72.6321 54.7904 64.4055 39.5221 66.9638 26.1008C73.071 28.6555 78.3882 32.1817 82.6394 37.0753C86.9408 42.0168 89.1103 47.7379 89.0351 54.8384C96.0828 47.7619 104.259 44.9673 114.141 45.9029C110.065 53.3271 105.576 59.9838 96.2709 61.639C94.7911 61.9028 93.1985 61.7589 91.6811 61.603C90.6904 61.507 90.1386 61.651 89.6245 62.5385C74.0366 89.6929 33.1547 94.2986 11.0207 69.8189C-0.817502 56.7214 -2.28474 39.5101 4.26139 25.645C8.51262 16.6495 15.1716 9.76498 24.2258 5.15929C30.2076 2.12481 36.7287 0.613565 43.6134 0.625559C42.6729 0.925409 41.7073 1.18928 40.7793 1.52511C31.1231 4.90741 22.119 9.38117 14.9083 16.5656C4.19869 27.2282 1.2266 44.3556 7.6097 57.8249C7.84797 58.3286 8.31197 58.7244 8.6631 59.1682C9.00169 59.9598 9.34029 60.7634 9.69142 61.555ZM105.689 50.9883C105.262 50.9643 105.062 50.9044 104.936 50.9643C100.785 53.2432 96.6095 55.51 92.5088 57.8609C91.8692 58.2207 91.5181 59.0363 91.029 59.636C91.1419 59.7319 91.2422 59.8279 91.355 59.9238C96.0577 56.9853 100.773 54.0468 105.676 50.9763L105.689 50.9883Z" fill="#9A81E0"/>
<path d="M9.69229 61.5549C9.3537 60.7633 9.01511 59.9597 8.66398 59.1681C4.26227 49.429 3.74811 39.5459 8.09965 29.7348C13.7178 17.0572 23.9634 9.40503 37.7077 5.86681C37.8206 5.84282 37.946 5.8908 38.2344 5.92678C39.0746 10.5565 39.2001 15.2341 38.6232 19.9358C37.8833 25.9687 35.1996 30.9822 30.6474 35.3001C26.0075 39.7018 21.6685 44.4155 17.4549 49.1891C14.4201 52.6314 12.1879 56.6014 10.8711 60.9912C10.7332 61.4469 10.7457 62.6583 9.69229 61.5549Z" fill="#9A81E0"/>
</g>
<defs>
<clipPath id="clip0_1598_14574">
<rect width="113.742" height="85.1573" fill="white" transform="translate(0.399414 0.625488)"/>
</clipPath>
</defs>
</svg>
