<svg width="100" height="96" viewBox="0 0 100 96" fill="none" xmlns="http://www.w3.org/2000/svg">
<g clip-path="url(#clip0_1598_14534)">
<path d="M93.3539 92.342H90.5756V8.88563C90.5756 8.00467 89.8292 7.29096 88.9087 7.29096H57.792C56.8714 7.29096 56.1251 8.00467 56.1251 8.88563V15.796H52.7913V8.88563C52.7913 8.00467 52.0448 7.29096 51.1244 7.29096H43.9007V2.50678C43.9007 1.62582 43.1543 0.912109 42.2338 0.912109C41.3133 0.912109 40.5669 1.62582 40.5669 2.50678V7.29096H33.3435C32.4228 7.29096 31.6765 8.00467 31.6765 8.88563V15.796H26.6756C25.7549 15.796 25.0087 16.5097 25.0087 17.3906V30.6798H11.1174C10.1967 30.6798 9.45045 31.3935 9.45045 32.2745V92.3418H6.6718C5.75112 92.3418 5.00488 93.0555 5.00488 93.9365C5.00488 94.8174 5.75132 95.5313 6.6718 95.5313H93.3539C94.2745 95.5313 95.0208 94.8176 95.0208 93.9367C95.0208 93.0557 94.2743 92.342 93.3539 92.342ZM35.0102 10.4803H49.4571V15.796H35.0102V10.4803ZM29.4537 92.342H28.3423V89.6842C28.3423 88.8032 27.5959 88.0895 26.6754 88.0895C25.7549 88.0895 25.0085 88.8032 25.0085 89.6842V92.342H23.8971V87.0263H29.4537V92.342ZM40.5667 51.4111V54.1545V92.342H32.7875V85.4317C32.7875 84.5507 32.0411 83.837 31.1206 83.837H22.2302C21.3095 83.837 20.5633 84.5507 20.5633 85.4317V92.342H12.7841V33.8694H40.5667V51.4111ZM42.2336 30.68H28.3423V18.9855H56.1249V49.8164H43.9007V44.5007H48.9017C49.8224 44.5007 50.5686 43.787 50.5686 42.906C50.5686 42.0251 49.8222 41.3114 48.9017 41.3114H43.9007V35.9957H48.9017C49.8224 35.9957 50.5686 35.282 50.5686 34.401C50.5686 33.5201 49.8222 32.8064 48.9017 32.8064H43.9007V32.2749C43.9007 31.3937 43.1543 30.68 42.2336 30.68ZM71.6833 92.342H43.9007V54.1545V53.0059H71.6833V92.342ZM87.2416 92.342H75.0172V51.4111V49.2847C75.0172 48.4038 74.2707 47.69 73.3503 47.69C72.4298 47.69 71.6833 48.4038 71.6833 49.2847V49.8162H68.3495V49.2847C68.3495 48.4038 67.6031 47.69 66.6826 47.69C65.7621 47.69 65.0157 48.4038 65.0157 49.2847V49.8162H59.4591V17.3908V10.4803H87.2418V92.342H87.2416Z" fill="#9A81E0"/>
<path d="M51.1239 89.1529C52.0446 89.1529 52.7909 88.4388 52.7909 87.5582V57.7905C52.7909 56.9095 52.0444 56.1958 51.1239 56.1958C50.2035 56.1958 49.457 56.9095 49.457 57.7905V87.5584C49.457 88.439 50.2033 89.1529 51.1239 89.1529Z" fill="#9A81E0"/>
<path d="M57.7919 89.1529C58.7126 89.1529 59.4588 88.4388 59.4588 87.5582V57.7905C59.4588 56.9095 58.7124 56.1958 57.7919 56.1958C56.8714 56.1958 56.125 56.9095 56.125 57.7905V87.5584C56.1248 88.439 56.8712 89.1529 57.7919 89.1529Z" fill="#9A81E0"/>
<path d="M64.4599 89.1529C65.3806 89.1529 66.1268 88.4388 66.1268 87.5582V57.7905C66.1268 56.9095 65.3804 56.1958 64.4599 56.1958C63.5394 56.1958 62.793 56.9095 62.793 57.7905V87.5584C62.793 88.439 63.5394 89.1529 64.4599 89.1529Z" fill="#9A81E0"/>
<path d="M66.6825 21.1119C67.6032 21.1119 68.3495 20.3982 68.3495 19.5172V17.3911C68.3495 16.5101 67.603 15.7964 66.6825 15.7964C65.7621 15.7964 65.0156 16.5101 65.0156 17.3911V19.5174C65.0156 20.3982 65.7619 21.1119 66.6825 21.1119Z" fill="#9A81E0"/>
<path d="M73.3505 21.1119C74.2712 21.1119 75.0174 20.3982 75.0174 19.5172V17.3911C75.0174 16.5101 74.271 15.7964 73.3505 15.7964C72.43 15.7964 71.6836 16.5101 71.6836 17.3911V19.5174C71.6836 20.3982 72.4298 21.1119 73.3505 21.1119Z" fill="#9A81E0"/>
<path d="M80.0185 21.1119C80.9392 21.1119 81.6854 20.3982 81.6854 19.5172V17.3911C81.6854 16.5101 80.939 15.7964 80.0185 15.7964C79.098 15.7964 78.3516 16.5101 78.3516 17.3911V19.5174C78.3516 20.3982 79.0978 21.1119 80.0185 21.1119Z" fill="#9A81E0"/>
<path d="M66.6825 31.7429C67.6032 31.7429 68.3495 31.0292 68.3495 30.1483V28.0219C68.3495 27.141 67.603 26.4272 66.6825 26.4272C65.7621 26.4272 65.0156 27.141 65.0156 28.0219V30.1483C65.0156 31.0292 65.7619 31.7429 66.6825 31.7429Z" fill="#9A81E0"/>
<path d="M73.3505 31.7429C74.2712 31.7429 75.0174 31.0292 75.0174 30.1483V28.0219C75.0174 27.141 74.271 26.4272 73.3505 26.4272C72.43 26.4272 71.6836 27.141 71.6836 28.0219V30.1483C71.6836 31.0292 72.4298 31.7429 73.3505 31.7429Z" fill="#9A81E0"/>
<path d="M80.0185 31.7429C80.9392 31.7429 81.6854 31.0292 81.6854 30.1483V28.0219C81.6854 27.141 80.939 26.4272 80.0185 26.4272C79.098 26.4272 78.3516 27.141 78.3516 28.0219V30.1483C78.3516 31.0292 79.0978 31.7429 80.0185 31.7429Z" fill="#9A81E0"/>
<path d="M66.6825 42.3748C67.6032 42.3748 68.3495 41.6611 68.3495 40.7801V38.6538C68.3495 37.7728 67.603 37.0591 66.6825 37.0591C65.7621 37.0591 65.0156 37.7728 65.0156 38.6538V40.7801C65.0156 41.6609 65.7619 42.3748 66.6825 42.3748Z" fill="#9A81E0"/>
<path d="M73.3505 42.3748C74.2712 42.3748 75.0174 41.6611 75.0174 40.7801V38.6538C75.0174 37.7728 74.271 37.0591 73.3505 37.0591C72.43 37.0591 71.6836 37.7728 71.6836 38.6538V40.7801C71.6836 41.6609 72.4298 42.3748 73.3505 42.3748Z" fill="#9A81E0"/>
<path d="M80.0185 42.3748C80.9392 42.3748 81.6854 41.6611 81.6854 40.7801V38.6538C81.6854 37.7728 80.939 37.0591 80.0185 37.0591C79.098 37.0591 78.3516 37.7728 78.3516 38.6538V40.7801C78.3516 41.6609 79.0978 42.3748 80.0185 42.3748Z" fill="#9A81E0"/>
<path d="M20.0077 46.6272C20.9284 46.6272 21.6747 45.9135 21.6747 45.0325V42.9062C21.6747 42.0252 20.9282 41.3115 20.0077 41.3115C19.0873 41.3115 18.3408 42.0252 18.3408 42.9062V45.0325C18.3408 45.9133 19.0873 46.6272 20.0077 46.6272Z" fill="#9A81E0"/>
<path d="M26.6757 46.6272C27.5964 46.6272 28.3426 45.9135 28.3426 45.0325V42.9062C28.3426 42.0252 27.5962 41.3115 26.6757 41.3115C25.7552 41.3115 25.0088 42.0252 25.0088 42.9062V45.0325C25.0088 45.9133 25.755 46.6272 26.6757 46.6272Z" fill="#9A81E0"/>
<path d="M33.3437 46.6272C34.2644 46.6272 35.0106 45.9135 35.0106 45.0325V42.9062C35.0106 42.0252 34.2642 41.3115 33.3437 41.3115C32.4232 41.3115 31.6768 42.0252 31.6768 42.9062V45.0325C31.6768 45.9133 32.423 46.6272 33.3437 46.6272Z" fill="#9A81E0"/>
<path d="M20.0077 57.2585C20.9284 57.2585 21.6747 56.5448 21.6747 55.6639V53.5375C21.6747 52.6566 20.9282 51.9429 20.0077 51.9429C19.0873 51.9429 18.3408 52.6566 18.3408 53.5375V55.6639C18.3408 56.5447 19.0873 57.2585 20.0077 57.2585Z" fill="#9A81E0"/>
<path d="M26.6757 57.2585C27.5964 57.2585 28.3426 56.5448 28.3426 55.6639V53.5375C28.3426 52.6566 27.5962 51.9429 26.6757 51.9429C25.7552 51.9429 25.0088 52.6566 25.0088 53.5375V55.6639C25.0088 56.5447 25.755 57.2585 26.6757 57.2585Z" fill="#9A81E0"/>
<path d="M33.3437 57.2585C34.2644 57.2585 35.0106 56.5448 35.0106 55.6639V53.5375C35.0106 52.6566 34.2642 51.9429 33.3437 51.9429C32.4232 51.9429 31.6768 52.6566 31.6768 53.5375V55.6639C31.6768 56.5447 32.423 57.2585 33.3437 57.2585Z" fill="#9A81E0"/>
<path d="M20.0077 67.8899C20.9284 67.8899 21.6747 67.1762 21.6747 66.2952V64.1689C21.6747 63.2879 20.9282 62.5742 20.0077 62.5742C19.0873 62.5742 18.3408 63.2879 18.3408 64.1689V66.2952C18.3408 67.1762 19.0873 67.8899 20.0077 67.8899Z" fill="#9A81E0"/>
<path d="M26.6757 67.8899C27.5964 67.8899 28.3426 67.1762 28.3426 66.2952V64.1689C28.3426 63.2879 27.5962 62.5742 26.6757 62.5742C25.7552 62.5742 25.0088 63.2879 25.0088 64.1689V66.2952C25.0088 67.1762 25.755 67.8899 26.6757 67.8899Z" fill="#9A81E0"/>
<path d="M33.3437 67.8899C34.2644 67.8899 35.0106 67.1762 35.0106 66.2952V64.1689C35.0106 63.2879 34.2642 62.5742 33.3437 62.5742C32.4232 62.5742 31.6768 63.2879 31.6768 64.1689V66.2952C31.6768 67.1762 32.423 67.8899 33.3437 67.8899Z" fill="#9A81E0"/>
<path d="M20.0077 78.5212C20.9284 78.5212 21.6747 77.8075 21.6747 76.9266V74.8002C21.6747 73.9193 20.9282 73.2056 20.0077 73.2056C19.0873 73.2056 18.3408 73.9193 18.3408 74.8002V76.9266C18.3408 77.8075 19.0873 78.5212 20.0077 78.5212Z" fill="#9A81E0"/>
<path d="M26.6757 78.5212C27.5964 78.5212 28.3426 77.8075 28.3426 76.9266V74.8002C28.3426 73.9193 27.5962 73.2056 26.6757 73.2056C25.7552 73.2056 25.0088 73.9193 25.0088 74.8002V76.9266C25.0088 77.8075 25.755 78.5212 26.6757 78.5212Z" fill="#9A81E0"/>
<path d="M33.3437 78.5212C34.2644 78.5212 35.0106 77.8075 35.0106 76.9266V74.8002C35.0106 73.9193 34.2642 73.2056 33.3437 73.2056C32.4232 73.2056 31.6768 73.9193 31.6768 74.8002V76.9266C31.6768 77.8075 32.423 78.5212 33.3437 78.5212Z" fill="#9A81E0"/>
<path d="M80.0185 53.0061C80.9392 53.0061 81.6854 52.2924 81.6854 51.4114V49.2851C81.6854 48.4041 80.939 47.6904 80.0185 47.6904C79.098 47.6904 78.3516 48.4041 78.3516 49.2851V51.4114C78.3516 52.2922 79.0978 53.0061 80.0185 53.0061Z" fill="#9A81E0"/>
<path d="M80.0185 63.6375C80.9392 63.6375 81.6854 62.9237 81.6854 62.0428V59.9164C81.6854 59.0355 80.939 58.3218 80.0185 58.3218C79.098 58.3218 78.3516 59.0355 78.3516 59.9164V62.0428C78.3516 62.9236 79.0978 63.6375 80.0185 63.6375Z" fill="#9A81E0"/>
<path d="M80.0185 74.2688C80.9392 74.2688 81.6854 73.5551 81.6854 72.6741V70.5478C81.6854 69.6668 80.939 68.9531 80.0185 68.9531C79.098 68.9531 78.3516 69.6668 78.3516 70.5478V72.6741C78.3516 73.5549 79.0978 74.2688 80.0185 74.2688Z" fill="#9A81E0"/>
<path d="M80.0185 84.9001C80.9392 84.9001 81.6854 84.1864 81.6854 83.3055V81.1791C81.6854 80.2982 80.939 79.5845 80.0185 79.5845C79.098 79.5845 78.3516 80.2982 78.3516 81.1791V83.3055C78.3516 84.1863 79.0978 84.9001 80.0185 84.9001Z" fill="#9A81E0"/>
<path d="M50.568 25.8959C50.568 25.015 49.8216 24.3013 48.9011 24.3013H35.5654C34.6447 24.3013 33.8984 25.015 33.8984 25.8959C33.8984 26.7769 34.6449 27.4906 35.5654 27.4906H48.9011C49.8218 27.4906 50.568 26.7769 50.568 25.8959Z" fill="#9A81E0"/>
</g>
<defs>
<clipPath id="clip0_1598_14534">
<rect width="98.9062" height="94.6192" fill="white" transform="translate(0.55957 0.912109)"/>
</clipPath>
</defs>
</svg>
