<svg width="106" height="100" viewBox="0 0 106 100" fill="none" xmlns="http://www.w3.org/2000/svg">
<g clip-path="url(#clip0_1598_14582)">
<path d="M67.0026 63.0984V48.1722C67.0026 45.4595 64.6506 43.252 61.7605 43.252H12.8349C9.94481 43.252 7.59289 45.4595 7.59289 48.1722V63.0984C3.61069 63.861 0.603516 67.174 0.603516 71.1331V80.9735V97.3742C0.603516 98.2795 1.38633 99.0142 2.35086 99.0142H9.34023C10.3048 99.0142 11.0876 98.2795 11.0876 97.3742V92.454H63.5079V97.3742C63.5079 98.2795 64.2907 99.0142 65.2552 99.0142H72.2446C73.2091 99.0142 73.9919 98.2795 73.9919 97.3742V80.9735V71.1331C73.9919 67.174 70.9848 63.861 67.0026 63.0984ZM11.0876 48.1722C11.0876 47.2685 11.8721 46.5321 12.8349 46.5321H61.7605C62.7233 46.5321 63.5079 47.2685 63.5079 48.1722V62.9328H60.0132V56.3725C60.0132 53.6598 57.6613 51.4523 54.7712 51.4523H44.2871C41.397 51.4523 39.0451 53.6598 39.0451 56.3725V62.9328H35.5504V56.3725C35.5504 53.6598 33.1985 51.4523 30.3084 51.4523H19.8243C16.9342 51.4523 14.5823 53.6598 14.5823 56.3725V62.9328H11.0876V48.1722ZM56.5185 56.3725V62.9328H42.5398V56.3725C42.5398 55.4688 43.3243 54.7324 44.2871 54.7324H54.7712C55.734 54.7324 56.5185 55.4688 56.5185 56.3725ZM32.0557 56.3725V62.9328H18.077V56.3725C18.077 55.4688 18.8615 54.7324 19.8243 54.7324H30.3084C31.2711 54.7324 32.0557 55.4688 32.0557 56.3725ZM70.4973 95.7341H67.0026V90.8139C67.0026 89.9086 66.2198 89.1738 65.2552 89.1738H9.34023C8.3757 89.1738 7.59289 89.9086 7.59289 90.8139V95.7341H4.0982V82.6136H70.4973V95.7341ZM70.4973 79.3334H4.0982V71.1331C4.0982 68.4204 6.45013 66.2129 9.34023 66.2129H16.3296H33.803H40.7924H58.2659H65.2552C68.1453 66.2129 70.4973 68.4204 70.4973 71.1331V79.3334Z" fill="#9A81E0"/>
<path d="M103.696 62.9331H79.2337C78.2691 62.9331 77.4863 63.6679 77.4863 64.5732V77.6937V89.1742H80.981V79.3338H101.949V89.1742H105.444V77.6937V64.5732C105.444 63.6679 104.661 62.9331 103.696 62.9331ZM101.949 76.0536H80.981V66.2132H101.949V76.0536Z" fill="#9A81E0"/>
<path d="M94.9601 69.4932H87.9707V72.7733H94.9601V69.4932Z" fill="#9A81E0"/>
<path d="M100.113 49.2926L96.6187 39.4522C96.3794 38.7831 95.7136 38.332 94.9605 38.332H87.9711C87.218 38.332 86.5523 38.783 86.3129 39.4538L82.8182 49.2942C82.64 49.7945 82.7309 50.3439 83.0594 50.7719C83.3879 51.2 83.9156 51.4526 84.4765 51.4526H89.7185V56.3728H86.2238V59.6529H96.7079V56.3728H93.2132V51.4526H98.4552C99.0161 51.4526 99.5438 51.2 99.8723 50.7703C100.201 50.3422 100.29 49.7928 100.113 49.2926ZM86.9 48.1724L89.231 41.6122H93.7024L96.0316 48.1724H86.9Z" fill="#9A81E0"/>
<path d="M104.411 22.0739L53.7385 0.753037C53.2824 0.56279 52.7635 0.56279 52.3092 0.753037L1.6362 22.0739C1.00715 22.3396 0.603516 22.9251 0.603516 23.5713V43.2521H4.0982V24.6324L53.0238 4.04793L101.949 24.634V43.2521H105.444V23.5713C105.444 22.9251 105.04 22.3396 104.411 22.0739Z" fill="#9A81E0"/>
<path d="M65.0853 23.2991L61.6378 23.8436C61.7199 24.2913 61.7601 24.7506 61.7601 25.2114C61.7601 29.7331 57.8408 33.4118 53.0234 33.4118C48.206 33.4118 44.2867 29.7331 44.2867 25.2114C44.2867 20.6898 48.206 17.0111 53.0234 17.0111C54.0229 17.0111 55.0049 17.1685 55.938 17.4785L57.1017 14.3853C55.7929 13.9507 54.4213 13.731 53.0234 13.731C46.2787 13.731 40.792 18.8808 40.792 25.2114C40.792 31.5421 46.2787 36.6919 53.0234 36.6919C59.7681 36.6919 65.2548 31.5421 65.2548 25.2114C65.2548 24.5685 65.1971 23.9256 65.0853 23.2991Z" fill="#9A81E0"/>
<path d="M64.02 14.2114L53.024 24.5324L50.7647 22.4118L48.2939 24.7308L51.7886 28.0109C52.1294 28.3308 52.5767 28.4915 53.024 28.4915C53.4713 28.4915 53.9186 28.3308 54.2594 28.0109L66.4908 16.5305L64.02 14.2114Z" fill="#9A81E0"/>
</g>
<defs>
<clipPath id="clip0_1598_14582">
<rect width="104.841" height="98.404" fill="white" transform="translate(0.603516 0.610352)"/>
</clipPath>
</defs>
</svg>
