<svg width="21" height="20" viewBox="0 0 21 20" fill="none" xmlns="http://www.w3.org/2000/svg">
<g clip-path="url(#clip0_1499_2159)">
<path d="M6.11016 18.6178C6.11013 18.6178 6.11013 18.6178 6.11016 18.6178V18.6178ZM20.5979 13.3672C20.5099 13.5685 20.3492 13.7232 20.1455 13.8029L18.9994 14.2514C18.9029 14.2891 18.802 14.308 18.7012 14.308C18.5893 14.308 18.4774 14.2847 18.3715 14.2384C18.2151 14.17 18.0874 14.0574 18.0006 13.9152L16.6969 14.4711C16.7384 14.7239 16.6995 14.9905 16.5683 15.2291C16.4138 15.51 16.1579 15.7133 15.848 15.8013C15.8448 15.8022 15.8416 15.8029 15.8383 15.8037C15.9549 16.1174 15.9409 16.4768 15.7689 16.7895C15.5525 17.1829 15.1447 17.4056 14.7246 17.4056C14.6377 17.4056 14.5503 17.3955 14.4639 17.376C14.474 17.587 14.4284 17.8026 14.32 17.9996C14.1036 18.393 13.6958 18.6157 13.2757 18.6157C13.2246 18.6157 13.1734 18.6121 13.1224 18.6055C13.1382 18.8262 13.0933 19.0535 12.9791 19.2611C12.7628 19.6544 12.355 19.8771 11.9349 19.8771C11.7412 19.8771 11.545 19.8298 11.3636 19.7301L10.9522 19.5039C10.8008 19.7157 10.5847 19.8713 10.3302 19.9484C10.2155 19.9832 10.0984 20.0004 9.98208 20.0004C9.7893 20.0004 9.59872 19.9532 9.4245 19.86C9.15137 19.7139 8.95852 19.4757 8.86352 19.2041C8.81325 19.2273 8.76114 19.2473 8.7072 19.2637C8.59251 19.2984 8.47536 19.3157 8.35907 19.3157C8.1663 19.3157 7.97567 19.2684 7.80145 19.1752C7.55431 19.043 7.37309 18.8353 7.27036 18.5957C7.19106 18.6416 7.10598 18.679 7.01595 18.7062C6.90122 18.741 6.78415 18.7582 6.66782 18.7582C6.47509 18.7582 6.28442 18.7109 6.11024 18.6178C5.83091 18.4684 5.62618 18.2183 5.53384 17.9135C5.47712 17.7264 5.46727 17.533 5.50255 17.3468C5.47903 17.3482 5.45555 17.3495 5.43212 17.3495C5.23934 17.3495 5.04876 17.3022 4.87454 17.209C4.5952 17.0596 4.39048 16.8095 4.29813 16.5047C4.20579 16.2 4.2372 15.8783 4.38661 15.599L4.6868 15.0377C4.60911 14.8645 4.57434 14.6746 4.54052 14.4894C4.47759 14.1444 4.43208 13.9757 4.28712 13.9194C4.18001 13.8778 3.85684 13.7358 3.25216 13.4645C3.0952 13.6639 2.85493 13.7779 2.60602 13.7779C2.492 13.7779 2.3763 13.754 2.26602 13.7036L1.14665 13.192C0.734969 13.0039 0.553094 12.5159 0.741219 12.1042L3.04177 7.07039C3.22989 6.65867 3.71798 6.47684 4.12962 6.665L5.24899 7.17652C5.66067 7.36473 5.84255 7.85273 5.65442 8.26441L5.58477 8.4168L6.59805 8.88426C6.60563 8.88777 6.61309 8.8916 6.6204 8.89566C7.02352 9.12258 7.44177 9.02379 7.9711 8.89871C8.66114 8.7357 9.51059 8.53547 10.5054 9.12262C11.8734 8.2759 12.9239 8.70422 13.7 9.02141C14.2642 9.25203 14.6278 9.38418 14.9786 9.20172L15.9406 8.68684L15.9191 8.63199C15.7542 8.21047 15.9629 7.73336 16.3844 7.5684L17.5306 7.11992C17.9522 6.95508 18.4292 7.16383 18.5942 7.58523C18.5942 7.58523 18.5942 7.58523 18.5942 7.58527L20.6109 12.7393C20.6906 12.943 20.6859 13.166 20.5979 13.3672ZM2.78536 13.0384L5.08587 8.00465C5.13001 7.90805 5.08571 7.78914 4.98907 7.745L3.86973 7.23348C3.82262 7.21191 3.7695 7.21019 3.72012 7.22863C3.67071 7.24703 3.63165 7.28312 3.61016 7.33019L1.30958 12.364C1.26544 12.4606 1.30973 12.5795 1.40634 12.6236L2.52571 13.1352C2.62235 13.1793 2.74122 13.135 2.78536 13.0384ZM5.59891 16.6993C5.74325 16.6556 5.86153 16.5593 5.93227 16.428C5.93227 16.428 6.48993 15.3855 6.49024 15.385C6.63431 15.1157 6.52852 14.7646 6.25911 14.6212C5.99036 14.478 5.63985 14.5808 5.49458 14.8524C5.49458 14.8524 4.9379 15.8932 4.93762 15.8937C4.79325 16.1637 4.89973 16.5138 5.16919 16.6579C5.30137 16.7286 5.45403 16.7432 5.59891 16.6993ZM7.16899 17.8351C7.16899 17.8351 7.92337 16.4247 7.92364 16.4241C8.06747 16.1552 7.96165 15.8036 7.69255 15.6603C7.42563 15.5181 7.07524 15.6191 6.92915 15.8896L6.17333 17.3025C6.10263 17.4346 6.0879 17.5873 6.13184 17.7322C6.17579 17.8772 6.27274 17.9959 6.40489 18.0666C6.53704 18.1373 6.68958 18.152 6.83458 18.1081C6.97958 18.0642 7.09837 17.9672 7.16899 17.8351ZM8.86024 18.3925C8.86024 18.3925 9.47016 17.252 9.47048 17.2514C9.61454 16.982 9.50884 16.6311 9.23938 16.4876C8.96872 16.3434 8.6193 16.4486 8.47481 16.7188L7.86458 17.8599C7.71774 18.1345 7.82165 18.4772 8.09618 18.6241C8.22833 18.6947 8.38091 18.7095 8.52591 18.6655C8.67087 18.6216 8.78962 18.5246 8.86024 18.3925ZM10.4833 19.0773C10.4833 19.0773 11.0172 18.079 11.0173 18.0787C11.16 17.812 11.0539 17.4575 10.7862 17.3149C10.5156 17.1708 10.1662 17.2759 10.0216 17.5462L9.48755 18.5448C9.34087 18.8193 9.44477 19.162 9.71923 19.3088C9.85141 19.3795 10.0041 19.3943 10.149 19.3503C10.2939 19.3064 10.4126 19.2094 10.4833 19.0773ZM12.2519 18.2199L11.7121 17.923C11.7093 17.9215 11.7068 17.9196 11.7041 17.9181C11.6904 18.0757 11.645 18.2302 11.5684 18.3735L11.256 18.9577L11.6647 19.1825C11.9376 19.3325 12.2815 19.2327 12.4315 18.9599C12.5728 18.703 12.4911 18.382 12.2519 18.2199ZM15.7939 14.1588L12.7604 12.4298C12.2418 12.1341 11.5966 12.3954 10.8497 12.6979C9.72333 13.1538 8.32153 13.7213 7.13587 12.0875C7.08376 12.0157 7.06462 11.9251 7.08321 11.8384C7.1018 11.7516 7.15645 11.6769 7.23345 11.6328C8.13376 11.117 8.89036 10.5522 9.48231 9.95406C9.6336 9.80117 9.78696 9.66051 9.94095 9.53223C9.27423 9.23324 8.70825 9.36676 8.11473 9.50699C7.53571 9.64375 6.93716 9.78516 6.32528 9.44676L5.32489 8.98523L3.53321 12.9057C3.89055 13.066 4.39223 13.2898 4.51317 13.3368C4.96161 13.5109 5.07305 13.9421 5.13911 14.29C5.27778 14.1472 5.45126 14.0408 5.64766 13.9813C5.95251 13.8889 6.27411 13.9204 6.55345 14.0698C6.83196 14.2181 7.03665 14.4678 7.12927 14.7725C7.15173 14.8464 7.1668 14.9213 7.17481 14.9963C7.45102 14.936 7.73598 14.9747 7.98688 15.1089C8.2654 15.2572 8.47009 15.5068 8.5627 15.8116C8.56802 15.8291 8.57286 15.8467 8.57735 15.8643C8.59407 15.8585 8.61087 15.8529 8.62794 15.8477C8.9327 15.7553 9.25438 15.7868 9.53372 15.9361C9.81223 16.0845 10.0169 16.3341 10.1095 16.6389C10.1149 16.6564 10.1197 16.674 10.1242 16.6916C10.1409 16.6858 10.1577 16.6801 10.1747 16.675C10.4794 16.5826 10.8011 16.614 11.0805 16.7634C11.2166 16.8359 11.3349 16.9327 11.4312 17.0481L13.0056 17.9209C13.2782 18.0709 13.6223 17.9712 13.7724 17.6984C13.9209 17.4283 13.8199 17.0836 13.5471 16.9301L11.6747 15.8762C11.5242 15.7916 11.4709 15.6011 11.5556 15.4506C11.6402 15.3002 11.8307 15.2469 11.9812 15.3316L14.4545 16.7109C14.7271 16.8608 15.0712 16.7611 15.2213 16.4883C15.3688 16.22 15.2699 15.8784 15.0013 15.7234C14.984 15.7147 12.775 14.468 12.775 14.468C12.6247 14.3831 12.5717 14.1925 12.6566 14.0422C12.7414 13.892 12.932 13.8388 13.0824 13.9238L15.257 15.1521C15.3841 15.2239 15.5334 15.241 15.6771 15.2001C15.8252 15.158 15.9472 15.0613 16.0206 14.9279C16.1684 14.6593 16.0667 14.3143 15.7939 14.1588ZM17.7606 13.3381L16.1699 9.27297L15.2702 9.75449C14.6416 10.0815 14.0426 9.83672 13.4634 9.59996C12.6723 9.2766 11.8543 8.94226 10.672 9.75957C10.4243 9.93074 10.1735 10.1441 9.92657 10.3937C9.36626 10.9598 8.67223 11.4954 7.86009 11.9887C8.69598 12.8953 9.59138 12.533 10.6151 12.1186C11.4376 11.7856 12.2881 11.4412 13.07 11.8868L16.1034 13.6158C16.2361 13.6914 16.349 13.7888 16.4404 13.901L17.7606 13.3381ZM20.0288 12.9671C20.0288 12.9671 18.013 7.81531 18.0121 7.81305C17.9739 7.71539 17.8559 7.66375 17.7583 7.70199L16.6122 8.15043C16.5133 8.18914 16.4624 8.30539 16.5011 8.4043L18.5178 13.5583C18.5366 13.6065 18.5737 13.6447 18.622 13.6659C18.6703 13.687 18.7234 13.6883 18.7716 13.6694L19.9177 13.2209C19.9659 13.2021 20.0041 13.1651 20.0253 13.1168C20.0464 13.0684 20.0477 13.0153 20.0288 12.9671ZM17.4787 8.21672C17.2389 8.21672 17.0433 8.41226 17.0433 8.65203C17.0433 8.8918 17.2389 9.08738 17.4787 9.08738C17.7184 9.08738 17.914 8.8918 17.914 8.65203C17.914 8.41226 17.7185 8.21672 17.4787 8.21672ZM4.1202 7.76301C3.88013 7.74961 3.6747 7.93336 3.6613 8.17344C3.6479 8.41352 3.83165 8.61895 4.07173 8.63234C4.3118 8.64574 4.51723 8.46199 4.53063 8.22191C4.54403 7.98184 4.36028 7.77637 4.1202 7.76301ZM4.16403 5.70926C4.0097 5.49988 3.96708 5.24777 4.04403 4.99937C4.25833 4.30738 4.75376 3.76883 5.38329 3.49105C5.13794 3.2407 4.98626 2.8982 4.98626 2.52082C4.98626 1.75586 5.60864 1.13348 6.3736 1.13348C7.13856 1.13348 7.76087 1.75582 7.76087 2.52078C7.76087 2.89801 7.60934 3.24035 7.36423 3.49066C7.67294 3.62723 7.95087 3.82785 8.18059 4.08281C8.53059 3.63516 8.99841 3.28703 9.53575 3.08148C9.15817 2.76039 8.91802 2.28238 8.91802 1.7491C8.91802 0.784648 9.7027 0 10.6672 0C11.6316 0 12.4163 0.784648 12.4163 1.74914C12.4163 2.28246 12.1761 2.76047 11.7985 3.08156C12.3359 3.28711 12.8037 3.63527 13.1537 4.08293C13.3834 3.82797 13.6613 3.62734 13.97 3.49078C13.7249 3.24043 13.5734 2.89809 13.5734 2.52086C13.5734 1.7559 14.1957 1.13355 14.9607 1.13355C15.7257 1.13355 16.3481 1.7559 16.3481 2.52086C16.3481 2.89828 16.1964 3.24078 15.951 3.49113C16.5805 3.76891 17.076 4.30742 17.2902 4.99945C17.3672 5.24785 17.3246 5.49996 17.1702 5.70934C17.0158 5.91871 16.7876 6.03402 16.5276 6.03402H13.8047V6.29574C13.8047 6.88676 13.3238 7.36758 12.7329 7.36758H8.60141C8.0104 7.36758 7.52962 6.88676 7.52962 6.29574V6.03394H4.80669C4.54653 6.03391 4.31833 5.91863 4.16403 5.70926ZM14.9604 3.28316H14.9607H14.961C15.3812 3.28301 15.7231 2.94109 15.7231 2.52086C15.7231 2.10051 15.3811 1.75855 14.9607 1.75855C14.5404 1.75855 14.1984 2.10051 14.1984 2.52086C14.1984 2.94109 14.5402 3.28301 14.9604 3.28316ZM13.5032 4.64375C13.6194 4.88277 13.7068 5.13906 13.7602 5.40902H16.5276C16.5873 5.40902 16.6317 5.3866 16.6672 5.33848C16.7026 5.29043 16.7109 5.24141 16.6933 5.18434C16.4569 4.42117 15.7609 3.9084 14.9611 3.9082C14.961 3.9082 14.9609 3.9082 14.9607 3.9082C14.9606 3.9082 14.9605 3.9082 14.9604 3.9082C14.377 3.90828 13.8444 4.18066 13.5032 4.64375ZM10.6663 2.87324H10.6671H10.6679C11.2874 2.87281 11.7913 2.36871 11.7913 1.74914C11.7913 1.1293 11.287 0.625 10.6672 0.625C10.0473 0.625 9.54302 1.1293 9.54302 1.74914C9.54302 2.36871 10.0469 2.87281 10.6663 2.87324ZM8.15462 5.73855V6.2957C8.15462 6.54211 8.35505 6.74254 8.60141 6.74254H12.7328C12.9792 6.74254 13.1796 6.54207 13.1797 6.2957V5.73855C13.0348 4.46039 11.9579 3.49863 10.6679 3.49824C10.6677 3.49824 10.6674 3.49824 10.6671 3.49824C10.6668 3.49824 10.6666 3.4982 10.6663 3.4982C9.37634 3.49863 8.29942 4.46043 8.15462 5.73855ZM6.37329 3.28309H6.37356C6.37356 3.28309 6.37376 3.28309 6.37384 3.28309C6.79407 3.28293 7.13587 2.94102 7.13587 2.52078C7.13587 2.10043 6.79391 1.75844 6.37356 1.75844C5.95321 1.75844 5.61122 2.10043 5.61122 2.52078C5.61122 2.94105 5.95305 3.28293 6.37329 3.28309ZM4.66708 5.33844C4.70255 5.38652 4.74688 5.40894 4.80665 5.40894H7.57411C7.62743 5.13902 7.71489 4.88269 7.83106 4.64371C7.48981 4.18062 6.95716 3.90824 6.37384 3.90812C6.37376 3.90812 6.37364 3.90812 6.37352 3.90812C6.37341 3.90812 6.37325 3.90812 6.37309 3.90812C5.57333 3.90832 4.87727 4.42109 4.64095 5.18426C4.62333 5.24129 4.63161 5.29031 4.66708 5.33844Z" fill="#FBB040"/>
</g>
<defs>
<clipPath id="clip0_1499_2159">
<rect width="20" height="20" fill="white" transform="translate(0.66748)"/>
</clipPath>
</defs>
</svg>
