<svg width="22" height="22" viewBox="0 0 22 22" fill="none" xmlns="http://www.w3.org/2000/svg">
<g clip-path="url(#clip0_1499_2138)">
<path d="M10.8802 5.98242C8.31341 5.98242 6.2251 8.07073 6.2251 10.6376C6.2251 13.2045 8.31341 15.2928 10.8802 15.2928C13.4471 15.2928 15.5354 13.2045 15.5354 10.6376C15.5354 8.07073 13.4471 5.98242 10.8802 5.98242ZM10.8802 13.9098C9.07597 13.9098 7.60806 12.4419 7.60806 10.6376C7.60806 8.83329 9.07597 7.36539 10.8802 7.36539C12.6845 7.36539 14.1524 8.83329 14.1524 10.6376C14.1524 12.4419 12.6845 13.9098 10.8802 13.9098Z" fill="#FBB040"/>
<path d="M10.8801 12.6792C12.0078 12.6792 12.9219 11.7651 12.9219 10.6375C12.9219 9.50983 12.0078 8.5957 10.8801 8.5957C9.7525 8.5957 8.83838 9.50983 8.83838 10.6375C8.83838 11.7651 9.7525 12.6792 10.8801 12.6792Z" fill="#FBB040"/>
<path d="M8.36392 2.94042C8.66608 2.64359 8.85372 2.23056 8.85372 1.77352C8.85372 0.87007 8.12131 0.137695 7.21786 0.137695C6.31441 0.137695 5.58203 0.87007 5.58203 1.77352C5.58203 2.67697 6.31441 3.40935 7.21786 3.40935C7.22065 3.40935 7.22344 3.40914 7.22623 3.40914L8.07336 5.46562C8.43139 5.27051 8.81197 5.11191 9.20982 4.99395L8.36392 2.94042Z" fill="#FBB040"/>
<path d="M3.658 6.97473C3.65804 6.96981 3.65837 6.96497 3.65837 6.96005C3.65837 6.05659 2.926 5.32422 2.02254 5.32422C1.11909 5.32422 0.386719 6.05659 0.386719 6.96005C0.386719 7.8635 1.11909 8.59587 2.02254 8.59587C2.47729 8.59587 2.88855 8.41019 3.18505 8.1107L5.23719 8.96542C5.35531 8.56761 5.51412 8.18711 5.70936 7.82912L3.658 6.97473Z" fill="#FBB040"/>
<path d="M3.18309 13.1545C2.88626 12.8523 2.47323 12.6647 2.0162 12.6647C1.11275 12.6647 0.380371 13.3971 0.380371 14.3006C0.380371 15.204 1.11275 15.9364 2.0162 15.9364C2.91965 15.9364 3.65202 15.204 3.65202 14.3006C3.65202 14.2978 3.65182 14.295 3.65182 14.2922L5.7083 13.4451C5.51323 13.087 5.35458 12.7065 5.23662 12.3086L3.18309 13.1545Z" fill="#FBB040"/>
<path d="M7.22622 17.866C7.22344 17.866 7.22065 17.8658 7.21786 17.8658C6.31441 17.8658 5.58203 18.5982 5.58203 19.5016C5.58203 20.4051 6.31441 21.1375 7.21786 21.1375C8.12131 21.1375 8.85368 20.4051 8.85368 19.5017C8.85368 19.0446 8.66608 18.6316 8.36388 18.3348L9.20974 16.2812C8.81189 16.1633 8.4313 16.0046 8.07328 15.8096L7.22622 17.866Z" fill="#FBB040"/>
<path d="M13.3967 18.3348C13.0945 18.6316 12.9069 19.0446 12.9069 19.5017C12.9069 20.4051 13.6393 21.1375 14.5427 21.1375C15.4462 21.1375 16.1785 20.4051 16.1785 19.5017C16.1785 18.5982 15.4462 17.8658 14.5427 17.8658C14.5399 17.8658 14.5371 17.8661 14.5343 17.8661L13.6872 15.8096C13.3292 16.0047 12.9486 16.1633 12.5508 16.2812L13.3967 18.3348Z" fill="#FBB040"/>
<path d="M18.5755 8.1107C18.872 8.41019 19.2833 8.59587 19.738 8.59587C20.6415 8.59587 21.3738 7.8635 21.3738 6.96005C21.3738 6.05659 20.6415 5.32422 19.738 5.32422C18.8345 5.32422 18.1022 6.05659 18.1022 6.96005C18.1022 6.96501 18.1025 6.96985 18.1025 6.97481L16.0513 7.82921C16.2465 8.18719 16.4053 8.56765 16.5234 8.96546L18.5755 8.1107Z" fill="#FBB040"/>
<path d="M14.5343 3.40914C14.5371 3.40914 14.5399 3.40935 14.5427 3.40935C15.4462 3.40935 16.1785 2.67697 16.1785 1.77352C16.1785 0.87007 15.4462 0.137695 14.5427 0.137695C13.6393 0.137695 12.9069 0.87007 12.9069 1.77352C12.9069 2.23056 13.0945 2.64363 13.3967 2.94042L12.5508 4.99395C12.9486 5.11191 13.3292 5.27055 13.6872 5.46562L14.5343 3.40914Z" fill="#FBB040"/>
<path d="M19.7444 12.6647C19.2874 12.6647 18.8743 12.8523 18.5775 13.1545L16.524 12.3086C16.406 12.7065 16.2474 13.087 16.0522 13.4451L18.1088 14.2922C18.1088 14.2949 18.1086 14.2977 18.1086 14.3005C18.1086 15.2039 18.8409 15.9363 19.7444 15.9363C20.6478 15.9363 21.3802 15.2039 21.3802 14.3005C21.3802 13.397 20.6478 12.6647 19.7444 12.6647Z" fill="#FBB040"/>
</g>
<defs>
<clipPath id="clip0_1499_2138">
<rect width="21" height="21" fill="white" transform="translate(0.380371 0.137695)"/>
</clipPath>
</defs>
</svg>
