<svg width="20" height="19" viewBox="0 0 20 19" fill="none" xmlns="http://www.w3.org/2000/svg">
<path d="M15.2068 18.67C15.1092 18.67 15.0113 18.6362 14.9315 18.5675L13.6823 17.4946C13.4977 17.5971 13.3088 17.6926 13.1181 17.78C12.9033 17.8783 12.6505 17.7811 12.5538 17.5626C12.4571 17.3442 12.5527 17.0874 12.7677 16.9891C13.0215 16.8729 13.2718 16.7403 13.5114 16.5952C13.6678 16.5005 13.8662 16.5171 14.0053 16.6366L15.1826 17.6478L17.13 15.6691L16.1349 14.472C16.0175 14.3306 16.0011 14.1291 16.0944 13.9702C16.4585 13.3491 16.7318 12.6777 16.9067 11.9749C16.9514 11.7955 17.1032 11.6646 17.2847 11.6491L18.8211 11.5178V8.71892L17.2848 8.58769C17.1033 8.57215 16.9515 8.44138 16.9069 8.262C16.7318 7.55923 16.4584 6.88785 16.0944 6.26646C16.0013 6.10754 16.0175 5.90585 16.1351 5.76462L17.1326 4.56492L16.0809 3.50215L15.1826 2.58908L14.0055 3.60015C13.8664 3.71954 13.6681 3.73615 13.5117 3.64154C12.9005 3.27154 12.24 2.99369 11.5486 2.81569C11.3721 2.77031 11.2435 2.616 11.2282 2.43154L11.0988 0.867539H8.34555L8.21629 2.43154C8.201 2.616 8.07234 2.77031 7.89571 2.81569C7.20415 2.99354 6.54377 3.27138 5.93273 3.64138C5.77638 3.73615 5.57794 3.71954 5.43884 3.60015L4.26112 2.58877L2.31434 4.56815L3.30922 5.76477C3.42683 5.90615 3.44302 6.10785 3.34979 6.26692C3.20736 6.50969 3.07704 6.76385 2.96261 7.02277C2.86589 7.24123 2.61342 7.33862 2.39849 7.24046C2.18356 7.14215 2.0876 6.88554 2.18432 6.66708C2.27029 6.47277 2.36429 6.28062 2.46494 6.09323L1.40936 4.82354C1.26618 4.65138 1.27677 4.39631 1.43358 4.23692L2.10773 3.55169L3.81597 1.81462C3.82082 1.80969 3.82581 1.80492 3.83081 1.80031L3.9357 1.69369C4.0925 1.53431 4.34346 1.52354 4.51283 1.66908L5.762 2.74185C6.27889 2.45492 6.82469 2.22523 7.39092 2.05662L7.5279 0.399692C7.54652 0.175077 7.73133 0.00230769 7.95307 0.00230769H8.07703C8.09187 0.000769231 8.10685 0 8.12199 0H11.3302C11.3453 0 11.3603 0.000769231 11.3752 0.00230769H11.4915C11.7134 0.00230769 11.8982 0.175077 11.9167 0.399692L12.0537 2.05662C12.6199 2.22523 13.1657 2.45492 13.6826 2.74185L14.9316 1.66908C15.101 1.52354 15.352 1.53431 15.5088 1.69369L16.6836 2.88785L17.8974 4.11446C17.9133 4.13046 17.9276 4.14754 17.9405 4.16538L18.0109 4.23692C18.1677 4.39631 18.1783 4.65138 18.0351 4.82354L16.9797 6.09308C17.2621 6.61846 17.4879 7.17323 17.6538 7.74877L19.284 7.888C19.505 7.90692 19.6749 8.09477 19.6749 8.32015V11.9166C19.6749 12.142 19.505 12.33 19.284 12.3488L17.6538 12.488C17.4879 13.0635 17.2621 13.6183 16.9797 14.1437L18.0351 15.4135C18.1783 15.5858 18.1677 15.8408 18.0109 16.0002L17.9121 16.1006C17.9075 16.1057 17.9028 16.1106 17.8981 16.1155L15.5089 18.5434C15.426 18.6277 15.3167 18.6705 15.2071 18.6705L15.2068 18.67Z" fill="#FBB040"/>
<path d="M12.8422 15.1258C12.7072 15.1258 12.5743 15.0608 12.4914 14.9394C12.357 14.7427 12.4048 14.4725 12.5984 14.3358C12.8444 14.1621 13.0776 13.9638 13.2915 13.7462C14.245 12.777 14.7701 11.4885 14.7701 10.1179C14.7701 8.74729 14.245 7.45868 13.2915 6.48945C11.3232 4.48883 8.12044 4.48883 6.15216 6.48945C5.93814 6.70699 5.74304 6.94406 5.57215 7.19406C5.43775 7.39083 5.17181 7.43945 4.97822 7.30283C4.78463 7.16622 4.7368 6.89591 4.87121 6.69914C5.07085 6.40699 5.2988 6.13006 5.54869 5.87606C6.1119 5.3036 6.7688 4.86022 7.50123 4.55837C8.20838 4.26683 8.95548 4.11914 9.72182 4.11914C10.4881 4.11914 11.2353 4.26699 11.9424 4.55837C12.6748 4.86022 13.3317 5.3036 13.8949 5.87606C14.4581 6.44853 14.8944 7.11637 15.1913 7.86068C15.4782 8.57945 15.6235 9.33883 15.6235 10.1178C15.6235 10.8967 15.478 11.6561 15.1913 12.3748C14.8944 13.1193 14.4581 13.787 13.8949 14.3594C13.6452 14.6133 13.3728 14.845 13.0853 15.0481C13.0112 15.1005 12.9262 15.1256 12.8422 15.1256V15.1258Z" fill="#FBB040"/>
<path d="M10.8696 12.1875C10.6339 12.1875 10.4429 11.9934 10.4429 11.7538V8.2209H6.96721C6.73154 8.2209 6.54053 8.02675 6.54053 7.78721C6.54053 7.54767 6.73154 7.35352 6.96721 7.35352H10.8697C10.9829 7.35352 11.0914 7.39905 11.1715 7.48044C11.2516 7.56182 11.2965 7.67213 11.2965 7.78721V11.7538C11.2965 11.9934 11.1054 12.1875 10.8697 12.1875H10.8696Z" fill="#FBB040"/>
<path d="M2.44862 16.7798C2.33949 16.7798 2.2302 16.7375 2.14696 16.6527C1.98031 16.4833 1.98031 16.2087 2.14696 16.0393L10.4454 7.60458C10.612 7.43519 10.8822 7.43519 11.0488 7.60458C11.2155 7.77396 11.2155 8.04858 11.0488 8.21796L2.75028 16.6527C2.66703 16.7375 2.55775 16.7798 2.44862 16.7798Z" fill="#FBB040"/>
<path d="M4.14193 11.2146C3.90626 11.2146 3.71525 11.0205 3.71525 10.781V8.33418H1.30803C1.07236 8.33418 0.881348 8.14003 0.881348 7.90049C0.881348 7.66095 1.07236 7.4668 1.30803 7.4668H4.14208C4.25529 7.4668 4.36382 7.51249 4.44389 7.59372C4.52396 7.6751 4.56891 7.78541 4.56891 7.90049V10.7811C4.56891 11.0206 4.37774 11.2148 4.14208 11.2148L4.14193 11.2146Z" fill="#FBB040"/>
<path d="M0.426644 12.1101C0.317514 12.1101 0.208232 12.0678 0.124985 11.9831C-0.0416616 11.8137 -0.0416616 11.5391 0.124985 11.3697C0.124985 11.3697 3.71659 7.71906 3.7514 7.68368C3.91804 7.51429 4.18822 7.51429 4.35487 7.68368C4.52151 7.85306 4.52151 8.12768 4.35487 8.29706C4.3199 8.3326 0.728302 11.9832 0.728302 11.9832C0.645055 12.068 0.535773 12.1103 0.426644 12.1103V12.1101Z" fill="#FBB040"/>
<path d="M10.7576 17.9393C10.522 17.9393 10.331 17.7451 10.331 17.5056V15.0588H7.92375C7.68809 15.0588 7.49707 14.8646 7.49707 14.6251C7.49707 14.3856 7.68809 14.1914 7.92375 14.1914H10.7578C10.871 14.1914 10.9795 14.2371 11.0596 14.3183C11.1397 14.3997 11.1846 14.51 11.1846 14.6251V17.5057C11.1846 17.7453 10.9935 17.9394 10.7578 17.9394L10.7576 17.9393Z" fill="#FBB040"/>
<path d="M7.04237 18.8347C6.93324 18.8347 6.82396 18.7924 6.74071 18.7077C6.57406 18.5383 6.57406 18.2637 6.74071 18.0943C6.74071 18.0943 10.3323 14.4437 10.3671 14.4083C10.5338 14.2389 10.8039 14.2389 10.9706 14.4083C11.1372 14.5777 11.1372 14.8523 10.9706 15.0217C10.9356 15.0572 7.34403 18.7078 7.34403 18.7078C7.26078 18.7926 7.1515 18.8349 7.04237 18.8349V18.8347Z" fill="#FBB040"/>
</svg>
