<svg width="23" height="26" viewBox="0 0 23 26" fill="none" xmlns="http://www.w3.org/2000/svg">
<g clip-path="url(#clip0_1499_2033)">
<path fill-rule="evenodd" clip-rule="evenodd" d="M11.7973 0.413164V2.35309C11.7973 2.43908 11.7628 2.52163 11.7 2.57972C11.6389 2.64125 11.5542 2.6745 11.4695 2.6745C11.3793 2.6745 11.2962 2.64125 11.2335 2.57972C11.1703 2.52163 11.1362 2.43908 11.1362 2.35309V0.413164C11.1362 0.327175 11.1707 0.246153 11.2335 0.184623C11.2966 0.123093 11.3797 0.0898438 11.4695 0.0898438C11.5542 0.0898438 11.6389 0.123093 11.7 0.184623C11.7631 0.246153 11.7973 0.326792 11.7973 0.413164Z" fill="#FBB040"/>
<path fill-rule="evenodd" clip-rule="evenodd" d="M17.0197 1.94906C16.688 2.50971 16.3563 3.06998 16.0247 3.63063C15.9796 3.70439 15.9074 3.75904 15.8227 3.77815C15.7381 3.80261 15.6479 3.79038 15.5738 3.74834C15.4962 3.70439 15.442 3.63598 15.4189 3.55152C15.3954 3.46897 15.4079 3.38107 15.4515 3.30731C15.7831 2.74666 16.1148 2.18792 16.4465 1.62727C16.4896 1.55351 16.5618 1.49886 16.6484 1.47631C16.7331 1.45529 16.8233 1.46561 16.9009 1.50956C16.9746 1.5516 17.0307 1.62192 17.0523 1.70447C17.0758 1.78702 17.0632 1.87492 17.0197 1.94868V1.94906Z" fill="#FBB040"/>
<path fill-rule="evenodd" clip-rule="evenodd" d="M20.7531 5.8254C20.1779 6.14872 19.6047 6.47204 19.0295 6.79536C18.9519 6.8374 18.8617 6.85002 18.779 6.82708C18.6943 6.80606 18.6222 6.75141 18.579 6.67956C18.534 6.60389 18.5234 6.51599 18.5449 6.43344C18.5665 6.35089 18.6226 6.28057 18.6982 6.23662C19.2734 5.9133 19.8486 5.58998 20.4233 5.26666C20.499 5.22462 20.5872 5.21201 20.6739 5.23494C20.7605 5.25787 20.8307 5.31061 20.8758 5.3859C20.9189 5.45775 20.9314 5.54565 20.9083 5.6282C20.8848 5.71266 20.8291 5.78107 20.7534 5.82502L20.7531 5.8254Z" fill="#FBB040"/>
<path fill-rule="evenodd" clip-rule="evenodd" d="M21.9986 11.0022H20.0084C19.9202 11.0022 19.8351 10.9689 19.7759 10.9074C19.7128 10.8478 19.6787 10.7652 19.6787 10.6807C19.6787 10.5963 19.7128 10.5137 19.7759 10.4522C19.8355 10.3907 19.9202 10.3574 20.0084 10.3574H21.9986C22.0868 10.3574 22.1699 10.3907 22.233 10.4522C22.2961 10.5137 22.3303 10.5944 22.3303 10.6807C22.3303 10.7671 22.2961 10.8478 22.233 10.9074C22.1699 10.9689 22.0872 11.0022 21.9986 11.0022Z" fill="#FBB040"/>
<path fill-rule="evenodd" clip-rule="evenodd" d="M20.4233 16.0914C19.8481 15.7681 19.2734 15.4448 18.6982 15.1215C18.6225 15.0794 18.5665 15.0091 18.5449 14.9266C18.5214 14.844 18.5339 14.7561 18.5774 14.6839C18.6225 14.6082 18.6927 14.5539 18.7793 14.5329C18.8621 14.5085 18.9542 14.5207 19.0299 14.5646C19.605 14.888 20.1782 15.2113 20.7534 15.5346C20.8291 15.5766 20.8851 15.647 20.9083 15.7295C20.9298 15.814 20.9192 15.9 20.8742 15.9756C20.831 16.0479 20.7589 16.1021 20.6742 16.1251C20.5876 16.1461 20.4993 16.1358 20.4237 16.0918L20.4233 16.0914Z" fill="#FBB040"/>
<path fill-rule="evenodd" clip-rule="evenodd" d="M6.48652 1.62733C6.81821 2.18798 7.1499 2.74672 7.48158 3.30737C7.52667 3.38113 7.53922 3.46903 7.51412 3.55158C7.49256 3.63413 7.4365 3.70445 7.36279 3.74649C7.28516 3.79044 7.19498 3.80076 7.1103 3.77974C7.02561 3.75872 6.95347 3.70407 6.91034 3.63031C6.57866 3.06965 6.24697 2.509 5.91528 1.94873C5.87019 1.87497 5.85921 1.78707 5.88078 1.70452C5.9043 1.62006 5.95997 1.55165 6.03564 1.5077C6.10935 1.46566 6.20149 1.45344 6.28617 1.47598C6.37086 1.49891 6.443 1.55318 6.48613 1.62694L6.48652 1.62733Z" fill="#FBB040"/>
<path fill-rule="evenodd" clip-rule="evenodd" d="M2.51132 5.26675C3.08452 5.59007 3.65968 5.91339 4.23485 6.23671C4.31051 6.28066 4.36658 6.35098 4.38814 6.43353C4.41167 6.51608 4.39912 6.60398 4.3556 6.67621C4.31051 6.75188 4.24033 6.80462 4.15369 6.82717C4.07096 6.8501 3.98079 6.83787 3.90316 6.79545C3.32996 6.47213 2.7548 6.14881 2.17964 5.82549C2.10397 5.78154 2.0479 5.71313 2.02634 5.62867C2.00281 5.54612 2.01536 5.45822 2.05888 5.38255C2.10201 5.3107 2.17415 5.25605 2.25883 5.23503C2.34548 5.2121 2.43369 5.22433 2.51132 5.26675Z" fill="#FBB040"/>
<path fill-rule="evenodd" clip-rule="evenodd" d="M0.934227 10.3574H2.92435C3.01257 10.3574 3.09765 10.3907 3.15881 10.4522C3.21997 10.5118 3.25447 10.5944 3.25447 10.6773C3.25447 10.7652 3.21997 10.8458 3.15881 10.9074C3.09765 10.9689 3.01257 11.0022 2.92435 11.0022H0.934227C0.846012 11.0022 0.762894 10.9689 0.699771 10.9074C0.636649 10.8458 0.602539 10.7652 0.602539 10.6773C0.602539 10.5948 0.636649 10.5122 0.699771 10.4522C0.762894 10.3907 0.84562 10.3574 0.934227 10.3574Z" fill="#FBB040"/>
<path fill-rule="evenodd" clip-rule="evenodd" d="M2.17961 15.5336C2.75477 15.2103 3.32994 14.887 3.90314 14.5637C3.98076 14.5197 4.07094 14.5075 4.15367 14.532C4.24031 14.553 4.31245 14.6076 4.35362 14.6795C4.39871 14.7551 4.41125 14.8411 4.38773 14.9256C4.36617 15.0081 4.3101 15.0785 4.23443 15.1205C3.65927 15.4438 3.0845 15.7671 2.51091 16.0905C2.43328 16.1344 2.34507 16.1451 2.25842 16.1237C2.17373 16.1008 2.10159 16.0465 2.0565 15.9708C2.01495 15.899 2.0024 15.8111 2.02592 15.7282C2.04749 15.6456 2.10355 15.5753 2.17922 15.5333L2.17961 15.5336Z" fill="#FBB040"/>
<path fill-rule="evenodd" clip-rule="evenodd" d="M11.4675 23.6189H9.2068C8.81944 23.6189 8.54342 23.4554 8.38464 23.1129C8.2729 22.8829 8.18625 20.6265 8.09608 19.8094C7.8871 17.9398 7.82398 17.3352 6.3655 15.7503C5.96716 15.3372 5.5253 14.8224 5.22615 14.3374C4.85643 13.7382 4.57179 13.0969 4.39144 12.4204C4.21854 11.765 4.1464 11.0939 4.18404 10.4209C4.22364 9.73564 4.37498 9.06072 4.62041 8.41943C4.87094 7.76744 5.2191 7.15061 5.64253 6.59531C5.65507 6.57582 5.67154 6.55671 5.68409 6.53722C6.00872 6.09427 6.39059 5.69184 6.81441 5.33527C7.23627 4.97871 7.70323 4.66914 8.20076 4.41958C8.70182 4.16658 9.23542 3.9732 9.7851 3.84135C10.3367 3.71141 10.8993 3.64453 11.4651 3.64453H11.4094H11.5231H11.469C12.0332 3.64453 12.5958 3.71141 13.1475 3.84135C13.6971 3.9732 14.2307 4.16658 14.7322 4.41958C15.2297 4.66914 15.6967 4.97832 16.1185 5.33527C16.542 5.69184 16.9242 6.09427 17.2489 6.53722C17.2634 6.55671 17.2779 6.57582 17.2904 6.59531C17.7138 7.15061 18.0636 7.76744 18.3125 8.41943C18.5595 9.06072 18.7093 9.73564 18.7489 10.4209C18.7869 11.0939 18.7148 11.765 18.5415 12.4204C18.3631 13.0969 18.0765 13.7382 17.7087 14.3374C17.4096 14.8224 16.9677 15.3372 16.5678 15.7503C15.1113 17.3352 15.0482 17.9398 14.8392 19.8094C14.7475 20.6265 14.6608 22.8829 14.5491 23.1129C14.3903 23.4557 14.1162 23.6189 13.7269 23.6189H11.4682H11.4675ZM11.4675 4.30187C10.9538 4.30378 10.4434 4.36149 9.94584 4.48111C9.44831 4.59882 8.96529 4.77462 8.51088 5.00469C8.06197 5.23132 7.63853 5.51069 7.25627 5.83248C6.87597 6.15389 6.52624 6.51429 6.23572 6.91672C6.22122 6.93774 6.20514 6.95876 6.19063 6.98016C6.18867 6.9836 6.18515 6.98551 6.18515 6.98704C5.79739 7.49495 5.47864 8.0556 5.2532 8.64759C5.02973 9.22926 4.89446 9.83883 4.86035 10.4576C4.82428 11.0622 4.88937 11.6683 5.04619 12.2569C5.20851 12.8702 5.46962 13.4554 5.80523 13.9984C6.08634 14.457 6.48116 14.9103 6.85793 15.3005C6.85989 15.3024 6.86146 15.3039 6.86342 15.3058C6.86538 15.3078 6.86695 15.3093 6.86891 15.3127C8.41757 16.9962 8.54185 17.7571 8.75279 19.6107C8.82845 20.289 8.97979 22.8018 8.99783 22.8389C9.0484 22.9459 9.08604 22.962 9.2068 22.962H13.7261C13.8469 22.962 13.8849 22.9459 13.9351 22.8389C13.9531 22.8018 14.1045 20.289 14.1821 19.6107C14.3915 17.7567 14.5158 16.9958 16.064 15.3127C16.066 15.3093 16.0676 15.3074 16.0695 15.3058C16.0711 15.3039 16.0731 15.3024 16.075 15.3005C16.4518 14.9103 16.8466 14.457 17.1277 13.9984C17.4629 13.4554 17.7244 12.8702 17.8867 12.2569C18.0436 11.6683 18.1087 11.0618 18.0726 10.4576C18.0385 9.83921 17.9032 9.22926 17.6797 8.64759C17.4543 8.05522 17.1352 7.49495 16.7494 6.98704C16.7478 6.98513 16.7458 6.9836 16.7423 6.98016C16.7278 6.95914 16.7117 6.93812 16.6972 6.91672C16.4071 6.51429 16.0574 6.15389 15.6771 5.83248C15.2948 5.51108 14.8729 5.23171 14.4225 5.00469C13.968 4.77462 13.485 4.59882 12.9875 4.48111C12.49 4.36149 11.9799 4.30378 11.4678 4.30187H11.4675Z" fill="#FBB040"/>
<path d="M14.2721 21.542H8.68359V22.1852H14.2721V21.542Z" fill="#FBB040"/>
<path d="M14.2721 20.1221H8.68359V20.7653H14.2721V20.1221Z" fill="#FBB040"/>
<path fill-rule="evenodd" clip-rule="evenodd" d="M15.7885 8.87196C15.7921 8.87387 15.7956 8.87731 15.7995 8.88075C15.823 8.89642 15.8426 8.914 15.8646 8.93349C15.8897 8.95795 15.9132 8.97897 15.9367 9.00534C15.9583 9.02827 15.9783 9.05464 15.9979 9.08101C16.023 9.11426 16.0465 9.14942 16.0665 9.18649L16.0685 9.1884V9.19031C16.0865 9.22738 16.1045 9.26254 16.1206 9.30114L16.1226 9.30306C16.1351 9.34357 16.1496 9.38217 16.1606 9.42268C16.1716 9.46319 16.1786 9.50523 16.1822 9.54727C16.1877 9.58778 16.1892 9.62829 16.1892 9.67033C16.1892 9.71237 16.1873 9.75288 16.1802 9.79491C16.1747 9.83543 16.1657 9.87747 16.1567 9.91798L16.1547 9.91989C16.1437 9.9604 16.1312 9.999 16.1132 10.0376C16.1041 10.0605 16.0951 10.0815 16.0842 10.1026V10.1045L16.0822 10.1064C16.0747 10.1205 16.0657 10.1362 16.0571 10.1503C16.0591 10.1538 16.0606 10.1557 16.0642 10.1591V10.161C16.0822 10.184 16.1002 10.2069 16.1163 10.2314C16.1343 10.2558 16.1504 10.2807 16.1649 10.307C16.2606 10.4706 16.3182 10.6514 16.3308 10.8394C16.3433 11.0255 16.3112 11.212 16.239 11.3859V11.3878L16.2371 11.3913C16.2226 11.423 16.208 11.4528 16.192 11.4826C16.1775 11.5143 16.1614 11.5441 16.1414 11.5724C16.1269 11.5969 16.1108 11.6198 16.0963 11.6427L16.0943 11.6446L16.0924 11.6466C16.0889 11.65 16.0869 11.6534 16.0834 11.6573C16.0904 11.689 16.0959 11.7203 16.1014 11.7539V11.7559C16.1069 11.8086 16.114 11.8613 16.1175 11.9141V11.916C16.1194 11.9741 16.1194 12.0337 16.1175 12.0933C16.114 12.1529 16.1065 12.2129 16.0975 12.2706C16.0865 12.3356 16.0724 12.4006 16.0544 12.4675C16.0344 12.5309 16.0128 12.594 15.9877 12.6589C15.9626 12.7205 15.9316 12.782 15.8995 12.8397C15.8654 12.8993 15.8293 12.9555 15.7893 13.0102C15.7497 13.0648 15.7046 13.1175 15.6595 13.1699C15.6129 13.2173 15.5639 13.2666 15.5117 13.3105C15.4612 13.3545 15.4071 13.395 15.3494 13.4351C15.2918 13.4737 15.2342 13.5089 15.1746 13.5387C15.1205 13.567 15.0648 13.5934 15.0068 13.6159L15.0048 13.6178C14.9472 13.6388 14.8895 13.6583 14.8315 13.6759C14.7774 13.6916 14.7213 13.7038 14.6676 13.7145C14.6335 13.7214 14.599 13.7267 14.5629 13.7302C14.5233 13.7864 14.4783 13.8372 14.4296 13.8865C14.3685 13.9499 14.2999 14.0061 14.2277 14.0588C14.1521 14.1135 14.0689 14.1609 13.9827 14.201C13.8945 14.2396 13.8043 14.2713 13.7106 14.2943C13.642 14.3118 13.5718 14.326 13.5032 14.3329C13.431 14.3436 13.3573 14.347 13.2852 14.347C13.2131 14.347 13.1374 14.3436 13.0652 14.3329C12.9915 14.326 12.9194 14.3118 12.8473 14.2958C12.7806 14.2817 12.714 14.2606 12.6489 14.2377C12.5838 14.2132 12.5211 14.1869 12.4595 14.1567C12.3999 14.1288 12.3407 14.0952 12.2866 14.0585C12.2325 14.0233 12.1819 13.9847 12.1317 13.9423C12.0812 13.8964 12.0325 13.8475 11.991 13.7929C11.9479 13.742 11.9118 13.6855 11.8808 13.6278C11.8522 13.5697 11.8267 13.51 11.8122 13.4485C11.7961 13.3851 11.7871 13.322 11.7871 13.2586V7.61269C11.7871 7.53893 11.7961 7.46517 11.8106 7.39294C11.8251 7.32262 11.8447 7.2523 11.8738 7.18542C11.9028 7.12198 11.9369 7.06083 11.9784 7.00427C12.0216 6.94465 12.0721 6.89191 12.1282 6.84605C12.1623 6.81777 12.1984 6.7914 12.2384 6.76541C12.278 6.74248 12.3176 6.71955 12.3607 6.70197C12.4038 6.68439 12.4473 6.66872 12.4905 6.65458C12.5356 6.64044 12.5826 6.63012 12.6312 6.62133C12.6744 6.61598 12.7194 6.61254 12.763 6.61063C12.808 6.60872 12.8531 6.60872 12.8982 6.61254C12.9433 6.61445 12.9884 6.61942 13.0335 6.62821H13.0354C13.0786 6.63891 13.1237 6.6477 13.1652 6.66146C13.2354 6.68248 13.3021 6.71076 13.3671 6.74248C13.4322 6.77573 13.4914 6.81433 13.5475 6.85828C13.5981 6.89688 13.6447 6.94083 13.6863 6.99013C13.7133 7.0165 13.7369 7.04631 13.7584 7.07803C13.7874 7.07994 13.818 7.07994 13.8486 7.08147C13.9027 7.08682 13.9568 7.09026 14.0129 7.09714C14.074 7.10784 14.1336 7.11816 14.1932 7.1323C14.2544 7.14644 14.314 7.16211 14.3716 7.1816C14.4383 7.20262 14.5049 7.22899 14.57 7.25727C14.6351 7.28517 14.6962 7.31689 14.7594 7.35052L14.7613 7.35243C14.8209 7.38759 14.8805 7.42466 14.9397 7.46479C14.9938 7.5053 15.0495 7.54734 15.102 7.5932C15.1561 7.63906 15.2047 7.68798 15.2534 7.73919C15.302 7.79002 15.3471 7.84467 15.3902 7.89894C15.4318 7.95359 15.4694 8.0113 15.5074 8.0713C15.5435 8.1294 15.576 8.19245 15.6066 8.25398C15.6337 8.31016 15.6572 8.36634 15.6788 8.42635C15.7003 8.48444 15.7203 8.54214 15.7344 8.60215C15.7505 8.6568 15.7615 8.71107 15.7725 8.76725C15.778 8.80241 15.7834 8.83757 15.7885 8.87273V8.87196ZM12.9602 7.39791C12.9817 7.37154 13.0033 7.34517 13.0288 7.32071C13.0072 7.31001 12.9857 7.30313 12.9637 7.29625C12.9457 7.2909 12.9261 7.28555 12.9076 7.28211C12.888 7.27867 12.87 7.27676 12.85 7.27523C12.832 7.27332 12.812 7.27332 12.7939 7.27332C12.7759 7.27523 12.7579 7.27676 12.7379 7.27867C12.7234 7.28211 12.7073 7.28555 12.6928 7.2909H12.6893C12.6767 7.29434 12.6657 7.29969 12.6516 7.30504L12.6406 7.30848C12.6281 7.31383 12.6171 7.32071 12.6046 7.32797C12.5936 7.33485 12.583 7.34364 12.574 7.3509C12.5595 7.36313 12.545 7.37727 12.5344 7.39294L12.5324 7.39638L12.5305 7.39829C12.5179 7.41243 12.5089 7.43154 12.5015 7.44912C12.4924 7.47358 12.485 7.49842 12.4799 7.52288C12.4744 7.55269 12.4728 7.5825 12.4728 7.61231V10.2165C12.5199 10.2042 12.5646 10.1882 12.6081 10.1691C12.6893 10.132 12.7649 10.0812 12.8316 10.0231C12.8947 9.96154 12.9523 9.89122 12.9939 9.81211C13.037 9.733 13.0641 9.64854 13.0786 9.56255C13.0931 9.47656 13.0931 9.38522 13.0786 9.29885C13.0605 9.21286 13.0335 9.1284 12.9884 9.05273L12.9864 9.04929L12.9755 9.02827C12.9088 8.92126 12.9068 8.78597 12.9719 8.67667C13.0386 8.56775 13.1629 8.50278 13.2926 8.50813C13.4495 8.51501 13.5361 8.59756 13.6063 8.72406C13.6855 8.86814 13.7416 9.02292 13.7686 9.18267C13.7957 9.34433 13.7992 9.5079 13.7721 9.66956C13.7451 9.83122 13.6929 9.98753 13.6153 10.1316C13.5361 10.2738 13.435 10.4056 13.3142 10.5165C13.1915 10.6288 13.0527 10.7221 12.8994 10.7905C12.7641 10.8501 12.6199 10.8925 12.472 10.9116V13.2574C12.472 13.2697 12.474 13.2819 12.4756 13.2907C12.4811 13.3063 12.4881 13.3205 12.4936 13.3365C12.5046 13.3541 12.5171 13.3717 12.5316 13.3874C12.5477 13.4084 12.5658 13.4279 12.5877 13.4435L12.5897 13.4455C12.6148 13.4684 12.6438 13.4894 12.6708 13.507C12.7034 13.528 12.7359 13.5475 12.772 13.5632C12.8081 13.5807 12.8441 13.5983 12.8857 13.6106C12.9253 13.6247 12.9668 13.6388 13.0084 13.6476C13.0535 13.6583 13.1001 13.6652 13.1456 13.6706C13.1907 13.6774 13.2358 13.6813 13.2824 13.6813C13.3256 13.6813 13.3707 13.6793 13.4158 13.6744C13.4573 13.669 13.4985 13.6602 13.54 13.6499C13.5941 13.6358 13.6463 13.6182 13.6969 13.5937C13.7474 13.5708 13.7925 13.5444 13.8376 13.5112C13.8807 13.4814 13.9207 13.4443 13.9568 13.4057C13.9929 13.3686 14.0235 13.3266 14.0525 13.2861C14.0634 13.2563 14.0725 13.228 14.0815 13.1982C14.0905 13.1665 14.0976 13.1347 14.1011 13.1015V13.0996C14.1066 13.0663 14.1101 13.0312 14.1121 12.996C14.1121 12.9628 14.1121 12.9276 14.1085 12.894C14.105 12.8573 14.0995 12.8221 14.0905 12.787V12.7835C14.0834 12.7484 14.0705 12.7132 14.0599 12.678C14.0474 12.6448 14.0329 12.6112 14.0148 12.5779C13.9968 12.5462 13.9788 12.5145 13.9588 12.4847C13.9372 12.4549 13.9156 12.425 13.8921 12.3987C13.8651 12.3723 13.838 12.3459 13.809 12.3215C13.7819 12.297 13.7514 12.2741 13.7208 12.2546C13.6902 12.2351 13.6577 12.2141 13.6251 12.1984C13.591 12.1827 13.5565 12.1667 13.5204 12.1545C13.4844 12.1422 13.4483 12.1334 13.4122 12.1247L13.3997 12.1227H13.3977C13.3652 12.1159 13.3346 12.1105 13.3021 12.1086H13.3001C13.264 12.1052 13.2299 12.1033 13.1938 12.1033H13.1633C13.1056 12.1013 13.048 12.0857 12.9974 12.0574C12.9433 12.0276 12.8982 11.9855 12.8712 11.9309C12.8567 11.908 12.8476 11.8835 12.8406 11.859C12.8335 11.8346 12.8296 11.8097 12.8296 11.7853C12.8277 11.7589 12.8296 11.7345 12.8331 11.7096C12.8386 11.6832 12.8476 11.6588 12.8582 11.6359C12.8833 11.5797 12.9249 11.5338 12.9755 11.5006C13.0331 11.462 13.0801 11.4497 13.1503 11.4444C13.2601 11.439 13.3703 11.4444 13.4801 11.4601C13.7937 11.5094 14.1093 11.6691 14.3308 11.8889C14.3669 11.9221 14.3994 11.9573 14.4336 11.9959C14.4641 12.0329 14.4931 12.0715 14.5218 12.1117C14.5578 12.1644 14.5919 12.2206 14.621 12.2787C14.6515 12.3349 14.6786 12.3945 14.7002 12.4545C14.7237 12.516 14.7417 12.5791 14.7543 12.6425C14.7688 12.704 14.7794 12.769 14.7848 12.8324C14.7884 12.871 14.7919 12.9096 14.7919 12.9486V12.9803C14.8119 12.9716 14.8315 12.9609 14.8515 12.9524C14.8895 12.933 14.9256 12.9119 14.9597 12.8875C14.9958 12.863 15.0299 12.8382 15.0609 12.8103C15.0934 12.7839 15.124 12.7541 15.151 12.7243C15.18 12.6926 15.2087 12.6608 15.2322 12.6257C15.2573 12.5905 15.2792 12.5554 15.3008 12.5187C15.3208 12.4835 15.3388 12.4468 15.3549 12.4078V12.4059C15.371 12.3673 15.3855 12.3287 15.398 12.2882C15.409 12.2477 15.4161 12.2072 15.4231 12.1652C15.4251 12.1495 15.4286 12.1334 15.4302 12.1159C15.4247 12.1178 15.4192 12.1193 15.4141 12.1212H15.4122C15.369 12.1334 15.3275 12.1457 15.2824 12.1529C15.2373 12.1617 15.1902 12.1686 15.1436 12.1724L15.1416 12.1743H15.1326C14.9648 12.1709 14.8244 12.0532 14.7974 11.8931C14.7774 11.7857 14.8119 11.6767 14.8911 11.6015C14.9577 11.5365 15.0154 11.5223 15.1056 11.5082H15.1091C15.1452 11.5048 15.1812 11.496 15.2173 11.4853C15.2514 11.473 15.2875 11.4589 15.32 11.4413H15.322L15.331 11.436C15.349 11.4253 15.3671 11.415 15.3831 11.4043C15.4012 11.392 15.4172 11.3798 15.4337 11.3657C15.4498 11.3515 15.4663 11.3393 15.4808 11.3236V11.3217L15.4827 11.3198C15.4972 11.3057 15.5117 11.29 15.5243 11.2739V11.272L15.5262 11.2701C15.5372 11.2579 15.5462 11.2457 15.5553 11.233C15.5623 11.2189 15.5713 11.2032 15.5803 11.1891C15.5874 11.1749 15.5949 11.1608 15.6003 11.1471C15.6058 11.1363 15.6113 11.1241 15.6149 11.1138L15.6203 11.0962C15.6258 11.0806 15.6294 11.0645 15.6329 11.0488L15.6348 11.0469C15.6384 11.0293 15.6419 11.0099 15.6439 10.9923C15.6458 10.9728 15.6474 10.9518 15.6474 10.9327V10.9273C15.6494 10.9097 15.6474 10.8902 15.6454 10.873C15.6435 10.852 15.6419 10.8325 15.6384 10.8115C15.6329 10.7905 15.6274 10.7695 15.6223 10.7481C15.6152 10.7286 15.6078 10.7095 15.6007 10.69L15.5992 10.6881V10.6861C15.5917 10.6686 15.5811 10.651 15.5721 10.6334L15.5702 10.6315L15.5682 10.6296C15.5647 10.6208 15.5592 10.612 15.5537 10.6051C15.5466 10.5944 15.5411 10.5841 15.5337 10.5753C15.5266 10.5665 15.5192 10.5577 15.5121 10.5489C15.5051 10.5421 15.5012 10.5348 15.4941 10.5279C15.4741 10.5123 15.4545 10.4962 15.4345 10.484L15.4325 10.4821H15.4306C15.4106 10.4664 15.389 10.4523 15.3655 10.44L15.3635 10.4381C15.3239 10.4152 15.2824 10.3961 15.2393 10.38L15.2357 10.3781C15.1942 10.3605 15.151 10.3483 15.1079 10.3376C15.0899 10.3342 15.0718 10.3307 15.0538 10.3269C15.0377 10.325 15.0197 10.3216 15.0032 10.32C14.933 10.3131 14.8625 10.3131 14.7923 10.32C14.7237 10.3254 14.6555 10.341 14.5923 10.3621C14.5763 10.3689 14.5582 10.3728 14.5437 10.3796L14.5402 10.3816H14.5382C14.5327 10.3835 14.5257 10.3869 14.5202 10.3884L14.4751 10.4079C14.4014 10.4362 14.3202 10.4377 14.2461 10.4133C13.9486 10.32 13.9325 9.96001 14.1956 9.80714C14.2171 9.79492 14.2387 9.78269 14.2622 9.77198C14.3559 9.73491 14.4516 9.7051 14.5488 9.68408C14.648 9.66459 14.7488 9.65236 14.848 9.64892C14.9181 9.64701 14.9887 9.65083 15.0589 9.65771C15.1291 9.66459 15.1997 9.67682 15.2679 9.69287C15.3275 9.70701 15.3867 9.72459 15.4443 9.7437H15.4463C15.4608 9.74905 15.4753 9.7544 15.4894 9.76128C15.4913 9.7544 15.4929 9.74905 15.4949 9.7437C15.4984 9.73147 15.4984 9.71733 15.5004 9.7051V9.70319L15.5023 9.70128C15.5043 9.68905 15.5043 9.67682 15.5043 9.66421C15.5043 9.64854 15.5043 9.6344 15.5023 9.61835V9.61491C15.5004 9.60268 15.4968 9.59198 15.4953 9.57975C15.4917 9.56752 15.4882 9.55338 15.4827 9.53924C15.4772 9.52701 15.4717 9.51631 15.4647 9.50408L15.4627 9.50217C15.4572 9.48994 15.4502 9.47771 15.4412 9.46701C15.4196 9.4372 15.3925 9.41236 15.36 9.38981C15.3314 9.36688 15.2969 9.3493 15.2628 9.33363H15.2592L15.2467 9.32675C15.2177 9.31452 15.1836 9.30573 15.153 9.30382C15.133 9.30191 15.1134 9.30191 15.0954 9.30917L15.0934 9.31108C15.0863 9.31299 15.0809 9.31452 15.0738 9.31643H15.0718C14.7147 9.41847 14.4896 8.84712 14.8915 8.67667L14.9005 8.66597H14.9166C14.9291 8.66406 14.9421 8.66062 14.9546 8.65718C14.9817 8.6503 15.0087 8.64648 15.0338 8.64304C15.0318 8.63425 15.0283 8.62546 15.0248 8.61667C15.0122 8.58686 14.9997 8.56049 14.9868 8.53221C14.9668 8.49017 14.9436 8.44966 14.9201 8.40915C14.8966 8.36864 14.8695 8.33004 14.8409 8.29335C14.8139 8.25819 14.7833 8.22112 14.7507 8.18787C14.7182 8.15271 14.6841 8.11946 14.6461 8.08774C14.6119 8.05602 14.5739 8.02812 14.5363 7.99984C14.4967 7.97347 14.4571 7.94901 14.4155 7.92417C14.374 7.90124 14.3308 7.88022 14.2893 7.86073C14.2461 7.84123 14.2011 7.82557 14.156 7.8099C14.1109 7.79576 14.0658 7.78353 14.0191 7.77283C13.9 7.74645 13.7431 7.722 13.6224 7.74454C13.5843 7.75333 13.5377 7.76556 13.5087 7.79384C13.4871 7.81142 13.4797 7.829 13.471 7.85346C13.444 7.9341 13.4259 7.97117 13.3518 8.02735C13.2997 8.06786 13.2327 8.08697 13.1644 8.0908C13.1429 8.09271 13.1193 8.0908 13.0958 8.08888H13.0939L13.0919 8.08697C13.0703 8.08353 13.0488 8.07627 13.0268 8.0713L13.0249 8.06939C12.9057 8.02544 12.8375 7.96238 12.8069 7.83932C12.7728 7.69524 12.87 7.50721 12.9582 7.39485L12.9602 7.39791Z" fill="#FBB040"/>
<path fill-rule="evenodd" clip-rule="evenodd" d="M7.14628 8.87196C7.14079 8.87387 7.13726 8.87731 7.13373 8.88075C7.11217 8.89642 7.0906 8.914 7.07061 8.93349H7.06865C7.04356 8.95795 7.02003 8.97897 6.99847 9.00534C6.97495 9.02827 6.95534 9.05464 6.93535 9.08101C6.91025 9.11426 6.88673 9.14942 6.86674 9.18649L6.86477 9.1884V9.19031C6.84674 9.22738 6.8287 9.26254 6.81263 9.30114V9.30306C6.79812 9.34357 6.78362 9.38217 6.77303 9.42268C6.76401 9.46319 6.755 9.50523 6.75147 9.54727C6.74794 9.58778 6.74441 9.62829 6.74441 9.67033C6.74441 9.71237 6.74794 9.75288 6.75343 9.79491C6.75892 9.83543 6.76793 9.87747 6.77695 9.91798L6.77891 9.91989C6.79146 9.9604 6.80244 9.999 6.82047 10.0376C6.82949 10.0605 6.84047 10.0815 6.84948 10.1026L6.85105 10.1045V10.1064C6.86007 10.1205 6.86752 10.1362 6.87614 10.1503C6.87418 10.1538 6.87262 10.1557 6.87066 10.1591L6.8687 10.161C6.85066 10.184 6.83263 10.2069 6.81655 10.2314C6.79852 10.2558 6.78401 10.2807 6.7695 10.307C6.67227 10.4706 6.61464 10.6514 6.6017 10.8394C6.59072 11.0255 6.62326 11.212 6.69344 11.3859V11.3878L6.69697 11.3913C6.70952 11.423 6.72402 11.4528 6.7401 11.4826C6.7546 11.5143 6.77264 11.5441 6.79067 11.5724C6.80518 11.5969 6.82126 11.6198 6.83772 11.6427V11.6446L6.83968 11.6466C6.84321 11.65 6.84517 11.6534 6.8487 11.6573C6.84164 11.689 6.83615 11.7203 6.83067 11.7539V11.7559C6.82518 11.8086 6.81969 11.8613 6.81459 11.9141V11.916C6.81263 11.9741 6.81263 12.0337 6.81459 12.0933C6.82008 12.1529 6.82557 12.2129 6.83615 12.2706C6.84517 12.3356 6.85968 12.4006 6.87771 12.4675C6.89771 12.5309 6.91927 12.594 6.94436 12.6589C6.96946 12.7205 7.00043 12.782 7.03454 12.8397C7.06708 12.8993 7.10315 12.9555 7.14275 13.0102C7.18235 13.0648 7.22744 13.1175 7.27448 13.1699C7.31957 13.2173 7.36819 13.2666 7.42033 13.3105C7.47091 13.3545 7.52658 13.395 7.58265 13.4351C7.64028 13.4737 7.69791 13.5089 7.75947 13.5387C7.81357 13.567 7.86925 13.5934 7.92531 13.6159L7.92727 13.6178C7.98491 13.6388 8.04254 13.6583 8.10017 13.6759C8.15428 13.6916 8.21035 13.7038 8.26445 13.7145C8.29856 13.7214 8.33463 13.7267 8.36913 13.7302C8.40873 13.7864 8.45382 13.8372 8.50243 13.8865C8.56556 13.9499 8.63221 14.0061 8.70435 14.0588C8.78198 14.1135 8.86314 14.1609 8.94939 14.201C9.0376 14.2396 9.12778 14.2713 9.22148 14.2943C9.2901 14.3118 9.36028 14.326 9.43045 14.3329C9.50259 14.3436 9.57473 14.347 9.64687 14.347C9.72254 14.347 9.79468 14.3436 9.86878 14.3329C9.94092 14.326 10.0131 14.3118 10.0852 14.2958C10.1519 14.2817 10.2185 14.2606 10.2836 14.2377C10.3483 14.2132 10.4114 14.1869 10.473 14.1567C10.5326 14.1288 10.5918 14.0952 10.6459 14.0585C10.7 14.0233 10.7505 13.9847 10.8007 13.9423C10.8513 13.8964 10.8999 13.8475 10.943 13.7929C10.9846 13.742 11.0207 13.6855 11.0513 13.6278C11.0799 13.5697 11.1054 13.51 11.1199 13.4485C11.1359 13.3851 11.145 13.322 11.145 13.2586V7.61269C11.145 7.53893 11.1359 7.46517 11.1214 7.39294C11.1069 7.32262 11.0873 7.2523 11.0583 7.18542C11.0293 7.12198 10.9952 7.06083 10.9536 7.00427C10.9105 6.94465 10.8599 6.89191 10.8039 6.84605C10.7698 6.81777 10.7337 6.7914 10.6957 6.76541C10.6561 6.74248 10.6145 6.71955 10.5714 6.70197C10.5282 6.68439 10.4847 6.66872 10.4416 6.65458C10.3965 6.64044 10.3498 6.63012 10.3028 6.62133C10.2577 6.61598 10.2126 6.61254 10.1695 6.61063C10.1244 6.60872 10.0793 6.60872 10.0342 6.61254C9.98915 6.61445 9.94406 6.61942 9.89897 6.62821H9.89701C9.85389 6.63891 9.8088 6.6477 9.76724 6.66146C9.69706 6.68248 9.63041 6.71076 9.56533 6.74248C9.5022 6.77573 9.44261 6.81433 9.38497 6.85828C9.3344 6.89688 9.28774 6.94083 9.24618 6.99013C9.21913 7.0165 9.19561 7.04631 9.17404 7.07803C9.14542 7.07994 9.11445 7.07994 9.08583 7.08147C9.02976 7.08682 8.97566 7.09026 8.91998 7.09714C8.86039 7.10784 8.79923 7.11816 8.73963 7.1323C8.68004 7.14644 8.61888 7.16211 8.56124 7.1816C8.49459 7.20262 8.42794 7.22899 8.36482 7.25727C8.29974 7.28517 8.23701 7.31689 8.17388 7.35052L8.17192 7.35243C8.11233 7.38759 8.05313 7.42466 7.9951 7.46479C7.93943 7.5053 7.88336 7.54734 7.83122 7.5932C7.77907 7.63906 7.7285 7.68798 7.67988 7.73919C7.63126 7.79002 7.58618 7.84467 7.54305 7.89894C7.50149 7.95359 7.46385 8.0113 7.42582 8.0713C7.38975 8.1294 7.35721 8.19245 7.32859 8.25398C7.29958 8.31016 7.27644 8.36634 7.25645 8.42635C7.23292 8.48444 7.21332 8.54214 7.19882 8.60215C7.18431 8.6568 7.17176 8.71107 7.16078 8.76725C7.1553 8.80241 7.14981 8.83757 7.14628 8.87273V8.87196ZM9.97307 7.39791C9.95347 7.37154 9.92995 7.34517 9.90446 7.32071C9.92603 7.31001 9.94759 7.30313 9.97111 7.29625C9.98915 7.2909 10.0072 7.28555 10.0252 7.28211C10.0448 7.27867 10.0648 7.27676 10.0829 7.27523C10.1025 7.27332 10.1205 7.27332 10.1389 7.27332C10.157 7.27523 10.1766 7.27676 10.1946 7.27867C10.2091 7.28211 10.2252 7.28555 10.2397 7.2909H10.2432C10.2558 7.29434 10.2683 7.29969 10.2808 7.30504L10.2918 7.30848C10.3044 7.31383 10.3153 7.32071 10.3279 7.32797C10.3404 7.33485 10.3495 7.34364 10.3585 7.3509C10.3749 7.36313 10.3891 7.37727 10.4 7.39294V7.39638L10.402 7.39829C10.4145 7.41243 10.4236 7.43154 10.4326 7.44912C10.4396 7.47358 10.4471 7.49842 10.4522 7.52288C10.4577 7.55269 10.4592 7.5825 10.4592 7.61231V10.2165C10.4126 10.2042 10.3675 10.1882 10.324 10.1691C10.2428 10.132 10.1671 10.0812 10.1021 10.0231C10.037 9.96154 9.98131 9.89122 9.93818 9.81211C9.89505 9.733 9.868 9.64854 9.85349 9.56255C9.83899 9.47656 9.84095 9.38522 9.85545 9.29885C9.87153 9.21286 9.90054 9.1284 9.94367 9.05273L9.94563 9.04929L9.95661 9.02827C10.0233 8.92126 10.0252 8.78597 9.96014 8.67667C9.89348 8.56775 9.77077 8.50278 9.63943 8.50813C9.4826 8.51501 9.39791 8.59756 9.32577 8.72406C9.24658 8.86814 9.19247 9.02292 9.16346 9.18267C9.13641 9.34433 9.13484 9.5079 9.15993 9.66956C9.18698 9.83122 9.23913 9.98753 9.31872 10.1316C9.39634 10.2738 9.49711 10.4056 9.61982 10.5165C9.74058 10.6288 9.87937 10.7221 10.0327 10.7905C10.1679 10.8501 10.3122 10.8925 10.46 10.9116V13.2574C10.46 13.2697 10.4581 13.2819 10.4565 13.2907C10.451 13.3063 10.4455 13.3205 10.4385 13.3365C10.4275 13.3541 10.4149 13.3717 10.4004 13.3874C10.3844 13.4084 10.3663 13.4279 10.3444 13.4435L10.3428 13.4455C10.3177 13.4684 10.2906 13.4894 10.2636 13.507C10.2311 13.528 10.1969 13.5475 10.1628 13.5632C10.1248 13.5807 10.0887 13.5983 10.0476 13.6106C10.008 13.6247 9.96837 13.6388 9.92485 13.6476C9.87976 13.6583 9.83467 13.6652 9.78763 13.6706C9.74254 13.6774 9.69745 13.6813 9.65236 13.6813C9.60728 13.6813 9.56219 13.6793 9.5171 13.6744C9.47554 13.669 9.43438 13.6602 9.39282 13.6499C9.33871 13.6358 9.28657 13.6182 9.23599 13.5937C9.18737 13.5708 9.14033 13.5444 9.09524 13.5112C9.05211 13.4814 9.01251 13.4443 8.97605 13.4057C8.94194 13.3686 8.9094 13.3266 8.88039 13.2861C8.86941 13.2563 8.86039 13.228 8.85137 13.1982C8.84236 13.1665 8.83687 13.1347 8.83177 13.1015V13.0996C8.82628 13.0663 8.82275 13.0312 8.82079 12.996C8.82079 12.9628 8.82079 12.9276 8.82432 12.894C8.82785 12.8573 8.83334 12.8221 8.84236 12.787L8.84432 12.7835C8.85137 12.7484 8.86235 12.7132 8.87333 12.678C8.88587 12.6448 8.90234 12.6112 8.92038 12.5779C8.93645 12.5462 8.95488 12.5145 8.97448 12.4847C8.99605 12.4549 9.01957 12.425 9.04309 12.3987C9.06819 12.3723 9.09524 12.3459 9.12425 12.3215C9.15326 12.297 9.18189 12.2741 9.21247 12.2546C9.24305 12.2351 9.27559 12.2141 9.3097 12.1984C9.34224 12.1827 9.37831 12.1667 9.41242 12.1545C9.44849 12.1422 9.48456 12.1334 9.52063 12.1247L9.53318 12.1227H9.5367C9.56729 12.1159 9.59787 12.1105 9.63041 12.1086H9.63237C9.66844 12.1052 9.70255 12.1033 9.73862 12.1033H9.7692C9.82879 12.1013 9.88447 12.0857 9.93504 12.0574C9.99111 12.0276 10.0342 11.9855 10.0629 11.9309C10.0754 11.908 10.0844 11.8835 10.0919 11.859C10.0989 11.8346 10.1028 11.8097 10.1044 11.7853C10.1064 11.7589 10.1025 11.7345 10.0989 11.7096C10.0934 11.6832 10.0844 11.6588 10.0738 11.6359C10.0487 11.5797 10.0091 11.5338 9.95661 11.5006C9.89897 11.462 9.85193 11.4497 9.78331 11.4444C9.67158 11.439 9.5618 11.4444 9.45163 11.4601C9.13797 11.5094 8.82236 11.6691 8.60084 11.8889C8.56477 11.9221 8.53223 11.9573 8.49812 11.9959C8.46911 12.0329 8.43853 12.0715 8.40991 12.1117C8.37384 12.1644 8.3413 12.2206 8.31071 12.2787C8.28013 12.3349 8.25308 12.3945 8.23152 12.4545C8.20995 12.516 8.19192 12.5791 8.17741 12.6425C8.16291 12.704 8.15232 12.769 8.14683 12.8324C8.1433 12.871 8.14134 12.9096 8.14134 12.9486C8.13938 12.9593 8.13938 12.9696 8.13938 12.9803C8.11939 12.9716 8.09978 12.9609 8.07979 12.9524C8.04372 12.933 8.00569 12.9119 7.97158 12.8875C7.93551 12.863 7.90297 12.8382 7.87082 12.8103C7.83827 12.7839 7.80769 12.7541 7.78064 12.7243C7.75359 12.6926 7.72458 12.6608 7.69948 12.6257C7.67596 12.5905 7.65283 12.5554 7.63087 12.5187C7.61127 12.4835 7.59323 12.4468 7.57873 12.4078L7.57677 12.4059C7.56069 12.3673 7.54619 12.3287 7.53521 12.2882C7.52266 12.2477 7.51521 12.2072 7.50816 12.1652C7.50619 12.1495 7.50463 12.1334 7.5011 12.1159C7.50659 12.1178 7.51208 12.1193 7.51717 12.1212H7.51913C7.56226 12.1334 7.60382 12.1457 7.64891 12.1529C7.69399 12.1617 7.74065 12.1686 7.7877 12.1724L7.78966 12.1743H7.79868C7.96648 12.1709 8.10684 12.0532 8.13585 11.8931C8.15389 11.7857 8.11978 11.6767 8.04019 11.6015C7.97354 11.5365 7.9159 11.5223 7.82573 11.5082H7.8222C7.78613 11.5048 7.75006 11.496 7.71399 11.4853C7.67988 11.473 7.64538 11.4589 7.61323 11.4413H7.6097L7.60068 11.436C7.58265 11.4253 7.56461 11.415 7.54854 11.4043C7.5305 11.392 7.51443 11.3798 7.49796 11.3657C7.48189 11.3515 7.46542 11.3393 7.45287 11.3236L7.45091 11.3217L7.44895 11.3198C7.43445 11.3057 7.41994 11.29 7.40739 11.2739V11.272L7.40543 11.2701C7.39446 11.2579 7.3874 11.2457 7.37838 11.233C7.36936 11.2189 7.36035 11.2032 7.35133 11.1891C7.34427 11.1749 7.33682 11.1608 7.33133 11.1471C7.32584 11.1363 7.32232 11.1241 7.31683 11.1138L7.31134 11.0962C7.30585 11.0806 7.30232 11.0645 7.29879 11.0488V11.0469C7.2933 11.0293 7.28977 11.0099 7.28781 10.9923C7.28585 10.9728 7.28429 10.9518 7.28429 10.9327V10.9273C7.28232 10.9097 7.28429 10.8902 7.28625 10.873C7.28821 10.852 7.28977 10.8325 7.2933 10.8115C7.29879 10.7905 7.30428 10.7695 7.30938 10.7481C7.31643 10.7286 7.32388 10.7095 7.3329 10.69V10.6865C7.33996 10.669 7.35094 10.6514 7.35995 10.6338L7.36191 10.6319L7.36387 10.63C7.3674 10.6212 7.37289 10.6124 7.37838 10.6055C7.38544 10.5948 7.39093 10.5845 7.39838 10.5757C7.40543 10.5669 7.41288 10.5581 7.41994 10.5493C7.427 10.5424 7.43249 10.5352 7.43798 10.5283C7.45797 10.5126 7.47757 10.4966 7.49757 10.4844L7.49953 10.4824H7.50149C7.52149 10.4668 7.54305 10.4526 7.56657 10.4404L7.56853 10.4385C7.61009 10.4156 7.64969 10.3965 7.69282 10.3804L7.69635 10.3785C7.73791 10.3609 7.78103 10.3487 7.82612 10.338C7.84416 10.3345 7.86023 10.3311 7.87827 10.3273C7.8963 10.3254 7.91238 10.3219 7.92884 10.3204C7.99902 10.3135 8.06959 10.3135 8.13977 10.3204C8.20839 10.3258 8.2766 10.3414 8.34169 10.3624C8.35776 10.3693 8.37423 10.3731 8.3903 10.38L8.39187 10.3819H8.39383C8.39932 10.3838 8.40638 10.3873 8.41187 10.3888L8.45695 10.4083C8.53066 10.4366 8.61182 10.4381 8.68749 10.4137C8.98311 10.3204 8.99918 9.9604 8.73611 9.80753C8.71454 9.7953 8.69298 9.78307 8.66945 9.77237C8.57575 9.7353 8.48205 9.70549 8.38285 9.68447C8.28366 9.66498 8.18447 9.65275 8.08371 9.64931C8.01353 9.6474 7.94296 9.65122 7.87278 9.6581C7.8026 9.66498 7.73203 9.6772 7.66381 9.69326C7.60421 9.7074 7.54462 9.72498 7.48698 9.74409H7.48502C7.47052 9.74944 7.45601 9.75479 7.44346 9.76167C7.4415 9.75479 7.43798 9.74944 7.43641 9.74409C7.43445 9.73186 7.43288 9.71772 7.43092 9.70549V9.70357L7.42896 9.70166C7.427 9.68943 7.427 9.6772 7.427 9.66459C7.427 9.64892 7.427 9.63478 7.42896 9.61873V9.61529C7.43092 9.60306 7.43445 9.59236 7.43798 9.58013C7.4415 9.5679 7.44346 9.55376 7.44895 9.53962C7.45444 9.52739 7.4615 9.51669 7.46699 9.50446L7.46895 9.50255C7.47444 9.49032 7.48149 9.47809 7.49051 9.46739C7.51208 9.43758 7.53913 9.41274 7.57167 9.39019C7.60068 9.36726 7.63479 9.34968 7.6689 9.33401H7.67243L7.68498 9.32713C7.71556 9.3149 7.7481 9.30611 7.77868 9.3042C7.79828 9.30229 7.81828 9.30229 7.83631 9.30955L7.83827 9.31146C7.84533 9.31337 7.85278 9.3149 7.85788 9.31681H7.85984C8.21662 9.41885 8.44206 8.8475 8.04019 8.67705L8.03117 8.66635H8.0151C8.00255 8.66444 7.99 8.661 7.97707 8.65756C7.95001 8.65068 7.92492 8.64686 7.89787 8.64342C7.9014 8.63463 7.90493 8.62584 7.90885 8.61705C7.91982 8.58724 7.93237 8.56087 7.94492 8.53259C7.96491 8.49055 7.98804 8.45004 8.01157 8.40953C8.03666 8.36902 8.06214 8.33042 8.09077 8.29373C8.11978 8.25857 8.1484 8.2215 8.18094 8.18825C8.21348 8.15309 8.24955 8.11984 8.28562 8.08812C8.32169 8.0564 8.35776 8.0285 8.3954 8.00022C8.435 7.97385 8.47656 7.94939 8.51812 7.92455C8.55772 7.90162 8.60123 7.8806 8.6424 7.86111C8.68553 7.84162 8.73062 7.82595 8.77766 7.81028C8.82079 7.79614 8.86588 7.78391 8.91293 7.77321C9.03212 7.74684 9.18894 7.72238 9.3097 7.74493C9.3493 7.75372 9.39438 7.76595 9.42497 7.79423C9.44496 7.81181 9.45398 7.82939 9.46104 7.85385C9.48809 7.93449 9.50612 7.97156 9.58022 8.02774C9.63433 8.06825 9.69941 8.08736 9.76763 8.09118C9.92799 8.10532 10.0883 7.98914 10.1244 7.83971C10.1585 7.69563 10.0613 7.5076 9.97307 7.39524V7.39791Z" fill="#FBB040"/>
<path fill-rule="evenodd" clip-rule="evenodd" d="M11.1442 15.0818V20.2534H10.4843V15.1995C10.4247 15.1663 10.3671 15.1311 10.3114 15.0925C10.113 14.9572 9.93465 14.7921 9.78685 14.6041C9.641 14.4195 9.52377 14.2105 9.43908 13.9838L9.43359 13.9697L9.4481 13.9644L10.0448 13.7534L10.0593 13.748L10.0648 13.7637C10.126 13.9254 10.2107 14.0763 10.3154 14.2082C10.4216 14.3454 10.5498 14.4631 10.6921 14.5598C10.7678 14.6125 10.8474 14.658 10.9321 14.697C11.0638 14.783 11.143 14.9271 11.1446 15.0818H11.1442Z" fill="#FBB040"/>
<path fill-rule="evenodd" clip-rule="evenodd" d="M11.7881 15.0818V20.2534H12.4495V15.1995C12.5091 15.1663 12.5667 15.1311 12.6224 15.0925C12.8208 14.9572 12.9972 14.7921 13.145 14.6041C13.2909 14.4195 13.4101 14.2105 13.4947 13.9838L13.5002 13.9697L13.4842 13.9644L12.8894 13.7534L12.8733 13.748L12.8678 13.7637C12.8082 13.9254 12.722 14.0763 12.6173 14.2082C12.5111 14.3454 12.3829 14.4631 12.2405 14.5598C12.1649 14.6125 12.0857 14.658 12.0025 14.697C11.8708 14.783 11.79 14.9271 11.7881 15.0818Z" fill="#FBB040"/>
<path fill-rule="evenodd" clip-rule="evenodd" d="M20.2824 10.3574H22.2725C22.3607 10.3574 22.4454 10.3907 22.505 10.4522C22.5681 10.5118 22.6022 10.5944 22.6022 10.6773C22.6022 10.7652 22.5681 10.8458 22.505 10.9074C22.4454 10.9689 22.3607 11.0022 22.2725 11.0022H20.2824C20.1942 11.0022 20.111 10.9689 20.0479 10.9074C19.9848 10.8458 19.9507 10.7652 19.9507 10.6773C19.9507 10.5948 19.9848 10.5122 20.0479 10.4522C20.111 10.3907 20.1938 10.3574 20.2824 10.3574Z" fill="#FBB040"/>
<path d="M13.0862 23.5244C13.0862 23.7354 13.0431 23.9391 12.9635 24.1237C12.8824 24.3151 12.7636 24.4875 12.6157 24.6316C12.4679 24.7757 12.2895 24.8934 12.0931 24.9725C11.9038 25.0481 11.6964 25.0902 11.4784 25.0902C11.2604 25.0902 11.053 25.0481 10.8636 24.9725C10.6672 24.8934 10.4904 24.7757 10.3425 24.6316C10.1947 24.4875 10.074 24.3151 9.99283 24.1237C9.9152 23.9391 9.87207 23.7354 9.87207 23.5244H10.539C10.539 23.6475 10.5641 23.7671 10.6111 23.8741C10.6582 23.9865 10.7283 24.0866 10.815 24.1711C10.9016 24.2555 11.0044 24.3239 11.1196 24.3698C11.2294 24.4156 11.3521 24.4401 11.4784 24.4401C11.6046 24.4401 11.7273 24.4156 11.8391 24.3698C11.9528 24.3239 12.0571 24.2555 12.1437 24.1711C12.2303 24.0866 12.3005 23.9865 12.3476 23.8741C12.3946 23.7671 12.4197 23.6475 12.4197 23.5244H13.0866H13.0862Z" fill="#FBB040"/>
</g>
<defs>
<clipPath id="clip0_1499_2033">
<rect width="22" height="25" fill="white" transform="translate(0.602539 0.0898438)"/>
</clipPath>
</defs>
</svg>
