<svg width="24" height="24" viewBox="0 0 24 24" fill="none" xmlns="http://www.w3.org/2000/svg">
<g clip-path="url(#clip0_1499_2132)">
<path fill-rule="evenodd" clip-rule="evenodd" d="M14.2742 14.2741C14.3272 14.3971 14.4441 14.4804 14.5776 14.4903C14.5866 14.491 14.5955 14.4913 14.6044 14.4913C14.728 14.4913 14.8439 14.4276 14.9097 14.3214L15.7804 12.9183L17.3982 13.2496C17.5295 13.2763 17.6645 13.2281 17.749 13.1243C17.8335 13.0205 17.8533 12.8783 17.8004 12.7553L16.599 9.96588C16.6357 9.95029 16.6733 9.93425 16.7129 9.91732C17.3325 9.65201 17.695 9.02409 17.615 8.35489C17.6001 8.23059 17.5862 8.11999 17.5738 8.02071C17.5239 7.62248 17.4988 7.42258 17.5257 7.26985C17.5527 7.11711 17.6446 6.93783 17.8277 6.5807C17.8734 6.49162 17.9243 6.39248 17.9807 6.28071C18.2848 5.67921 18.1589 4.96517 17.6675 4.50401C17.5762 4.41834 17.4945 4.34256 17.4212 4.27446C17.1269 4.00151 16.9792 3.8645 16.9017 3.73018C16.8241 3.59587 16.7793 3.39947 16.6901 3.0082C16.6678 2.91063 16.643 2.80192 16.6144 2.68C16.4607 2.02378 15.9053 1.55776 15.2323 1.52034C15.1074 1.51338 14.9961 1.50785 14.8961 1.50287C14.4952 1.48292 14.294 1.4729 14.1483 1.41985C14.0026 1.3668 13.842 1.24515 13.5221 1.00275C13.4423 0.942285 13.3534 0.874992 13.2533 0.799973C12.7137 0.396125 11.9887 0.39608 11.4491 0.799973C11.3489 0.874992 11.26 0.942285 11.1803 1.00275C10.8604 1.24515 10.6998 1.3668 10.5541 1.41985C10.4084 1.4729 10.2071 1.48292 9.80627 1.50287C9.70627 1.50785 9.595 1.51338 9.47003 1.52034C8.7971 1.55776 8.24164 2.02382 8.08796 2.68C8.05939 2.80192 8.0346 2.91058 8.01232 3.0082C7.92306 3.39947 7.87827 3.59591 7.80069 3.73018C7.72315 3.8645 7.57545 4.00151 7.28121 4.27446C7.20786 4.34256 7.12614 4.41834 7.03491 4.50401C6.54351 4.96522 6.41754 5.67925 6.72158 6.28076C6.77804 6.39243 6.82889 6.49157 6.87453 6.58061C7.05768 6.93778 7.14964 7.11707 7.17659 7.2698C7.20354 7.42249 7.17843 7.62239 7.12852 8.02058C7.11608 8.1199 7.1022 8.23055 7.08733 8.35489C7.00737 9.02409 7.36984 9.65201 7.98941 9.91732C8.1045 9.9666 8.20719 10.0099 8.29941 10.0488C8.32744 10.0606 8.35404 10.0718 8.38 10.0828L6.90625 13.2481C6.84974 13.3695 6.86542 13.5122 6.94681 13.6185C7.02826 13.7247 7.16199 13.777 7.29392 13.7538L8.92068 13.4696L9.75034 14.8974C9.8149 15.0084 9.9334 15.0761 10.061 15.0761C10.0664 15.0761 10.0719 15.076 10.0773 15.0758C10.2111 15.0697 10.3304 14.9898 10.3869 14.8685L11.8535 11.7181C12.0888 11.6474 12.2315 11.6118 12.3513 11.6118C12.5063 11.6118 12.6989 11.6712 13.0824 11.7896C13.1268 11.8033 13.1738 11.8178 13.2231 11.8329L14.2742 14.2741ZM15.6792 12.1639C15.5318 12.1337 15.3811 12.1986 15.3017 12.3264L14.662 13.3574L14.0513 11.9392C14.4705 11.8811 14.8541 11.6462 15.0994 11.2711C15.1679 11.1663 15.2284 11.0727 15.2827 10.9886C15.5004 10.6514 15.6097 10.4822 15.7285 10.3824C15.7818 10.3377 15.8488 10.2973 15.9396 10.2522L16.8678 12.4072L15.6792 12.1639ZM10.0256 13.9409L9.41603 12.8919C9.34039 12.7618 9.19169 12.6926 9.04345 12.7185L7.84826 12.9273L9.01524 10.4208C9.1195 10.5244 9.22723 10.6911 9.41936 10.9886C9.47367 11.0727 9.53413 11.1663 9.60264 11.2711C9.90586 11.7348 10.4204 11.9846 10.9522 11.9506L10.0256 13.9409ZM12.351 10.8927C12.1065 10.8927 11.8618 10.9627 11.4079 11.1028C11.3134 11.132 11.2083 11.1644 11.09 11.2002C10.7478 11.3035 10.4 11.1771 10.2041 10.8777C10.1364 10.7742 10.0767 10.6818 10.0232 10.5987C9.50776 9.80065 9.45377 9.75537 8.57829 9.38643C8.48723 9.34807 8.3858 9.3053 8.27214 9.25661C7.94336 9.11578 7.75833 8.7953 7.80078 8.44015C7.81547 8.31738 7.82917 8.20808 7.84148 8.11002C7.95967 7.16747 7.9474 7.09802 7.51386 6.25259C7.46876 6.16463 7.41858 6.06675 7.36284 5.95647C7.20148 5.63725 7.26576 5.27284 7.52658 5.02806C7.61673 4.94348 7.69741 4.86864 7.76987 4.80139C8.46639 4.15528 8.50161 4.09423 8.71292 3.16807C8.73488 3.07167 8.75937 2.96435 8.78758 2.84392C8.86911 2.49568 9.15261 2.25782 9.50974 2.23797C9.63319 2.23109 9.74311 2.22561 9.84185 2.22072C10.7907 2.17346 10.857 2.14934 11.6142 1.57564C11.693 1.51594 11.7807 1.44945 11.8797 1.37538C12.1661 1.16105 12.536 1.16105 12.8224 1.37538C12.9214 1.44945 13.0091 1.51594 13.0879 1.57564C13.8451 2.14934 13.9114 2.17346 14.8603 2.22072C14.9589 2.22561 15.0689 2.23109 15.1924 2.23797C15.5495 2.25782 15.8329 2.49568 15.9145 2.84392C15.9427 2.96431 15.9672 3.07163 15.9892 3.16803C16.2005 4.09418 16.2357 4.15528 16.9322 4.80134C17.0047 4.86859 17.0854 4.94343 17.1755 5.02802C17.4363 5.2728 17.5005 5.63721 17.3392 5.95642C17.2835 6.06675 17.2332 6.16472 17.1881 6.25268C16.7547 7.09802 16.7424 7.16747 16.8606 8.11011C16.8729 8.20817 16.8866 8.31738 16.9013 8.4401C16.9437 8.79526 16.7587 9.11578 16.4299 9.25656C16.3163 9.30521 16.2148 9.34798 16.1238 9.38638C15.2483 9.75533 15.1943 9.80065 14.6789 10.5987C14.6254 10.6818 14.5657 10.7742 14.498 10.8777C14.3022 11.177 13.9546 11.3037 13.6121 11.2002C13.4938 11.1644 13.3886 11.1319 13.2942 11.1028C12.8402 10.9627 12.5956 10.8927 12.351 10.8927ZM15.9177 6.22523C15.9177 4.25855 14.3177 2.65857 12.351 2.65857C10.3844 2.65857 8.78439 4.25855 8.78439 6.22523C8.78439 8.19191 10.3844 9.79194 12.351 9.79194C14.3176 9.79194 15.9177 8.19196 15.9177 6.22523ZM12.351 9.07319C10.7806 9.07319 9.50309 7.79561 9.50309 6.22523C9.50309 4.6549 10.7806 3.37732 12.351 3.37732C13.9213 3.37732 15.1989 4.6549 15.1989 6.22523C15.1989 7.79561 13.9213 9.07319 12.351 9.07319ZM14.3247 5.37787L11.8707 7.60496C11.8021 7.66727 11.7156 7.69822 11.6292 7.69822C11.5371 7.69822 11.4451 7.66296 11.3751 7.59297L10.3647 6.58259C10.2244 6.44225 10.2244 6.21472 10.3647 6.07439C10.5051 5.93405 10.7326 5.93405 10.8729 6.07439L11.6412 6.84268L13.8417 4.84568C13.9887 4.71235 14.216 4.72331 14.3494 4.8703C14.4827 5.01719 14.4717 5.2445 14.3247 5.37787ZM21.1472 17.1526C21.6209 16.679 21.8615 16.0815 21.843 15.4247L21.6679 9.24645C21.6507 8.63637 21.0442 8.08972 20.3901 8.08972C20.3838 8.08972 20.3776 8.08976 20.3714 8.08985C20.0523 8.09497 19.0119 8.26684 19.0195 10.2638L19.0323 13.6198C19.0326 13.6965 19.0277 13.7711 19.0178 13.8437C18.9924 13.8134 18.9653 13.7838 18.9364 13.7549C18.4928 13.3114 17.7664 13.3058 17.2826 13.7421C17.2706 13.7529 17.2593 13.7646 17.2488 13.7769C16.7075 14.417 16.0423 14.9776 15.5078 15.428C15.3203 15.586 15.1433 15.7352 14.998 15.8662C14.3884 16.4156 14.3071 17.1726 14.3079 17.8405L14.3108 20.2307L14.0009 20.228C13.791 20.2261 13.5933 20.3064 13.4432 20.4539C13.2932 20.6014 13.2096 20.798 13.2078 21.0076L13.1997 21.9425C13.1979 22.1521 13.2781 22.3501 13.4256 22.5002C13.5731 22.6502 13.7697 22.7338 13.9793 22.7356L18.8361 22.7773C18.8384 22.7773 18.8406 22.7774 18.8429 22.7774C19.0499 22.7774 19.2453 22.6973 19.3937 22.5514C19.5437 22.4039 19.6273 22.2073 19.6291 21.9978L19.6372 21.0628C19.639 20.8533 19.5587 20.6552 19.4112 20.5052C19.2638 20.3551 19.0671 20.2715 18.8576 20.2697L18.458 20.2663V19.8419L21.1472 17.1526ZM18.9184 21.0567L18.9104 21.9916C18.9102 22.0141 18.8991 22.0298 18.8898 22.0389C18.8805 22.0481 18.8661 22.0588 18.8422 22.0587L13.9854 22.0169C13.9629 22.0168 13.9473 22.0057 13.9381 21.9964C13.929 21.9871 13.9182 21.9713 13.9184 21.9487L13.9265 21.0138C13.9266 20.9913 13.9377 20.9756 13.947 20.9665C13.9562 20.9575 13.9718 20.9468 13.994 20.9468H13.9946H13.9947L18.8514 20.9885C18.8881 20.9889 18.9188 21.02 18.9184 21.0567ZM15.0295 20.2369L15.0266 17.8397C15.0257 17.1077 15.1569 16.6907 15.4792 16.4001C15.6157 16.2771 15.7803 16.1384 15.9709 15.9777C16.5204 15.5146 17.203 14.9394 17.7799 14.2621C17.9816 14.0928 18.257 14.0921 18.4281 14.2632C18.6102 14.4453 18.6105 14.6619 18.4297 14.9071C18.1439 15.2282 17.8435 15.5192 17.5256 15.8268C17.373 15.9745 17.2151 16.1273 17.0559 16.2865C16.9156 16.4269 16.9156 16.6544 17.0559 16.7947C17.1261 16.8649 17.218 16.9 17.31 16.9C17.402 16.9 17.494 16.8649 17.5641 16.7947C17.7192 16.6397 17.8748 16.489 18.0254 16.3433C18.3576 16.0219 18.6712 15.7183 18.9786 15.3716C18.9802 15.3698 19.2192 15.0773 19.2192 15.0773C19.5791 14.6343 19.7531 14.1566 19.751 13.6172L19.7382 10.2611C19.7349 9.37156 19.9819 8.81498 20.3829 8.80855C20.3853 8.80851 20.3877 8.80851 20.3901 8.80851C20.657 8.80851 20.9431 9.04188 20.9495 9.26685L21.1245 15.4451C21.1375 15.9058 20.9742 16.3093 20.639 16.6444L17.8445 19.4389C17.7771 19.5063 17.7392 19.5977 17.7392 19.693V20.2602L15.0295 20.2369ZM14.2722 21.3793C14.3314 21.2302 14.5004 21.1574 14.6495 21.2167C14.7986 21.2759 14.8714 21.4449 14.8121 21.594C14.7528 21.7431 14.5839 21.8159 14.4348 21.7566C14.2857 21.6973 14.2129 21.5284 14.2722 21.3793ZM10.3177 20.454C10.1676 20.3064 9.96943 20.2265 9.76 20.2281L9.45013 20.2308L9.453 17.8406C9.45381 17.1726 9.37246 16.4156 8.76292 15.8663C8.61764 15.7352 8.44056 15.5861 8.25314 15.4282C7.71866 14.9777 7.05346 14.4171 6.5121 13.777C6.50168 13.7647 6.49041 13.753 6.47837 13.7422C5.99434 13.3059 5.2679 13.3115 4.82457 13.755C4.7956 13.7839 4.76851 13.8135 4.74317 13.8438C4.73315 13.7712 4.72835 13.6967 4.72866 13.62L4.74146 10.2638C4.74901 8.26689 3.70867 8.09506 3.38959 8.08989C3.3833 8.0898 3.37714 8.08976 3.37081 8.08976C2.71679 8.08976 2.11021 8.63646 2.09301 9.2465L1.91799 15.4248C1.89944 16.0816 2.13999 16.679 2.61365 17.1527L5.3029 19.842V20.2664L4.90332 20.2698C4.69376 20.2716 4.49709 20.3552 4.34966 20.5053C4.20218 20.6553 4.12195 20.8534 4.12374 21.0629L4.13178 21.9978C4.13358 22.2074 4.21718 22.404 4.36722 22.5515C4.5156 22.6974 4.71092 22.7775 4.91796 22.7775C4.92025 22.7775 4.92259 22.7775 4.92484 22.7774L9.78161 22.7357C9.99117 22.7339 10.1878 22.6503 10.3353 22.5002C10.4827 22.3502 10.563 22.1521 10.5612 21.9426L10.5531 21.0077C10.5514 20.7981 10.4677 20.6014 10.3177 20.454ZM6.02165 19.693C6.02165 19.5977 5.98378 19.5063 5.9164 19.4389L3.12185 16.6444C2.78673 16.3093 2.6234 15.9058 2.63643 15.4451L2.81144 9.2668C2.81786 9.03977 3.11098 8.80465 3.37804 8.80855C3.77901 8.81498 4.02604 9.37156 4.02267 10.261L4.00987 13.6172C4.00785 14.1566 4.18178 14.6342 4.54228 15.0781L4.773 15.3605C4.77457 15.3625 4.78077 15.3698 4.78239 15.3716C5.0897 15.7183 5.40339 16.0219 5.73554 16.3433C5.88612 16.489 6.04173 16.6397 6.1968 16.7947C6.26697 16.8648 6.35892 16.9 6.45092 16.9C6.54288 16.9 6.63488 16.8649 6.705 16.7947C6.84538 16.6544 6.84538 16.4269 6.70504 16.2865C6.54584 16.1273 6.38799 15.9745 6.23539 15.8268C5.91747 15.5192 5.61704 15.2282 5.33129 14.9071C5.15052 14.6619 5.1507 14.4453 5.33282 14.2632C5.50401 14.0921 5.77934 14.0928 5.98113 14.2621C6.55793 14.9394 7.24047 15.5146 7.79004 15.9778C7.98065 16.1385 8.14528 16.2772 8.28176 16.4002C8.60407 16.6907 8.7352 17.1078 8.7343 17.8398L8.73142 20.2369L6.02169 20.2602L6.02165 19.693ZM9.82271 21.9964C9.81359 22.0057 9.79796 22.0168 9.77545 22.017L4.91868 22.0587C4.89573 22.0588 4.88032 22.0481 4.87106 22.0389C4.86176 22.0298 4.85067 22.0142 4.85049 21.9916L4.84245 21.0567C4.84222 21.0342 4.85305 21.0184 4.86217 21.0091C4.87129 20.9999 4.88692 20.9887 4.90943 20.9885L9.76616 20.9468H9.76683C9.78902 20.9468 9.80465 20.9575 9.81382 20.9666C9.82312 20.9757 9.83421 20.9913 9.83439 21.0139L9.84243 21.9488C9.84266 21.9713 9.83183 21.9871 9.82271 21.9964ZM9.48872 21.3793C9.54801 21.5284 9.4752 21.6973 9.3261 21.7566C9.177 21.8159 9.00805 21.7431 8.9488 21.594C8.8895 21.4449 8.96232 21.276 9.11142 21.2167C9.26051 21.1574 9.42942 21.2302 9.48872 21.3793Z" fill="#FBB040"/>
</g>
<defs>
<clipPath id="clip0_1499_2132">
<rect width="23" height="23" fill="white" transform="translate(0.380371 0.137695)"/>
</clipPath>
</defs>
</svg>
