<svg width="24" height="23" viewBox="0 0 24 23" fill="none" xmlns="http://www.w3.org/2000/svg">
<g clip-path="url(#clip0_1499_2020)">
<path d="M4.12819 6.95353C3.97616 7.0312 3.82605 7.14367 3.67338 7.26049C3.41614 7.45747 3.14864 7.6675 2.84329 7.7489C2.75669 7.78121 2.66752 7.80047 2.57514 7.80172C2.48277 7.80296 2.38719 7.78556 2.28776 7.74455C2.28712 7.74393 2.28647 7.74269 2.28583 7.74206L2.28391 7.73958C2.27942 7.73834 2.27557 7.73709 2.27108 7.73585C2.26659 7.73461 2.26274 7.73336 2.25825 7.73212C2.17999 7.63643 2.13187 7.53577 2.10557 7.43262C2.07991 7.32947 2.07606 7.22259 2.08825 7.11385C2.08825 6.81248 2.19346 6.50987 2.28968 6.21906C2.38655 5.92825 2.47379 5.64925 2.43787 5.39511C2.33394 5.11549 2.05874 4.91851 1.77136 4.71159C1.48397 4.50467 1.18439 4.28781 1.03236 3.96842C0.997719 3.90814 0.970777 3.84352 0.952815 3.77392C0.935495 3.70433 0.927155 3.62976 0.930363 3.54898C0.930363 3.54153 0.930363 3.53407 0.929721 3.52724C0.929721 3.51978 0.929721 3.51232 0.929721 3.50487C0.987455 3.41166 1.05545 3.33958 1.13115 3.2849C1.20685 3.23022 1.29088 3.19231 1.38069 3.16621C1.67 3.04629 2.00293 3.05188 2.32176 3.05685C2.64058 3.0612 2.94593 3.06431 3.18071 2.93879C3.39433 2.74802 3.48991 2.42801 3.59062 2.09433C3.69198 1.76065 3.79847 1.4133 4.03389 1.16847C4.08265 1.10696 4.13974 1.05227 4.20581 1.00816C4.27189 0.964038 4.34887 0.92862 4.43675 0.90625C4.43803 0.90625 4.43932 0.906871 4.4406 0.907493C4.44188 0.907493 4.44316 0.908114 4.44445 0.908736C4.44573 0.908736 4.44701 0.908114 4.4483 0.907493C4.44958 0.907493 4.45086 0.906871 4.45215 0.90625C4.54067 0.929241 4.61701 0.964038 4.68308 1.00816C4.7498 1.0529 4.80625 1.10696 4.855 1.16847C4.97368 1.29213 5.05964 1.44188 5.12892 1.60282" stroke="#FBB040" stroke-linecap="round" stroke-linejoin="round"/>
<path d="M11.9721 0.892578C11.9721 0.892578 11.967 0.894442 11.9644 0.895064C11.9619 0.894442 11.9593 0.8932 11.9567 0.892578C11.779 0.93856 11.6501 1.03239 11.5519 1.15604C11.0792 1.6488 11.1241 2.5498 10.6956 2.93257C10.2241 3.18485 9.46967 2.92014 8.88848 3.16124C8.70822 3.21282 8.55106 3.31348 8.43559 3.50114C8.43559 3.51605 8.43559 3.53096 8.43623 3.54588C8.42982 3.70806 8.46895 3.846 8.53823 3.96655C8.84486 4.60657 9.74038 4.83773 9.94887 5.39821C10.0214 5.90775 9.59669 6.51794 9.59797 7.12317C9.57488 7.34127 9.61144 7.5513 9.76861 7.74393C9.77694 7.74703 9.78593 7.74952 9.79427 7.752C9.79555 7.75387 9.79683 7.75573 9.79811 7.7576C9.99762 7.83962 10.1811 7.82719 10.3556 7.76195C10.9682 7.5979 11.4288 6.91873 11.9631 6.86094C12.4975 6.91873 12.9581 7.5979 13.5707 7.76195C13.7452 7.82719 13.9287 7.839 14.1282 7.7576C14.1295 7.75573 14.1307 7.75387 14.132 7.752C14.1404 7.74952 14.1493 7.74703 14.1577 7.74393C14.3148 7.5513 14.3514 7.34127 14.3283 7.12317C14.329 6.51794 13.9049 5.90775 13.9774 5.39821C14.1859 4.83711 15.0821 4.60657 15.3881 3.96655C15.458 3.84538 15.4971 3.70806 15.4901 3.54588C15.4901 3.53096 15.4913 3.51667 15.4913 3.50114C15.3759 3.31348 15.2187 3.21344 15.0385 3.16124C14.4573 2.92014 13.7029 3.18547 13.2314 2.93257C12.8029 2.5498 12.8478 1.64818 12.375 1.15604C12.2768 1.03239 12.1479 0.937939 11.9702 0.892578H11.9721Z" stroke="#FBB040" stroke-linecap="round" stroke-linejoin="round"/>
<path d="M7.88112 6.95353C7.72909 7.0312 7.57898 7.14367 7.42631 7.26049C7.16907 7.45747 6.90157 7.6675 6.59622 7.7489C6.50962 7.78121 6.42045 7.80047 6.32807 7.80172C6.2357 7.80296 6.14012 7.78556 6.04069 7.74455C6.04069 7.74393 6.0394 7.74269 6.03876 7.74206C6.03876 7.74144 6.03748 7.7402 6.03684 7.73958C6.03235 7.73834 6.0285 7.73709 6.02401 7.73585C6.01952 7.73461 6.01567 7.73336 6.01118 7.73212C5.93292 7.63643 5.8848 7.53577 5.8585 7.43262C5.83284 7.32947 5.82899 7.22259 5.84118 7.11385C5.84118 6.81248 5.94639 6.50987 6.04261 6.21906C6.13883 5.92825 6.22672 5.64925 6.1908 5.39511C6.08687 5.11549 5.81167 4.91851 5.52429 4.71159C5.2369 4.50467 4.93732 4.28781 4.78529 3.96842C4.75065 3.90814 4.72371 3.84352 4.70574 3.77392C4.68842 3.70433 4.68008 3.62976 4.68329 3.54898C4.68329 3.54153 4.68329 3.53407 4.68265 3.52724C4.68265 3.51978 4.68265 3.51232 4.68265 3.50487C4.74039 3.41166 4.80838 3.33958 4.88408 3.2849C4.95978 3.23022 5.04381 3.19231 5.13362 3.16621C5.42293 3.04629 5.75586 3.05188 6.07469 3.05685C6.39351 3.0612 6.69886 3.06431 6.93364 2.93879C7.14726 2.74802 7.24284 2.42801 7.34355 2.09433C7.44491 1.76065 7.5514 1.4133 7.78682 1.16847C7.83558 1.10696 7.89267 1.05227 7.95874 1.00816C8.02546 0.963417 8.1018 0.92862 8.18968 0.90625C8.19096 0.90625 8.19225 0.906871 8.19353 0.907493C8.19481 0.907493 8.19609 0.908114 8.19738 0.908736C8.19866 0.908736 8.19994 0.908114 8.20123 0.907493C8.20251 0.906871 8.20379 0.906871 8.20508 0.90625C8.2936 0.929241 8.36994 0.964038 8.43601 1.00816C8.50273 1.0529 8.55918 1.10696 8.60793 1.16847C8.72661 1.29213 8.81257 1.44188 8.88185 1.60282" stroke="#FBB040" stroke-linecap="round" stroke-linejoin="round"/>
<path d="M19.8328 6.95353C19.9848 7.0312 20.1349 7.14367 20.2876 7.26049C20.5455 7.45747 20.8123 7.6675 21.1177 7.7489C21.2043 7.78121 21.2934 7.80047 21.3858 7.80172C21.4782 7.80296 21.5738 7.78556 21.6732 7.74455C21.6738 7.74393 21.6745 7.74269 21.6751 7.74206C21.6751 7.74144 21.6764 7.7402 21.677 7.73958C21.6815 7.73834 21.6854 7.73709 21.6899 7.73585C21.6944 7.73461 21.6982 7.73336 21.7027 7.73212C21.781 7.63643 21.8291 7.53577 21.8554 7.43262C21.881 7.32947 21.8849 7.22259 21.8727 7.11385C21.8727 6.81248 21.7675 6.50987 21.6713 6.21906C21.5744 5.92825 21.4872 5.64925 21.5231 5.39511C21.627 5.11549 21.9022 4.91851 22.1896 4.71159C22.477 4.50467 22.7766 4.28781 22.9286 3.96842C22.9632 3.90814 22.9902 3.84352 23.0081 3.77392C23.0255 3.70433 23.0338 3.62976 23.0306 3.54898C23.0306 3.54153 23.0306 3.53407 23.0312 3.52724C23.0312 3.51978 23.0312 3.51232 23.0312 3.50487C22.9735 3.41166 22.9055 3.33958 22.8298 3.2849C22.7541 3.23022 22.6701 3.19231 22.5803 3.16621C22.2909 3.04629 21.958 3.05188 21.6392 3.05685C21.3204 3.0612 21.015 3.06431 20.7802 2.93879C20.5666 2.74802 20.471 2.42801 20.3703 2.09433C20.269 1.76065 20.1625 1.4133 19.9271 1.16847C19.8783 1.10696 19.8212 1.05227 19.7551 1.00816C19.6884 0.963417 19.6121 0.92862 19.5242 0.90625C19.5229 0.90625 19.5216 0.906871 19.5204 0.907493C19.5191 0.907493 19.5178 0.908114 19.5165 0.908736C19.5152 0.908736 19.5139 0.908114 19.5127 0.907493C19.5114 0.907493 19.5101 0.906871 19.5088 0.90625C19.4203 0.929241 19.3439 0.964038 19.2779 1.00816C19.2118 1.05227 19.1547 1.10696 19.1059 1.16847C18.9873 1.29213 18.9013 1.44188 18.832 1.60282" stroke="#FBB040" stroke-linecap="round" stroke-linejoin="round"/>
<path d="M16.0798 6.95353C16.2319 7.0312 16.382 7.14367 16.5346 7.26049C16.7919 7.45747 17.0594 7.6675 17.3647 7.7489C17.4513 7.78121 17.5405 7.80047 17.6329 7.80172C17.7252 7.80296 17.8208 7.78556 17.9203 7.74455C17.9209 7.74393 17.9215 7.74269 17.9222 7.74206C17.9222 7.74144 17.9235 7.7402 17.9241 7.73958C17.9286 7.73834 17.9325 7.73709 17.9369 7.73585C17.9414 7.73461 17.9453 7.73336 17.9498 7.73212C18.028 7.63643 18.0761 7.53577 18.1024 7.43262C18.1281 7.32947 18.132 7.22259 18.1198 7.11385C18.1198 6.81248 18.0146 6.50987 17.9183 6.21906C17.8215 5.92825 17.7342 5.64925 17.7702 5.39511C17.8741 5.11549 18.1493 4.91851 18.4367 4.71159C18.7241 4.50467 19.0236 4.28781 19.1757 3.96842C19.2103 3.90814 19.2372 3.84352 19.2552 3.77392C19.2725 3.70433 19.2809 3.62976 19.2777 3.54898C19.2777 3.54153 19.2777 3.53407 19.2783 3.52724C19.2783 3.51978 19.2783 3.51232 19.2783 3.50487C19.2206 3.41166 19.1526 3.33958 19.0769 3.2849C19.0012 3.23022 18.9171 3.19231 18.8273 3.16621C18.538 3.04629 18.2051 3.05188 17.8863 3.05685C17.5674 3.0612 17.2621 3.06431 17.0273 2.93879C16.8137 2.74802 16.7181 2.42801 16.6174 2.09433C16.516 1.76065 16.4096 1.4133 16.1741 1.16847C16.1254 1.10696 16.0683 1.05227 16.0022 1.00816C15.9361 0.964038 15.8592 0.92862 15.7713 0.90625C15.77 0.90625 15.7687 0.906871 15.7674 0.907493C15.7661 0.907493 15.7649 0.908114 15.7636 0.908736C15.7623 0.908736 15.761 0.908114 15.7597 0.907493C15.7584 0.907493 15.7572 0.906871 15.7559 0.90625C15.6673 0.929241 15.591 0.964038 15.5249 1.00816C15.4582 1.0529 15.4018 1.10696 15.353 1.16847C15.2343 1.29213 15.1484 1.44188 15.0791 1.60282" stroke="#FBB040" stroke-linecap="round" stroke-linejoin="round"/>
<path d="M6.71388 15.6736L10.0349 12.7059L11.1838 10.4558C11.4333 9.96744 12.4187 10.1346 12.6188 10.6435C12.817 11.1487 12.5951 12.4884 12.3211 12.9681L11.2691 14.8061L15.1328 14.575C15.6954 14.5414 16.231 14.9441 16.231 15.4897C16.231 15.9681 15.9366 16.3938 15.4856 16.5193C15.4221 16.5367 15.1399 16.5591 15.0706 16.5535L14.9731 16.5454L15.3432 16.7728C15.5209 16.8816 15.6428 17.0692 15.6563 17.2432C15.6896 17.6695 15.4356 18.0553 15.0539 18.2225C14.9917 18.2498 14.6639 18.2411 14.5959 18.256C14.6498 18.2884 14.9628 18.3548 15.0096 18.3959C15.1982 18.5605 15.3246 18.7929 15.3451 19.0564C15.3785 19.4833 15.1238 19.8698 14.7415 20.0363C14.6799 20.063 14.2135 20.0692 14.1455 20.0842C14.2302 20.1351 14.7081 20.2122 14.7749 20.2836C14.9205 20.4408 15.0161 20.644 15.0334 20.8696C15.0757 21.4139 14.6517 21.9216 14.0891 21.9334L9.94635 22.021C8.43757 22.0527 7.11994 21.2393 6.354 20.1264" stroke="#FBB040" stroke-linecap="round" stroke-linejoin="round"/>
<path d="M3.54895 14.4365H5.44392C5.8782 14.4365 6.23359 14.7808 6.23359 15.2014V21.2568C6.23359 21.6775 5.8782 22.0217 5.44392 22.0217H3.54895C3.11466 22.0217 2.75928 21.6775 2.75928 21.2568V15.2014C2.75928 14.7808 3.11466 14.4365 3.54895 14.4365Z" stroke="#FBB040" stroke-linecap="round" stroke-linejoin="round"/>
<path d="M4.5127 20.082H4.55118" stroke="#FBB040" stroke-linecap="round" stroke-linejoin="round"/>
</g>
<defs>
<clipPath id="clip0_1499_2020">
<rect width="23" height="22" fill="white" transform="translate(0.480469 0.892578)"/>
</clipPath>
</defs>
</svg>
