<svg width="23" height="22" viewBox="0 0 23 22" fill="none" xmlns="http://www.w3.org/2000/svg">
<g clip-path="url(#clip0_1499_2056)">
<path d="M13.0927 11.0312C13.9516 11.0312 14.6477 11.774 14.6477 12.6899C14.6477 13.3088 14.3299 13.8483 13.8589 14.1331C13.6276 14.278 13.3584 14.3618 13.0712 14.3618C12.2122 14.3618 11.5161 13.6191 11.5161 12.7032C11.5161 12.0843 11.8339 11.5453 12.3044 11.2599C12.5357 11.1145 12.8048 11.0312 13.0927 11.0312Z" stroke="#FBB040" stroke-linecap="round" stroke-linejoin="round"/>
<path d="M15.3288 20.1489L15.313 18.1289" stroke="#FBB040" stroke-linecap="round" stroke-linejoin="round"/>
<path d="M16.8148 20.1489L16.6723 16.6641C16.6152 15.263 9.8476 15.3674 9.62876 16.6502C9.4693 17.3552 9.43198 18.8622 9.41162 20.1489" stroke="#FBB040" stroke-linecap="round" stroke-linejoin="round"/>
<path d="M10.9763 18.1289L10.9604 20.1489" stroke="#FBB040" stroke-linecap="round" stroke-linejoin="round"/>
<path d="M7.39231 15.5294C5.70155 15.5222 3.94236 15.8541 3.83548 16.4831C3.69072 17.1242 3.6517 19.0115 3.63135 20.1494" stroke="#FBB040" stroke-linecap="round" stroke-linejoin="round"/>
<path d="M5.1211 17.8457L5.11035 20.1493" stroke="#FBB040" stroke-linecap="round" stroke-linejoin="round"/>
<path d="M7.14099 10.9492C7.99995 10.9492 8.69605 11.6919 8.69605 12.6078C8.69605 13.2268 8.37825 13.7663 7.90721 14.0511C7.67593 14.1959 7.40677 14.2798 7.11951 14.2798C6.26055 14.2798 5.56445 13.5371 5.56445 12.6212C5.56445 12.0022 5.88225 11.4632 6.35272 11.1779C6.584 11.0325 6.85317 10.9492 7.14099 10.9492Z" stroke="#FBB040" stroke-linecap="round" stroke-linejoin="round"/>
<path d="M21.1792 20.1493L21.1685 17.8457" stroke="#FBB040" stroke-linecap="round" stroke-linejoin="round"/>
<path d="M22.5962 20.1493L22.4645 16.4962C22.4379 15.7524 20.4175 15.4537 18.604 15.5453" stroke="#FBB040" stroke-linecap="round" stroke-linejoin="round"/>
<path d="M19.0507 10.9492C19.9096 10.9492 20.6057 11.6919 20.6057 12.6078C20.6057 13.2268 20.2879 13.7663 19.8169 14.0511C19.5856 14.1959 19.3164 14.2798 19.0292 14.2798C18.1702 14.2798 17.4741 13.5371 17.4741 12.6212C17.4741 12.0022 17.7919 11.4632 18.2624 11.1779C18.4937 11.0325 18.7628 10.9492 19.0507 10.9492Z" stroke="#FBB040" stroke-linecap="round" stroke-linejoin="round"/>
<path d="M15.9594 6.68457C16.781 6.68457 17.4477 7.39509 17.4477 8.27157C17.4477 8.86386 17.1435 9.38009 16.6928 9.65264C16.4717 9.79141 16.2138 9.87135 15.939 9.87135C15.1174 9.87135 14.4507 9.16083 14.4507 8.28434C14.4507 7.69206 14.7549 7.17583 15.205 6.90328C15.4261 6.7645 15.684 6.68457 15.9594 6.68457Z" stroke="#FBB040" stroke-linecap="round" stroke-linejoin="round"/>
<path d="M18.8642 2.03418C19.6395 2.03418 20.2683 2.70473 20.2683 3.53181C20.2683 4.09024 19.9816 4.57761 19.5564 4.83517C19.3477 4.96617 19.1045 5.04166 18.845 5.04166C18.0697 5.04166 17.4409 4.37111 17.4409 3.54403C17.4409 2.98561 17.7276 2.49824 18.1528 2.24123C18.3615 2.11023 18.6047 2.03473 18.8642 2.03473V2.03418Z" stroke="#FBB040" stroke-linecap="round" stroke-linejoin="round"/>
<path d="M21.095 10.163L21.0859 8.9707" stroke="#FBB040" stroke-linecap="round" stroke-linejoin="round"/>
<path d="M22.6027 12.0958L22.4449 7.50578C22.437 7.27875 22.2498 7.09113 21.9445 6.94181C21.6391 6.79249 21.2133 6.68092 20.7247 6.60654C20.2362 6.53215 19.6837 6.49441 19.125 6.49219" stroke="#FBB040" stroke-linecap="round" stroke-linejoin="round"/>
<path d="M10.2452 6.68848C9.42353 6.68848 8.75684 7.39899 8.75684 8.27548C8.75684 8.86776 9.06106 9.384 9.51174 9.65655C9.73284 9.79532 9.9907 9.87525 10.2655 9.87525C11.0872 9.87525 11.7538 9.16474 11.7538 8.28825C11.7538 7.69597 11.4502 7.17973 10.9995 6.90718C10.7784 6.76841 10.5205 6.68848 10.2452 6.68848Z" stroke="#FBB040" stroke-linecap="round" stroke-linejoin="round"/>
<path d="M7.34108 2.03418C6.56582 2.03418 5.93701 2.70473 5.93701 3.53181C5.93701 4.09024 6.22371 4.57761 6.64894 4.83517C6.8576 4.96617 7.10076 5.04166 7.36031 5.04166C8.13557 5.04166 8.76438 4.37111 8.76438 3.54403C8.76438 2.98561 8.47768 2.49824 8.05245 2.24123C7.84379 2.11023 7.60063 2.03473 7.34108 2.03473V2.03418Z" stroke="#FBB040" stroke-linecap="round" stroke-linejoin="round"/>
<path d="M5.10986 10.163L5.11891 8.9707" stroke="#FBB040" stroke-linecap="round" stroke-linejoin="round"/>
<path d="M3.60254 12.1524L3.64212 10.3934L3.68171 9.43084L3.72129 8.46831L3.76087 7.50578C3.76992 7.27875 3.95596 7.09113 4.26132 6.94181C4.56667 6.79249 4.99247 6.68092 5.48104 6.60654C5.96961 6.53215 6.52208 6.49441 7.08077 6.49219" stroke="#FBB040" stroke-linecap="round" stroke-linejoin="round"/>
<path d="M13.0576 2.03418C13.8328 2.03418 14.4616 2.70473 14.4616 3.53181C14.4616 4.09024 14.175 4.57761 13.7497 4.83517C13.5411 4.96617 13.2979 5.04166 13.0383 5.04166C12.2631 5.04166 11.6343 4.37111 11.6343 3.54403C11.6343 2.98561 11.921 2.49824 12.3462 2.24123C12.5549 2.11023 12.798 2.03473 13.0576 2.03473V2.03418Z" stroke="#FBB040" stroke-linecap="round" stroke-linejoin="round"/>
</g>
<defs>
<clipPath id="clip0_1499_2056">
<rect width="22" height="21" fill="white" transform="translate(0.602539 0.591797)"/>
</clipPath>
</defs>
</svg>
