<svg width="151" height="105" viewBox="0 0 151 105" fill="none" xmlns="http://www.w3.org/2000/svg">
<path fill-rule="evenodd" clip-rule="evenodd" d="M31.0336 48.9973C30.3422 48.9974 29.7817 49.5579 29.7816 50.2493V54.004H22.271C20.2119 54.004 18.5151 55.7008 18.5151 57.7599V69.0288H13.506C12.8146 69.0289 12.2541 69.5894 12.254 70.2808V74.033H4.7459C2.68678 74.033 0.98877 75.731 0.98877 77.7901V97.8216C0.98877 99.8808 2.68678 101.579 4.7459 101.579H32.2855C34.3447 101.579 36.0427 99.8808 36.0427 97.8216V96.5709H41.0518V100.327C41.0518 101.019 41.6131 101.579 42.305 101.579H47.3092C48.0006 101.579 48.5611 101.018 48.5611 100.327V96.5709H49.8143C51.8734 96.5709 53.5702 94.8741 53.5702 92.815V87.8071C53.5799 87.1018 53.0052 86.5277 52.2999 86.538C51.609 86.5482 51.0568 87.1161 51.0663 87.8071V92.815C51.0663 93.5302 50.5296 94.067 49.8143 94.067H36.0427V77.7901C36.0427 75.731 34.3447 74.033 32.2855 74.033H24.7774V70.2808C24.7773 69.5894 24.2168 69.0289 23.5254 69.0288H21.019V57.7599C21.019 57.0446 21.5558 56.5079 22.271 56.5079H49.8143C50.5296 56.5079 51.0663 57.0446 51.0663 57.7599V69.0276C51.0423 70.7207 53.5942 70.7207 53.5702 69.0276V57.7599C53.5702 55.7008 51.8734 54.004 49.8143 54.004H42.305V50.2493C42.3049 49.5574 41.7437 48.9967 41.0518 48.9973H31.0336ZM32.2855 51.5013H39.7998V54.004H32.2855V51.5013ZM28.5296 61.5146C26.8595 61.5146 26.8595 64.0197 28.5296 64.0197H43.5569C45.227 64.0197 45.227 61.5146 43.5569 61.5146H28.5296ZM28.5309 65.2717C27.8394 65.2717 27.2789 65.8322 27.2789 66.5237C27.2789 67.2151 27.8394 67.7756 28.5309 67.7756C29.2223 67.7756 29.7828 67.2151 29.7828 66.5237C29.7828 65.8322 29.2223 65.2717 28.5309 65.2717ZM33.5387 65.2717C32.8473 65.2717 32.2868 65.8322 32.2868 66.5237C32.2868 67.2151 32.8473 67.7756 33.5387 67.7756C34.2302 67.7756 34.7907 67.2151 34.7907 66.5237C34.7907 65.8322 34.2302 65.2717 33.5387 65.2717ZM38.5466 65.2717C37.8552 65.2717 37.2946 65.8322 37.2946 66.5237C37.2946 67.2151 37.8552 67.7756 38.5466 67.7756C39.238 67.7756 39.7986 67.2151 39.7986 66.5237C39.7986 65.8322 39.238 65.2717 38.5466 65.2717ZM43.5545 65.2717C42.863 65.2717 42.3025 65.8322 42.3025 66.5237C42.3025 67.2151 42.863 67.7756 43.5545 67.7756C44.2459 67.7756 44.8064 67.2151 44.8064 66.5237C44.8064 65.8322 44.2459 65.2717 43.5545 65.2717ZM52.2999 71.5144C51.609 71.5245 51.0568 72.0925 51.0663 72.7835V80.2953C51.0423 81.9884 53.5942 81.9884 53.5702 80.2953V72.7835C53.5799 72.0782 53.0052 71.5041 52.2999 71.5144ZM14.7592 71.534H22.2722V74.033H14.7592V71.534ZM4.7459 76.5382H7.24494V99.0736H4.7459C4.03065 99.0736 3.49271 98.5369 3.49271 97.8216V77.7901C3.49271 77.0749 4.03065 76.5382 4.7459 76.5382ZM9.7501 76.5382H27.2764V99.0736H9.7501V76.5382ZM29.7816 76.5382H32.2855C33.0008 76.5382 33.5387 77.0749 33.5387 77.7901V97.8216C33.5387 98.5369 33.0008 99.0736 32.2855 99.0736H29.7816V76.5382ZM52.3183 82.7992C51.6268 82.7992 51.0663 83.3598 51.0663 84.0512C51.0663 84.7427 51.6268 85.3032 52.3183 85.3032C53.0097 85.3032 53.5702 84.7427 53.5702 84.0512C53.5702 83.3598 53.0097 82.7992 52.3183 82.7992ZM43.5569 96.5709H46.056V99.0736H43.5569V96.5709Z" fill="#9A81E0"/>
<mask id="path-2-inside-1_1632_150" fill="white">
<path d="M149.349 2.42871C148.634 1.38917 147.454 0.768555 146.193 0.768555H61.3211C60.0591 0.768555 58.8787 1.38932 58.1637 2.42912C57.4488 3.4689 57.2915 4.79315 57.7432 5.97144L62.388 18.0918V95.4361C62.388 100.644 66.6246 104.88 71.8322 104.88H135.86C138.386 104.88 140.761 103.895 142.545 102.106C144.33 100.318 145.31 97.9411 145.304 95.4143L145.126 18.0906L149.771 5.97135C150.222 4.79285 150.065 3.4685 149.349 2.42871ZM141.684 101.247C140.129 102.805 138.061 103.664 135.86 103.664H71.8322C67.2955 103.664 63.6047 99.9727 63.6047 95.4361V18.5875H143.91L144.087 95.4171C144.092 97.6183 143.239 99.6888 141.684 101.247ZM148.635 5.53602L144.099 17.3707H63.4146L58.8794 5.53601C58.5665 4.71982 58.6711 3.83869 59.1663 3.1185C59.6615 2.39831 60.4469 1.98526 61.3211 1.98526H146.193C147.966 1.92919 149.327 3.89516 148.635 5.53602Z"/>
<path d="M118.004 5.58986H88.4326C87.3402 5.58986 86.3136 6.01521 85.5422 6.7873C82.9749 9.28721 84.8403 13.8088 88.4327 13.7655L118.004 13.7655C123.411 13.5729 123.428 5.79695 118.004 5.58986ZM120.034 11.7085C119.492 12.2504 118.771 12.5488 118.004 12.5488H88.4326C86.8495 12.5488 85.5615 11.2609 85.5615 9.67771C85.5307 8.13513 86.8883 6.7745 88.4326 6.80659L118.004 6.80657C120.52 6.77509 121.843 9.95123 120.034 11.7085Z"/>
<path d="M130.612 33.716H123.364C122.714 31.3007 121.11 29.1986 118.938 27.9236C112.157 23.9452 104.833 22.745 97.4444 24.8759C92.1708 26.404 88.9156 29.0631 88.6463 29.2883C86.6067 30.3973 85.4398 31.373 85.3561 31.4439C84.7489 32.0868 84.2663 32.8485 83.8538 33.716H79.1176C77.3994 33.716 75.8814 34.597 74.985 35.9343C72.6436 36.3448 70.8577 38.4076 70.8577 40.8832V92.8417C70.8577 95.6116 73.0935 97.8651 75.8417 97.8651H127.336C129.055 97.8651 130.572 96.9841 131.469 95.6468C133.81 95.2362 135.596 93.1734 135.596 90.6979V38.7389C135.596 35.9692 133.36 33.716 130.612 33.716ZM95.1639 28.0074C102.455 26.1023 109.7 27.4983 116.707 32.1556C116.459 33.0507 114.668 37.2944 112.837 40.0063C106.221 36.2331 97.0201 35.2367 90.6572 40.4895C88.7263 37.6082 87.2179 34.3675 86.4683 32.1169C87.4517 31.3749 90.6033 29.1991 95.1639 28.0074ZM99.1681 71.3989C100.057 73.4794 103.121 73.4784 104.009 71.399V73.0289C104.009 74.3637 102.924 75.4496 101.589 75.4496C100.254 75.4496 99.1681 74.3637 99.1681 73.0289V71.3989ZM100.157 70.3261C100.217 68.4338 102.961 68.4343 103.021 70.3261C102.96 72.2184 100.217 72.218 100.157 70.3261ZM104.009 69.2532C103.121 67.1728 100.056 67.1739 99.1681 69.2533V61.4729C100.057 63.5535 103.121 63.5524 104.009 61.4731V69.2532ZM100.157 60.4002C100.217 58.5079 102.961 58.5084 103.021 60.4002C102.96 62.2924 100.217 62.2921 100.157 60.4002ZM104.009 59.3273C103.121 57.2469 100.056 57.248 99.1681 59.3274V55.7645L101.589 52.3763L104.009 55.7642V59.3273ZM101.502 50.5998C96.9428 48.2166 93.6173 44.6578 91.3493 41.4904C97.0087 36.6111 105.955 37.442 112.155 41.0271C109.884 44.3055 106.459 48.0997 101.676 50.5998H101.502ZM102.491 51.5468C109.168 48.2778 115.389 39.72 117.636 33.1762C122.468 39.0754 116.336 59.648 113.187 66.5156L102.491 51.5468ZM85.5419 33.1762C87.796 39.7312 94.0012 48.2687 100.686 51.5468L89.9912 66.5156C86.8352 59.6392 80.7124 39.0605 85.5419 33.1762ZM79.1176 34.9327H83.3668C83.2661 35.2312 83.1743 35.5404 83.0912 35.8598H76.6579C77.3185 35.2829 78.1781 34.9327 79.1176 34.9327ZM131.103 92.8417C131.115 94.9033 129.42 96.6583 127.336 96.6484L112.413 96.6484V79.8495H131.103V92.8417ZM111.805 78.6328C111.469 78.6328 111.196 78.9052 111.196 79.2412V96.6484H75.8417C73.7644 96.6484 72.0744 94.9407 72.0744 92.8417V40.8832C72.0744 38.7842 73.7644 37.0765 75.8417 37.0765H82.8257C82.0294 42.462 82.8015 46.9027 84.2996 53.2296C86.2847 61.0673 89.2637 67.9329 89.2936 68.0013C89.3812 68.2021 89.5699 68.3402 89.7878 68.3631C90.0032 68.3859 90.2193 68.2904 90.3461 68.1117L97.9514 57.4674V73.0289C97.9514 75.0346 99.5831 76.6663 101.589 76.6663C103.594 76.6663 105.226 75.0346 105.226 73.0289V57.4671L112.832 68.1117C112.958 68.2903 113.174 68.3861 113.39 68.3631C113.608 68.3402 113.797 68.2021 113.884 68.0013C113.914 67.9329 116.893 61.0673 118.878 53.2296C120.376 46.9028 121.148 42.4618 120.352 37.0765H127.336C129.413 37.0765 131.103 38.7842 131.103 40.8832V78.6328H111.805ZM134.379 90.6979C134.379 92.2469 133.458 93.5818 132.141 94.1755C132.637 84.2535 132.159 51.3582 132.32 40.8832C132.32 38.1133 130.084 35.8598 127.336 35.8598H120.087C119.595 34.0342 118.876 32.531 117.771 31.4057C111.133 26.9044 104.068 25.0117 96.4821 26.4593C103.764 23.935 111.191 24.7768 118.322 28.973C120.349 30.1609 121.805 32.1751 122.294 34.458C122.356 34.7355 122.603 34.9327 122.887 34.9327H130.612C132.689 34.9327 134.379 36.6401 134.379 38.7389V90.6979Z"/>
</mask>
<path d="M149.349 2.42871C148.634 1.38917 147.454 0.768555 146.193 0.768555H61.3211C60.0591 0.768555 58.8787 1.38932 58.1637 2.42912C57.4488 3.4689 57.2915 4.79315 57.7432 5.97144L62.388 18.0918V95.4361C62.388 100.644 66.6246 104.88 71.8322 104.88H135.86C138.386 104.88 140.761 103.895 142.545 102.106C144.33 100.318 145.31 97.9411 145.304 95.4143L145.126 18.0906L149.771 5.97135C150.222 4.79285 150.065 3.4685 149.349 2.42871ZM141.684 101.247C140.129 102.805 138.061 103.664 135.86 103.664H71.8322C67.2955 103.664 63.6047 99.9727 63.6047 95.4361V18.5875H143.91L144.087 95.4171C144.092 97.6183 143.239 99.6888 141.684 101.247ZM148.635 5.53602L144.099 17.3707H63.4146L58.8794 5.53601C58.5665 4.71982 58.6711 3.83869 59.1663 3.1185C59.6615 2.39831 60.4469 1.98526 61.3211 1.98526H146.193C147.966 1.92919 149.327 3.89516 148.635 5.53602Z" fill="#9A81E0"/>
<path d="M118.004 5.58986H88.4326C87.3402 5.58986 86.3136 6.01521 85.5422 6.7873C82.9749 9.28721 84.8403 13.8088 88.4327 13.7655L118.004 13.7655C123.411 13.5729 123.428 5.79695 118.004 5.58986ZM120.034 11.7085C119.492 12.2504 118.771 12.5488 118.004 12.5488H88.4326C86.8495 12.5488 85.5615 11.2609 85.5615 9.67771C85.5307 8.13513 86.8883 6.7745 88.4326 6.80659L118.004 6.80657C120.52 6.77509 121.843 9.95123 120.034 11.7085Z" fill="#9A81E0"/>
<path d="M130.612 33.716H123.364C122.714 31.3007 121.11 29.1986 118.938 27.9236C112.157 23.9452 104.833 22.745 97.4444 24.8759C92.1708 26.404 88.9156 29.0631 88.6463 29.2883C86.6067 30.3973 85.4398 31.373 85.3561 31.4439C84.7489 32.0868 84.2663 32.8485 83.8538 33.716H79.1176C77.3994 33.716 75.8814 34.597 74.985 35.9343C72.6436 36.3448 70.8577 38.4076 70.8577 40.8832V92.8417C70.8577 95.6116 73.0935 97.8651 75.8417 97.8651H127.336C129.055 97.8651 130.572 96.9841 131.469 95.6468C133.81 95.2362 135.596 93.1734 135.596 90.6979V38.7389C135.596 35.9692 133.36 33.716 130.612 33.716ZM95.1639 28.0074C102.455 26.1023 109.7 27.4983 116.707 32.1556C116.459 33.0507 114.668 37.2944 112.837 40.0063C106.221 36.2331 97.0201 35.2367 90.6572 40.4895C88.7263 37.6082 87.2179 34.3675 86.4683 32.1169C87.4517 31.3749 90.6033 29.1991 95.1639 28.0074ZM99.1681 71.3989C100.057 73.4794 103.121 73.4784 104.009 71.399V73.0289C104.009 74.3637 102.924 75.4496 101.589 75.4496C100.254 75.4496 99.1681 74.3637 99.1681 73.0289V71.3989ZM100.157 70.3261C100.217 68.4338 102.961 68.4343 103.021 70.3261C102.96 72.2184 100.217 72.218 100.157 70.3261ZM104.009 69.2532C103.121 67.1728 100.056 67.1739 99.1681 69.2533V61.4729C100.057 63.5535 103.121 63.5524 104.009 61.4731V69.2532ZM100.157 60.4002C100.217 58.5079 102.961 58.5084 103.021 60.4002C102.96 62.2924 100.217 62.2921 100.157 60.4002ZM104.009 59.3273C103.121 57.2469 100.056 57.248 99.1681 59.3274V55.7645L101.589 52.3763L104.009 55.7642V59.3273ZM101.502 50.5998C96.9428 48.2166 93.6173 44.6578 91.3493 41.4904C97.0087 36.6111 105.955 37.442 112.155 41.0271C109.884 44.3055 106.459 48.0997 101.676 50.5998H101.502ZM102.491 51.5468C109.168 48.2778 115.389 39.72 117.636 33.1762C122.468 39.0754 116.336 59.648 113.187 66.5156L102.491 51.5468ZM85.5419 33.1762C87.796 39.7312 94.0012 48.2687 100.686 51.5468L89.9912 66.5156C86.8352 59.6392 80.7124 39.0605 85.5419 33.1762ZM79.1176 34.9327H83.3668C83.2661 35.2312 83.1743 35.5404 83.0912 35.8598H76.6579C77.3185 35.2829 78.1781 34.9327 79.1176 34.9327ZM131.103 92.8417C131.115 94.9033 129.42 96.6583 127.336 96.6484L112.413 96.6484V79.8495H131.103V92.8417ZM111.805 78.6328C111.469 78.6328 111.196 78.9052 111.196 79.2412V96.6484H75.8417C73.7644 96.6484 72.0744 94.9407 72.0744 92.8417V40.8832C72.0744 38.7842 73.7644 37.0765 75.8417 37.0765H82.8257C82.0294 42.462 82.8015 46.9027 84.2996 53.2296C86.2847 61.0673 89.2637 67.9329 89.2936 68.0013C89.3812 68.2021 89.5699 68.3402 89.7878 68.3631C90.0032 68.3859 90.2193 68.2904 90.3461 68.1117L97.9514 57.4674V73.0289C97.9514 75.0346 99.5831 76.6663 101.589 76.6663C103.594 76.6663 105.226 75.0346 105.226 73.0289V57.4671L112.832 68.1117C112.958 68.2903 113.174 68.3861 113.39 68.3631C113.608 68.3402 113.797 68.2021 113.884 68.0013C113.914 67.9329 116.893 61.0673 118.878 53.2296C120.376 46.9028 121.148 42.4618 120.352 37.0765H127.336C129.413 37.0765 131.103 38.7842 131.103 40.8832V78.6328H111.805ZM134.379 90.6979C134.379 92.2469 133.458 93.5818 132.141 94.1755C132.637 84.2535 132.159 51.3582 132.32 40.8832C132.32 38.1133 130.084 35.8598 127.336 35.8598H120.087C119.595 34.0342 118.876 32.531 117.771 31.4057C111.133 26.9044 104.068 25.0117 96.4821 26.4593C103.764 23.935 111.191 24.7768 118.322 28.973C120.349 30.1609 121.805 32.1751 122.294 34.458C122.356 34.7355 122.603 34.9327 122.887 34.9327H130.612C132.689 34.9327 134.379 36.6401 134.379 38.7389V90.6979Z" fill="#9A81E0"/>
<path d="M149.349 2.42871C148.634 1.38917 147.454 0.768555 146.193 0.768555H61.3211C60.0591 0.768555 58.8787 1.38932 58.1637 2.42912C57.4488 3.4689 57.2915 4.79315 57.7432 5.97144L62.388 18.0918V95.4361C62.388 100.644 66.6246 104.88 71.8322 104.88H135.86C138.386 104.88 140.761 103.895 142.545 102.106C144.33 100.318 145.31 97.9411 145.304 95.4143L145.126 18.0906L149.771 5.97135C150.222 4.79285 150.065 3.4685 149.349 2.42871ZM141.684 101.247C140.129 102.805 138.061 103.664 135.86 103.664H71.8322C67.2955 103.664 63.6047 99.9727 63.6047 95.4361V18.5875H143.91L144.087 95.4171C144.092 97.6183 143.239 99.6888 141.684 101.247ZM148.635 5.53602L144.099 17.3707H63.4146L58.8794 5.53601C58.5665 4.71982 58.6711 3.83869 59.1663 3.1185C59.6615 2.39831 60.4469 1.98526 61.3211 1.98526H146.193C147.966 1.92919 149.327 3.89516 148.635 5.53602Z" stroke="#9A81E0" stroke-width="8" mask="url(#path-2-inside-1_1632_150)"/>
<path d="M118.004 5.58986H88.4326C87.3402 5.58986 86.3136 6.01521 85.5422 6.7873C82.9749 9.28721 84.8403 13.8088 88.4327 13.7655L118.004 13.7655C123.411 13.5729 123.428 5.79695 118.004 5.58986ZM120.034 11.7085C119.492 12.2504 118.771 12.5488 118.004 12.5488H88.4326C86.8495 12.5488 85.5615 11.2609 85.5615 9.67771C85.5307 8.13513 86.8883 6.7745 88.4326 6.80659L118.004 6.80657C120.52 6.77509 121.843 9.95123 120.034 11.7085Z" stroke="#9A81E0" stroke-width="8" mask="url(#path-2-inside-1_1632_150)"/>
<path d="M130.612 33.716H123.364C122.714 31.3007 121.11 29.1986 118.938 27.9236C112.157 23.9452 104.833 22.745 97.4444 24.8759C92.1708 26.404 88.9156 29.0631 88.6463 29.2883C86.6067 30.3973 85.4398 31.373 85.3561 31.4439C84.7489 32.0868 84.2663 32.8485 83.8538 33.716H79.1176C77.3994 33.716 75.8814 34.597 74.985 35.9343C72.6436 36.3448 70.8577 38.4076 70.8577 40.8832V92.8417C70.8577 95.6116 73.0935 97.8651 75.8417 97.8651H127.336C129.055 97.8651 130.572 96.9841 131.469 95.6468C133.81 95.2362 135.596 93.1734 135.596 90.6979V38.7389C135.596 35.9692 133.36 33.716 130.612 33.716ZM95.1639 28.0074C102.455 26.1023 109.7 27.4983 116.707 32.1556C116.459 33.0507 114.668 37.2944 112.837 40.0063C106.221 36.2331 97.0201 35.2367 90.6572 40.4895C88.7263 37.6082 87.2179 34.3675 86.4683 32.1169C87.4517 31.3749 90.6033 29.1991 95.1639 28.0074ZM99.1681 71.3989C100.057 73.4794 103.121 73.4784 104.009 71.399V73.0289C104.009 74.3637 102.924 75.4496 101.589 75.4496C100.254 75.4496 99.1681 74.3637 99.1681 73.0289V71.3989ZM100.157 70.3261C100.217 68.4338 102.961 68.4343 103.021 70.3261C102.96 72.2184 100.217 72.218 100.157 70.3261ZM104.009 69.2532C103.121 67.1728 100.056 67.1739 99.1681 69.2533V61.4729C100.057 63.5535 103.121 63.5524 104.009 61.4731V69.2532ZM100.157 60.4002C100.217 58.5079 102.961 58.5084 103.021 60.4002C102.96 62.2924 100.217 62.2921 100.157 60.4002ZM104.009 59.3273C103.121 57.2469 100.056 57.248 99.1681 59.3274V55.7645L101.589 52.3763L104.009 55.7642V59.3273ZM101.502 50.5998C96.9428 48.2166 93.6173 44.6578 91.3493 41.4904C97.0087 36.6111 105.955 37.442 112.155 41.0271C109.884 44.3055 106.459 48.0997 101.676 50.5998H101.502ZM102.491 51.5468C109.168 48.2778 115.389 39.72 117.636 33.1762C122.468 39.0754 116.336 59.648 113.187 66.5156L102.491 51.5468ZM85.5419 33.1762C87.796 39.7312 94.0012 48.2687 100.686 51.5468L89.9912 66.5156C86.8352 59.6392 80.7124 39.0605 85.5419 33.1762ZM79.1176 34.9327H83.3668C83.2661 35.2312 83.1743 35.5404 83.0912 35.8598H76.6579C77.3185 35.2829 78.1781 34.9327 79.1176 34.9327ZM131.103 92.8417C131.115 94.9033 129.42 96.6583 127.336 96.6484L112.413 96.6484V79.8495H131.103V92.8417ZM111.805 78.6328C111.469 78.6328 111.196 78.9052 111.196 79.2412V96.6484H75.8417C73.7644 96.6484 72.0744 94.9407 72.0744 92.8417V40.8832C72.0744 38.7842 73.7644 37.0765 75.8417 37.0765H82.8257C82.0294 42.462 82.8015 46.9027 84.2996 53.2296C86.2847 61.0673 89.2637 67.9329 89.2936 68.0013C89.3812 68.2021 89.5699 68.3402 89.7878 68.3631C90.0032 68.3859 90.2193 68.2904 90.3461 68.1117L97.9514 57.4674V73.0289C97.9514 75.0346 99.5831 76.6663 101.589 76.6663C103.594 76.6663 105.226 75.0346 105.226 73.0289V57.4671L112.832 68.1117C112.958 68.2903 113.174 68.3861 113.39 68.3631C113.608 68.3402 113.797 68.2021 113.884 68.0013C113.914 67.9329 116.893 61.0673 118.878 53.2296C120.376 46.9028 121.148 42.4618 120.352 37.0765H127.336C129.413 37.0765 131.103 38.7842 131.103 40.8832V78.6328H111.805ZM134.379 90.6979C134.379 92.2469 133.458 93.5818 132.141 94.1755C132.637 84.2535 132.159 51.3582 132.32 40.8832C132.32 38.1133 130.084 35.8598 127.336 35.8598H120.087C119.595 34.0342 118.876 32.531 117.771 31.4057C111.133 26.9044 104.068 25.0117 96.4821 26.4593C103.764 23.935 111.191 24.7768 118.322 28.973C120.349 30.1609 121.805 32.1751 122.294 34.458C122.356 34.7355 122.603 34.9327 122.887 34.9327H130.612C132.689 34.9327 134.379 36.6401 134.379 38.7389V90.6979Z" stroke="#9A81E0" stroke-width="8" mask="url(#path-2-inside-1_1632_150)"/>
</svg>
