<svg width="164" height="107" viewBox="0 0 164 107" fill="none" xmlns="http://www.w3.org/2000/svg">
<path fill-rule="evenodd" clip-rule="evenodd" d="M37.712 37C36.8441 37.0001 36.1406 37.7036 36.1405 38.5715V43.2843H26.7133C24.1287 43.2843 21.9989 45.4141 21.9989 47.9987V62.1434H15.7115C14.8437 62.1435 14.1402 62.847 14.1401 63.7149V68.4247H4.71592C2.13133 68.4247 0 70.556 0 73.1406V98.2841C0 100.869 2.13133 103 4.71592 103H39.2834C41.868 103 43.9993 100.869 43.9993 98.2841V96.7141H50.2867V101.429C50.2868 102.297 50.9913 103.001 51.8597 103H58.141C59.0088 103 59.7123 102.296 59.7124 101.429V96.7141H61.2854C63.87 96.7141 65.9998 94.5843 65.9998 91.9997V85.7139C66.0119 84.8285 65.2906 84.108 64.4053 84.1209C63.538 84.1336 62.845 84.8466 62.8569 85.7139V91.9997C62.8569 92.8975 62.1832 93.5712 61.2854 93.5712H43.9993V73.1406C43.9993 70.556 41.868 68.4247 39.2834 68.4247H29.8593V63.7149C29.8592 62.847 29.1557 62.1435 28.2878 62.1434H25.1418V47.9987C25.1418 47.1009 25.8155 46.4273 26.7133 46.4273H61.2854C62.1832 46.4273 62.8569 47.1009 62.8569 47.9987V62.1419C62.8268 64.267 66.0298 64.267 65.9998 62.1419V47.9987C65.9998 45.4141 63.87 43.2843 61.2854 43.2843H51.8597V38.5715C51.8596 37.703 51.1552 36.9992 50.2867 37H37.712ZM39.2834 40.1429H48.7153V43.2843H39.2834V40.1429ZM34.5691 52.7116C32.4728 52.7116 32.4728 55.856 34.5691 55.856H53.4312C55.5275 55.856 55.5275 52.7116 53.4312 52.7116H34.5691ZM34.5706 57.4275C33.7027 57.4275 32.9991 58.1311 32.9991 58.999C32.9991 59.8669 33.7027 60.5704 34.5706 60.5704C35.4385 60.5704 36.142 59.8669 36.142 58.999C36.142 58.1311 35.4385 57.4275 34.5706 57.4275ZM40.8564 57.4275C39.9885 57.4275 39.285 58.1311 39.285 58.999C39.285 59.8669 39.9885 60.5704 40.8564 60.5704C41.7243 60.5704 42.4279 59.8669 42.4279 58.999C42.4279 58.1311 41.7243 57.4275 40.8564 57.4275ZM47.1423 57.4275C46.2744 57.4275 45.5708 58.1311 45.5708 58.999C45.5708 59.8669 46.2744 60.5704 47.1423 60.5704C48.0102 60.5704 48.7137 59.8669 48.7137 58.999C48.7137 58.1311 48.0102 57.4275 47.1423 57.4275ZM53.4281 57.4275C52.5602 57.4275 51.8567 58.1311 51.8567 58.999C51.8567 59.8669 52.5602 60.5704 53.4281 60.5704C54.296 60.5704 54.9996 59.8669 54.9996 58.999C54.9996 58.1311 54.296 57.4275 53.4281 57.4275ZM64.4053 65.2634C63.538 65.2761 62.845 65.989 62.8569 66.8563V76.2851C62.8268 78.4102 66.0298 78.4102 65.9998 76.2851V66.8563C66.0119 65.971 65.2906 65.2504 64.4053 65.2634ZM17.2845 65.2879H26.7148V68.4247H17.2845V65.2879ZM4.71592 71.5692H7.8527V99.8555H4.71592C3.81815 99.8555 3.14292 99.1818 3.14292 98.2841V73.1406C3.14292 72.2429 3.81814 71.5692 4.71592 71.5692ZM10.9972 71.5692H32.9961V99.8555H10.9972V71.5692ZM36.1405 71.5692H39.2834C40.1812 71.5692 40.8564 72.2429 40.8564 73.1406V98.2841C40.8564 99.1818 40.1812 99.8555 39.2834 99.8555H36.1405V71.5692ZM64.4283 79.428C63.5604 79.428 62.8569 80.1316 62.8569 80.9995C62.8569 81.8674 63.5604 82.5709 64.4283 82.5709C65.2962 82.5709 65.9998 81.8674 65.9998 80.9995C65.9998 80.1316 65.2962 79.428 64.4283 79.428ZM53.4312 96.7141H56.568V99.8555H53.4312V96.7141Z" fill="#9A81E0"/>
<mask id="path-2-outside-1_1632_150" maskUnits="userSpaceOnUse" x="68.4893" y="0.768555" width="95" height="107" fill="black">
<rect fill="white" x="68.4893" y="0.768555" width="95" height="107"/>
<path d="M161.349 3.42871C160.634 2.38917 159.454 1.76855 158.193 1.76855H73.3211C72.0591 1.76855 70.8787 2.38932 70.1637 3.42912C69.4488 4.4689 69.2915 5.79315 69.7432 6.97144L74.388 19.0918V96.4361C74.388 101.644 78.6246 105.88 83.8322 105.88H147.86C150.386 105.88 152.761 104.895 154.545 103.106C156.33 101.318 157.31 98.9411 157.304 96.4143L157.126 19.0906L161.771 6.97135C162.222 5.79285 162.065 4.4685 161.349 3.42871ZM153.684 102.247C152.129 103.805 150.061 104.664 147.86 104.664H83.8322C79.2955 104.664 75.6047 100.973 75.6047 96.4361V19.5875H155.91L156.087 96.4171C156.092 98.6183 155.239 100.689 153.684 102.247ZM160.635 6.53602L156.099 18.3707H75.4146L70.8794 6.53601C70.5665 5.71982 70.6711 4.83869 71.1663 4.1185C71.6615 3.39831 72.4469 2.98526 73.3211 2.98526H158.193C159.966 2.92919 161.327 4.89516 160.635 6.53602Z"/>
<path d="M130.004 6.58986H100.433C99.3402 6.58986 98.3136 7.01521 97.5422 7.7873C94.9749 10.2872 96.8403 14.8088 100.433 14.7655L130.004 14.7655C135.411 14.5729 135.428 6.79695 130.004 6.58986ZM132.034 12.7085C131.492 13.2504 130.771 13.5488 130.004 13.5488H100.433C98.8495 13.5488 97.5615 12.2609 97.5615 10.6777C97.5307 9.13513 98.8883 7.7745 100.433 7.80659L130.004 7.80657C132.52 7.77509 133.843 10.9512 132.034 12.7085Z"/>
<path d="M142.612 34.716H135.364C134.714 32.3007 133.11 30.1986 130.938 28.9236C124.157 24.9452 116.833 23.745 109.444 25.8759C104.171 27.404 100.916 30.0631 100.646 30.2883C98.6067 31.3973 97.4398 32.373 97.3561 32.4439C96.7489 33.0868 96.2663 33.8485 95.8538 34.716H91.1176C89.3994 34.716 87.8814 35.597 86.985 36.9343C84.6436 37.3448 82.8577 39.4076 82.8577 41.8832V93.8417C82.8577 96.6116 85.0935 98.8651 87.8417 98.8651H139.336C141.055 98.8651 142.572 97.9841 143.469 96.6468C145.81 96.2362 147.596 94.1734 147.596 91.6979V39.7389C147.596 36.9692 145.36 34.716 142.612 34.716ZM107.164 29.0074C114.455 27.1023 121.7 28.4983 128.707 33.1556C128.459 34.0507 126.668 38.2944 124.837 41.0063C118.221 37.2331 109.02 36.2367 102.657 41.4895C100.726 38.6082 99.2179 35.3675 98.4683 33.1169C99.4517 32.3749 102.603 30.1991 107.164 29.0074ZM111.168 72.3989C112.057 74.4794 115.121 74.4784 116.009 72.399V74.0289C116.009 75.3637 114.924 76.4496 113.589 76.4496C112.254 76.4496 111.168 75.3637 111.168 74.0289V72.3989ZM112.157 71.3261C112.217 69.4338 114.961 69.4343 115.021 71.3261C114.96 73.2184 112.217 73.218 112.157 71.3261ZM116.009 70.2532C115.121 68.1728 112.056 68.1739 111.168 70.2533V62.4729C112.057 64.5535 115.121 64.5524 116.009 62.4731V70.2532ZM112.157 61.4002C112.217 59.5079 114.961 59.5084 115.021 61.4002C114.96 63.2924 112.217 63.2921 112.157 61.4002ZM116.009 60.3273C115.121 58.2469 112.056 58.248 111.168 60.3274V56.7645L113.589 53.3763L116.009 56.7642V60.3273ZM113.502 51.5998C108.943 49.2166 105.617 45.6578 103.349 42.4904C109.009 37.6111 117.955 38.442 124.155 42.0271C121.884 45.3055 118.459 49.0997 113.676 51.5998H113.502ZM114.491 52.5468C121.168 49.2778 127.389 40.72 129.636 34.1762C134.468 40.0754 128.336 60.648 125.187 67.5156L114.491 52.5468ZM97.5419 34.1762C99.796 40.7312 106.001 49.2687 112.686 52.5468L101.991 67.5156C98.8352 60.6392 92.7124 40.0605 97.5419 34.1762ZM91.1176 35.9327H95.3668C95.2661 36.2312 95.1743 36.5404 95.0912 36.8598H88.6579C89.3185 36.2829 90.1781 35.9327 91.1176 35.9327ZM143.103 93.8417C143.115 95.9033 141.42 97.6583 139.336 97.6484L124.413 97.6484V80.8495H143.103V93.8417ZM123.805 79.6328C123.469 79.6328 123.196 79.9052 123.196 80.2412V97.6484H87.8417C85.7644 97.6484 84.0744 95.9407 84.0744 93.8417V41.8832C84.0744 39.7842 85.7644 38.0765 87.8417 38.0765H94.8257C94.0294 43.462 94.8015 47.9027 96.2996 54.2296C98.2847 62.0673 101.264 68.9329 101.294 69.0013C101.381 69.2021 101.57 69.3402 101.788 69.3631C102.003 69.3859 102.219 69.2904 102.346 69.1117L109.951 58.4674V74.0289C109.951 76.0346 111.583 77.6663 113.589 77.6663C115.594 77.6663 117.226 76.0346 117.226 74.0289V58.4671L124.832 69.1117C124.958 69.2903 125.174 69.3861 125.39 69.3631C125.608 69.3402 125.797 69.2021 125.884 69.0013C125.914 68.9329 128.893 62.0673 130.878 54.2296C132.376 47.9028 133.148 43.4618 132.352 38.0765H139.336C141.413 38.0765 143.103 39.7842 143.103 41.8832V79.6328H123.805ZM146.379 91.6979C146.379 93.2469 145.458 94.5818 144.141 95.1755C144.637 85.2535 144.159 52.3582 144.32 41.8832C144.32 39.1133 142.084 36.8598 139.336 36.8598H132.087C131.595 35.0342 130.876 33.531 129.771 32.4057C123.133 27.9044 116.068 26.0117 108.482 27.4593C115.764 24.935 123.191 25.7768 130.322 29.973C132.349 31.1609 133.805 33.1751 134.294 35.458C134.356 35.7355 134.603 35.9327 134.887 35.9327H142.612C144.689 35.9327 146.379 37.6401 146.379 39.7389V91.6979Z"/>
</mask>
<path d="M161.349 3.42871C160.634 2.38917 159.454 1.76855 158.193 1.76855H73.3211C72.0591 1.76855 70.8787 2.38932 70.1637 3.42912C69.4488 4.4689 69.2915 5.79315 69.7432 6.97144L74.388 19.0918V96.4361C74.388 101.644 78.6246 105.88 83.8322 105.88H147.86C150.386 105.88 152.761 104.895 154.545 103.106C156.33 101.318 157.31 98.9411 157.304 96.4143L157.126 19.0906L161.771 6.97135C162.222 5.79285 162.065 4.4685 161.349 3.42871ZM153.684 102.247C152.129 103.805 150.061 104.664 147.86 104.664H83.8322C79.2955 104.664 75.6047 100.973 75.6047 96.4361V19.5875H155.91L156.087 96.4171C156.092 98.6183 155.239 100.689 153.684 102.247ZM160.635 6.53602L156.099 18.3707H75.4146L70.8794 6.53601C70.5665 5.71982 70.6711 4.83869 71.1663 4.1185C71.6615 3.39831 72.4469 2.98526 73.3211 2.98526H158.193C159.966 2.92919 161.327 4.89516 160.635 6.53602Z" fill="#9A81E0"/>
<path d="M130.004 6.58986H100.433C99.3402 6.58986 98.3136 7.01521 97.5422 7.7873C94.9749 10.2872 96.8403 14.8088 100.433 14.7655L130.004 14.7655C135.411 14.5729 135.428 6.79695 130.004 6.58986ZM132.034 12.7085C131.492 13.2504 130.771 13.5488 130.004 13.5488H100.433C98.8495 13.5488 97.5615 12.2609 97.5615 10.6777C97.5307 9.13513 98.8883 7.7745 100.433 7.80659L130.004 7.80657C132.52 7.77509 133.843 10.9512 132.034 12.7085Z" fill="#9A81E0"/>
<path d="M142.612 34.716H135.364C134.714 32.3007 133.11 30.1986 130.938 28.9236C124.157 24.9452 116.833 23.745 109.444 25.8759C104.171 27.404 100.916 30.0631 100.646 30.2883C98.6067 31.3973 97.4398 32.373 97.3561 32.4439C96.7489 33.0868 96.2663 33.8485 95.8538 34.716H91.1176C89.3994 34.716 87.8814 35.597 86.985 36.9343C84.6436 37.3448 82.8577 39.4076 82.8577 41.8832V93.8417C82.8577 96.6116 85.0935 98.8651 87.8417 98.8651H139.336C141.055 98.8651 142.572 97.9841 143.469 96.6468C145.81 96.2362 147.596 94.1734 147.596 91.6979V39.7389C147.596 36.9692 145.36 34.716 142.612 34.716ZM107.164 29.0074C114.455 27.1023 121.7 28.4983 128.707 33.1556C128.459 34.0507 126.668 38.2944 124.837 41.0063C118.221 37.2331 109.02 36.2367 102.657 41.4895C100.726 38.6082 99.2179 35.3675 98.4683 33.1169C99.4517 32.3749 102.603 30.1991 107.164 29.0074ZM111.168 72.3989C112.057 74.4794 115.121 74.4784 116.009 72.399V74.0289C116.009 75.3637 114.924 76.4496 113.589 76.4496C112.254 76.4496 111.168 75.3637 111.168 74.0289V72.3989ZM112.157 71.3261C112.217 69.4338 114.961 69.4343 115.021 71.3261C114.96 73.2184 112.217 73.218 112.157 71.3261ZM116.009 70.2532C115.121 68.1728 112.056 68.1739 111.168 70.2533V62.4729C112.057 64.5535 115.121 64.5524 116.009 62.4731V70.2532ZM112.157 61.4002C112.217 59.5079 114.961 59.5084 115.021 61.4002C114.96 63.2924 112.217 63.2921 112.157 61.4002ZM116.009 60.3273C115.121 58.2469 112.056 58.248 111.168 60.3274V56.7645L113.589 53.3763L116.009 56.7642V60.3273ZM113.502 51.5998C108.943 49.2166 105.617 45.6578 103.349 42.4904C109.009 37.6111 117.955 38.442 124.155 42.0271C121.884 45.3055 118.459 49.0997 113.676 51.5998H113.502ZM114.491 52.5468C121.168 49.2778 127.389 40.72 129.636 34.1762C134.468 40.0754 128.336 60.648 125.187 67.5156L114.491 52.5468ZM97.5419 34.1762C99.796 40.7312 106.001 49.2687 112.686 52.5468L101.991 67.5156C98.8352 60.6392 92.7124 40.0605 97.5419 34.1762ZM91.1176 35.9327H95.3668C95.2661 36.2312 95.1743 36.5404 95.0912 36.8598H88.6579C89.3185 36.2829 90.1781 35.9327 91.1176 35.9327ZM143.103 93.8417C143.115 95.9033 141.42 97.6583 139.336 97.6484L124.413 97.6484V80.8495H143.103V93.8417ZM123.805 79.6328C123.469 79.6328 123.196 79.9052 123.196 80.2412V97.6484H87.8417C85.7644 97.6484 84.0744 95.9407 84.0744 93.8417V41.8832C84.0744 39.7842 85.7644 38.0765 87.8417 38.0765H94.8257C94.0294 43.462 94.8015 47.9027 96.2996 54.2296C98.2847 62.0673 101.264 68.9329 101.294 69.0013C101.381 69.2021 101.57 69.3402 101.788 69.3631C102.003 69.3859 102.219 69.2904 102.346 69.1117L109.951 58.4674V74.0289C109.951 76.0346 111.583 77.6663 113.589 77.6663C115.594 77.6663 117.226 76.0346 117.226 74.0289V58.4671L124.832 69.1117C124.958 69.2903 125.174 69.3861 125.39 69.3631C125.608 69.3402 125.797 69.2021 125.884 69.0013C125.914 68.9329 128.893 62.0673 130.878 54.2296C132.376 47.9028 133.148 43.4618 132.352 38.0765H139.336C141.413 38.0765 143.103 39.7842 143.103 41.8832V79.6328H123.805ZM146.379 91.6979C146.379 93.2469 145.458 94.5818 144.141 95.1755C144.637 85.2535 144.159 52.3582 144.32 41.8832C144.32 39.1133 142.084 36.8598 139.336 36.8598H132.087C131.595 35.0342 130.876 33.531 129.771 32.4057C123.133 27.9044 116.068 26.0117 108.482 27.4593C115.764 24.935 123.191 25.7768 130.322 29.973C132.349 31.1609 133.805 33.1751 134.294 35.458C134.356 35.7355 134.603 35.9327 134.887 35.9327H142.612C144.689 35.9327 146.379 37.6401 146.379 39.7389V91.6979Z" fill="#9A81E0"/>
<path d="M161.349 3.42871C160.634 2.38917 159.454 1.76855 158.193 1.76855H73.3211C72.0591 1.76855 70.8787 2.38932 70.1637 3.42912C69.4488 4.4689 69.2915 5.79315 69.7432 6.97144L74.388 19.0918V96.4361C74.388 101.644 78.6246 105.88 83.8322 105.88H147.86C150.386 105.88 152.761 104.895 154.545 103.106C156.33 101.318 157.31 98.9411 157.304 96.4143L157.126 19.0906L161.771 6.97135C162.222 5.79285 162.065 4.4685 161.349 3.42871ZM153.684 102.247C152.129 103.805 150.061 104.664 147.86 104.664H83.8322C79.2955 104.664 75.6047 100.973 75.6047 96.4361V19.5875H155.91L156.087 96.4171C156.092 98.6183 155.239 100.689 153.684 102.247ZM160.635 6.53602L156.099 18.3707H75.4146L70.8794 6.53601C70.5665 5.71982 70.6711 4.83869 71.1663 4.1185C71.6615 3.39831 72.4469 2.98526 73.3211 2.98526H158.193C159.966 2.92919 161.327 4.89516 160.635 6.53602Z" stroke="#9A81E0" stroke-width="2" mask="url(#path-2-outside-1_1632_150)"/>
<path d="M130.004 6.58986H100.433C99.3402 6.58986 98.3136 7.01521 97.5422 7.7873C94.9749 10.2872 96.8403 14.8088 100.433 14.7655L130.004 14.7655C135.411 14.5729 135.428 6.79695 130.004 6.58986ZM132.034 12.7085C131.492 13.2504 130.771 13.5488 130.004 13.5488H100.433C98.8495 13.5488 97.5615 12.2609 97.5615 10.6777C97.5307 9.13513 98.8883 7.7745 100.433 7.80659L130.004 7.80657C132.52 7.77509 133.843 10.9512 132.034 12.7085Z" stroke="#9A81E0" stroke-width="2" mask="url(#path-2-outside-1_1632_150)"/>
<path d="M142.612 34.716H135.364C134.714 32.3007 133.11 30.1986 130.938 28.9236C124.157 24.9452 116.833 23.745 109.444 25.8759C104.171 27.404 100.916 30.0631 100.646 30.2883C98.6067 31.3973 97.4398 32.373 97.3561 32.4439C96.7489 33.0868 96.2663 33.8485 95.8538 34.716H91.1176C89.3994 34.716 87.8814 35.597 86.985 36.9343C84.6436 37.3448 82.8577 39.4076 82.8577 41.8832V93.8417C82.8577 96.6116 85.0935 98.8651 87.8417 98.8651H139.336C141.055 98.8651 142.572 97.9841 143.469 96.6468C145.81 96.2362 147.596 94.1734 147.596 91.6979V39.7389C147.596 36.9692 145.36 34.716 142.612 34.716ZM107.164 29.0074C114.455 27.1023 121.7 28.4983 128.707 33.1556C128.459 34.0507 126.668 38.2944 124.837 41.0063C118.221 37.2331 109.02 36.2367 102.657 41.4895C100.726 38.6082 99.2179 35.3675 98.4683 33.1169C99.4517 32.3749 102.603 30.1991 107.164 29.0074ZM111.168 72.3989C112.057 74.4794 115.121 74.4784 116.009 72.399V74.0289C116.009 75.3637 114.924 76.4496 113.589 76.4496C112.254 76.4496 111.168 75.3637 111.168 74.0289V72.3989ZM112.157 71.3261C112.217 69.4338 114.961 69.4343 115.021 71.3261C114.96 73.2184 112.217 73.218 112.157 71.3261ZM116.009 70.2532C115.121 68.1728 112.056 68.1739 111.168 70.2533V62.4729C112.057 64.5535 115.121 64.5524 116.009 62.4731V70.2532ZM112.157 61.4002C112.217 59.5079 114.961 59.5084 115.021 61.4002C114.96 63.2924 112.217 63.2921 112.157 61.4002ZM116.009 60.3273C115.121 58.2469 112.056 58.248 111.168 60.3274V56.7645L113.589 53.3763L116.009 56.7642V60.3273ZM113.502 51.5998C108.943 49.2166 105.617 45.6578 103.349 42.4904C109.009 37.6111 117.955 38.442 124.155 42.0271C121.884 45.3055 118.459 49.0997 113.676 51.5998H113.502ZM114.491 52.5468C121.168 49.2778 127.389 40.72 129.636 34.1762C134.468 40.0754 128.336 60.648 125.187 67.5156L114.491 52.5468ZM97.5419 34.1762C99.796 40.7312 106.001 49.2687 112.686 52.5468L101.991 67.5156C98.8352 60.6392 92.7124 40.0605 97.5419 34.1762ZM91.1176 35.9327H95.3668C95.2661 36.2312 95.1743 36.5404 95.0912 36.8598H88.6579C89.3185 36.2829 90.1781 35.9327 91.1176 35.9327ZM143.103 93.8417C143.115 95.9033 141.42 97.6583 139.336 97.6484L124.413 97.6484V80.8495H143.103V93.8417ZM123.805 79.6328C123.469 79.6328 123.196 79.9052 123.196 80.2412V97.6484H87.8417C85.7644 97.6484 84.0744 95.9407 84.0744 93.8417V41.8832C84.0744 39.7842 85.7644 38.0765 87.8417 38.0765H94.8257C94.0294 43.462 94.8015 47.9027 96.2996 54.2296C98.2847 62.0673 101.264 68.9329 101.294 69.0013C101.381 69.2021 101.57 69.3402 101.788 69.3631C102.003 69.3859 102.219 69.2904 102.346 69.1117L109.951 58.4674V74.0289C109.951 76.0346 111.583 77.6663 113.589 77.6663C115.594 77.6663 117.226 76.0346 117.226 74.0289V58.4671L124.832 69.1117C124.958 69.2903 125.174 69.3861 125.39 69.3631C125.608 69.3402 125.797 69.2021 125.884 69.0013C125.914 68.9329 128.893 62.0673 130.878 54.2296C132.376 47.9028 133.148 43.4618 132.352 38.0765H139.336C141.413 38.0765 143.103 39.7842 143.103 41.8832V79.6328H123.805ZM146.379 91.6979C146.379 93.2469 145.458 94.5818 144.141 95.1755C144.637 85.2535 144.159 52.3582 144.32 41.8832C144.32 39.1133 142.084 36.8598 139.336 36.8598H132.087C131.595 35.0342 130.876 33.531 129.771 32.4057C123.133 27.9044 116.068 26.0117 108.482 27.4593C115.764 24.935 123.191 25.7768 130.322 29.973C132.349 31.1609 133.805 33.1751 134.294 35.458C134.356 35.7355 134.603 35.9327 134.887 35.9327H142.612C144.689 35.9327 146.379 37.6401 146.379 39.7389V91.6979Z" stroke="#9A81E0" stroke-width="2" mask="url(#path-2-outside-1_1632_150)"/>
</svg>
