<svg width="102" height="107" viewBox="0 0 102 107" fill="none" xmlns="http://www.w3.org/2000/svg">
<mask id="path-1-outside-1_1632_150" maskUnits="userSpaceOnUse" x="0" y="0" width="102" height="107" fill="black">
<rect fill="white" width="102" height="107"/>
<path d="M100.271 2.66016C99.4979 1.62062 98.2227 1 96.8593 1H5.14094C3.77711 1 2.50156 1.62077 1.72888 2.66057C0.956252 3.70035 0.786328 5.0246 1.27445 6.20289L6.29389 18.3233V95.6675C6.29389 100.875 10.8723 105.112 16.5 105.112H85.6927C88.4233 105.112 90.9892 104.127 92.9178 102.338C94.8464 100.549 95.9051 98.1725 95.8988 95.6457L95.7062 18.322L100.726 6.2028C101.214 5.0243 101.043 3.69995 100.271 2.66016ZM91.9869 101.479C90.3069 103.037 88.0715 103.895 85.6927 103.895H16.5C11.5974 103.895 7.60875 100.204 7.60875 95.6675V18.8189H94.3926L94.5839 95.6485C94.5894 97.8498 93.6671 99.9203 91.9869 101.479ZM99.498 5.76747L94.5962 17.6022H7.40337L2.50224 5.76746C2.16411 4.95127 2.27716 4.07014 2.81236 3.34994C3.34751 2.62976 4.19625 2.21671 5.14094 2.21671H96.8593C98.776 2.16063 100.246 4.1266 99.498 5.76747Z"/>
<path d="M66.3969 5.82131H34.4396C33.259 5.82131 32.1496 6.24665 31.316 7.01875C28.5416 9.51865 30.5575 14.0402 34.4397 13.997L66.3969 13.997C72.2395 13.8044 72.2583 6.0284 66.3969 5.82131ZM68.5905 11.9399C68.0048 12.4819 67.2258 12.7803 66.3969 12.7803H34.4396C32.7287 12.7803 31.3368 11.4923 31.3368 9.90915C31.3036 8.36657 32.7707 7.00594 34.4396 7.03804L66.3969 7.03801C69.1158 7.00653 70.5452 10.1827 68.5905 11.9399Z"/>
<path d="M80.0221 33.9474H72.1895C71.4862 31.5322 69.7534 29.43 67.4054 28.1551C60.078 24.1767 52.1635 22.9764 44.1784 25.1073C38.4794 26.6355 34.9615 29.2945 34.6705 29.5197C32.4663 30.6288 31.2054 31.6045 31.1149 31.6754C30.4587 32.3183 29.9372 33.08 29.4914 33.9474H24.3732C22.5163 33.9474 20.8759 34.8284 19.9071 36.1657C17.3769 36.5763 15.4469 38.6391 15.4469 41.1146V93.0731C15.4469 95.843 17.8631 98.0965 20.8329 98.0965H76.4818C78.3385 98.0965 79.9788 97.2156 80.9474 95.8782C83.4776 95.4676 85.4075 93.4049 85.4075 90.9293V38.9703C85.4075 36.2007 82.9916 33.9474 80.0221 33.9474ZM41.7138 28.2388C49.5926 26.3337 57.423 27.7297 64.9945 32.387C64.7273 33.2821 62.7917 37.5258 60.8126 40.2378C53.6629 36.4646 43.7198 35.4682 36.8436 40.721C34.757 37.8396 33.1269 34.5989 32.3168 32.3483C33.3796 31.6064 36.7854 29.4305 41.7138 28.2388ZM46.0411 71.6303C47.0014 73.7108 50.3133 73.7098 51.273 71.6304V73.2604C51.273 74.5951 50.0995 75.6811 48.657 75.6811C47.2146 75.6811 46.0411 74.5951 46.0411 73.2604V71.6303ZM47.1097 70.5575C47.1747 68.6652 50.1397 68.6657 50.2044 70.5576C50.1394 72.4498 47.1744 72.4494 47.1097 70.5575ZM51.273 69.4847C50.3126 67.4042 47.0007 67.4053 46.0411 69.4848V61.7044C47.0014 63.7849 50.3133 63.7839 51.273 61.7045V69.4847ZM47.1097 60.6316C47.1747 58.7393 50.1397 58.7398 50.2044 60.6316C50.1394 62.5239 47.1744 62.5235 47.1097 60.6316ZM51.273 59.5587C50.3126 57.4783 47.0007 57.4794 46.0411 59.5589V55.9959L48.6572 52.6078L51.273 55.9956V59.5587ZM48.563 50.8312C43.6363 48.4481 40.0425 44.8892 37.5916 41.7218C43.7075 36.8426 53.3754 37.6734 60.0756 41.2585C57.6216 44.5369 53.9199 48.3311 48.7513 50.8312H48.563ZM49.6326 51.7782C56.8479 48.5092 63.5711 39.9515 65.9986 33.4076C71.2209 39.3069 64.5943 59.8795 61.1904 66.747L49.6326 51.7782ZM31.3157 33.4076C33.7516 39.9627 40.4574 48.5001 47.6817 51.7782L36.1239 66.747C32.7133 59.8706 26.0966 39.2919 31.3157 33.4076ZM24.3732 35.1641H28.9651C28.8562 35.4627 28.7571 35.7719 28.6672 36.0912H21.715C22.4289 35.5143 23.3578 35.1641 24.3732 35.1641ZM80.5524 93.0731C80.5656 95.1347 78.7334 96.8897 76.4818 96.8798L60.3545 96.8798V80.081H80.5524V93.0731ZM59.6971 78.8643C59.334 78.8643 59.0396 79.1367 59.0396 79.4726V96.8798H20.8329C18.5881 96.8798 16.7617 95.1721 16.7617 93.0731V41.1146C16.7617 39.0156 18.5881 37.3079 20.8329 37.3079H28.3804C27.5198 42.6934 28.3542 47.1341 29.9732 53.461C32.1184 61.2987 35.3377 68.1643 35.37 68.2328C35.4647 68.4335 35.6686 68.5716 35.904 68.5945C36.1368 68.6174 36.3704 68.5218 36.5075 68.3431L44.7262 57.6988V73.2604C44.7262 75.266 46.4896 76.8978 48.657 76.8978C50.8245 76.8978 52.5879 75.266 52.5879 73.2604V57.6985L60.8068 68.3431C60.9439 68.5217 61.1774 68.6175 61.4103 68.5945C61.6457 68.5716 61.8497 68.4335 61.9443 68.2328C61.9766 68.1643 65.1959 61.2987 67.341 53.461C68.9601 47.1343 69.7946 42.6933 68.9339 37.3079H76.4818C78.7263 37.3079 80.5524 39.0156 80.5524 41.1146V78.8643H59.6971ZM84.0926 90.9293C84.0926 92.4783 83.0975 93.8132 81.6742 94.407C82.2096 84.4849 81.6939 51.5897 81.8676 41.1146C81.8673 38.3447 79.4514 36.0912 76.4818 36.0912H68.6471C68.1154 34.2657 67.3392 32.7624 66.1452 31.6371C58.9707 27.1359 51.3365 25.2432 43.1384 26.6908C51.0075 24.1664 59.0335 25.0083 66.74 29.2045C68.9307 30.3923 70.5041 32.4065 71.0322 34.6895C71.0998 34.967 71.3661 35.1641 71.6736 35.1641H80.0221C82.2666 35.1641 84.0926 36.8716 84.0926 38.9703V90.9293Z"/>
</mask>
<path d="M100.271 2.66016C99.4979 1.62062 98.2227 1 96.8593 1H5.14094C3.77711 1 2.50156 1.62077 1.72888 2.66057C0.956252 3.70035 0.786328 5.0246 1.27445 6.20289L6.29389 18.3233V95.6675C6.29389 100.875 10.8723 105.112 16.5 105.112H85.6927C88.4233 105.112 90.9892 104.127 92.9178 102.338C94.8464 100.549 95.9051 98.1725 95.8988 95.6457L95.7062 18.322L100.726 6.2028C101.214 5.0243 101.043 3.69995 100.271 2.66016ZM91.9869 101.479C90.3069 103.037 88.0715 103.895 85.6927 103.895H16.5C11.5974 103.895 7.60875 100.204 7.60875 95.6675V18.8189H94.3926L94.5839 95.6485C94.5894 97.8498 93.6671 99.9203 91.9869 101.479ZM99.498 5.76747L94.5962 17.6022H7.40337L2.50224 5.76746C2.16411 4.95127 2.27716 4.07014 2.81236 3.34994C3.34751 2.62976 4.19625 2.21671 5.14094 2.21671H96.8593C98.776 2.16063 100.246 4.1266 99.498 5.76747Z" fill="#9A81E0"/>
<path d="M66.3969 5.82131H34.4396C33.259 5.82131 32.1496 6.24665 31.316 7.01875C28.5416 9.51865 30.5575 14.0402 34.4397 13.997L66.3969 13.997C72.2395 13.8044 72.2583 6.0284 66.3969 5.82131ZM68.5905 11.9399C68.0048 12.4819 67.2258 12.7803 66.3969 12.7803H34.4396C32.7287 12.7803 31.3368 11.4923 31.3368 9.90915C31.3036 8.36657 32.7707 7.00594 34.4396 7.03804L66.3969 7.03801C69.1158 7.00653 70.5452 10.1827 68.5905 11.9399Z" fill="#9A81E0"/>
<path d="M80.0221 33.9474H72.1895C71.4862 31.5322 69.7534 29.43 67.4054 28.1551C60.078 24.1767 52.1635 22.9764 44.1784 25.1073C38.4794 26.6355 34.9615 29.2945 34.6705 29.5197C32.4663 30.6288 31.2054 31.6045 31.1149 31.6754C30.4587 32.3183 29.9372 33.08 29.4914 33.9474H24.3732C22.5163 33.9474 20.8759 34.8284 19.9071 36.1657C17.3769 36.5763 15.4469 38.6391 15.4469 41.1146V93.0731C15.4469 95.843 17.8631 98.0965 20.8329 98.0965H76.4818C78.3385 98.0965 79.9788 97.2156 80.9474 95.8782C83.4776 95.4676 85.4075 93.4049 85.4075 90.9293V38.9703C85.4075 36.2007 82.9916 33.9474 80.0221 33.9474ZM41.7138 28.2388C49.5926 26.3337 57.423 27.7297 64.9945 32.387C64.7273 33.2821 62.7917 37.5258 60.8126 40.2378C53.6629 36.4646 43.7198 35.4682 36.8436 40.721C34.757 37.8396 33.1269 34.5989 32.3168 32.3483C33.3796 31.6064 36.7854 29.4305 41.7138 28.2388ZM46.0411 71.6303C47.0014 73.7108 50.3133 73.7098 51.273 71.6304V73.2604C51.273 74.5951 50.0995 75.6811 48.657 75.6811C47.2146 75.6811 46.0411 74.5951 46.0411 73.2604V71.6303ZM47.1097 70.5575C47.1747 68.6652 50.1397 68.6657 50.2044 70.5576C50.1394 72.4498 47.1744 72.4494 47.1097 70.5575ZM51.273 69.4847C50.3126 67.4042 47.0007 67.4053 46.0411 69.4848V61.7044C47.0014 63.7849 50.3133 63.7839 51.273 61.7045V69.4847ZM47.1097 60.6316C47.1747 58.7393 50.1397 58.7398 50.2044 60.6316C50.1394 62.5239 47.1744 62.5235 47.1097 60.6316ZM51.273 59.5587C50.3126 57.4783 47.0007 57.4794 46.0411 59.5589V55.9959L48.6572 52.6078L51.273 55.9956V59.5587ZM48.563 50.8312C43.6363 48.4481 40.0425 44.8892 37.5916 41.7218C43.7075 36.8426 53.3754 37.6734 60.0756 41.2585C57.6216 44.5369 53.9199 48.3311 48.7513 50.8312H48.563ZM49.6326 51.7782C56.8479 48.5092 63.5711 39.9515 65.9986 33.4076C71.2209 39.3069 64.5943 59.8795 61.1904 66.747L49.6326 51.7782ZM31.3157 33.4076C33.7516 39.9627 40.4574 48.5001 47.6817 51.7782L36.1239 66.747C32.7133 59.8706 26.0966 39.2919 31.3157 33.4076ZM24.3732 35.1641H28.9651C28.8562 35.4627 28.7571 35.7719 28.6672 36.0912H21.715C22.4289 35.5143 23.3578 35.1641 24.3732 35.1641ZM80.5524 93.0731C80.5656 95.1347 78.7334 96.8897 76.4818 96.8798L60.3545 96.8798V80.081H80.5524V93.0731ZM59.6971 78.8643C59.334 78.8643 59.0396 79.1367 59.0396 79.4726V96.8798H20.8329C18.5881 96.8798 16.7617 95.1721 16.7617 93.0731V41.1146C16.7617 39.0156 18.5881 37.3079 20.8329 37.3079H28.3804C27.5198 42.6934 28.3542 47.1341 29.9732 53.461C32.1184 61.2987 35.3377 68.1643 35.37 68.2328C35.4647 68.4335 35.6686 68.5716 35.904 68.5945C36.1368 68.6174 36.3704 68.5218 36.5075 68.3431L44.7262 57.6988V73.2604C44.7262 75.266 46.4896 76.8978 48.657 76.8978C50.8245 76.8978 52.5879 75.266 52.5879 73.2604V57.6985L60.8068 68.3431C60.9439 68.5217 61.1774 68.6175 61.4103 68.5945C61.6457 68.5716 61.8497 68.4335 61.9443 68.2328C61.9766 68.1643 65.1959 61.2987 67.341 53.461C68.9601 47.1343 69.7946 42.6933 68.9339 37.3079H76.4818C78.7263 37.3079 80.5524 39.0156 80.5524 41.1146V78.8643H59.6971ZM84.0926 90.9293C84.0926 92.4783 83.0975 93.8132 81.6742 94.407C82.2096 84.4849 81.6939 51.5897 81.8676 41.1146C81.8673 38.3447 79.4514 36.0912 76.4818 36.0912H68.6471C68.1154 34.2657 67.3392 32.7624 66.1452 31.6371C58.9707 27.1359 51.3365 25.2432 43.1384 26.6908C51.0075 24.1664 59.0335 25.0083 66.74 29.2045C68.9307 30.3923 70.5041 32.4065 71.0322 34.6895C71.0998 34.967 71.3661 35.1641 71.6736 35.1641H80.0221C82.2666 35.1641 84.0926 36.8716 84.0926 38.9703V90.9293Z" fill="#9A81E0"/>
<path d="M100.271 2.66016C99.4979 1.62062 98.2227 1 96.8593 1H5.14094C3.77711 1 2.50156 1.62077 1.72888 2.66057C0.956252 3.70035 0.786328 5.0246 1.27445 6.20289L6.29389 18.3233V95.6675C6.29389 100.875 10.8723 105.112 16.5 105.112H85.6927C88.4233 105.112 90.9892 104.127 92.9178 102.338C94.8464 100.549 95.9051 98.1725 95.8988 95.6457L95.7062 18.322L100.726 6.2028C101.214 5.0243 101.043 3.69995 100.271 2.66016ZM91.9869 101.479C90.3069 103.037 88.0715 103.895 85.6927 103.895H16.5C11.5974 103.895 7.60875 100.204 7.60875 95.6675V18.8189H94.3926L94.5839 95.6485C94.5894 97.8498 93.6671 99.9203 91.9869 101.479ZM99.498 5.76747L94.5962 17.6022H7.40337L2.50224 5.76746C2.16411 4.95127 2.27716 4.07014 2.81236 3.34994C3.34751 2.62976 4.19625 2.21671 5.14094 2.21671H96.8593C98.776 2.16063 100.246 4.1266 99.498 5.76747Z" stroke="#9A81E0" stroke-width="2" mask="url(#path-1-outside-1_1632_150)"/>
<path d="M66.3969 5.82131H34.4396C33.259 5.82131 32.1496 6.24665 31.316 7.01875C28.5416 9.51865 30.5575 14.0402 34.4397 13.997L66.3969 13.997C72.2395 13.8044 72.2583 6.0284 66.3969 5.82131ZM68.5905 11.9399C68.0048 12.4819 67.2258 12.7803 66.3969 12.7803H34.4396C32.7287 12.7803 31.3368 11.4923 31.3368 9.90915C31.3036 8.36657 32.7707 7.00594 34.4396 7.03804L66.3969 7.03801C69.1158 7.00653 70.5452 10.1827 68.5905 11.9399Z" stroke="#9A81E0" stroke-width="2" mask="url(#path-1-outside-1_1632_150)"/>
<path d="M80.0221 33.9474H72.1895C71.4862 31.5322 69.7534 29.43 67.4054 28.1551C60.078 24.1767 52.1635 22.9764 44.1784 25.1073C38.4794 26.6355 34.9615 29.2945 34.6705 29.5197C32.4663 30.6288 31.2054 31.6045 31.1149 31.6754C30.4587 32.3183 29.9372 33.08 29.4914 33.9474H24.3732C22.5163 33.9474 20.8759 34.8284 19.9071 36.1657C17.3769 36.5763 15.4469 38.6391 15.4469 41.1146V93.0731C15.4469 95.843 17.8631 98.0965 20.8329 98.0965H76.4818C78.3385 98.0965 79.9788 97.2156 80.9474 95.8782C83.4776 95.4676 85.4075 93.4049 85.4075 90.9293V38.9703C85.4075 36.2007 82.9916 33.9474 80.0221 33.9474ZM41.7138 28.2388C49.5926 26.3337 57.423 27.7297 64.9945 32.387C64.7273 33.2821 62.7917 37.5258 60.8126 40.2378C53.6629 36.4646 43.7198 35.4682 36.8436 40.721C34.757 37.8396 33.1269 34.5989 32.3168 32.3483C33.3796 31.6064 36.7854 29.4305 41.7138 28.2388ZM46.0411 71.6303C47.0014 73.7108 50.3133 73.7098 51.273 71.6304V73.2604C51.273 74.5951 50.0995 75.6811 48.657 75.6811C47.2146 75.6811 46.0411 74.5951 46.0411 73.2604V71.6303ZM47.1097 70.5575C47.1747 68.6652 50.1397 68.6657 50.2044 70.5576C50.1394 72.4498 47.1744 72.4494 47.1097 70.5575ZM51.273 69.4847C50.3126 67.4042 47.0007 67.4053 46.0411 69.4848V61.7044C47.0014 63.7849 50.3133 63.7839 51.273 61.7045V69.4847ZM47.1097 60.6316C47.1747 58.7393 50.1397 58.7398 50.2044 60.6316C50.1394 62.5239 47.1744 62.5235 47.1097 60.6316ZM51.273 59.5587C50.3126 57.4783 47.0007 57.4794 46.0411 59.5589V55.9959L48.6572 52.6078L51.273 55.9956V59.5587ZM48.563 50.8312C43.6363 48.4481 40.0425 44.8892 37.5916 41.7218C43.7075 36.8426 53.3754 37.6734 60.0756 41.2585C57.6216 44.5369 53.9199 48.3311 48.7513 50.8312H48.563ZM49.6326 51.7782C56.8479 48.5092 63.5711 39.9515 65.9986 33.4076C71.2209 39.3069 64.5943 59.8795 61.1904 66.747L49.6326 51.7782ZM31.3157 33.4076C33.7516 39.9627 40.4574 48.5001 47.6817 51.7782L36.1239 66.747C32.7133 59.8706 26.0966 39.2919 31.3157 33.4076ZM24.3732 35.1641H28.9651C28.8562 35.4627 28.7571 35.7719 28.6672 36.0912H21.715C22.4289 35.5143 23.3578 35.1641 24.3732 35.1641ZM80.5524 93.0731C80.5656 95.1347 78.7334 96.8897 76.4818 96.8798L60.3545 96.8798V80.081H80.5524V93.0731ZM59.6971 78.8643C59.334 78.8643 59.0396 79.1367 59.0396 79.4726V96.8798H20.8329C18.5881 96.8798 16.7617 95.1721 16.7617 93.0731V41.1146C16.7617 39.0156 18.5881 37.3079 20.8329 37.3079H28.3804C27.5198 42.6934 28.3542 47.1341 29.9732 53.461C32.1184 61.2987 35.3377 68.1643 35.37 68.2328C35.4647 68.4335 35.6686 68.5716 35.904 68.5945C36.1368 68.6174 36.3704 68.5218 36.5075 68.3431L44.7262 57.6988V73.2604C44.7262 75.266 46.4896 76.8978 48.657 76.8978C50.8245 76.8978 52.5879 75.266 52.5879 73.2604V57.6985L60.8068 68.3431C60.9439 68.5217 61.1774 68.6175 61.4103 68.5945C61.6457 68.5716 61.8497 68.4335 61.9443 68.2328C61.9766 68.1643 65.1959 61.2987 67.341 53.461C68.9601 47.1343 69.7946 42.6933 68.9339 37.3079H76.4818C78.7263 37.3079 80.5524 39.0156 80.5524 41.1146V78.8643H59.6971ZM84.0926 90.9293C84.0926 92.4783 83.0975 93.8132 81.6742 94.407C82.2096 84.4849 81.6939 51.5897 81.8676 41.1146C81.8673 38.3447 79.4514 36.0912 76.4818 36.0912H68.6471C68.1154 34.2657 67.3392 32.7624 66.1452 31.6371C58.9707 27.1359 51.3365 25.2432 43.1384 26.6908C51.0075 24.1664 59.0335 25.0083 66.74 29.2045C68.9307 30.3923 70.5041 32.4065 71.0322 34.6895C71.0998 34.967 71.3661 35.1641 71.6736 35.1641H80.0221C82.2666 35.1641 84.0926 36.8716 84.0926 38.9703V90.9293Z" stroke="#9A81E0" stroke-width="2" mask="url(#path-1-outside-1_1632_150)"/>
</svg>
