<svg width="103" height="103" viewBox="0 0 103 103" fill="none" xmlns="http://www.w3.org/2000/svg">
<g clip-path="url(#clip0_1539_2610)">
<path d="M51.1871 23.4777C57.4824 23.4777 62.6223 18.3076 62.6223 11.9305C62.6223 5.55332 57.4824 0.40332 51.1871 0.40332C44.8918 0.40332 39.752 5.57344 39.752 11.9506C39.752 18.3277 44.8918 23.4777 51.1871 23.4777ZM51.1871 3.70254C55.6895 3.70254 59.3551 7.4041 59.3551 11.9506C59.3551 16.4971 55.6895 20.1986 51.1871 20.1986C46.6848 20.1986 43.0191 16.4971 43.0191 11.9506C43.0191 7.4041 46.6848 3.70254 51.1871 3.70254Z" fill="#9A81E0"/>
<path d="M18.0967 41.6035C23.1568 41.6035 27.2607 37.4594 27.2607 32.3496C27.2607 27.2398 23.1568 23.0957 18.0967 23.0957C13.0365 23.0957 8.93262 27.2398 8.93262 32.3496C8.93262 37.4594 13.0365 41.6035 18.0967 41.6035ZM18.0967 26.3949C21.3439 26.3949 23.9936 29.0705 23.9936 32.3496C23.9936 35.6287 21.3439 38.3043 18.0967 38.3043C14.8494 38.3043 12.1998 35.6287 12.1998 32.3496C12.1998 29.0705 14.8295 26.3949 18.0967 26.3949Z" fill="#9A81E0"/>
<path d="M84.2773 41.6035C89.3375 41.6035 93.4414 37.4594 93.4414 32.3496C93.4414 27.2398 89.3375 23.0957 84.2773 23.0957C79.2172 23.0957 75.1133 27.2398 75.1133 32.3496C75.1332 37.4594 79.2371 41.6035 84.2773 41.6035ZM84.2773 26.3949C87.5246 26.3949 90.1742 29.0705 90.1742 32.3496C90.1742 35.6287 87.5246 38.3043 84.2773 38.3043C81.0301 38.3043 78.3805 35.6287 78.3805 32.3496C78.3805 29.0705 81.0301 26.3949 84.2773 26.3949Z" fill="#9A81E0"/>
<path d="M99.1594 48.9059C97.0875 46.3711 93.8402 44.9025 90.2941 44.9025H78.2812C76.807 44.9025 75.3727 45.1842 74.0379 45.6871V41.6033C74.0379 34.5422 69.0574 28.4266 62.2043 27.0586L60.9293 26.7971L55.4906 39.2496L54.634 30.0561H56.1082V26.7568H54.3352H48.0996H46.3266V30.0561H47.8008L46.9441 39.2295L41.5055 26.777L40.2305 27.0385C33.3773 28.4064 28.3969 34.5221 28.3969 41.5832V45.667C27.0621 45.1842 25.6277 44.8824 24.1535 44.8824H12.0809C8.51484 44.8824 5.2875 46.3309 3.21563 48.8857C1.52227 50.9779 0.585938 53.5932 0.585938 56.2889V77.7941H7.12031V102.599H29.9707V77.7941H34.8715V66.3475H36.5051V102.599H65.8898V66.3274H67.5234V77.774H73.3207V102.599H96.1711V77.7941H101.789V56.2889C101.789 53.5932 100.853 50.9779 99.1594 48.9059ZM51.048 30.0762H51.3469L52.8012 45.4256L51.2074 49.0668L49.6137 45.4256L51.048 30.0762ZM31.6043 74.4949H26.7035V99.2994H20.1691V81.1738H16.902V99.2994H10.3875V74.4949H3.85312V56.2889C3.85312 54.3576 4.51055 52.4867 5.72578 50.998C7.18008 49.2277 9.49102 48.2018 12.0809 48.2018H24.0938C25.6078 48.2018 27.082 48.6041 28.3371 49.2881V66.3475H31.6043V74.4949ZM62.6227 63.0482V99.3195H52.8211V76.225H49.5539V99.2994H39.7523V63.0482H31.5844V41.6033C31.5844 36.5539 34.8516 32.1281 39.5332 30.6193L51.1875 57.2344L62.8219 30.6193C67.5035 32.1281 70.7707 36.5539 70.7707 41.6033V63.0281H62.6227V63.0482ZM98.5219 74.4949H92.9039V99.2994H86.3695V81.1738H83.1023V99.2994H76.568V74.4949H70.7707V66.3475H74.0379V49.2881C75.293 48.6041 76.7473 48.2018 78.2812 48.2018H90.2941C92.884 48.2018 95.1949 49.2277 96.6492 50.998C97.8645 52.4867 98.5219 54.3576 98.5219 56.2889V74.4949Z" fill="#9A81E0"/>
<path d="M15.2686 51.501H20.1693V54.8002H15.2686V51.501Z" fill="#9A81E0"/>
<path d="M82.2061 51.501H87.1068V54.8002H82.2061V51.501Z" fill="#9A81E0"/>
</g>
<defs>
<clipPath id="clip0_1539_2610">
<rect width="102" height="103" fill="white" transform="translate(0.1875 0.000976562)"/>
</clipPath>
</defs>
</svg>
