<svg width="107" height="108" viewBox="0 0 107 108" fill="none" xmlns="http://www.w3.org/2000/svg">
<path fill-rule="evenodd" clip-rule="evenodd" d="M64.8159 89.7905C67.9418 94.8674 73.5507 98.2594 79.9356 98.2594C89.7346 98.2594 97.6714 90.3226 97.6714 80.5236C97.6714 70.7246 90.1337 63.209 80.7116 62.81C84.0592 51.3482 85.2563 38.1572 84.3696 24.9663C84.2809 23.7469 83.2389 22.8158 82.0196 22.9045C69.2941 23.7469 58.1428 19.0691 48.1664 10.1569C47.3239 9.40311 46.0603 9.40311 45.2178 10.1569C35.2414 19.0469 24.0901 23.7469 11.3646 22.9045C10.1453 22.8158 9.08117 23.7469 9.01466 24.9663C7.6623 45.4289 11.2538 65.8694 20.2104 79.925C26.3736 89.6353 35.0641 96.3528 46.3263 98.2372C46.5702 98.2815 46.814 98.2815 47.0579 98.2372C53.9527 97.0844 59.8498 94.1358 64.838 89.7905H64.8159ZM79.9356 67.2218C87.2738 67.2218 93.2374 73.1854 93.2374 80.5236C93.2374 87.8618 87.2738 93.8254 79.9356 93.8254C72.5974 93.8254 66.6338 87.8618 66.6338 80.5236C66.6338 73.1854 72.5974 67.2218 79.9356 67.2218ZM75.9451 63.2312C79.3592 52.4789 80.6894 39.9752 80.0686 27.4049C67.6758 27.6488 56.6352 23.1262 46.681 14.7238C36.7268 23.1262 25.6863 27.6488 13.2934 27.4049C12.5396 42.9237 14.7123 58.3095 20.166 70.4807C25.6198 82.6519 34.3103 91.5863 46.681 93.8033C53.0437 92.6726 58.431 89.7684 62.9093 85.5339C62.4437 83.9599 62.1998 82.3193 62.1998 80.6123C58.0541 85.1792 52.9772 88.3717 47.0579 89.3693C46.814 89.4137 46.5702 89.4137 46.3041 89.3693C37.7466 87.9061 31.007 81.9646 26.2184 73.8062C19.3457 62.0784 16.5745 45.7615 18.0821 32.7922C18.2151 31.6172 19.2571 30.7526 20.4321 30.8412C29.7434 31.462 37.9018 27.937 45.1735 21.2639C46.0159 20.488 47.3239 20.488 48.1664 21.2639C55.4602 27.937 63.6187 31.462 72.9078 30.8412C74.0828 30.7526 75.1248 31.6172 75.2578 32.7922C76.4106 42.7685 75.0361 54.7402 71.2007 65.0935C72.6639 64.2732 74.238 63.6524 75.9229 63.2534L75.9451 63.2312ZM71.9323 84.492L77.63 88.9259C78.1177 89.3028 78.7163 89.458 79.337 89.3693C79.9356 89.2806 80.4677 88.9259 80.8224 88.4382L88.4266 77.3533C89.1139 76.3335 88.87 74.959 87.8502 74.2717C86.8304 73.5845 85.4559 73.8283 84.7686 74.8481L78.4946 83.9821L74.6592 80.9892C73.6838 80.2354 72.3092 80.4127 71.5555 81.3882C70.8017 82.3637 70.979 83.7382 71.9545 84.492H71.9323ZM46.681 25.8309C53.9749 32.0162 62.0446 35.386 71.0677 35.3195C71.9767 47.0473 69.3607 61.2138 63.3083 71.5448C59.2956 78.3731 53.7975 83.5608 46.681 84.9132C39.5645 83.5608 34.0443 78.3731 30.0537 71.5448C24.0014 61.2138 21.3854 47.0473 22.2943 35.3195C31.3174 35.386 39.3872 32.0162 46.681 25.8309ZM51.115 69.4387C52.3343 69.4387 53.3319 68.4411 53.3319 67.2218V60.5708H59.9829C61.2022 60.5708 62.1998 59.5732 62.1998 58.3539V49.486C62.1998 48.2666 61.2022 47.269 59.9829 47.269H53.3319V40.6181C53.3319 39.3987 52.3343 38.4011 51.115 38.4011H42.2471C41.0277 38.4011 40.0301 39.3987 40.0301 40.6181V47.269H33.3792C32.1599 47.269 31.1622 48.2666 31.1622 49.486V58.3539C31.1622 59.5732 32.1599 60.5708 33.3792 60.5708H40.0301V67.2218C40.0301 68.4411 41.0277 69.4387 42.2471 69.4387H51.115ZM48.898 65.0048H44.4641V58.3539C44.4641 57.1345 43.4664 56.1369 42.2471 56.1369H35.5962V51.7029H42.2471C43.4664 51.7029 44.4641 50.7053 44.4641 49.486V42.8351H48.898V49.486C48.898 50.7053 49.8956 51.7029 51.115 51.7029H57.7659V56.1369H51.115C49.8956 56.1369 48.898 57.1345 48.898 58.3539V65.0048Z" fill="#9A81E0"/>
</svg>
