<svg width="112" height="112" viewBox="0 0 112 112" fill="none" xmlns="http://www.w3.org/2000/svg">
<path d="M44.8355 82.2669C45.0312 82.2669 45.2304 82.2565 45.4278 82.2357C50.2584 81.7369 53.4159 75.2921 52.6192 67.5638C51.8207 59.8356 47.3902 54.165 42.5822 54.6708C37.7516 55.1696 34.5924 61.6144 35.3909 69.3443C36.1564 76.7556 40.2422 82.2669 44.8355 82.2669ZM42.9355 58.1157C43.0082 58.1088 43.0827 58.1053 43.1572 58.1053C45.5681 58.1053 48.5611 62.0127 49.1725 67.9206C49.8012 74.0138 47.5149 78.5396 45.0711 78.7925C42.5943 79.0419 39.4628 75.079 38.8341 68.9893C38.2071 62.8943 40.4916 58.3686 42.9355 58.1157Z" fill="#9A81E0"/>
<path d="M15.539 91.7703C16.4899 95.0594 19.2923 97.5171 22.6784 98.0315C23.127 98.0991 23.5738 98.1337 24.0172 98.1337C26.5321 98.1337 28.9309 97.0599 30.6231 95.1304C32.6132 92.8615 33.3008 89.7751 32.4608 86.8757L31.6727 84.1512C29.79 77.6441 29.9563 70.8182 32.1559 64.4115C33.0046 61.9365 32.7136 59.2345 31.3592 56.9985C30.003 54.7625 27.7445 53.2539 25.1586 52.8625C21.246 52.2701 17.3992 54.3797 15.7971 57.9944L15.0731 59.6294C11.6264 67.4096 11.0323 76.1961 13.3965 84.3712L15.539 91.7703ZM18.2427 61.0289L18.9649 59.3956C19.9366 57.2029 22.2731 55.9298 24.6407 56.2849C26.2065 56.5222 27.5765 57.4367 28.3975 58.7911C29.2184 60.1456 29.3951 61.7858 28.8807 63.284C26.449 70.3679 26.2636 77.916 28.3455 85.1125L29.1336 87.8369C29.6428 89.5967 29.2254 91.469 28.0182 92.8459C26.811 94.2211 25.0166 94.8828 23.1962 94.6056C21.1421 94.2939 19.443 92.8026 18.8645 90.8073L16.7237 83.4065C14.5864 76.0142 15.1251 68.0678 18.2427 61.0289Z" fill="#9A81E0"/>
<path d="M96.0406 24.9425V15.7802C96.0995 15.6018 96.1619 15.4269 96.219 15.2485L96.0406 15.1913V12.9865V6.05843C96.0406 5.10236 95.2647 4.32642 94.3086 4.32642H38.8843C37.9282 4.32642 37.1523 5.10236 37.1523 6.05843V12.9865V23.3785H25.0282C24.0722 23.3785 23.2962 24.1545 23.2962 25.1105V30.3066H21.5642C20.6081 30.3066 19.8322 31.0825 19.8322 32.0386V38.3414C19.2347 39.074 18.6302 39.8014 18.0188 40.522C15.8243 43.113 13.5537 45.7907 11.9377 48.9949C9.73112 53.3752 8.06146 57.8992 6.97896 62.4405C4.77411 71.6895 5.2175 81.5169 8.30048 91.6457L12.2321 104.563C12.9024 106.768 14.8994 108.247 17.203 108.247H45.8123H46.7095H87.5815H89.1126H101.036C104.966 108.247 108.165 105.048 108.165 101.118C108.165 86.1569 106.192 71.2478 102.33 56.9206L96.0406 24.9425ZM42.3483 30.3066H40.6163V25.1105V14.7185H92.5766V15.2138C84.1192 40.6293 66.9792 61.2974 57.5848 65.9912C56.511 59.1082 54.1069 52.6096 50.3883 46.9009C48.561 44.0968 46.5259 41.4295 44.0803 38.3639V32.0386C44.0803 31.0825 43.3044 30.3066 42.3483 30.3066ZM55.6121 91.6474C55.7558 91.1746 55.8736 90.7 56.007 90.2272C59.1142 87.9565 74.4061 76.0974 86.8177 54.2481L86.3154 56.8063C82.4253 71.2478 80.4525 86.1569 80.4525 101.118C80.4525 102.464 80.8492 103.709 81.4987 104.783H51.5938C51.6198 104.708 51.6561 104.641 51.6804 104.565L55.6121 91.6474ZM89.2754 41.7326L89.2615 41.7274C79.1466 64.4843 64.1942 78.9258 57.2644 84.7852C58.2031 79.6498 58.4474 74.5369 58.0161 69.5833C67.0191 65.7591 82.7596 48.2554 92.5437 25.1071L89.2754 41.7326ZM40.6163 7.79044H92.5766V11.2545H40.6163V7.79044ZM26.7602 26.8425H37.1523V30.3066H26.7602V26.8425ZM40.6163 33.7706V37.2346H23.2962V33.7706H40.6163ZM11.6138 90.6394C8.7127 81.1047 8.28662 71.8886 10.3477 63.2459C11.3679 58.9661 12.944 54.695 15.0311 50.5555C16.4617 47.7185 18.5003 45.311 20.6601 42.7614C21.2403 42.0756 21.8205 41.3914 22.3904 40.6986H41.5152C43.8396 43.6188 45.7656 46.151 47.4855 48.7923C55.0873 60.4591 56.8401 75.7112 52.2987 90.6394L49.5743 99.5869H14.3383L11.6138 90.6394ZM45.8123 104.783H17.203C16.4357 104.783 15.7689 104.289 15.5455 103.557L15.3913 103.051H48.5195L48.3653 103.555C48.1436 104.289 47.4768 104.783 46.7095 104.783H45.8123ZM101.036 104.783H96.0406V64.9468H92.5766V104.783H89.1126H87.5815C85.5602 104.783 83.9166 103.139 83.9166 101.118C83.9166 86.4618 85.8478 71.854 89.6859 57.5892L94.3086 34.0823L98.9573 57.707C102.769 71.854 104.701 86.46 104.701 101.118C104.701 103.139 103.057 104.783 101.036 104.783Z" fill="#9A81E0"/>
<path d="M52.741 30.3064H73.5251C76.3898 30.3064 78.7211 27.9751 78.7211 25.1103C78.7211 22.2456 76.3898 19.9143 73.5251 19.9143H52.741C49.8762 19.9143 47.5449 22.2456 47.5449 25.1103C47.5449 27.9751 49.8762 30.3064 52.741 30.3064ZM52.741 23.3783H73.5251C74.4794 23.3783 75.2571 24.156 75.2571 25.1103C75.2571 26.0647 74.4794 26.8423 73.5251 26.8423H52.741C51.7866 26.8423 51.0089 26.0647 51.0089 25.1103C51.0089 24.156 51.7866 23.3783 52.741 23.3783Z" fill="#9A81E0"/>
</svg>
