<svg width="129" height="129" viewBox="0 0 129 129" fill="none" xmlns="http://www.w3.org/2000/svg">
<g clip-path="url(#clip0_1539_2705)">
<path d="M128.505 73.9245L121.997 63.9671C119.124 59.567 114.241 56.9396 108.934 56.9396H92.1031V47.2543C92.1031 41.3408 87.2943 36.532 81.3808 36.532H49.8737C48.1057 27.2986 39.9781 20.2932 30.2367 20.2932C19.2062 20.2932 10.2332 29.2674 10.2332 40.2968C10.2332 47.2321 13.7843 53.3499 19.1606 56.9396H2.30881C1.18076 56.9396 0.267578 57.8528 0.267578 58.9808C0.267578 60.1089 1.18076 61.022 2.30881 61.022H22.7164V65.1033H14.5527C13.4258 65.1033 12.5126 66.0165 12.5126 67.1446C12.5126 68.2726 13.4258 69.1846 14.5527 69.1846H22.7164V73.2659H2.30881C1.18076 73.2659 0.267578 74.1791 0.267578 75.3072C0.267578 76.4352 1.18076 77.3484 2.30881 77.3484H22.7164V86.3868C19.1186 87.9738 16.5939 91.5634 16.5939 95.7416V97.756C16.5939 98.8841 17.5083 99.7972 18.6351 99.7972H36.7353C37.896 104.791 42.3732 108.527 47.7157 108.527C53.0593 108.527 57.5353 104.791 58.696 99.7972H97.9593C99.1212 104.791 103.598 108.527 108.94 108.527C114.281 108.527 118.759 104.791 119.92 99.7972H126.797C127.925 99.7972 128.837 98.8841 128.837 97.756V75.0409C128.837 74.6439 128.721 74.255 128.505 73.9245ZM14.3145 40.2968C14.3145 31.5176 21.4576 24.3745 30.2367 24.3745C39.0171 24.3745 46.159 31.5176 46.159 40.2968C46.159 49.076 39.0171 56.2191 30.2367 56.2191C21.4576 56.2191 14.3145 49.076 14.3145 40.2968ZM26.7977 77.3484H30.879C32.0071 77.3484 32.9202 76.4352 32.9202 75.3072C32.9202 74.1791 32.0071 73.2659 30.879 73.2659H26.7977V69.1846H41.084C42.2109 69.1846 43.1241 68.2726 43.1241 67.1446C43.1241 66.0165 42.2109 65.1033 41.084 65.1033H26.7977V61.022H53.3279C54.4547 61.022 55.3691 60.1089 55.3691 58.9808C55.3691 57.8528 54.4547 56.9396 53.3279 56.9396H41.3129C46.6063 53.4048 50.1177 47.4166 50.2252 40.6133H81.3819C85.0428 40.6133 88.0218 43.5934 88.0218 47.2543V85.511H26.8234C26.8152 85.511 26.8071 85.5133 26.7977 85.5133V77.3484ZM88.0218 95.7148H58.8817C58.5606 93.3676 57.5189 91.2516 55.981 89.5923H88.0218V95.7148ZM26.8234 89.5923H39.4503C37.9135 91.2516 36.8707 93.3676 36.5508 95.7148H20.6752C20.6892 92.3376 23.4428 89.5923 26.8234 89.5923ZM47.7157 104.446C43.7465 104.446 40.5153 101.216 40.5153 97.2457C40.5153 93.2765 43.7465 90.0453 47.7157 90.0453C51.686 90.0453 54.916 93.2765 54.916 97.2457C54.916 101.216 51.686 104.446 47.7157 104.446ZM108.94 104.446C104.971 104.446 101.739 101.216 101.739 97.2457C101.739 93.2765 104.971 90.0453 108.94 90.0453C112.91 90.0453 116.14 93.2765 116.14 97.2457C116.14 101.216 112.91 104.446 108.94 104.446ZM124.756 95.7148H120.106C119.355 90.2182 114.639 85.9641 108.94 85.9641C103.24 85.9641 98.5257 90.2182 97.7737 95.7148H92.1031V61.022H108.934C112.856 61.022 116.464 62.957 118.582 66.1987L124.756 75.6481V95.7148Z" fill="#9A81E0"/>
<path d="M112.278 97.2456C112.278 99.0895 110.784 100.584 108.94 100.584C107.096 100.584 105.601 99.0895 105.601 97.2456C105.601 95.4017 107.096 93.907 108.94 93.907C110.784 93.907 112.278 95.4017 112.278 97.2456Z" fill="#9A81E0"/>
<path d="M51.0545 97.2456C51.0545 99.0895 49.5597 100.584 47.7159 100.584C45.8731 100.584 44.3784 99.0895 44.3784 97.2456C44.3784 95.4017 45.8731 93.907 47.7159 93.907C49.5597 93.907 51.0545 95.4017 51.0545 97.2456Z" fill="#9A81E0"/>
<path d="M32.9203 40.2968V31.3682C32.9203 30.2401 32.0071 29.3281 30.879 29.3281C29.7522 29.3281 28.839 30.2401 28.839 31.3682V39.6312L24.6736 45.345C24.0092 46.2558 24.2088 47.531 25.1197 48.1943C25.484 48.4606 25.9044 48.5878 26.3213 48.5878C26.9507 48.5878 27.572 48.2971 27.9713 47.7482L32.5291 41.4984C32.7825 41.1504 32.9203 40.73 32.9203 40.2968Z" fill="#9A81E0"/>
<path d="M108.252 63.062H104.348C103.22 63.062 102.307 63.9752 102.307 65.1032V79.3883C102.307 80.5164 103.22 81.4296 104.348 81.4296H118.083C119.363 81.4296 120.508 80.7675 121.151 79.6616C121.793 78.5557 121.794 77.2315 121.161 76.128L116.396 67.7867C114.732 64.8744 111.61 63.062 108.252 63.062ZM106.389 77.3483V67.1445H108.252C110.149 67.1445 111.911 68.1663 112.851 69.8128L117.157 77.3483H106.389Z" fill="#9A81E0"/>
</g>
<defs>
<clipPath id="clip0_1539_2705">
<rect width="128.57" height="128.57" fill="white" transform="translate(0.267578 0.240234)"/>
</clipPath>
</defs>
</svg>
