<svg width="105" height="105" viewBox="0 0 105 105" fill="none" xmlns="http://www.w3.org/2000/svg">
<g clip-path="url(#clip0_1539_2621)">
<path d="M74.5548 80.5215C73.4324 80.5215 72.5215 81.4324 72.5215 82.5548C72.5215 83.6772 73.4324 84.5882 74.5548 84.5882C75.6772 84.5882 76.5882 83.6772 76.5882 82.5548C76.5882 81.4324 75.6772 80.5215 74.5548 80.5215Z" fill="#9A81E0"/>
<path d="M79.5618 73.9462L69.8974 70.7254L66.4279 63.7862C69.5536 60.6049 71.7237 56.3954 72.4555 52.0049L72.8882 49.4113H76.5887C79.9522 49.4113 82.6887 46.6749 82.6887 43.3113V30.5013C82.6887 13.6836 69.0064 0.0012207 52.1886 0.0012207C35.3278 0.0012207 21.6886 13.6443 21.6886 30.5013V43.3113C21.6886 45.962 23.3887 48.2222 25.7553 49.0616V51.4447C25.7553 54.8082 28.4917 57.5447 31.8553 57.5447H33.6409C34.5224 59.4595 35.6633 61.233 37.0517 62.8261C37.3396 63.1571 37.6399 63.478 37.9476 63.7901L34.4799 70.7254L24.8152 73.9464C13.578 77.6934 5.42188 89.5232 5.42188 102.075C5.42188 103.198 6.3322 104.108 7.45521 104.108H96.9221C98.0449 104.108 98.9554 103.198 98.9554 102.075C98.9554 89.5232 90.7995 77.6934 79.5618 73.9462ZM78.622 43.3113C78.622 44.4325 77.7099 45.3447 76.5887 45.3447H73.4854C74.0023 41.341 74.3467 37.0806 74.4852 32.8844C74.4893 32.766 74.4925 32.6509 74.4962 32.5346H78.622V43.3113ZM27.7886 45.3447C26.6674 45.3447 25.7553 44.4325 25.7553 43.3113V32.5346H29.8825C29.8892 32.7467 29.8963 32.9598 29.9043 33.1743C29.9045 33.1816 29.9049 33.1888 29.9051 33.1961C29.9051 33.1967 29.9051 33.1973 29.9051 33.1979C30.0474 37.2792 30.3874 41.4291 30.8925 45.3444H27.7886V45.3447ZM31.8553 53.478C30.7341 53.478 29.8219 52.5658 29.8219 51.4447V49.4113H31.4889L31.9216 52.0057C32.0041 52.4987 32.1056 52.99 32.2229 53.478H31.8553ZM29.8254 28.468H25.8325C26.8624 14.8403 38.2353 4.0679 52.1886 4.0679C66.08 4.0679 77.5029 14.8389 78.5446 28.468H74.5521C74.4057 17.2384 65.2612 8.13457 54.0087 8.13457H50.369C39.1167 8.13457 29.9716 17.2384 29.8254 28.468ZM50.3688 12.2012H54.0085C63.1197 12.2012 70.494 19.6536 70.4887 28.7547C70.4887 29.3945 70.4836 29.9517 70.4728 30.4586C70.4728 30.4651 70.4726 30.4718 70.4726 30.4785L67.9293 30.1152C61.02 29.1286 54.4963 25.8667 49.5597 20.9302C49.1783 20.5489 48.6612 20.3346 48.122 20.3346C42.6612 20.3346 37.4339 22.8226 33.9785 27.0259C34.83 18.7464 41.8294 12.2012 50.3688 12.2012ZM36.4384 53.478C35.4205 50.0919 34.2558 40.1285 33.9984 33.7439L36.7351 30.0948C39.2485 26.7447 43.1588 24.6632 47.3184 24.4243C52.7915 29.6328 59.872 33.0724 67.3543 34.1408L70.3478 34.5686C70.1477 38.8152 69.7388 43.0767 69.153 46.9959C69.1528 46.9971 69.1526 46.9986 69.1524 47C68.9661 48.2601 68.8193 49.0709 68.4444 51.3359C67.3675 57.7948 62.5481 63.6355 56.186 65.2262C53.5677 65.8799 50.8092 65.8797 48.1923 65.2262C44.2198 64.2331 40.5773 61.4845 38.2265 57.5447H42.3717C43.2111 59.9113 45.4711 61.6114 48.122 61.6114H52.1886C55.5589 61.6114 58.2887 58.8818 58.2887 55.5113C58.2887 52.1478 55.5522 49.4113 52.1886 49.4113H48.122C45.4121 49.4113 43.1854 51.1616 42.3682 53.478H36.4384ZM47.951 69.3413C49.3456 69.6351 50.7675 69.7854 52.1886 69.7854C53.3011 69.7854 54.4137 69.6922 55.5138 69.5117L51.9209 73.3114L47.951 69.3413ZM49.1254 76.2675L42.6761 83.0877C40.9006 79.6892 39.375 76.1522 38.1236 72.5312L40.5455 67.6874L49.1254 76.2675ZM63.4871 66.9985L66.2532 72.531C64.9999 76.1581 63.4739 79.6963 61.7002 83.0907L54.7974 76.1879L63.4871 66.9985ZM46.0886 55.5113C46.0886 54.3887 46.9992 53.478 48.122 53.478H52.1886C53.3098 53.478 54.222 54.3902 54.222 55.5113C54.222 56.6342 53.3112 57.5447 52.1886 57.5447H48.122C47.0008 57.5447 46.0886 56.6325 46.0886 55.5113ZM9.56988 100.041C10.3757 89.9685 17.0794 80.8128 26.1013 77.8042L34.6605 74.9519C36.2286 79.288 38.1712 83.5025 40.4479 87.5057C40.4518 87.5126 40.4555 87.5195 40.4593 87.5262L40.4595 87.5266C42.123 90.4524 43.9953 93.3115 46.0252 96.0258L48.5266 100.041H9.56988ZM52.1886 98.2289L49.431 93.8017C49.4001 93.7521 49.3672 93.7039 49.3322 93.6572C47.6856 91.4608 46.1496 89.1637 44.7507 86.8125L52.0022 79.144L59.6431 86.7849C58.2348 89.1531 56.6935 91.4597 55.0455 93.6568C54.9458 93.7895 55.0872 93.5803 52.1886 98.2289ZM55.8507 100.041L58.3519 96.026C60.3907 93.3013 62.2764 90.4193 63.9566 87.4591C63.9668 87.4413 63.9763 87.423 63.9865 87.4051C63.9877 87.4028 63.9889 87.4008 63.9901 87.3986C66.238 83.4335 68.1603 79.2556 69.7168 74.9519L78.2758 77.8042C87.2979 80.8128 94.0016 89.9685 94.8074 100.041H55.8507Z" fill="#9A81E0"/>
<path d="M88.6964 91.8128C87.3375 89.0928 85.3471 86.6764 82.9402 84.8249C82.05 84.1398 80.7735 84.3064 80.0889 85.1966C79.404 86.0867 79.5706 87.3633 80.4606 88.0481C82.3829 89.5269 83.9725 91.4572 85.0581 93.6302C85.561 94.6365 86.783 95.0416 87.7859 94.5406C88.7903 94.0387 89.198 92.8175 88.6964 91.8128Z" fill="#9A81E0"/>
</g>
<defs>
<clipPath id="clip0_1539_2621">
<rect width="104.107" height="104.107" fill="white" transform="translate(0.134766 0.0012207)"/>
</clipPath>
</defs>
</svg>
