<svg width="101" height="101" viewBox="0 0 101 101" fill="none" xmlns="http://www.w3.org/2000/svg">
<g clip-path="url(#clip0_1539_2650)">
<path d="M18.4688 75.5766H9.17943C8.59556 75.5766 8.12207 75.1031 8.12207 74.5193V65.2295C8.12207 64.6456 8.59556 64.1721 9.17943 64.1721H18.4688C19.0527 64.1721 19.5261 64.6456 19.5261 65.2295V74.5193C19.5261 75.1031 19.0527 75.5766 18.4688 75.5766ZM10.2368 73.4619H17.4114V66.2868H10.2368V73.4619Z" fill="#9A81E0"/>
<path d="M35.7539 64.1719H26.4646C25.8807 64.1719 25.4072 64.6454 25.4072 65.2292V74.519C25.4072 75.1029 25.8807 75.5764 26.4646 75.5764H35.7539C36.3378 75.5764 36.8113 75.1029 36.8113 74.519V65.2292C36.8113 64.6454 36.3378 64.1719 35.7539 64.1719ZM29.1664 68.7116C29.6551 68.395 30.3077 68.5348 30.6238 69.0235L30.7723 69.2527L31.737 68.2954C32.1502 67.8853 32.8174 67.8879 33.2275 68.3011C33.6375 68.7143 33.635 69.3817 33.2218 69.7918L31.3354 71.6637C30.8683 72.1275 30.0772 72.0581 29.7082 71.4884L28.854 70.169C28.5381 69.6805 28.6776 69.0279 29.1664 68.7116Z" fill="#9A81E0"/>
<path d="M18.4688 58.7119H9.17943C8.59556 58.7119 8.12207 58.2384 8.12207 57.6545V48.3647C8.12207 47.7809 8.59556 47.3074 9.17943 47.3074H18.4688C19.0527 47.3074 19.5261 47.7809 19.5261 48.3647V57.6545C19.5261 58.2384 19.0527 58.7119 18.4688 58.7119ZM10.2368 56.5972H17.4114V49.4221H10.2368V56.5972Z" fill="#9A81E0"/>
<path d="M35.7539 58.7119H26.4646C25.8807 58.7119 25.4072 58.2384 25.4072 57.6545V48.3647C25.4072 47.7809 25.8807 47.3074 26.4646 47.3074H35.7539C36.3378 47.3074 36.8113 47.7809 36.8113 48.3647V57.6545C36.8113 58.2384 36.3378 58.7119 35.7539 58.7119ZM27.522 56.5972H34.6966V49.4221H27.522V56.5972Z" fill="#9A81E0"/>
<path d="M18.4688 92.4413H9.17943C8.59556 92.4413 8.12207 91.9678 8.12207 91.384V82.094C8.12207 81.5101 8.59556 81.0366 9.17943 81.0366H18.4688C19.0527 81.0366 19.5261 81.5101 19.5261 82.094V91.384C19.5261 91.9678 19.0527 92.4413 18.4688 92.4413ZM10.2368 90.3266H17.4114V83.1513H10.2368V90.3266Z" fill="#9A81E0"/>
<path d="M35.7539 92.4413H26.4646C25.8807 92.4413 25.4072 91.9678 25.4072 91.384V82.094C25.4072 81.5101 25.8807 81.0366 26.4646 81.0366H35.7539C36.3378 81.0366 36.8113 81.5101 36.8113 82.094V91.384C36.8113 91.9678 36.3378 92.4413 35.7539 92.4413ZM27.522 90.3266H34.6966V83.1513H27.522V90.3266Z" fill="#9A81E0"/>
<path d="M74.9869 67.089C74.5041 66.761 73.8464 66.8865 73.5182 67.3697L73.2302 67.7937C71.9261 62.086 66.9201 57.821 60.9544 57.821C53.9997 57.821 48.3418 63.6148 48.3418 70.7363C48.3418 77.8579 53.9997 83.6516 60.9544 83.6516C63.7493 83.6516 66.3969 82.7348 68.6114 81.0001C69.0712 80.64 69.152 79.9755 68.7918 79.5156C68.4315 79.0558 67.767 78.9751 67.3073 79.3352C65.4687 80.7755 63.272 81.5366 60.9544 81.5366C55.1658 81.5366 50.4565 76.6916 50.4565 70.7361C50.4565 64.7806 55.166 59.9356 60.9544 59.9356C65.7988 59.9356 69.8847 63.3295 71.089 67.9275L70.9076 67.7552C70.4842 67.353 69.8149 67.3701 69.4127 67.7932C69.0105 68.2166 69.0276 68.8859 69.4508 69.2881L71.7812 71.5027C72.2634 71.9609 73.0285 71.8546 73.3844 71.3303L75.2675 68.5575C75.5955 68.0747 75.4699 67.4172 74.9869 67.089Z" fill="#9A81E0"/>
<path d="M61.5975 69.5757C59.9091 68.8768 59.4208 68.4515 59.4208 67.6796C59.4208 67.0615 59.8715 66.3395 61.1409 66.3395C62.0788 66.3896 62.93 66.6502 63.6945 67.1207L64.383 65.3025C63.6205 64.8319 62.7722 64.5589 61.8384 64.4832V62.6204H60.0626V64.5953C58.3074 64.9757 57.1881 66.2535 57.1881 67.9082C57.1881 69.8995 58.7885 70.8018 60.515 71.4792C61.9109 72.0453 62.4802 72.622 62.4802 73.4695C62.4802 74.4078 61.6895 75.0382 60.5124 75.0382C59.4189 74.9866 58.4546 74.6599 57.6193 74.0581L56.958 75.9046C57.8016 76.5361 58.7919 76.8736 59.929 76.9167V78.8526H61.7238V76.8199C63.5335 76.4225 64.7315 75.0494 64.7315 73.3361C64.7322 71.5967 63.7943 70.4719 61.5975 69.5757Z" fill="#9A81E0"/>
<path d="M5.40307 9.34099C4.81919 9.34099 4.3457 8.8675 4.3457 8.28363V6.88305C4.3457 6.29917 4.81919 5.82568 5.40307 5.82568C5.98694 5.82568 6.46043 6.29917 6.46043 6.88305V8.28384C6.46043 8.8675 5.98694 9.34099 5.40307 9.34099Z" fill="#9A81E0"/>
<path d="M5.40307 16.0867C4.81919 16.0867 4.3457 15.6132 4.3457 15.0293V13.8396C4.3457 13.2557 4.81919 12.7822 5.40307 12.7822C5.98694 12.7822 6.46043 13.2557 6.46043 13.8396V15.0293C6.46043 15.6134 5.98694 16.0867 5.40307 16.0867Z" fill="#9A81E0"/>
<path d="M9.47562 12.0137H8.28588C7.702 12.0137 7.22852 11.5402 7.22852 10.9563C7.22852 10.3724 7.702 9.89893 8.28588 9.89893H9.47562C10.0595 9.89893 10.533 10.3724 10.533 10.9563C10.533 11.5402 10.0595 12.0137 9.47562 12.0137Z" fill="#9A81E0"/>
<path d="M2.51957 12.0137H1.32982C0.745948 12.0137 0.272461 11.5402 0.272461 10.9563C0.272461 10.3724 0.745948 9.89893 1.32982 9.89893H2.51957C3.10344 9.89893 3.57693 10.3724 3.57693 10.9563C3.57693 11.5402 3.10344 12.0137 2.51957 12.0137Z" fill="#9A81E0"/>
<path d="M90.4285 40.9621C89.8446 40.9621 89.3711 40.4886 89.3711 39.9047V38.5041C89.3711 37.9203 89.8446 37.4468 90.4285 37.4468C91.0123 37.4468 91.4858 37.9203 91.4858 38.5041V39.9047C91.4858 40.4888 91.0123 40.9621 90.4285 40.9621Z" fill="#9A81E0"/>
<path d="M90.4285 47.708C89.8446 47.708 89.3711 47.2345 89.3711 46.6507V45.4609C89.3711 44.8771 89.8446 44.4036 90.4285 44.4036C91.0123 44.4036 91.4858 44.8771 91.4858 45.4609V46.6507C91.4858 47.2348 91.0123 47.708 90.4285 47.708Z" fill="#9A81E0"/>
<path d="M94.501 43.635H93.3113C92.7274 43.635 92.2539 43.1615 92.2539 42.5776C92.2539 41.9938 92.7274 41.5203 93.3113 41.5203H94.501C95.0849 41.5203 95.5584 41.9938 95.5584 42.5776C95.5584 43.1615 95.0849 43.635 94.501 43.635Z" fill="#9A81E0"/>
<path d="M87.545 43.635H86.3552C85.7713 43.635 85.2979 43.1615 85.2979 42.5776C85.2979 41.9938 85.7713 41.5203 86.3552 41.5203H87.545C88.1288 41.5203 88.6023 41.9938 88.6023 42.5776C88.6023 43.1615 88.129 43.635 87.545 43.635Z" fill="#9A81E0"/>
<path d="M23.1239 19.2102C23.8784 19.2102 24.4901 18.5991 24.4901 17.8453C24.4901 17.0915 23.8784 16.4805 23.1239 16.4805C22.3695 16.4805 21.7578 17.0915 21.7578 17.8453C21.7578 18.5991 22.3695 19.2102 23.1239 19.2102Z" fill="#9A81E0"/>
<path d="M71.2089 47.1728C71.9634 47.1728 72.575 46.5618 72.575 45.808C72.575 45.0542 71.9634 44.4431 71.2089 44.4431C70.4544 44.4431 69.8428 45.0542 69.8428 45.808C69.8428 46.5618 70.4544 47.1728 71.2089 47.1728Z" fill="#9A81E0"/>
<path d="M98.7182 76.7629C99.4752 76.7629 100.089 76.1492 100.089 75.3923C100.089 74.6354 99.4752 74.0217 98.7182 74.0217C97.9613 74.0217 97.3477 74.6354 97.3477 75.3923C97.3477 76.1492 97.9613 76.7629 98.7182 76.7629Z" fill="#9A81E0"/>
<path d="M38.4521 100.139C39.2066 100.139 39.8182 99.5281 39.8182 98.7743C39.8182 98.0205 39.2066 97.4094 38.4521 97.4094C37.6976 97.4094 37.0859 98.0205 37.0859 98.7743C37.0859 99.5281 37.6976 100.139 38.4521 100.139Z" fill="#9A81E0"/>
<path d="M99.7749 68.9273V62.5837C99.7749 59.676 97.4094 57.31 94.5017 57.31H77.981V7.7049C77.981 3.63469 74.6698 0.323242 70.5998 0.323242H29.4476C25.3776 0.323242 22.0664 3.63469 22.0664 7.7049V11.6723C22.0664 12.2562 22.5399 12.7297 23.1238 12.7297C23.7076 12.7297 24.1811 12.2562 24.1811 11.6723V7.7049C24.1811 4.80075 26.5437 2.43797 29.4476 2.43797H40.9532V6.8017H28.8388C28.2549 6.8017 27.7815 7.27519 27.7815 7.85906V11.2511C27.7815 11.835 28.2549 12.3084 28.8388 12.3084C29.4227 12.3084 29.8962 11.835 29.8962 11.2511V8.91643H41.0372C41.3757 10.4272 42.7254 11.5605 44.3368 11.5605H55.7108C57.3223 11.5605 58.6719 10.4272 59.0104 8.91643H70.1512V40.1336C70.1512 40.7175 70.6247 41.1909 71.2086 41.1909C71.7925 41.1909 72.266 40.7175 72.266 40.1336V7.85906C72.266 7.27519 71.7925 6.8017 71.2086 6.8017H59.0942V2.43797H70.5996C73.5035 2.43797 75.8661 4.80075 75.8661 7.7049V57.3102H75.6241C71.9566 53.2569 66.6577 50.7064 60.7739 50.7064C58.4333 50.7064 56.1858 51.1113 54.096 51.8525V48.3647C54.096 47.7808 53.6225 47.3074 53.0387 47.3074H43.7493C43.1654 47.3074 42.692 47.7808 42.692 48.3647V57.6545C42.692 58.2384 43.1654 58.7119 43.7493 58.7119H44.7659C42.2426 62.0631 40.7449 66.228 40.7449 70.7364C40.7449 74.8358 41.9837 78.651 44.1052 81.829C44.083 81.9142 44.0676 82.0018 44.0676 82.094V94.5577C44.0676 97.4655 46.4331 99.8312 49.3409 99.8312H94.501C97.4088 99.8312 99.7743 97.4655 99.7743 94.5577V80.9431C99.7743 80.3592 99.3008 79.8858 98.7169 79.8858C98.1331 79.8858 97.6596 80.3592 97.6596 80.9431V94.5577C97.6596 96.2994 96.2427 97.7165 94.501 97.7165H49.3415C47.5998 97.7165 46.1829 96.2994 46.1829 94.5577V84.4421C49.8389 88.3324 55.0274 90.7664 60.7745 90.7664C63.5442 90.7664 66.1935 90.1779 68.6066 89.1239H85.6769C86.2608 89.1239 86.7343 88.6504 86.7343 88.0666C86.7343 87.4827 86.2608 87.0092 85.6769 87.0092H72.3154C74.6474 85.3326 76.6172 83.1737 78.07 80.6917H89.8928C90.4767 80.6917 90.9502 80.2182 90.9502 79.6343C90.9502 79.0504 90.4767 78.577 89.8928 78.577H79.1464C80.3013 75.9357 80.9006 73.0186 80.7879 69.9844H98.7176C99.3015 69.9846 99.7749 69.5111 99.7749 68.9273ZM44.8073 49.4221H51.9819V52.7354C51.927 52.7623 51.8739 52.7919 51.8191 52.8192V52.8236C49.9622 53.7558 48.2695 54.9684 46.7966 56.4055V56.3941C46.7269 56.4616 46.6564 56.528 46.5877 56.5969H44.8073V49.4221ZM60.7743 88.6519C50.8965 88.6519 42.8601 80.6151 42.8601 70.7366C42.8601 60.8581 50.8962 52.8213 60.7743 52.8213C70.6524 52.8213 78.6886 60.8581 78.6886 70.7366C78.6886 80.6151 70.6524 88.6519 60.7743 88.6519Z" fill="#9A81E0"/>
<path d="M57.5157 26.2147H52.6136V23.2987C52.6136 20.7397 50.5317 18.658 47.9726 18.658C45.4136 18.658 43.3319 20.7399 43.3319 23.2987V26.2147H35.7499V23.2987C35.7499 20.7397 33.668 18.658 31.109 18.658C28.5499 18.658 26.4682 20.7399 26.4682 23.2987V26.2147H18.8865V23.2987C18.8865 20.7397 16.8045 18.658 14.2457 18.658C11.6867 18.658 9.60474 20.7399 9.60474 23.2987V26.2147H4.7026C2.25967 26.2147 0.272461 28.2021 0.272461 30.6451V95.4011C0.272461 97.8441 2.25967 99.8315 4.7026 99.8315H32.4776C33.0615 99.8315 33.535 99.358 33.535 98.7741C33.535 98.1902 33.0615 97.7168 32.4776 97.7168H4.7026C3.42594 97.7168 2.38719 96.678 2.38719 95.4011V41.0231H60.8885C61.4724 41.0231 61.9459 40.5496 61.9459 39.9657V30.6451C61.9459 28.2021 59.9585 26.2147 57.5157 26.2147ZM45.4466 23.2987C45.4466 21.906 46.5799 20.7727 47.9728 20.7727C49.3656 20.7727 50.4989 21.906 50.4989 23.2987V31.2457C50.4989 32.6384 49.3656 33.7717 47.9728 33.7717H47.9726C46.5799 33.7717 45.4466 32.6384 45.4466 31.2457V23.2987ZM28.5831 23.2987C28.5831 21.906 29.7164 20.7727 31.1092 20.7727C32.5021 20.7727 33.6354 21.906 33.6354 23.2987V31.2457C33.6354 32.6384 32.5021 33.7717 31.1092 33.7717C29.7164 33.7717 28.5831 32.6384 28.5831 31.2457V23.2987ZM11.7193 23.2987C11.7193 21.906 12.8525 20.7727 14.2455 20.7727C15.6383 20.7727 16.7715 21.906 16.7715 23.2987V31.2457C16.7715 32.6384 15.6383 33.7717 14.2455 33.7717C12.8525 33.7717 11.7193 32.6384 11.7193 31.2457V23.2987Z" fill="#9A81E0"/>
</g>
<defs>
<clipPath id="clip0_1539_2650">
<rect width="99.815" height="99.815" fill="white" transform="translate(0.272461 0.323242)"/>
</clipPath>
</defs>
</svg>
