<svg width="92" height="92" viewBox="0 0 92 92" fill="none" xmlns="http://www.w3.org/2000/svg">
<g clip-path="url(#clip0_1539_2716)">
<path d="M14.9044 73.317C15.253 72.9302 15.7658 72.4946 16.444 72.0099C17.121 71.5261 17.8575 71.0425 18.6515 70.5576C19.4449 70.0738 20.249 69.599 21.0624 69.1344C21.876 68.6696 22.5729 68.2629 23.1537 67.9145C24.0053 67.4116 24.8386 66.8597 25.6518 66.259C26.4653 65.6588 27.2003 64.9618 27.8594 64.1677C28.5175 63.3743 29.0504 62.4741 29.4568 61.4664C29.8636 60.4596 30.0667 59.3167 30.0667 58.0388C30.0667 54.9408 28.9532 52.4819 26.7265 50.6609C24.4989 48.8411 21.2948 47.9304 17.1122 47.9304C15.4075 47.9304 13.7719 48.0858 12.2032 48.3952C10.6348 48.7057 9.19145 49.1215 7.87526 49.6443C6.55799 50.1673 5.37715 50.758 4.3315 51.4162C3.28585 52.0751 2.45274 52.7522 1.83358 53.4493L7.75905 60.3042C8.88187 59.0261 10.0437 57.9905 11.2446 57.1962C12.4448 56.4031 13.8587 56.0054 15.4854 56.0054C16.9178 56.0054 18.0216 56.3348 18.7967 56.993C19.571 57.6521 19.9586 58.5234 19.9586 59.6071C19.9586 60.1498 19.8034 60.6236 19.494 61.0304C19.1835 61.437 18.6707 61.8927 17.9543 62.3955C17.2372 62.8993 16.2695 63.4802 15.0496 64.1384C13.8297 64.7974 12.3092 65.6297 10.4892 66.6363C8.78465 67.6048 7.37141 68.5924 6.24841 69.5988C5.12469 70.6065 4.2341 71.7002 3.57627 72.8814C2.91737 74.0631 2.45274 75.3703 2.18201 76.8027C1.91057 78.236 1.77539 79.8627 1.77539 81.6825H30.7059V73.317H14.9044Z" fill="#9A81E0"/>
<path d="M59.5189 72.7359V48.5112H53.1868L34.2485 72.7941V81.1015H50.2241V89.0603H59.5189V81.1015H64.6311V72.7359H59.5189ZM51.3277 72.7361H43.4272L51.3277 62.4536V72.7361Z" fill="#9A81E0"/>
<path d="M7.18011 83.8052V86.9153H3.97978V83.8052H2.125V91.8345H3.97978V88.5436H7.18011V91.8345H9.03489V83.8052H7.18011Z" fill="#9A81E0"/>
<path d="M19.5066 86.3496C19.3185 85.8597 19.051 85.4223 18.7041 85.0379C18.3571 84.6533 17.9389 84.3446 17.4488 84.1106C16.9586 83.8769 16.4159 83.76 15.8202 83.76C15.2397 83.76 14.7043 83.8714 14.2143 84.0936C13.7241 84.3161 13.3001 84.6139 12.9418 84.9869C12.5837 85.36 12.3045 85.7919 12.1049 86.2819C11.9049 86.7722 11.8052 87.281 11.8052 87.8087C11.8052 88.3288 11.9013 88.8341 12.0936 89.324C12.2859 89.8142 12.5552 90.2497 12.902 90.6301C13.2489 91.0108 13.6673 91.3182 14.1574 91.5517C14.6474 91.7854 15.1901 91.9023 15.786 91.9023C16.3665 91.9023 16.9016 91.7893 17.3919 91.5628C17.8819 91.3369 18.3041 91.0369 18.6585 90.664C19.013 90.2908 19.2898 89.859 19.4896 89.3689C19.6895 88.8789 19.7894 88.37 19.7894 87.8422C19.7894 87.3374 19.695 86.8397 19.5066 86.3496ZM17.7711 88.6964C17.6843 88.9868 17.5543 89.2468 17.3808 89.4767C17.2075 89.7068 16.9887 89.8934 16.7251 90.0368C16.461 90.1798 16.152 90.2516 15.7976 90.2516C15.4583 90.2516 15.1568 90.1838 14.8929 90.0482C14.6288 89.9125 14.4084 89.7313 14.2313 89.5054C14.0542 89.2794 13.9205 89.021 13.8299 88.7308C13.7393 88.4405 13.6942 88.141 13.6942 87.8318C13.6942 87.5303 13.7375 87.2343 13.8243 86.9439C13.9112 86.6538 14.0428 86.3954 14.22 86.1693C14.3973 85.9432 14.6157 85.7604 14.8759 85.6209C15.136 85.4814 15.4433 85.4116 15.7974 85.4116C16.1367 85.4116 16.4363 85.4776 16.6965 85.6096C16.9564 85.7416 17.177 85.919 17.3579 86.141C17.5387 86.3636 17.6746 86.62 17.765 86.91C17.8554 87.2003 17.9007 87.5002 17.9007 87.809C17.9013 88.1104 17.8578 88.4064 17.7711 88.6964Z" fill="#9A81E0"/>
<path d="M27.7183 83.8054V87.9102H27.7177C27.7177 88.2044 27.6894 88.4927 27.6329 88.7754C27.5763 89.0581 27.4801 89.3088 27.3446 89.5274C27.2089 89.746 27.0316 89.9215 26.813 90.0533C26.5945 90.1854 26.3267 90.2513 26.0101 90.2513C25.6934 90.2513 25.4277 90.1872 25.2128 90.059C24.9978 89.931 24.8225 89.7573 24.6869 89.5387C24.5512 89.3204 24.4531 89.0714 24.3928 88.7924C24.3323 88.5135 24.3024 88.2196 24.3024 87.9102V83.8052H22.4478V87.9102C22.4478 88.4381 22.5136 88.9432 22.6456 89.4255C22.7776 89.9083 22.9851 90.3321 23.2678 90.6981C23.5505 91.064 23.9181 91.3559 24.3704 91.5743C24.8228 91.7929 25.3693 91.9023 26.0103 91.9023C26.6284 91.9023 27.1618 91.7988 27.6107 91.5913C28.059 91.384 28.4286 91.0993 28.7188 90.7376C29.009 90.3756 29.2239 89.9536 29.3635 89.471C29.503 88.9887 29.5729 88.4683 29.5729 87.9104V83.8054H27.7183Z" fill="#9A81E0"/>
<path d="M37.6353 88.8492C37.8387 88.736 38.0215 88.5985 38.1839 88.4363C38.3459 88.2741 38.4834 88.0913 38.5966 87.8879C38.7096 87.6843 38.7964 87.4675 38.8567 87.2374C38.9169 87.0075 38.9472 86.7681 38.9472 86.5194C38.9472 86.1874 38.8811 85.8596 38.7491 85.5353C38.6172 85.2113 38.4344 84.921 38.2007 84.6648C37.9669 84.4086 37.6899 84.2011 37.3696 84.0426C37.0491 83.8845 36.7004 83.8052 36.3235 83.8052H32.7046V91.8347H34.5592V89.2449H35.7692L37.3072 91.8347H39.3993L37.6353 88.8492ZM36.8211 87.3167C36.6628 87.5242 36.4741 87.6277 36.2557 87.6277H34.5594V85.4338H36.1993C36.41 85.4338 36.6064 85.5319 36.7873 85.728C36.9681 85.9241 37.0587 86.188 37.0587 86.5198C37.0585 86.8437 36.9794 87.1095 36.8211 87.3167Z" fill="#9A81E0"/>
<path d="M47.6724 88.5208C47.5553 88.2574 47.3896 88.0331 47.1748 87.8483C46.9597 87.6635 46.6978 87.5088 46.3887 87.3846C46.0793 87.2601 45.7329 87.1453 45.3483 87.0395C45.0691 86.9643 44.8242 86.8965 44.6133 86.8361C44.4022 86.776 44.2269 86.7099 44.0874 86.6381C43.9478 86.5665 43.8423 86.4854 43.7707 86.3949C43.6987 86.3045 43.6631 86.1915 43.6631 86.0556C43.6631 85.6109 43.9949 85.3883 44.6582 85.3883C44.8992 85.3883 45.1408 85.4223 45.3821 85.4902C45.6231 85.5581 45.8457 85.6374 46.0494 85.7276C46.2528 85.818 46.4224 85.9051 46.5583 85.9878C46.6938 86.0709 46.7732 86.1274 46.7957 86.1575L47.61 84.6195C47.4292 84.514 47.2312 84.4087 47.0163 84.3027C46.8015 84.1973 46.5696 84.1029 46.3207 84.02C46.072 83.9371 45.8118 83.8694 45.5404 83.8166C45.269 83.764 44.9938 83.7373 44.715 83.7373C44.3152 83.7373 43.9365 83.7941 43.5786 83.907C43.2205 84.02 42.9055 84.188 42.6344 84.4102C42.363 84.6327 42.1481 84.9061 41.9897 85.2302C41.8314 85.5547 41.7523 85.9278 41.7523 86.35C41.7523 86.6517 41.7954 86.9154 41.8822 87.1416C41.9691 87.3677 42.1007 87.5675 42.2779 87.741C42.4552 87.9145 42.6794 88.0673 42.951 88.199C43.2224 88.3312 43.5429 88.4535 43.9123 88.5668C44.1913 88.6497 44.4495 88.7249 44.6869 88.7928C44.9245 88.8606 45.1298 88.9342 45.3032 89.0134C45.4763 89.0925 45.6124 89.1811 45.7103 89.2791C45.8081 89.377 45.8575 89.5015 45.8575 89.6522C45.8575 90.0519 45.5295 90.2517 44.8736 90.2517C44.5642 90.2517 44.259 90.2101 43.9574 90.1272C43.6559 90.0443 43.3823 89.95 43.1374 89.8445C42.8923 89.7391 42.6867 89.6336 42.5211 89.5276C42.3553 89.4223 42.2572 89.3505 42.2269 89.3127L41.4126 90.9299C41.6463 91.088 41.9007 91.2277 42.1759 91.3482C42.4511 91.4689 42.736 91.5725 43.0298 91.6592C43.3238 91.7458 43.6251 91.8119 43.9345 91.857C44.2437 91.9023 44.5451 91.9249 44.8393 91.9249C45.2238 91.9249 45.597 91.8814 45.959 91.7947C46.3209 91.7081 46.6412 91.5686 46.9203 91.3765C47.1993 91.1842 47.4235 90.9317 47.5932 90.6187C47.7629 90.3059 47.8476 89.9231 47.8476 89.4708C47.8475 89.1015 47.7893 88.7849 47.6724 88.5208Z" fill="#9A81E0"/>
<path d="M51.4889 43.5541C50.9842 41.5521 49.4053 39.9731 47.4034 39.4685V14.7661H44.6512V39.4687C42.2086 40.0845 40.395 42.2993 40.395 44.9303C40.395 48.0361 42.9218 50.5624 46.0272 50.5624C48.6583 50.5624 50.873 48.7487 51.4888 46.3063H67.8636V43.5541H51.4889ZM46.0274 47.8103C44.4394 47.8103 43.1474 46.5182 43.1474 44.9303C43.1474 43.3423 44.4394 42.0502 46.0274 42.0502C47.6154 42.0502 48.9074 43.3423 48.9074 44.9303C48.9074 46.5182 47.6154 47.8103 46.0274 47.8103Z" fill="#9A81E0"/>
<path d="M85.6957 65.5062C88.9732 59.2001 90.7059 52.0848 90.7059 44.9302C90.7059 32.9961 86.0585 21.7763 77.62 13.3374C69.1811 4.89912 57.9613 0.251709 46.0273 0.251709C34.0932 0.251709 22.8733 4.89912 14.4345 13.3376C5.99605 21.7763 1.34863 32.9963 1.34863 44.9303V46.3065H9.75681V43.5543H4.12301C4.34252 36.7789 6.17904 30.406 9.25583 24.8066L14.0986 27.6674L15.4984 25.2979L10.658 22.4383C13.9761 17.2385 18.4096 12.8174 23.6174 9.51073L26.465 14.3563L28.8378 12.9619L25.9884 8.11306C31.5672 5.06456 37.9102 3.24721 44.6513 3.02877V8.65988H47.4034V3.02877C54.1783 3.24846 60.5519 5.08211 66.1512 8.15872L63.2902 13.0017L65.6595 14.4015L68.5184 9.56194C73.718 12.8801 78.1398 17.3128 81.4465 22.5205L76.6007 25.3679L77.9951 27.7407L82.8458 24.8906C85.8945 30.4694 87.71 36.8133 87.9286 43.5543H82.2977V46.3065H87.929C87.7091 52.9258 85.9106 59.3426 82.7892 65.0485L77.9558 62.1932L76.5559 64.5628L81.3878 67.4172C79.1532 70.9366 76.3912 74.1341 73.1705 76.878L73.5425 73.5233L70.8072 73.2198L69.9155 81.2581L77.9538 82.1498L78.2573 79.4144L74.8768 79.0393C79.3128 75.278 83.0209 70.6532 85.6957 65.5062Z" fill="#9A81E0"/>
</g>
<defs>
<clipPath id="clip0_1539_2716">
<rect width="91.6731" height="91.6731" fill="white" transform="translate(0.190918 0.251709)"/>
</clipPath>
</defs>
</svg>
