<svg width="106" height="106" viewBox="0 0 106 106" fill="none" xmlns="http://www.w3.org/2000/svg">
<path d="M62.7104 100.218C60.4793 100.218 58.4857 98.5877 56.5493 97.0043C55.3662 96.0355 53.7443 94.7094 52.9613 94.7094C52.1795 94.7094 50.5576 96.0355 49.3745 97.0043C47.2533 98.7383 44.8474 100.71 42.1985 100.103C39.4649 99.4817 38.1267 96.6073 36.9457 94.0727C36.3563 92.8049 35.4634 90.8883 34.829 90.5815C34.156 90.2527 32.0668 90.7596 30.6846 91.0917C27.9938 91.7394 24.9458 92.4695 22.7905 90.7508C20.6276 89.0234 20.6661 85.8774 20.7024 83.1031C20.72 81.688 20.7464 79.5503 20.2912 78.9785C19.8414 78.4155 17.7599 77.9702 16.3821 77.6755C13.6573 77.0927 10.5718 76.4319 9.36224 73.9248C8.17027 71.4562 9.56126 68.6566 10.7862 66.1869C11.4229 64.907 12.3839 62.9706 12.2157 62.2283C12.064 61.5631 10.408 60.2776 9.31275 59.4265C7.09486 57.7068 4.58008 55.7539 4.58008 52.9301C4.58008 50.1063 7.09486 48.1546 9.31385 46.4326C10.4091 45.5826 12.0651 44.2972 12.2168 43.6308C12.385 42.8886 11.424 40.9522 10.7884 39.6711C9.56236 37.2014 8.17247 34.403 9.36553 31.9322C10.5751 29.4262 13.6606 28.7653 16.3843 28.1825C17.7621 27.8878 19.8436 27.4425 20.2923 26.8806C20.7497 26.3077 20.7233 24.169 20.7057 22.7538C20.6705 19.9795 20.632 16.8347 22.7938 15.1072C24.948 13.3874 27.9982 14.1198 30.6879 14.7663C32.0723 15.0984 34.1593 15.6009 34.8312 15.2776C35.4667 14.9708 36.3585 13.0553 36.949 11.7864C38.1289 9.25073 39.466 6.37747 42.1996 5.7562C44.8452 5.15582 47.2555 7.1197 49.3756 8.85487C50.5598 9.82362 52.1817 11.1497 52.9636 11.1497C53.7454 11.1497 55.3673 9.82362 56.5504 8.85597C58.6727 7.1197 61.0775 5.15142 63.7275 5.7562C66.46 6.37747 67.7982 9.25183 68.9792 11.7875C69.5697 13.0553 70.4615 14.9719 71.097 15.2787C71.7711 15.6031 73.857 15.0995 75.2392 14.7674C77.93 14.1209 80.9791 13.3885 83.1344 15.1083C85.2973 16.8358 85.2588 19.9806 85.2225 22.756C85.2049 24.1712 85.1785 26.3099 85.6337 26.8806C86.0835 27.4425 88.165 27.8889 89.5428 28.1836C92.2676 28.7664 95.3531 29.4262 96.5627 31.9333C97.7546 34.403 96.3636 37.2025 95.1387 39.6722C94.502 40.9533 93.541 42.8886 93.7092 43.6308C93.8609 44.2972 95.5169 45.5826 96.6121 46.4326C98.83 48.1546 101.345 50.1063 101.345 52.9301C101.345 55.7539 98.83 57.7057 96.611 59.4277C95.5158 60.2776 93.8598 61.562 93.7081 62.2305C93.5399 62.9728 94.5009 64.9081 95.1365 66.1891C96.3625 68.6588 97.7524 71.4573 96.5594 73.9281C95.3498 76.4341 92.2643 77.0949 89.5406 77.6766C88.1628 77.9724 86.0813 78.4177 85.6315 78.9796C85.1752 79.5525 85.2016 81.6912 85.2192 83.1064C85.2544 85.8796 85.2929 89.0245 83.1311 90.7519C80.9769 92.4717 77.9267 91.7383 75.237 91.0928C73.8526 90.7607 71.7656 90.256 71.0937 90.5826C70.4582 90.8883 69.5664 92.8049 68.9759 94.0727C67.796 96.6095 66.4589 99.4828 63.7253 100.104C63.3823 100.182 63.0436 100.218 62.7104 100.218ZM34.1483 86.083C35.0599 86.083 35.9341 86.2304 36.7401 86.6186C38.7886 87.606 39.8794 89.9492 40.9339 92.2155C41.4562 93.3371 42.5426 95.6705 43.1727 95.8134C43.7588 95.9168 45.6721 94.3476 46.5892 93.5977C48.5662 91.9813 50.6093 90.3099 52.9613 90.3099C55.3134 90.3099 57.3575 91.9824 59.3335 93.5977C60.2506 94.3476 62.1067 95.886 62.7522 95.8134C63.3801 95.6693 64.4676 93.3371 64.9888 92.2155C66.0422 89.9492 67.133 87.6082 69.1826 86.6186C71.2675 85.6124 73.8054 86.2249 76.263 86.8154C77.445 87.0991 79.9092 87.6918 80.3843 87.3135C80.867 86.9286 80.8351 84.3831 80.8197 83.1603C80.7878 80.64 80.7548 78.0351 82.1931 76.2339C83.6226 74.4438 86.1616 73.9006 88.6181 73.375C89.821 73.1177 92.3226 72.5822 92.5964 72.0159C92.8515 71.4848 91.7321 69.2284 91.1944 68.1442C90.0673 65.8735 88.9007 63.5248 89.4175 61.2552C89.9178 59.0538 91.9487 57.477 93.9115 55.9529C94.9737 55.1304 96.9464 53.5998 96.9464 52.9301C96.9464 52.2605 94.9737 50.7298 93.9137 49.9062C91.9498 48.3822 89.9189 46.8064 89.4186 44.604C88.9029 42.3344 90.0695 39.9856 91.1966 37.715C91.7343 36.6308 92.8548 34.3755 92.5986 33.8433C92.3248 33.2759 89.8232 32.7415 88.6214 32.4842C86.1649 31.9586 83.6248 31.4154 82.1953 29.6263C80.7581 27.8263 80.7911 25.2202 80.823 22.701C80.8384 21.4783 80.8703 18.9316 80.3876 18.5467C79.9147 18.1685 77.4494 18.7612 76.2652 19.0449C73.8087 19.6353 71.2708 20.2467 69.1848 19.2406C67.1363 18.252 66.0455 15.9099 64.991 13.6447C64.4687 12.5231 63.3834 10.1898 62.7522 10.0468C62.1474 9.94238 60.2517 11.5126 59.3346 12.2614C57.3586 13.8789 55.3156 15.5503 52.9636 15.5503C50.6115 15.5503 48.5685 13.8778 46.5914 12.2614C45.6743 11.5115 43.761 9.94897 43.1727 10.0457C42.5437 10.1887 41.4562 12.522 40.935 13.6436C39.8805 15.9088 38.7908 18.2509 36.7423 19.2395C34.6574 20.2445 32.1195 19.6353 29.6608 19.0438C28.4788 18.759 26.0124 18.1674 25.5395 18.5445C25.0568 18.9305 25.0887 21.4761 25.1041 22.6988C25.136 25.2191 25.169 27.8252 23.7307 29.6241C22.3012 31.4143 19.7622 31.9575 17.3057 32.4831C16.1028 32.7404 13.6012 33.2759 13.3274 33.8422C13.0723 34.3733 14.1917 36.6297 14.7294 37.7139C15.8565 39.9845 17.0231 42.3333 16.5063 44.6028C16.006 46.8042 13.9751 48.3811 12.0123 49.9051C10.9512 50.7298 8.97848 52.2605 8.97848 52.9301C8.97848 53.5998 10.9512 55.1315 12.0112 55.954C13.9751 57.4781 16.006 59.0527 16.5063 61.2552C17.022 63.5248 15.8554 65.8724 14.7283 68.1442C14.1906 69.2284 13.0701 71.4837 13.3263 72.0159C13.6001 72.5844 16.1017 73.1188 17.3046 73.3761C19.76 73.9017 22.3001 74.4449 23.7296 76.235C25.1668 78.0351 25.1338 80.64 25.1019 83.1603C25.0865 84.3831 25.0546 86.9297 25.5373 87.3146C26.0102 87.6874 28.4755 87.1002 29.6597 86.8154C31.1651 86.4525 32.7034 86.083 34.1483 86.083ZM39.1229 69.8793L69.9117 39.0906C70.7705 38.2318 70.7705 36.8397 69.9117 35.9809C69.0529 35.1221 67.6608 35.1221 66.802 35.9809L36.0132 66.7697C35.1544 67.6285 35.1544 69.0206 36.0132 69.8793C36.4432 70.3093 37.0051 70.5237 37.5681 70.5237C38.1311 70.5237 38.693 70.3093 39.1229 69.8793ZM41.9665 49.6313C37.7231 49.6313 34.2693 46.1786 34.2693 41.9341C34.2693 37.6897 37.7231 34.2369 41.9665 34.2369C46.2098 34.2369 49.6637 37.6897 49.6637 41.9341C49.6637 46.1786 46.2098 49.6313 41.9665 49.6313ZM41.9665 38.6353C40.1477 38.6353 38.6677 40.1154 38.6677 41.9341C38.6677 43.7529 40.1477 45.2329 41.9665 45.2329C43.7852 45.2329 45.2653 43.7529 45.2653 41.9341C45.2653 40.1154 43.7852 38.6353 41.9665 38.6353ZM63.9584 71.6233C59.7151 71.6233 56.2612 68.1695 56.2612 63.9261C56.2612 59.6828 59.7151 56.2289 63.9584 56.2289C68.2018 56.2289 71.6556 59.6828 71.6556 63.9261C71.6556 68.1695 68.2018 71.6233 63.9584 71.6233ZM63.9584 60.6273C62.1397 60.6273 60.6596 62.1074 60.6596 63.9261C60.6596 65.7448 62.1397 67.2249 63.9584 67.2249C65.7772 67.2249 67.2572 65.7448 67.2572 63.9261C67.2572 62.1074 65.7772 60.6273 63.9584 60.6273Z" fill="#9A81E0"/>
</svg>
