<svg width="109" height="109" viewBox="0 0 109 109" fill="none" xmlns="http://www.w3.org/2000/svg">
<path d="M102.076 90.341C102.15 92.008 102.188 93.7015 102.188 95.375C102.185 96.8961 101.675 98.3728 100.738 99.5708C99.8008 100.769 98.4901 101.619 97.0143 101.987L95.4348 56.2032H97.6276L100.958 78.6844C101.367 81.4484 101.677 84.2485 101.879 87.0065L105.276 86.7581C105.068 83.9166 104.749 81.0313 104.328 78.1854L99.6249 46.4389C99.3152 44.4232 98.2967 42.5841 96.7525 41.2521C95.2082 39.92 93.2395 39.1825 91.2002 39.1719H83.4531V23.8438C83.4527 20.4185 82.5914 17.0482 80.9484 14.0426C79.3055 11.037 76.9336 8.49245 74.0506 6.64277C71.1676 4.79309 67.8661 3.69758 64.4492 3.45688C61.0323 3.21618 57.6098 3.83802 54.496 5.26526C51.3826 3.83793 47.9605 3.21605 44.544 3.4568C41.1276 3.69754 37.8265 4.79317 34.9441 6.643C32.0617 8.49282 29.6905 11.0375 28.0484 14.0431C26.4064 17.0487 25.5462 20.4189 25.5469 23.8438V39.1719H17.7998C15.7603 39.1825 13.7915 39.9201 12.2472 41.2523C10.703 42.5845 9.68448 44.4237 9.37485 46.4396L8.21758 54.2505L11.5872 54.7496L12.7441 46.9392C12.9299 45.7296 13.5412 44.6259 14.4679 43.8266C15.3946 43.0272 16.576 42.5845 17.7998 42.5782H25.5469V47.1719L22.4268 51.8521C22.2402 52.1319 22.1406 52.4606 22.1406 52.7969V71.5313H20.4375C20.08 71.5313 19.7316 71.6437 19.4416 71.8527C19.1516 72.0617 18.9347 72.3567 18.8217 72.6958L17.1185 77.8052C17.0608 77.9789 17.0313 78.1607 17.0312 78.3438V85.1563C17.0312 85.608 17.2107 86.0412 17.5301 86.3606C17.8495 86.68 18.2827 86.8594 18.7344 86.8594H28.9531C29.4048 86.8594 29.838 86.68 30.1574 86.3606C30.4768 86.0412 30.6562 85.608 30.6562 85.1563V78.3438C30.6562 78.1607 30.6267 77.9789 30.569 77.8052L28.8658 72.6958C28.7528 72.3567 28.5359 72.0617 28.2459 71.8527C27.9559 71.6437 27.6075 71.5313 27.25 71.5313H25.5469V63.0157H37.4688C37.9204 63.0157 38.3536 62.8362 38.673 62.5168C38.9924 62.1974 39.1719 61.7642 39.1719 61.3125V52.7969C39.1719 52.4606 39.0723 52.1319 38.8857 51.8521L35.7656 47.1719V42.5782H56.2031V47.1719L53.083 51.8521C52.8964 52.1319 52.7969 52.4606 52.7969 52.7969V61.3125C52.7969 61.7642 52.9763 62.1974 53.2957 62.5168C53.6151 62.8362 54.0483 63.0157 54.5 63.0157H68.125C68.5767 63.0157 69.0099 62.8362 69.3293 62.5168C69.6487 62.1974 69.8281 61.7642 69.8281 61.3125V52.7969C69.8281 52.4606 69.7286 52.1319 69.542 51.8521L66.4219 47.1719V42.5782H82.5347C81.6759 43.7079 81.1161 45.036 80.907 46.4396L76.2038 78.1863C75.3621 83.8772 74.9388 89.6222 74.9375 95.375C74.9358 97.8904 75.8657 100.317 77.5478 102.188H13.625C11.8185 102.187 10.0862 101.469 8.80877 100.191C7.53136 98.9139 6.81335 97.1816 6.8125 95.375C6.81383 89.7889 7.22467 84.2104 8.04173 78.6844L11.0829 58.1552L7.71303 57.6568L4.6721 78.1858C3.83086 83.877 3.40778 89.6221 3.40625 95.375C3.40693 98.085 4.48376 100.684 6.4 102.6C8.31624 104.516 10.915 105.593 13.625 105.594H95.375C98.0842 105.591 100.682 104.513 102.597 102.597C104.513 100.682 105.591 98.0843 105.594 95.375C105.594 93.6506 105.555 91.9068 105.479 90.1903L102.076 90.341ZM26.0225 74.9375L27.25 78.6205V83.4532H20.4375V78.6205L21.665 74.9375H26.0225ZM42.5781 23.8438V39.1719H35.7656V23.8438C35.769 21.2519 36.756 18.7579 38.5273 16.8658C40.2986 14.9736 42.722 13.8242 45.308 13.65C43.5241 16.7515 42.583 20.2659 42.5781 23.8438ZM49.3906 23.8438V39.1719H45.9844V23.8438C45.9709 20.355 47.0432 16.9484 49.0528 14.0964C50.1552 14.4447 51.1904 14.9778 52.1141 15.6731C50.3407 18.0274 49.3844 20.8963 49.3906 23.8438ZM52.7969 39.1719V23.8438C52.7925 21.8352 53.384 19.8704 54.4964 18.1979C55.6111 19.8697 56.2051 21.8345 56.2031 23.8438V39.1719H52.7969ZM66.4219 59.6094H56.2031V54.5H59.6094V23.8438C59.6094 20.2302 58.1739 16.7647 55.6187 14.2095C53.0635 11.6543 49.5979 10.2188 45.9844 10.2188C42.3708 10.2188 38.9052 11.6543 36.35 14.2095C33.7949 16.7647 32.3594 20.2302 32.3594 23.8438V54.5H35.7656V59.6094H25.5469V54.5H28.9531V23.8438C28.9531 19.3268 30.7475 14.9949 33.9415 11.8009C37.1354 8.60691 41.4674 6.81255 45.9844 6.81255C50.5013 6.81255 54.8333 8.60691 58.0273 11.8009C61.2213 14.9949 63.0156 19.3268 63.0156 23.8438V54.5H66.4219V59.6094ZM73.2344 39.1719H66.4219V23.8438C66.4263 20.2647 65.4849 16.748 63.693 13.6497C66.2804 13.8203 68.706 14.9685 70.4778 16.8616C72.2497 18.7547 73.2352 21.2509 73.2344 23.8438V39.1719ZM80.0469 39.1719H76.6406V23.8438C76.6408 22.0545 76.2885 20.2827 75.6039 18.6295C74.9192 16.9764 73.9156 15.4743 72.6504 14.209C71.3852 12.9438 69.8831 11.9402 68.2299 11.2555C66.5768 10.5709 64.8049 10.2186 63.0156 10.2188C62.4429 10.2203 61.8709 10.2577 61.3029 10.3308C60.3779 9.28291 59.3487 8.3318 58.2313 7.49209C60.7705 6.75291 63.4469 6.61454 66.0488 7.08791C68.6507 7.56128 71.1068 8.63342 73.2229 10.2196C75.3391 11.8057 77.0572 13.8624 78.2416 16.2269C79.4259 18.5915 80.044 21.1992 80.0469 23.8438V39.1719ZM83.517 101.987C82.0411 101.619 80.7305 100.769 79.7932 99.5708C78.8559 98.3728 78.3458 96.8961 78.3438 95.375C78.345 89.7889 78.756 84.2104 79.5734 78.6844L82.9041 56.2032H85.0969L83.517 101.987ZM86.9184 102.188L88.504 56.2032H92.0256L93.6112 102.188H86.9184ZM83.4088 52.7969L84.2766 46.9388C84.462 45.7293 85.0728 44.6256 85.9993 43.8263C86.9257 43.0269 88.107 42.5844 89.3306 42.5782H91.2002C92.4239 42.5845 93.6051 43.0271 94.5317 43.8263C95.4583 44.6255 96.0695 45.7289 96.2555 46.9384L97.1233 52.7969H83.4088Z" fill="#9A81E0"/>
</svg>
