<svg width="96" height="96" viewBox="0 0 96 96" fill="none" xmlns="http://www.w3.org/2000/svg">
<path d="M76.1988 0H19.8014C15.2855 0 11.6113 3.67413 11.6113 8.19006V84.4924C11.6113 86.6355 13.0026 88.4585 14.9288 89.1091V91.1274C14.9288 93.8142 17.1146 96 19.8014 96H76.1988C78.8856 96 81.0714 93.8142 81.0714 91.1274V89.1091C82.9976 88.4585 84.3889 86.6355 84.3889 84.4924V8.19006C84.3889 3.67413 80.7147 0 76.1988 0ZM19.8014 3.11015H76.1988C79 3.11015 81.2787 5.38906 81.2787 8.19006V19.905H14.7215V8.19006C14.7215 5.38906 17.0002 3.11015 19.8014 3.11015ZM76.1988 92.8898H19.8014C18.8296 92.8898 18.039 92.0993 18.039 91.1274V89.365H77.9612V91.1274C77.9612 92.0993 77.1706 92.8898 76.1988 92.8898ZM79.5163 86.2549H16.4839C15.5121 86.2549 14.7215 85.4643 14.7215 84.4924V23.0151H81.2787V84.4924C81.2787 85.4643 80.4881 86.2549 79.5163 86.2549Z" fill="#9A81E0"/>
<path d="M48.0002 28.1982C33.4232 28.1982 21.564 40.0575 21.564 54.6345C21.564 69.2116 33.4232 81.0708 48.0002 81.0708C62.5773 81.0708 74.4365 69.2116 74.4365 54.6345C74.4365 40.0575 62.5773 28.1982 48.0002 28.1982ZM48.0002 77.9607C35.1383 77.9607 24.6741 67.4967 24.6741 54.6345C24.6741 41.7724 35.1383 31.3084 48.0002 31.3084C60.8622 31.3084 71.3264 41.7724 71.3264 54.6345C71.3264 67.4967 60.8622 77.9607 48.0002 77.9607Z" fill="#9A81E0"/>
<path d="M57.9526 16.3799C60.6394 16.3799 62.8252 14.1941 62.8252 11.5073C62.8252 8.82058 60.6394 6.63477 57.9526 6.63477C55.2659 6.63477 53.0801 8.82058 53.0801 11.5073C53.0801 14.1941 55.2659 16.3799 57.9526 16.3799ZM57.9526 9.74492C58.9245 9.74492 59.7151 10.5355 59.7151 11.5073C59.7151 12.4792 58.9245 13.2698 57.9526 13.2698C56.9808 13.2698 56.1902 12.4792 56.1902 11.5073C56.1902 10.5355 56.9808 9.74492 57.9526 9.74492Z" fill="#9A81E0"/>
<path d="M71.2227 16.3799C73.9094 16.3799 76.0952 14.1941 76.0952 11.5073C76.0952 8.82058 73.9094 6.63477 71.2227 6.63477C68.5359 6.63477 66.3501 8.82058 66.3501 11.5073C66.3501 14.1941 68.5359 16.3799 71.2227 16.3799ZM71.2227 9.74492C72.1945 9.74492 72.9851 10.5355 72.9851 11.5073C72.9851 12.4792 72.1945 13.2698 71.2227 13.2698C70.2508 13.2698 69.4602 12.4792 69.4602 11.5073C69.4602 10.5355 70.2508 9.74492 71.2227 9.74492Z" fill="#9A81E0"/>
<path d="M23.1191 16.3799H44.6828C46.455 16.3799 47.8966 14.9382 47.8966 13.1661V9.84859C47.8966 8.07642 46.455 6.63477 44.6828 6.63477H23.1191C21.3469 6.63477 19.9053 8.07642 19.9053 9.84859V13.1661C19.9053 14.9382 21.3469 16.3799 23.1191 16.3799ZM23.0154 9.84859C23.0154 9.79136 23.0621 9.74492 23.1191 9.74492H44.6828C44.7398 9.74492 44.7865 9.79136 44.7865 9.84859V13.1661C44.7865 13.2233 44.7398 13.2698 44.6828 13.2698H23.1191C23.0621 13.2698 23.0154 13.2233 23.0154 13.1661V9.84859Z" fill="#9A81E0"/>
<path d="M48 34.834C37.0815 34.834 28.1987 43.7168 28.1987 54.6353C28.1987 65.5538 37.0815 74.4366 48 74.4366C58.9185 74.4366 67.8013 65.5538 67.8013 54.6353C67.8013 43.7168 58.9185 34.834 48 34.834ZM48 71.3264C38.7965 71.3264 31.3089 63.8388 31.3089 54.6353C31.3089 45.4317 38.7965 37.9441 48 37.9441C57.2036 37.9441 64.6912 45.4317 64.6912 54.6353C64.6912 63.8388 57.2036 71.3264 48 71.3264Z" fill="#9A81E0"/>
<path d="M47.9999 41.4688C47.1409 41.4688 46.4448 42.165 46.4448 43.0238C46.4448 43.8826 47.1409 44.5789 47.9999 44.5789C53.5449 44.5789 58.0561 49.0901 58.0561 54.6351C58.0561 55.4939 58.7521 56.1901 59.6111 56.1901C60.4702 56.1901 61.1662 55.4939 61.1662 54.6351C61.1662 47.3751 55.2598 41.4688 47.9999 41.4688Z" fill="#9A81E0"/>
</svg>
