<svg width="110" height="110" viewBox="0 0 110 110" fill="none" xmlns="http://www.w3.org/2000/svg">
<path fill-rule="evenodd" clip-rule="evenodd" d="M18.5183 5.32753L18.5132 5.32859C18.2927 5.37329 18.0916 5.47188 17.9247 5.61026C17.7575 5.74842 17.6229 5.92736 17.5378 6.13577L17.5358 6.1405C17.5004 6.22795 17.4739 6.31969 17.4574 6.41506L2.12295 86.8575L2.12166 86.8646L2.12038 86.8702L2.11888 86.8783L2.11737 86.8867L2.11587 86.8949L2.11437 86.9033L2.11286 86.9115L2.11158 86.9199L2.1103 86.9283L2.10901 86.9367L2.10795 86.9448L2.10667 86.9532L2.1056 86.9616L2.10454 86.9702L2.1037 86.9786L2.10263 86.987L2.10179 86.9954L2.10095 87.004L2.10073 87.0063C2.096 87.0568 2.09405 87.1069 2.09493 87.1567V97.9481C2.09493 101.674 5.11971 104.699 8.84552 104.699H101.155C104.881 104.699 107.905 101.674 107.905 97.9481V87.1566C107.906 87.1067 107.904 87.0566 107.9 87.0061C107.895 86.9557 107.887 86.9061 107.877 86.8575L92.5428 6.41506C92.5262 6.31965 92.4998 6.22773 92.4643 6.1405L92.4624 6.13577C92.3773 5.92736 92.2426 5.74842 92.0754 5.61026C91.9083 5.47192 91.7074 5.37329 91.487 5.32859L91.4818 5.32753C91.3894 5.30905 91.294 5.30025 91.1973 5.30197H18.8028C18.7059 5.30025 18.6107 5.30905 18.5183 5.32753ZM105.22 88.4753H4.78036V97.948C4.78036 100.192 6.60182 102.013 8.84541 102.013H101.155C103.398 102.013 105.22 100.192 105.22 97.948L105.22 88.4753ZM19.8916 7.98751L5.06053 85.7897H104.94L90.1086 7.98751H19.8916ZM88.2774 72.1046L86.887 70.7143C86.363 70.1901 85.5122 70.1901 84.9882 70.7143C84.464 71.2383 84.464 72.0891 84.9882 72.6131L86.3784 74.0036L84.9882 75.3939C84.464 75.9179 84.464 76.7689 84.9882 77.2929C85.5122 77.8169 86.363 77.8169 86.887 77.2929L88.2774 75.9026L89.6677 77.2929C90.1917 77.8169 91.0427 77.8169 91.5667 77.2929C92.0907 76.7689 92.0907 75.9179 91.5667 75.3939L90.1764 74.0036L91.5667 72.6131C92.0907 72.0891 92.0907 71.2383 91.5667 70.7143C91.0427 70.1901 90.1917 70.1901 89.6677 70.7143L88.2774 72.1046ZM19.8628 72.1046L18.4724 70.7143C17.9484 70.1901 17.0976 70.1901 16.5736 70.7143C16.0493 71.2383 16.0493 72.0891 16.5736 72.6131L17.9638 74.0036L16.5736 75.3939C16.0493 75.9179 16.0493 76.7689 16.5736 77.2929C17.0976 77.8169 17.9484 77.8169 18.4724 77.2929L19.8628 75.9026L21.2531 77.2929C21.7771 77.8169 22.6281 77.8169 23.1521 77.2929C23.6761 76.7689 23.6761 75.9179 23.1521 75.3939L21.7618 74.0036L23.1521 72.6131C23.6761 72.0891 23.6761 71.2383 23.1521 70.7143C22.6281 70.1901 21.7771 70.1901 21.2531 70.7143L19.8628 72.1046ZM54.07 72.1046L52.6798 70.7143C52.1558 70.1901 51.3048 70.1901 50.7808 70.7143C50.2568 71.2383 50.2568 72.0891 50.7808 72.6131L52.171 74.0036L50.7808 75.3939C50.2568 75.9179 50.2568 76.7689 50.7808 77.2929C51.3048 77.8169 52.1558 77.8169 52.6798 77.2929L54.07 75.9026L55.4605 77.2929C55.9845 77.8169 56.8353 77.8169 57.3593 77.2929C57.8835 76.7689 57.8835 75.9179 57.3593 75.3939L55.969 74.0036L57.3593 72.6131C57.8835 72.0891 57.8835 71.2383 57.3593 70.7143C56.8353 70.1901 55.9845 70.1901 55.4605 70.7143L54.07 72.1046ZM83.2469 44.6884L81.8566 43.2982C81.3326 42.7742 80.4816 42.7742 79.9576 43.2982C79.4336 43.8222 79.4336 44.6729 79.9576 45.1972L81.3479 46.5874L79.9576 47.9777C79.4336 48.5017 79.4336 49.3527 79.9576 49.8767C80.4816 50.4007 81.3326 50.4007 81.8566 49.8767L83.2469 48.4864L84.6371 49.8767C85.1614 50.4007 86.0121 50.4007 86.5361 49.8767C87.0601 49.3527 87.0601 48.5017 86.5361 47.9777L85.1459 46.5874L86.5361 45.1972C87.0601 44.6729 87.0601 43.8222 86.5361 43.2982C86.0121 42.7742 85.1614 42.7742 84.6371 43.2982L83.2469 44.6884ZM54.07 44.6884L52.6798 43.2982C52.1558 42.7742 51.3048 42.7742 50.7808 43.2982C50.2568 43.8222 50.2568 44.6729 50.7808 45.1972L52.171 46.5874L50.7808 47.9777C50.2568 48.5017 50.2568 49.3527 50.7808 49.8767C51.3048 50.4007 52.1558 50.4007 52.6798 49.8767L54.07 48.4864L55.4605 49.8767C55.9845 50.4007 56.8353 50.4007 57.3593 49.8767C57.8835 49.3527 57.8835 48.5017 57.3593 47.9777L55.969 46.5874L57.3593 45.1972C57.8835 44.6729 57.8835 43.8222 57.3593 43.2982C56.8353 42.7742 55.9845 42.7742 55.4605 43.2982L54.07 44.6884ZM24.8932 44.6884L23.5029 43.2982C22.9789 42.7742 22.1279 42.7742 21.6039 43.2982C21.0799 43.8222 21.0799 44.6729 21.6039 45.1972L22.9944 46.5874L21.6039 47.9777C21.0799 48.5017 21.0799 49.3527 21.6039 49.8767C22.1279 50.4007 22.9789 50.4007 23.5029 49.8767L24.8932 48.4864L26.2836 49.8767C26.8076 50.4007 27.6584 50.4007 28.1826 49.8767C28.7066 49.3527 28.7066 48.5017 28.1826 47.9777L26.7922 46.5874L28.1826 45.1972C28.7066 44.6729 28.7066 43.8222 28.1826 43.2982C27.6584 42.7742 26.8076 42.7742 26.2836 43.2982L24.8932 44.6884ZM78.8327 19.1712L77.4424 20.5617C76.9182 21.0857 76.9182 21.9365 77.4424 22.4605C77.9664 22.9847 78.8172 22.9847 79.3412 22.4605L80.7317 21.0702L82.1219 22.4605C82.646 22.9847 83.4969 22.9847 84.021 22.4605C84.545 21.9365 84.545 21.0857 84.021 20.5617L82.6307 19.1712L84.021 17.781C84.545 17.257 84.545 16.406 84.021 15.882C83.4969 15.3579 82.646 15.3579 82.1219 15.882L80.7317 17.2722L79.3412 15.882C78.8172 15.3579 77.9664 15.3579 77.4424 15.882C76.9182 16.406 76.9182 17.257 77.4424 17.781L78.8327 19.1712ZM54.07 17.2722L52.6798 15.882C52.1558 15.3579 51.3048 15.3579 50.7808 15.882C50.2568 16.406 50.2568 17.257 50.7808 17.781L52.171 19.1712L50.7808 20.5617C50.2568 21.0857 50.2568 21.9365 50.7808 22.4605C51.3048 22.9847 52.1558 22.9847 52.6798 22.4605L54.07 21.0702L55.4605 22.4605C55.9845 22.9847 56.8353 22.9847 57.3593 22.4605C57.8835 21.9365 57.8835 21.0857 57.3593 20.5617L55.969 19.1712L57.3593 17.781C57.8835 17.257 57.8835 16.406 57.3593 15.882C56.8353 15.3579 55.9845 15.3579 55.4605 15.882L54.07 17.2722ZM25.5096 19.1712L24.1193 20.5617C23.5951 21.0857 23.5951 21.9365 24.1193 22.4605C24.6433 22.9847 25.4941 22.9847 26.0181 22.4605L27.4086 21.0702L28.7988 22.4605C29.3228 22.9847 30.1738 22.9847 30.6978 22.4605C31.2218 21.9365 31.2218 21.0857 30.6978 20.5617L29.3076 19.1712L30.6978 17.781C31.2218 17.257 31.2218 16.406 30.6978 15.882C30.1738 15.3579 29.3228 15.3579 28.7988 15.882L27.4086 17.2722L26.0181 15.882C25.4941 15.3579 24.6433 15.3579 24.1193 15.882C23.5951 16.406 23.5951 17.257 24.1193 17.781L25.5096 19.1712Z" fill="#9A81E0"/>
</svg>
