<svg width="99" height="99" viewBox="0 0 99 99" fill="none" xmlns="http://www.w3.org/2000/svg">
<g clip-path="url(#clip0_1539_1784)">
<mask id="mask0_1539_1784" style="mask-type:luminance" maskUnits="userSpaceOnUse" x="0" y="0" width="99" height="99">
<path d="M98.9863 0H0V99H98.9863V0Z" fill="white"/>
</mask>
<g mask="url(#mask0_1539_1784)">
<path d="M11.7185 59.2909C16.0459 59.2909 19.5691 62.8224 19.5691 67.1612C19.5691 71.5001 16.0487 75.0371 11.7185 75.0371C7.38834 75.0371 3.86787 71.5056 3.86787 67.164C3.86787 62.8224 7.39108 59.2936 11.7185 59.2936V59.2909ZM43.0581 10.119C43.4028 9.9378 43.6845 9.65221 43.8678 9.3062L45.5501 6.09874L47.2378 9.3062C47.4211 9.65221 47.7028 9.93506 48.0475 10.1163L51.2397 11.8052L48.0448 13.4968C47.7001 13.678 47.4184 13.9609 47.2378 14.3069L45.5501 17.5143L43.8678 14.3069C43.6872 13.9609 43.4055 13.678 43.0581 13.494L39.8631 11.8024L43.0554 10.1136L43.0581 10.119ZM72.7729 75.0343C72.5103 74.216 72.0972 73.4498 71.5392 72.7688L68.5932 69.1686L65.1438 59.0877C67.458 56.4102 70.7541 54.8916 74.3266 54.8916C75.3934 54.8916 76.2605 54.0239 76.2605 52.9501V35.8364C76.2605 34.7654 75.3961 33.8949 74.3266 33.8949C67.6139 33.8949 62.1513 28.4136 62.1513 21.6747C62.1513 20.6037 61.2841 19.7332 60.2173 19.7332H48.7587L50.3808 16.6493L55.868 13.7439H80.8095C81.5809 13.7439 82.2292 14.3975 82.2292 15.1746V73.6091C82.2292 74.3808 81.5782 75.0343 80.8095 75.0343H72.7729ZM69.2223 77.4784C69.143 78.2967 68.7518 79.0327 68.1254 79.5517L60.1736 86.1066C58.8715 87.1804 56.9403 86.9909 55.868 85.681L53.9286 83.3111L66.61 72.8622L68.5521 75.2348C69.0664 75.8637 69.3044 76.66 69.225 77.4784H69.2223ZM53.9669 68.6359C53.9888 68.6167 54.0107 68.6002 54.0326 68.581L62.0419 61.9821L64.6104 69.4844L51.0154 80.6858L44.1769 76.7012L53.9669 68.6359ZM23.2783 69.0506H47.3664L40.1039 75.0343H20.4062C21.886 73.3922 22.9091 71.3298 23.2783 69.0506ZM61.5659 57.3494L52.0768 65.1676H23.4315V23.6189H58.3983C59.2791 30.9483 65.0864 36.7783 72.3899 37.6625V51.1295C68.1309 51.654 64.1974 53.8948 61.5659 57.3521V57.3494ZM35.2403 13.7467L40.7275 16.652L42.3469 19.7359H23.4343V13.7467H35.2403ZM35.2567 86.9222L32.0125 88.6358C31.6679 88.8171 31.3834 89.1027 31.2028 89.4487L29.4932 92.7055L27.7836 89.4487C27.6003 89.1027 27.3185 88.8171 26.9739 88.6358L23.7297 86.9222L26.9739 85.2087C27.3185 85.0274 27.603 84.7418 27.7836 84.3958L29.4932 81.1389L31.2028 84.3958C31.3861 84.7418 31.6679 85.0274 32.0125 85.2087L35.2567 86.9222ZM0 67.1612C0 73.6448 5.25746 78.9173 11.7185 78.9173H26.29L24.6433 82.0561L18.6801 85.2087C18.0455 85.5437 17.6461 86.2055 17.6461 86.9277C17.6461 87.65 18.0428 88.309 18.6801 88.6468L24.6433 91.7993L27.7836 97.7831C28.1173 98.4202 28.7765 98.8184 29.4932 98.8184C30.2099 98.8184 30.8691 98.4202 31.2028 97.7831L34.3431 91.7993L40.3063 88.6468C40.9409 88.3118 41.3403 87.65 41.3403 86.9277C41.3403 86.2055 40.9436 85.5464 40.3063 85.2087L34.3431 82.0589L32.6964 78.9201H40.2789L49.9349 84.5469L52.881 88.147C54.2487 89.8194 56.2373 90.6844 58.2396 90.6844C59.7851 90.6844 61.3416 90.1681 62.6272 89.1081L65.111 87.0595L74.3102 98.2939C74.6931 98.7607 75.2457 99.0024 75.8037 99.0024C76.2359 99.0024 76.6708 98.8568 77.0319 98.5602C77.858 97.8792 77.9756 96.6572 77.2972 95.8279L68.1008 84.5963L70.5791 82.5532C71.7252 81.6085 72.524 80.3426 72.885 78.9201H97.0633C98.1301 78.9201 98.9973 78.0496 98.9973 76.9786C98.9973 75.9076 98.1329 75.0371 97.0633 75.0371H85.9001C86.0259 74.584 86.0943 74.1061 86.0943 73.6118V68.0565H97.0633C98.1301 68.0565 98.9973 67.1887 98.9973 66.115C98.9973 65.0412 98.1329 64.1735 97.0633 64.1735H86.0943V57.1956H97.0633C98.1301 57.1956 98.9973 56.3278 98.9973 55.2541C98.9973 54.1804 98.1329 53.3126 97.0633 53.3126H86.0943V46.3347H97.0633C98.1301 46.3347 98.9973 45.4642 98.9973 44.3932C98.9973 43.3223 98.1329 42.4517 97.0633 42.4517H86.0943V35.4739H97.0633C98.1301 35.4739 98.9973 34.6034 98.9973 33.5324C98.9973 32.4614 98.1329 31.5909 97.0633 31.5909H86.0943V24.613H97.0633C98.1301 24.613 98.9973 23.7425 98.9973 22.6715C98.9973 21.6005 98.1329 20.73 97.0633 20.73H86.0943V15.1746C86.0943 14.6803 86.0259 14.1998 85.8974 13.7439H97.0633C98.1301 13.7439 98.9973 12.8734 98.9973 11.8024C98.9973 10.7314 98.1329 9.86091 97.0633 9.86091H55.8653L50.3781 6.96102L47.2597 1.02942C46.926 0.392327 46.2667 -0.00585938 45.5501 -0.00585938C44.8334 -0.00585938 44.1742 0.392327 43.8404 1.02942L40.7275 6.95827L35.2403 9.85817H23.1197C21.8997 4.679 17.2522 0.806989 11.7185 0.806989C5.25746 0.806989 0 6.08227 0 12.5658V26.1536C0 27.2246 0.867125 28.0951 1.93394 28.0951C3.00075 28.0951 3.86787 27.2246 3.86787 26.1536V12.5658C3.86787 8.22423 7.38834 4.68999 11.7185 4.68999C16.0487 4.68999 19.2409 7.90568 19.5445 11.9727C19.5445 11.9864 19.5445 12.0001 19.5472 12.0139C19.5609 12.1951 19.5691 12.3791 19.5691 12.5631V58.4423C17.4902 56.5558 14.7357 55.4079 11.7185 55.4079C8.70134 55.4079 5.94678 56.5585 3.86787 58.4423V43.5776C3.86787 42.5067 3.00075 41.6361 1.93394 41.6361C0.867125 41.6361 0 42.5067 0 43.5776V67.1585L0 67.1612Z" fill="#9A81E0"/>
</g>
<path d="M1.93394 36.8145C3.00075 36.8145 3.86787 35.9439 3.86787 34.8702C3.86787 33.7965 3.00075 32.9287 1.93394 32.9287C0.867125 32.9287 0 33.7965 0 34.8702V34.8757C0 35.9467 0.867125 36.8145 1.93394 36.8145Z" fill="#9A81E0"/>
</g>
<defs>
<clipPath id="clip0_1539_1784">
<rect width="99" height="99" fill="white"/>
</clipPath>
</defs>
</svg>
