<svg width="106" height="106" viewBox="0 0 106 106" fill="none" xmlns="http://www.w3.org/2000/svg">
<path d="M86.4963 23.9559C80.5603 16.9599 66.7803 13.5679 52.7883 13.5679V11.6599C52.7883 11.4479 52.7883 11.2359 53.0003 11.2359C55.5443 8.05588 55.9683 5.08788 54.0603 3.17988C51.9403 1.05988 48.3363 0.847884 46.2163 5.51188C46.2163 5.72388 45.7923 5.93588 45.7923 5.93588C45.1563 5.93588 44.7323 6.35988 44.7323 6.99588C44.7323 7.63188 45.1563 8.05588 45.7923 8.05588C47.0643 8.05588 47.9123 6.99588 48.1243 6.57188C49.3963 3.60388 51.0923 3.17988 52.5763 4.66388C54.0603 6.14788 51.9403 9.11588 51.3043 9.96388C50.8803 10.3879 50.6683 11.2359 50.6683 11.8719V13.7799C37.7363 14.2039 25.0163 17.5959 19.2923 24.1679C9.11629 36.0399 16.3243 85.8599 18.8683 100.488C19.2923 102.82 20.9883 104.516 23.1083 104.516H83.3163C85.4363 104.516 87.1323 102.82 87.5563 100.488C89.6763 85.8599 96.8843 36.0399 86.4963 23.9559ZM83.1043 99.6399C83.1043 99.8519 82.8923 100.064 82.8923 100.276H22.8963C22.8963 100.276 22.8963 100.064 22.6843 99.6399C16.5363 62.3279 16.5363 33.4959 22.4723 26.4999C27.3483 21.1999 39.2203 17.5959 53.0003 17.5959C66.7803 17.5959 78.6523 21.1999 83.3163 26.4999C89.4643 33.7079 89.2523 62.3279 83.1043 99.6399Z" fill="#9A81E0"/>
<path d="M41.764 24.8045C41.128 25.0165 34.132 27.3485 33.708 27.9845C32.86 28.8325 30.74 32.2245 29.892 40.4925C28.408 58.7245 29.468 76.5324 29.68 78.6524C29.68 78.8644 29.892 78.8644 29.892 78.8644H35.616C35.828 78.8644 35.828 78.6524 35.828 78.6524C36.04 62.3284 35.828 52.5765 37.524 48.7605C37.948 54.4845 38.16 58.7244 35.616 93.0685C35.616 93.4925 35.828 93.9165 36.252 94.1284C37.736 94.7645 41.552 96.4604 50.456 97.3084V42.1885C50.456 41.9765 50.456 41.7645 50.668 41.5525L51.728 40.0685C40.068 25.4405 41.34 27.9845 41.764 24.8045ZM62.328 26.5005L61.9041 23.7445L59.7841 20.9885C59.5721 20.7765 59.36 20.5645 59.148 20.5645H46.852C46.64 20.5645 46.216 20.7765 46.216 20.9885L44.096 23.7445L43.672 26.5005L53.4241 38.3725L62.328 26.5005ZM58.936 24.8045C58.936 24.8045 54.9081 34.1325 53.4241 35.4045C51.9401 34.1325 47.7 24.8045 47.7 24.8045C51.516 23.9565 55.12 23.9565 58.936 24.8045ZM72.292 27.9845C71.868 27.5605 64.872 25.2285 64.236 25.0165L64.448 26.7125C64.448 26.9245 64.448 27.3485 64.236 27.5605L54.272 40.7045C54.272 40.7045 54.272 40.7045 54.06 40.9165L52.576 42.8245V97.5204C63.388 96.6724 67.84 94.7645 69.3241 94.1284C69.7481 93.9165 69.96 93.4925 69.96 93.0685C69.536 75.8965 67.628 61.4804 68.264 48.7605C69.3241 51.7285 69.536 58.9364 69.536 58.9364L69.7481 78.6524C69.7481 78.8644 69.96 78.8644 69.96 78.8644H75.6841C75.896 78.8644 75.896 78.8644 75.896 78.6524C76.32 76.1084 76.532 61.0564 76.532 61.0564C76.744 54.9084 75.6841 40.4925 75.6841 40.4925C75.2601 32.2245 73.14 28.8325 72.292 27.9845ZM55.5441 64.6604C54.9081 64.6604 54.272 64.0245 54.272 63.3885C54.272 62.7525 54.9081 62.1164 55.5441 62.1164C56.18 62.1164 56.816 62.7525 56.816 63.3885C56.604 64.0245 56.18 64.6604 55.5441 64.6604ZM55.5441 58.5125C54.9081 58.5125 54.272 57.8764 54.272 57.2404C54.272 56.6045 54.9081 55.9685 55.5441 55.9685C56.18 55.9685 56.816 56.3924 56.816 57.2404C56.604 58.0885 56.18 58.5125 55.5441 58.5125ZM55.5441 52.5765C54.9081 52.5765 54.272 51.9405 54.272 51.3045C54.272 50.6685 54.9081 50.0325 55.5441 50.0325C56.18 50.0325 56.816 50.6685 56.816 51.3045C56.604 52.1525 56.18 52.5765 55.5441 52.5765ZM55.5441 46.6405C54.9081 46.6405 54.272 46.2165 54.272 45.3685C54.272 44.5205 54.9081 44.0965 55.5441 44.0965C56.18 44.0965 56.816 44.7325 56.816 45.3685C56.816 46.0045 56.18 46.6405 55.5441 46.6405Z" fill="#9A81E0"/>
</svg>
