<svg width="123" height="116" viewBox="0 0 123 116" fill="none" xmlns="http://www.w3.org/2000/svg">
<g clip-path="url(#clip0_1539_1853)">
<path fill-rule="evenodd" clip-rule="evenodd" d="M100.005 77.8643C97.4173 90.7375 90.8594 102.575 81.1578 111.773H86.8222C91.3979 109.45 96.288 101.678 97.4057 97.0863C97.2951 100.592 92.6524 113.123 87.5295 115.997H95.2634C96.2356 115.997 97.071 115.536 97.5687 114.724C100.145 110.514 102.744 101.319 102.392 99.6044C103.204 102.12 103.722 108.078 102.124 111.77H107.317V77.754C104.982 77.9435 102.511 77.9859 100.229 77.8728L100.008 77.8615L100.005 77.8643ZM22.9979 77.8643C25.5856 90.7375 32.1435 102.575 41.8451 111.773H36.1808C31.605 109.45 26.715 101.678 25.5972 97.0863C25.7049 100.592 30.3505 113.123 35.4763 115.997H27.7425C26.7703 115.997 25.9349 115.536 25.4371 114.724C22.8611 110.514 20.2618 101.319 20.614 99.6044C19.8019 102.12 19.2838 108.078 20.8818 111.77H15.689V77.754C18.0234 77.9435 20.4947 77.9859 22.7767 77.8728L22.9979 77.8615V77.8643ZM96.0405 10.3127H100.235C94.0263 20.8432 91.523 33.0572 93.1094 45.0985C88.5541 33.674 89.6369 20.8574 96.0405 10.3127ZM78.3489 10.3127H84.415C80.3574 25.0617 82.4822 40.7782 90.3296 54.0079C79.3561 42.1504 74.9055 25.8991 78.346 10.3127H78.3489ZM38.585 10.3127H44.6511C48.0945 25.8991 43.641 42.1504 32.6675 54.0079C40.5178 40.7782 42.6426 25.0617 38.5821 10.3127H38.585ZM22.768 10.3127H26.9624C33.366 20.8574 34.4488 33.674 29.8935 45.0985C31.4799 33.0572 28.9766 20.8432 22.768 10.3127ZM5.31796 10.3127H15.689V69.6311C12.9645 69.8971 10.7465 70.7317 10.3623 72.2369C10.0159 73.5893 10.86 74.5484 12.4377 75.168C13.4535 75.5669 14.8914 75.8499 16.4604 76.0111C17.9652 76.1639 19.6185 76.2092 21.1263 76.1356C21.6182 76.113 22.1014 76.0705 22.5613 76.0111L22.6515 76.0026C25.2538 75.6575 27.2185 74.7549 27.3117 73.1875C27.3844 71.9596 26.5025 71.0797 25.0296 70.5139C24.5901 70.3441 24.0807 70.1941 23.5248 70.0697C45.664 58.0877 59.0622 35.0037 58.0813 10.307H64.9158C63.9349 35.0037 77.3331 58.0877 99.4723 70.0697C98.9164 70.1941 98.407 70.3441 97.9675 70.5139C96.4975 71.0797 95.6127 71.9568 95.6854 73.1875C95.7786 74.7521 97.7462 75.6546 100.348 75.9998L100.439 76.0083C100.902 76.0677 101.382 76.1101 101.874 76.1328C103.379 76.2063 105.032 76.1611 106.54 76.0083C108.109 75.8442 109.549 75.5613 110.562 75.1652C112.143 74.5456 112.984 73.5864 112.638 72.234C112.253 70.7317 110.035 69.8971 107.311 69.6283V10.3127H117.694C120.622 10.3127 122.997 8.004 122.997 5.15776C122.997 2.31151 120.625 0 117.697 0C114.768 0 112.393 2.30868 112.393 5.15493C112.393 5.21717 112.393 5.27941 112.396 5.33883H10.6039C10.6039 5.27659 10.6068 5.21434 10.6068 5.15493C10.6097 2.30868 8.23454 0 5.30341 0C2.37227 0 0 2.30868 0 5.15493C0 8.00117 2.37518 10.3099 5.30341 10.3099H5.31505L5.31796 10.3127Z" fill="#9A81E0"/>
</g>
<defs>
<clipPath id="clip0_1539_1853">
<rect width="123" height="116" fill="white"/>
</clipPath>
</defs>
</svg>
