<svg width="78" height="96" viewBox="0 0 78 96" fill="none" xmlns="http://www.w3.org/2000/svg">
<g clip-path="url(#clip0_1539_1860)">
<path d="M77.5708 96C77.3346 96 77.1437 95.8082 77.1437 95.571V27.8658C76.4779 27.1013 73.2645 23.0436 71.2923 14.2193C70.2446 9.53086 68.692 6.18989 64.1973 4.03995C59.6021 1.83955 51.8312 0.857954 39.0004 0.857954C26.1696 0.857954 18.3987 1.83955 13.8035 4.03995C9.30886 6.19241 7.7562 9.53086 6.70853 14.2193C4.73629 23.0462 1.52042 27.1013 0.857146 27.8658V95.5736C0.857146 95.8108 0.666204 96.0025 0.430038 96.0025C0.193872 96.0025 0.00292969 95.8108 0.00292969 95.5736V27.6993C0.00292969 27.5883 0.0456405 27.4848 0.121013 27.4041C0.156186 27.3662 3.77404 23.4423 5.87692 14.0275C6.97987 9.08674 8.63052 5.56408 13.4367 3.26275C18.1525 1.00683 26.0364 0 39.0004 0C51.9644 0 59.8458 1.00683 64.5641 3.26527C69.3703 5.56661 71.021 9.08927 72.1264 14.0301C74.2293 23.4423 77.8472 27.3687 77.8823 27.4066C77.9577 27.4873 77.9979 27.5908 77.9979 27.7018V95.5736C77.9979 95.8108 77.807 96.0025 77.5708 96.0025V96Z" fill="#9A81E0"/>
<path d="M26.9032 63.148H0.430038C0.193872 63.148 0.00292969 62.9562 0.00292969 62.719C0.00292969 62.4818 0.193872 62.29 0.430038 62.29H26.9032C27.1394 62.29 27.3303 62.4818 27.3303 62.719C27.3303 62.9562 27.1394 63.148 26.9032 63.148Z" fill="#9A81E0"/>
<path d="M77.5708 63.148H42.2289C41.9927 63.148 41.8018 62.9562 41.8018 62.719C41.8018 62.4818 41.9927 62.29 42.2289 62.29H77.5708C77.807 62.29 77.9979 62.4818 77.9979 62.719C77.9979 62.9562 77.807 63.148 77.5708 63.148Z" fill="#9A81E0"/>
<path d="M0.427537 46.367C0.236595 46.367 0.0607267 46.2358 0.0129911 46.039C-0.0422817 45.8094 0.0984127 45.5772 0.327041 45.5217C18.7053 41.025 39.0683 39.8895 59.2202 42.2413C59.4539 42.269 59.6222 42.481 59.5946 42.7157C59.5669 42.9503 59.3559 43.1169 59.1223 43.0917C39.0708 40.755 18.8108 41.883 0.530546 46.3544C0.495372 46.362 0.462711 46.367 0.43005 46.367H0.427537Z" fill="#9A81E0"/>
<path d="M4.13086 59.002V48.8958C14.9593 46.4961 26.9485 45.2344 39.0005 45.2344C51.0525 45.2344 63.0416 46.4961 73.8701 48.8958V59.002H4.13086Z" fill="#9A81E0"/>
<path d="M66.6971 12.9147V39.0773C58.0218 37.6465 48.7008 36.8643 39.0004 36.8643C29.3 36.8643 19.9765 37.6465 11.3037 39.0773V12.9147C13.5448 6.45232 18.8108 3.71191 39.0004 3.71191C59.1901 3.71191 64.4561 6.45484 66.6971 12.9147Z" fill="#9A81E0"/>
<path d="M77.5756 46.3671C77.543 46.3671 77.5078 46.3621 77.4752 46.3545C75.0381 45.7565 72.5031 45.2114 69.9405 44.7295C69.7395 44.6916 69.5938 44.515 69.5938 44.3081V26.344C69.5938 26.1068 69.7847 25.915 70.0209 25.915C70.257 25.915 70.448 26.1068 70.448 26.344V43.9548C72.9051 44.4216 75.3371 44.949 77.6787 45.5243C77.9073 45.5798 78.048 45.812 77.9927 46.0416C77.945 46.2385 77.7716 46.3671 77.5782 46.3671H77.5756Z" fill="#9A81E0"/>
<path d="M7.9818 44.737C7.74563 44.737 7.55469 44.5453 7.55469 44.3081V26.344C7.55469 26.1068 7.74563 25.915 7.9818 25.915C8.21796 25.915 8.4089 26.1068 8.4089 26.344V44.3081C8.4089 44.5453 8.21796 44.737 7.9818 44.737Z" fill="#9A81E0"/>
<path d="M13.6654 77.8947C13.4292 77.8947 13.2383 77.7029 13.2383 77.4657V62.719C13.2383 62.4818 13.4292 62.29 13.6654 62.29C13.9016 62.29 14.0925 62.4818 14.0925 62.719V77.4657C14.0925 77.7029 13.9016 77.8947 13.6654 77.8947Z" fill="#9A81E0"/>
<path d="M64.3353 77.8947C64.0991 77.8947 63.9082 77.7029 63.9082 77.4657V62.719C63.9082 62.4818 64.0991 62.29 64.3353 62.29C64.5715 62.29 64.7624 62.4818 64.7624 62.719V77.4657C64.7624 77.7029 64.5715 77.8947 64.3353 77.8947Z" fill="#9A81E0"/>
</g>
<defs>
<clipPath id="clip0_1539_1860">
<rect width="78" height="96" fill="white"/>
</clipPath>
</defs>
</svg>
