<svg width="135" height="93" viewBox="0 0 135 93" fill="none" xmlns="http://www.w3.org/2000/svg">
<g clip-path="url(#clip0_1539_1809)">
<path fill-rule="evenodd" clip-rule="evenodd" d="M11.0186 92.9996H116.191L123.724 84.7113H104.362C103.353 84.7113 102.533 83.7654 102.533 82.5981C102.533 81.4308 103.353 80.4849 104.362 80.4849H127.562L135 72.301L128.878 25.2695C128.878 25.2695 47.1107 25.7061 16.9487 80.4849H77.7867C78.7961 80.4849 79.6163 81.4308 79.6163 82.5981C79.6163 83.7654 78.7961 84.7113 77.7867 84.7113H14.7407C13.4285 87.356 12.1825 90.1145 11.0186 92.9996ZM121.976 63.6489C124.039 63.6489 125.714 65.3255 125.714 67.3976C125.714 69.4697 124.042 71.1463 121.976 71.1463C119.91 71.1463 118.238 69.4697 118.238 67.3976C118.238 65.3255 119.91 63.6489 121.976 63.6489ZM66.7339 63.2914C76.9193 36.2974 115.992 38.496 115.992 38.496L118.292 54.9809L111.226 63.2914H66.7339Z" fill="#9A81E0"/>
<path fill-rule="evenodd" clip-rule="evenodd" d="M37.5083 18.5068V29.889C37.5083 33.2803 34.7388 36.0578 31.3573 36.0578H22.7428C19.3613 36.0578 16.5918 33.2803 16.5918 29.889V18.5068H37.5083Z" fill="#9A81E0"/>
<path fill-rule="evenodd" clip-rule="evenodd" d="M19.8789 8.67759C19.8789 7.66528 20.699 6.84277 21.7084 6.84277C22.7178 6.84277 23.538 7.66528 23.538 8.67759V23.7041C23.538 24.7164 22.7178 25.5389 21.7084 25.5389C20.699 25.5389 19.8789 24.7164 19.8789 23.7041V8.67759Z" fill="#9A81E0"/>
<path fill-rule="evenodd" clip-rule="evenodd" d="M30.5596 8.67759C30.5596 7.66528 31.3797 6.84277 32.3891 6.84277C33.3985 6.84277 34.2186 7.66528 34.2186 8.67759V23.7041C34.2186 24.7164 33.3985 25.5389 32.3891 25.5389C31.3797 25.5389 30.5596 24.7164 30.5596 23.7041V8.67759Z" fill="#9A81E0"/>
<path fill-rule="evenodd" clip-rule="evenodd" d="M28.8812 28.085V39.9006C28.8812 50.03 23.9037 51.4409 13.0369 54.5222C11.7657 54.8828 10.4188 55.2656 9.48513 55.5376C6.71876 56.3475 4.88924 58.0178 4.09434 59.8779C3.71267 60.7732 3.57072 61.7096 3.69059 62.6017C3.80414 63.4717 4.1732 64.3131 4.80092 65.0439C6.13205 66.5908 8.62084 67.6822 12.4092 67.6981L21.2698 67.7297C20.3456 68.9128 19.4403 70.1276 18.5539 71.3772L12.4092 71.355C7.42849 71.3361 4.00918 69.7259 2.04401 67.4418C0.930527 66.148 0.283885 64.6453 0.0756977 63.0762C-0.129335 61.5324 0.0977781 59.9412 0.734957 58.448C1.9273 55.6515 4.5675 53.1745 8.46943 52.0293C10.0498 51.5643 11.0812 51.2733 12.0496 50.9981C21.0837 48.4388 25.219 47.2651 25.219 39.9037V28.0881H28.8812V28.085Z" fill="#9A81E0"/>
<path fill-rule="evenodd" clip-rule="evenodd" d="M21.7086 3.78352C22.7464 3.78352 23.5949 2.93255 23.5949 1.89176C23.5949 0.850976 22.7464 0 21.7086 0C20.6708 0 19.8223 0.850976 19.8223 1.89176C19.8223 2.93255 20.6708 3.78352 21.7086 3.78352Z" fill="#9A81E0"/>
<path fill-rule="evenodd" clip-rule="evenodd" d="M32.3922 3.78352C33.4299 3.78352 34.2785 2.93255 34.2785 1.89176C34.2785 0.850976 33.4299 0 32.3922 0C31.3544 0 30.5059 0.850976 30.5059 1.89176C30.5059 2.93255 31.3544 3.78352 32.3922 3.78352Z" fill="#9A81E0"/>
</g>
<defs>
<clipPath id="clip0_1539_1809">
<rect width="135" height="93" fill="white"/>
</clipPath>
</defs>
</svg>
