<svg width="104" height="114" viewBox="0 0 104 114" fill="none" xmlns="http://www.w3.org/2000/svg">
<g clip-path="url(#clip0_1539_1772)">
<path d="M66.6392 78.8274L98.2903 64.4082L63.6558 86.0385L66.6392 78.8274Z" fill="#9A81E0"/>
<path d="M63.1763 93.3857C66.1685 88.5823 69.0408 82.4249 71.4393 74.5339C71.5592 74.1454 71.6616 73.748 71.7581 73.3536C72.2115 71.5141 74.8089 63.676 87.3306 55.9646C101.642 47.1553 97.2638 36.4799 94.5699 33.7691C94.5319 33.7309 94.491 33.6867 94.45 33.6426C94.3564 33.8427 94.2628 34.0429 94.1663 34.243C89.9573 42.9817 82.1739 48.1648 76.6399 55.7762C76.4966 55.9734 76.3503 56.1706 76.207 56.3678C68.333 67.2904 66.3645 81.2623 57.1626 91.4049C48.7299 100.703 36.9833 106.872 24.5785 108.494C16.4822 109.553 8.17821 108.732 0.312988 106.439C0.725408 107.814 1.65262 108.997 2.93376 109.715C9.38622 113.327 17.0906 114.327 24.3679 113.915C28.6822 113.671 32.9614 112.915 37.1383 111.814C40.3938 110.954 43.6785 110.124 46.7819 108.794C51.7397 106.672 56.3377 103.814 60.9358 101.012C65.6216 98.1568 70.4302 95.5137 75.1423 92.7029C83.5253 87.6993 92.0311 82.6427 99.7471 76.6266C100.581 75.9761 101.403 75.3109 102.195 74.6133C102.731 74.1424 103.374 73.2065 103.994 72.8945L63.1704 93.3857H63.1763Z" fill="#9A81E0"/>
<path d="M6.83564 101.938C7.57273 102.088 8.31275 102.224 9.05276 102.347C9.38328 102.4 9.71673 102.453 10.0502 102.503C10.0502 102.503 10.3368 102.545 10.4772 102.562C10.5503 102.571 10.6235 102.58 10.6498 102.583C12.6066 102.824 14.5751 102.968 16.5436 103.007C17.2339 98.9479 18.8572 95.5837 20.2729 93.2732C21.1797 91.7928 22.2707 90.4565 23.5226 89.2968C31.1275 82.2535 34.1402 74.4302 35.12 71.2191C34.4268 70.8364 33.4206 70.3832 32.1102 70.03C29.7937 69.406 26.0585 68.988 21.0188 70.3037C19.7669 73.7945 17.0759 76.7024 14.2563 79.2307C12.0918 81.1733 9.50321 83.1748 7.13399 85.3852C3.28473 88.979 0 93.1261 0 98.4593L0.0204747 100.143C0.851164 100.414 1.6877 100.667 2.53302 100.899C3.95455 101.297 5.39071 101.641 6.83564 101.935V101.938Z" fill="#9A81E0"/>
<path d="M21.7208 67.0044C30.0569 65.2296 35.2546 67.6696 37.2845 68.9588C37.302 68.9529 37.3196 68.95 37.3371 68.9441C42.8595 67.5313 44.0997 61.836 46.1559 52.4027C46.7585 49.633 47.4429 46.4925 48.3204 43.1195C49.0838 40.1968 49.6308 37.5008 50.1163 35.1226C51.377 28.9416 52.2896 24.4766 55.6562 22.2662C62.0502 18.072 70.2605 25.1418 76.5404 20.1323C77.8099 19.1198 78.7049 17.8042 79.3367 16.462C80.7202 13.5246 80.7875 10.131 79.6292 7.09644C76.8212 -0.264758 67.6047 -3.19334 63.5594 4.66233C62.4977 6.72264 60.1051 11.2347 58.5695 13.0566L63.0944 14.7137C63.0944 14.7137 67.8387 2.71975 72.972 7.57031C74.3262 8.85065 75.6746 10.652 75.5342 12.6299C75.3968 14.5636 73.7588 15.7851 72.0769 16.4032C66.3031 18.5253 59.5844 16.774 54.6851 13.3245C53.2285 12.3002 51.8976 11.0876 50.7803 9.69244C50.1836 8.94484 49.5693 8.10305 48.9375 7.16708C45.0649 1.40704 36.4772 3.77934 35.9712 13.607C35.6611 19.632 34.0875 23.7467 32.9146 26.0278C37.4366 25.2596 40.9934 25.704 43.149 26.4781C43.6521 26.0925 44.2635 25.8453 44.942 25.7952C46.7965 25.6569 48.4111 27.0609 48.5456 28.9269C48.6831 30.793 47.2879 32.4177 45.4334 32.556C43.579 32.6914 41.9674 31.2874 41.8299 29.4243C41.827 29.3655 41.8299 29.3095 41.827 29.2536C41.3005 29.08 40.695 28.9122 40.0076 28.7798C38.3638 28.4648 36.0385 28.3 33.1047 28.8004C32.0166 28.9858 31.1304 29.7834 30.8203 30.8489L30.8145 30.8666L29.0946 36.7738C34.2776 35.6553 38.3433 36.1086 40.7126 36.9562C41.2156 36.5707 41.827 36.3234 42.5056 36.2734C44.36 36.1351 45.9746 37.539 46.1091 39.4051C46.2466 41.2711 44.8514 42.8929 42.9969 43.0312C41.1425 43.1666 39.5309 41.7627 39.3934 39.8996C39.3905 39.8407 39.3934 39.7848 39.3905 39.7288C38.864 39.5552 38.2585 39.3874 37.5711 39.255C35.8337 38.9224 33.3358 38.7575 30.1681 39.3668C28.9805 39.5964 28.0182 40.4794 27.6789 41.6479L26.0263 47.3167C31.3497 46.1158 35.5237 46.5691 37.9397 47.4344C38.4428 47.0488 39.0541 46.8016 39.7327 46.7516C41.5871 46.6132 43.2017 48.0172 43.3362 49.8832C43.4737 51.7493 42.0785 53.371 40.2241 53.5094C38.3697 53.6448 36.758 52.2408 36.6205 50.3777C36.6176 50.3188 36.6205 50.2629 36.6176 50.207C36.0911 50.0333 35.4856 49.8656 34.7983 49.7331C33.1047 49.4064 30.6858 49.2445 27.6263 49.8008C26.1199 50.0775 24.9031 51.193 24.4702 52.6705L22.9551 57.8625C28.4189 56.5763 32.704 57.0296 35.1639 57.9126C35.667 57.527 36.2812 57.2798 36.9569 57.2297C38.8113 57.0914 40.4259 58.4953 40.5605 60.3614C40.6979 62.2274 39.3027 63.8492 37.4483 63.9875C35.5939 64.1229 33.9793 62.719 33.8418 60.8559C33.8389 60.797 33.8418 60.7411 33.8389 60.6852C33.3124 60.5115 32.7069 60.3437 32.0196 60.2113C30.3114 59.8816 27.872 59.7168 24.7774 60.2937C23.0341 60.6175 21.7442 62.1333 21.7032 63.914C21.6915 64.3908 21.7032 64.8676 21.7325 65.3444C21.7705 65.9125 21.7676 66.4687 21.7295 67.0103L21.7208 67.0044Z" fill="#9A81E0"/>
<path d="M78.1142 22.122C75.1629 24.4766 71.2405 25.1418 66.4494 24.097C61.8631 23.0962 58.8708 23.1934 57.0369 24.3942C54.5507 26.0248 53.7288 30.0542 52.5939 35.6318C52.1025 38.0394 51.5438 40.7708 50.7658 43.7612C49.9 47.0812 49.2214 50.1952 48.6247 52.9413C47.5366 57.942 46.6738 61.8919 45.2259 64.9853C43.5733 68.5173 41.2655 70.557 37.9574 71.4017C37.7877 71.4429 37.6502 71.5871 37.5947 71.7755C36.609 75.075 33.4383 83.5693 25.2367 91.166C24.1545 92.1667 23.2097 93.3234 22.4258 94.6038C21.1885 96.6229 19.7787 99.522 19.1147 102.995C19.3517 102.989 19.5886 102.983 19.8226 102.975C20.6153 102.942 21.405 102.892 22.1947 102.824C22.5925 102.789 22.9903 102.751 23.3852 102.707C23.6075 102.683 23.8269 102.657 24.0492 102.63C24.0784 102.627 24.134 102.621 24.1896 102.612C25.7076 102.398 27.214 102.115 28.7086 101.759C30.2735 101.385 31.8208 100.935 33.3418 100.408C34.1842 100.114 35.009 99.784 35.8397 99.4602C35.8719 99.4484 35.8982 99.4396 35.9157 99.4308C35.9538 99.4131 35.9976 99.3925 36.0503 99.3719C36.2258 99.2954 36.3984 99.2189 36.5709 99.1394C36.9219 98.9804 37.2671 98.8186 37.6122 98.6537C40.818 97.1115 43.8424 95.1924 46.6796 93.0438C46.7732 92.9732 46.8639 92.9055 46.9545 92.8348C46.9692 92.826 46.9838 92.8142 47.0014 92.7995C47.1505 92.6818 47.2968 92.564 47.4459 92.4434C47.7706 92.1814 48.0953 91.9136 48.4141 91.6457C48.9932 91.1542 49.5636 90.6538 50.1194 90.1358C51.1782 89.1587 52.1932 88.1344 53.1584 87.063C53.6381 86.5303 54.1061 85.9858 54.5565 85.4295C54.7379 85.2087 54.9104 84.9821 55.0889 84.7614C55.1708 84.6525 55.2527 84.5436 55.3316 84.4347C56.0015 83.5281 56.6303 82.5921 57.2182 81.6297C57.7447 80.7673 58.2332 79.8814 58.6837 78.9778C58.8825 78.5775 59.0727 78.1713 59.2569 77.7622C59.2716 77.7269 59.2891 77.6857 59.3067 77.6415C59.3008 77.6592 59.292 77.6798 59.2862 77.7033C59.3388 77.562 59.4061 77.4208 59.4617 77.2795C60.6258 74.3303 61.6115 71.3311 62.9073 68.429C64.4956 64.8764 66.3032 61.3562 68.1956 57.9567C69.936 54.8309 72.0478 51.8994 74.4053 49.2151C76.8126 46.4778 79.5796 44.0908 82.019 41.38C82.5718 40.7678 83.1129 40.1438 83.6424 39.5081C83.8676 39.2402 84.087 38.9724 84.3063 38.6987C84.4116 38.5662 84.5199 38.4338 84.6252 38.3013C84.6252 38.3013 84.7539 38.1365 84.8445 38.0188C84.9206 37.9158 85.0405 37.7598 85.0639 37.7303C85.1809 37.5714 85.3008 37.4125 85.4149 37.2506C85.6196 36.971 85.8215 36.6884 86.0204 36.4058C86.3538 35.9261 86.6814 35.4404 86.9944 34.946C87.6262 33.9541 88.2199 32.9357 88.7552 31.8849C88.9921 31.4199 89.2203 30.949 89.4309 30.4692C89.4601 30.4045 89.4894 30.3397 89.5157 30.2749C89.5888 30.0807 89.6678 29.8894 89.7438 29.6951C89.7438 29.6892 89.7468 29.6833 89.7497 29.6775C90.1475 28.6061 90.0042 27.4082 89.3841 26.4487C86.8949 22.6047 84.163 18.178 82.4548 15.3818C81.7265 17.6747 80.4278 20.2589 78.1025 22.1161L78.1142 22.122ZM59.3242 77.6121C59.3944 77.406 59.4295 77.3148 59.4383 77.2913C59.4295 77.3236 59.3739 77.4767 59.3242 77.6121ZM62.4773 58.7102C59.3388 66.6836 54.852 76.4642 54.852 76.4642L50.3651 71.0485C50.3651 71.0485 54.9982 62.0214 59.0376 51.9406C63.074 41.8598 69.8044 38.8488 69.8044 38.8488L72.9428 44.7177C72.9428 44.7177 65.6158 50.7368 62.4773 58.7102Z" fill="#9A81E0"/>
</g>
<defs>
<clipPath id="clip0_1539_1772">
<rect width="104" height="114" fill="white"/>
</clipPath>
</defs>
</svg>
